M48
METRIC,LZ,000.000
;FILE_FORMAT=3:3
;TYPE=PLATED
;Layer: PTH_Through_Via
;EasyEDA v6.5.29, 2023-07-07 16:20:56
;d9f499156d004e84aee0404722c7e58c,63a96235fadc4189ab89c93b90d034ab,10
;Gerber Generator version 0.2
;Holesize 1 = 0.305 mm
T01C0.305
;Holesize 2 = 0.407 mm
T02C0.407
%
G05
G90
T01
X-045100Y081300
X-045300Y080400
X-059100Y077800
X-057000Y076800
X-058200Y077500
X-056300Y075300
X-052200Y084700
X-062700Y071530
X-061800Y076400
X-015350Y082850
X-016483Y081650
X-016483Y078750
X-018944Y071710
X-017195Y074450
X-014250Y086850
X-014350Y083150
X-019550Y074450
X-061667Y070742
X-060800Y075100
X-059800Y075100
X-058800Y075100
X-060800Y074100
X-058800Y074100
X-060800Y073100
X-059800Y073100
X-058800Y073100
X-060300Y078445
X-056600Y072755
X-058077Y070742
X-056600Y073845
X-043155Y070900
X-009017Y088350
X-049400Y087700
X-056400Y087200
X-064100Y079096
X-064300Y088301
X-061187Y087991
X-046200Y082800
X-047550Y082100
X-048700Y080100
X-047900Y077700
X-045800Y077700
X-043600Y077700
X-050100Y077500
X-047300Y080000
X-046200Y079700
X-056235Y080293
X-055528Y081000
X-054821Y081707
X-054114Y082414
X-055528Y079586
X-054821Y080293
X-054114Y081000
X-053407Y081707
X-054821Y078879
X-054114Y079586
X-053407Y080293
X-054114Y078172
X-053407Y078879
X-052700Y079586
X-051993Y080293
X-052700Y081000
X-045155Y082800
X-015750Y084950
X-055100Y073300
X-055100Y071200
X-016105Y074450
X-016150Y072650
X-044245Y070900
X-061500Y077467
X-050500Y084000
X-049900Y084600
X-049200Y084000
X-056700Y083900
X-057100Y083100
X-073600Y077400
X-072800Y078200
X-070900Y083000
X-064100Y080195
X-066700Y082900
X-071900Y082300
X-071000Y078100
X-051900Y083900
X-036900Y074000
X-039100Y074000
X-042500Y074600
X-044700Y076700
X-038300Y076700
X-067400Y081100
X-064100Y075800
X-064100Y077997
X-059500Y079500
X-053045Y088400
X-057300Y088000
X-065300Y076900
X-020250Y071105
X-020250Y072195
X-055800Y074600
X-044300Y073299
X-065601Y081900
X-050198Y087000
X-042885Y085350
X-046085Y085350
X-025000Y072200
X-078500Y072100
X-080500Y087900
X-066500Y087900
X-068500Y087900
X-074500Y086054
X-072500Y086000
X-078500Y087900
X-052000Y087000
X-010149Y075050
X-015450Y075650
X-010450Y073250
X-009000Y073800
X-014200Y076200
X-018151Y082250
X-017500Y083700
X-017000Y087300
X-012500Y085900
X-024201Y079700
X-021400Y076500
X-032000Y076000
X-030700Y077000
X-019600Y076800
X-026300Y076800
X-034900Y080400
X-036100Y081600
X-020400Y086500
X-019355Y087300
X-022700Y087300
X-022600Y083300
X-032830Y088100
X-044045Y089000
X-009401Y086650
X-020453Y088700
X-014250Y087800
X-018947Y088700
X-035370Y088100
X-026000Y087300
X-064798Y072353
X-026100Y072100
X-039200Y086600
X-037000Y086600
T02
X-053700Y070500
X-053700Y071250
X-053700Y072000
X-053700Y072750
X-053700Y073500
X-053000Y073600
X-051600Y073600
X-048650Y073600
X-049400Y073600
X-050150Y073600
X-050900Y073600
X-045600Y070550
X-045600Y071300
X-045600Y072050
X-045600Y072800
X-045600Y073600
X-046400Y073600
X-047150Y073600
X-047900Y073600
M30
