G04 Layer: TopSilkscreenLayer*
G04 EasyEDA v6.5.29, 2023-07-07 16:20:56*
G04 d9f499156d004e84aee0404722c7e58c,63a96235fadc4189ab89c93b90d034ab,10*
G04 Gerber Generator version 0.2*
G04 Scale: 100 percent, Rotated: No, Reflected: No *
G04 Dimensions in millimeters *
G04 leading zeros omitted , absolute positions ,4 integer and 5 decimal *
%FSLAX45Y45*%
%MOMM*%

%ADD10C,0.2032*%
%ADD11C,0.1524*%
%ADD12C,0.2540*%
%ADD13C,0.1500*%
%ADD14C,0.1520*%
%ADD15C,0.2000*%
%ADD16C,0.2030*%
%ADD17C,0.3000*%
%ADD18C,0.2489*%
%ADD19C,0.2500*%
%ADD20C,0.0126*%

%LPD*%
G36*
X-7062673Y7958023D02*
G01*
X-7066534Y7957769D01*
X-7070191Y7957007D01*
X-7073696Y7955788D01*
X-7077049Y7954060D01*
X-7080148Y7951978D01*
X-7082942Y7949590D01*
X-7085380Y7946796D01*
X-7087463Y7943646D01*
X-7089089Y7940243D01*
X-7090257Y7936585D01*
X-7090968Y7932775D01*
X-7091222Y7928762D01*
X-7090968Y7924546D01*
X-7090257Y7920634D01*
X-7089089Y7916925D01*
X-7087463Y7913471D01*
X-7085380Y7910322D01*
X-7082993Y7907578D01*
X-7080250Y7905242D01*
X-7077202Y7903209D01*
X-7073798Y7901584D01*
X-7070242Y7900416D01*
X-7066534Y7899704D01*
X-7062673Y7899450D01*
X-7058152Y7899755D01*
X-7053884Y7900568D01*
X-7049973Y7901990D01*
X-7046315Y7903972D01*
X-7043064Y7906410D01*
X-7040270Y7909407D01*
X-7037933Y7912811D01*
X-7036053Y7916722D01*
X-7045045Y7916722D01*
X-7046366Y7914284D01*
X-7047941Y7912150D01*
X-7049770Y7910322D01*
X-7051852Y7908798D01*
X-7054240Y7907629D01*
X-7056831Y7906715D01*
X-7059625Y7906156D01*
X-7062673Y7905953D01*
X-7065568Y7906156D01*
X-7068312Y7906715D01*
X-7070953Y7907629D01*
X-7073442Y7908798D01*
X-7075678Y7910372D01*
X-7077659Y7912201D01*
X-7079437Y7914335D01*
X-7080961Y7916722D01*
X-7082078Y7919313D01*
X-7082840Y7922209D01*
X-7083348Y7925257D01*
X-7083501Y7928559D01*
X-7083399Y7931962D01*
X-7082891Y7935061D01*
X-7082028Y7937957D01*
X-7080808Y7940598D01*
X-7079335Y7943037D01*
X-7077608Y7945221D01*
X-7075627Y7947101D01*
X-7073442Y7948675D01*
X-7070953Y7949844D01*
X-7068312Y7950657D01*
X-7065568Y7951114D01*
X-7059625Y7951114D01*
X-7056881Y7950606D01*
X-7054342Y7949742D01*
X-7052056Y7948523D01*
X-7049973Y7946999D01*
X-7048093Y7945170D01*
X-7046518Y7943037D01*
X-7045248Y7940598D01*
X-7036257Y7940598D01*
X-7038086Y7944510D01*
X-7040372Y7947964D01*
X-7043115Y7950962D01*
X-7046315Y7953502D01*
X-7049973Y7955483D01*
X-7053884Y7956905D01*
X-7058152Y7957718D01*
G37*
G36*
X-6920382Y7958023D02*
G01*
X-6924344Y7957718D01*
X-6928103Y7957007D01*
X-6931609Y7955838D01*
X-6934962Y7954264D01*
X-6938009Y7952079D01*
X-6940753Y7949641D01*
X-6943140Y7946796D01*
X-6945172Y7943646D01*
X-6946849Y7940243D01*
X-6948017Y7936585D01*
X-6948728Y7932775D01*
X-6948982Y7928762D01*
X-6948728Y7924546D01*
X-6948017Y7920634D01*
X-6946849Y7916925D01*
X-6945172Y7913471D01*
X-6943140Y7910322D01*
X-6940753Y7907578D01*
X-6938009Y7905242D01*
X-6934962Y7903209D01*
X-6931558Y7901584D01*
X-6928002Y7900416D01*
X-6924294Y7899704D01*
X-6920382Y7899450D01*
X-6915861Y7899755D01*
X-6911644Y7900568D01*
X-6907733Y7901990D01*
X-6904075Y7903972D01*
X-6900824Y7906410D01*
X-6898030Y7909356D01*
X-6895795Y7912709D01*
X-6894017Y7916519D01*
X-6902805Y7916722D01*
X-6904126Y7914233D01*
X-6905701Y7912100D01*
X-6907631Y7910220D01*
X-6909816Y7908645D01*
X-6912152Y7907426D01*
X-6914692Y7906613D01*
X-6917436Y7906105D01*
X-6920382Y7905953D01*
X-6923379Y7906105D01*
X-6926173Y7906664D01*
X-6928764Y7907528D01*
X-6931202Y7908798D01*
X-6933488Y7910322D01*
X-6935470Y7912150D01*
X-6937248Y7914284D01*
X-6938721Y7916722D01*
X-6939889Y7919415D01*
X-6940753Y7922310D01*
X-6941261Y7925409D01*
X-6941413Y7928762D01*
X-6941261Y7932064D01*
X-6940702Y7935112D01*
X-6939788Y7937957D01*
X-6938568Y7940598D01*
X-6937095Y7943037D01*
X-6935368Y7945221D01*
X-6933387Y7947101D01*
X-6931202Y7948675D01*
X-6928713Y7949844D01*
X-6926122Y7950708D01*
X-6923430Y7951216D01*
X-6920585Y7951368D01*
X-6917486Y7951216D01*
X-6914642Y7950657D01*
X-6912102Y7949742D01*
X-6909816Y7948523D01*
X-6907682Y7946999D01*
X-6905853Y7945170D01*
X-6904278Y7943037D01*
X-6903008Y7940598D01*
X-6894017Y7940598D01*
X-6895846Y7944510D01*
X-6898182Y7947914D01*
X-6900976Y7950860D01*
X-6904228Y7953349D01*
X-6907834Y7955381D01*
X-6911695Y7956854D01*
X-6915912Y7957718D01*
G37*
G36*
X-7346950Y7957820D02*
G01*
X-7350861Y7957616D01*
X-7354570Y7956905D01*
X-7358125Y7955737D01*
X-7361529Y7954060D01*
X-7364577Y7952079D01*
X-7367371Y7949641D01*
X-7369809Y7946847D01*
X-7371943Y7943646D01*
X-7373569Y7940192D01*
X-7374737Y7936534D01*
X-7375347Y7932674D01*
X-7375550Y7928559D01*
X-7375296Y7924546D01*
X-7374585Y7920685D01*
X-7373416Y7917078D01*
X-7371740Y7913674D01*
X-7369708Y7910525D01*
X-7367270Y7907731D01*
X-7364475Y7905292D01*
X-7361326Y7903209D01*
X-7358075Y7901584D01*
X-7354671Y7900416D01*
X-7351014Y7899704D01*
X-7347153Y7899450D01*
X-7342581Y7899806D01*
X-7338314Y7900670D01*
X-7334402Y7902041D01*
X-7330795Y7903972D01*
X-7327544Y7906410D01*
X-7324750Y7909407D01*
X-7322413Y7912811D01*
X-7320584Y7916722D01*
X-7329525Y7916722D01*
X-7330846Y7914284D01*
X-7332421Y7912150D01*
X-7334250Y7910322D01*
X-7336383Y7908798D01*
X-7338669Y7907578D01*
X-7341158Y7906715D01*
X-7343952Y7906207D01*
X-7349845Y7906207D01*
X-7352639Y7906664D01*
X-7355230Y7907477D01*
X-7357770Y7908645D01*
X-7359954Y7910220D01*
X-7361936Y7912100D01*
X-7363663Y7914233D01*
X-7365136Y7916722D01*
X-7366355Y7919313D01*
X-7367270Y7922209D01*
X-7367828Y7925257D01*
X-7367981Y7928559D01*
X-7367828Y7931861D01*
X-7367320Y7934959D01*
X-7366457Y7937906D01*
X-7365288Y7940598D01*
X-7363815Y7943037D01*
X-7362037Y7945170D01*
X-7360056Y7946999D01*
X-7357770Y7948523D01*
X-7355331Y7949742D01*
X-7352741Y7950657D01*
X-7349947Y7951216D01*
X-7346950Y7951368D01*
X-7344003Y7951216D01*
X-7341209Y7950657D01*
X-7338618Y7949742D01*
X-7336180Y7948523D01*
X-7334148Y7946948D01*
X-7332319Y7945069D01*
X-7330744Y7942986D01*
X-7329373Y7940598D01*
X-7320381Y7940598D01*
X-7322261Y7944510D01*
X-7324547Y7947914D01*
X-7327341Y7950860D01*
X-7330643Y7953349D01*
X-7334250Y7955330D01*
X-7338212Y7956702D01*
X-7342428Y7957566D01*
G37*
G36*
X-7204709Y7957820D02*
G01*
X-7208672Y7957667D01*
X-7212380Y7957007D01*
X-7215936Y7955788D01*
X-7219289Y7954060D01*
X-7222388Y7951978D01*
X-7225182Y7949590D01*
X-7227620Y7946796D01*
X-7229703Y7943646D01*
X-7231329Y7940192D01*
X-7232446Y7936534D01*
X-7233107Y7932674D01*
X-7233259Y7928559D01*
X-7233056Y7924546D01*
X-7232345Y7920685D01*
X-7231176Y7917078D01*
X-7229500Y7913674D01*
X-7227468Y7910525D01*
X-7225131Y7907731D01*
X-7222439Y7905292D01*
X-7219442Y7903209D01*
X-7216038Y7901584D01*
X-7212482Y7900416D01*
X-7208774Y7899704D01*
X-7204913Y7899450D01*
X-7200392Y7899755D01*
X-7196124Y7900568D01*
X-7192213Y7901990D01*
X-7188555Y7903972D01*
X-7185304Y7906410D01*
X-7182510Y7909407D01*
X-7180173Y7912811D01*
X-7178294Y7916722D01*
X-7187285Y7916722D01*
X-7188606Y7914284D01*
X-7190181Y7912150D01*
X-7192009Y7910322D01*
X-7194143Y7908798D01*
X-7196480Y7907629D01*
X-7199071Y7906715D01*
X-7201865Y7906156D01*
X-7204913Y7905953D01*
X-7207808Y7906156D01*
X-7210552Y7906715D01*
X-7213193Y7907629D01*
X-7215682Y7908798D01*
X-7217867Y7910372D01*
X-7219848Y7912150D01*
X-7221575Y7914233D01*
X-7223048Y7916519D01*
X-7224217Y7919212D01*
X-7225080Y7922158D01*
X-7225588Y7925257D01*
X-7225741Y7928559D01*
X-7225588Y7931861D01*
X-7225080Y7934959D01*
X-7224217Y7937906D01*
X-7223048Y7940598D01*
X-7221575Y7943037D01*
X-7219797Y7945170D01*
X-7217765Y7946999D01*
X-7215479Y7948523D01*
X-7213092Y7949742D01*
X-7210450Y7950657D01*
X-7207707Y7951216D01*
X-7204709Y7951368D01*
X-7201763Y7951216D01*
X-7199020Y7950708D01*
X-7196480Y7949844D01*
X-7194143Y7948675D01*
X-7192009Y7947050D01*
X-7190130Y7945120D01*
X-7188504Y7942986D01*
X-7187133Y7940598D01*
X-7178497Y7940598D01*
X-7180275Y7944561D01*
X-7182510Y7948015D01*
X-7185202Y7950911D01*
X-7188403Y7953349D01*
X-7192009Y7955330D01*
X-7195972Y7956702D01*
X-7200188Y7957566D01*
G37*
G36*
X-7408214Y7957312D02*
G01*
X-7408011Y7900009D01*
X-7380731Y7900009D01*
X-7380731Y7906105D01*
X-7400848Y7906105D01*
X-7400848Y7957108D01*
G37*
G36*
X-7288225Y7957312D02*
G01*
X-7288225Y7914894D01*
X-7288733Y7911338D01*
X-7289342Y7909915D01*
X-7290206Y7908645D01*
X-7291425Y7907528D01*
X-7292848Y7906715D01*
X-7294575Y7906156D01*
X-7296505Y7905953D01*
X-7298436Y7906156D01*
X-7300112Y7906715D01*
X-7301585Y7907528D01*
X-7302804Y7908645D01*
X-7303668Y7910068D01*
X-7304328Y7911693D01*
X-7304938Y7915452D01*
X-7312507Y7915452D01*
X-7312152Y7911947D01*
X-7311288Y7908848D01*
X-7309916Y7906105D01*
X-7307986Y7903768D01*
X-7305649Y7901889D01*
X-7302957Y7900568D01*
X-7299909Y7899755D01*
X-7296505Y7899450D01*
X-7293102Y7899755D01*
X-7290053Y7900568D01*
X-7287361Y7901889D01*
X-7285024Y7903768D01*
X-7283145Y7905953D01*
X-7281773Y7908544D01*
X-7280960Y7911541D01*
X-7280706Y7914894D01*
X-7280706Y7957312D01*
G37*
G36*
X-7265974Y7957312D02*
G01*
X-7266127Y7900009D01*
X-7238492Y7900009D01*
X-7238492Y7906105D01*
X-7258608Y7906105D01*
X-7258608Y7957108D01*
G37*
G36*
X-7430312Y7957108D02*
G01*
X-7430566Y7913116D01*
X-7430871Y7911439D01*
X-7431531Y7909966D01*
X-7432446Y7908645D01*
X-7433665Y7907528D01*
X-7435088Y7906715D01*
X-7436713Y7906258D01*
X-7438542Y7906105D01*
X-7440574Y7906258D01*
X-7442352Y7906715D01*
X-7443825Y7907528D01*
X-7445044Y7908645D01*
X-7445908Y7910068D01*
X-7446568Y7911693D01*
X-7447178Y7915452D01*
X-7454544Y7915656D01*
X-7454290Y7912049D01*
X-7453477Y7908899D01*
X-7452106Y7906156D01*
X-7450226Y7903768D01*
X-7447889Y7901889D01*
X-7445197Y7900568D01*
X-7442149Y7899755D01*
X-7438745Y7899450D01*
X-7435342Y7899755D01*
X-7432294Y7900568D01*
X-7429601Y7901889D01*
X-7427264Y7903768D01*
X-7425283Y7906003D01*
X-7423912Y7908645D01*
X-7423150Y7911592D01*
X-7422946Y7914894D01*
X-7422743Y7957108D01*
G37*
G36*
X-7146188Y7957108D02*
G01*
X-7145985Y7914894D01*
X-7146493Y7911338D01*
X-7147102Y7909915D01*
X-7147966Y7908645D01*
X-7149185Y7907528D01*
X-7150658Y7906715D01*
X-7152436Y7906258D01*
X-7154418Y7906105D01*
X-7156297Y7906258D01*
X-7157923Y7906715D01*
X-7159345Y7907528D01*
X-7160564Y7908645D01*
X-7161428Y7910068D01*
X-7162088Y7911693D01*
X-7162698Y7915452D01*
X-7170216Y7915452D01*
X-7169962Y7911896D01*
X-7169099Y7908747D01*
X-7167727Y7906054D01*
X-7165746Y7903768D01*
X-7163409Y7901889D01*
X-7160717Y7900568D01*
X-7157669Y7899755D01*
X-7154265Y7899450D01*
X-7150862Y7899704D01*
X-7147814Y7900517D01*
X-7145172Y7901787D01*
X-7142937Y7903616D01*
X-7141057Y7905902D01*
X-7139635Y7908594D01*
X-7138771Y7911592D01*
X-7138466Y7914894D01*
X-7138619Y7957108D01*
G37*
G36*
X-7123887Y7957108D02*
G01*
X-7123887Y7900009D01*
X-7096252Y7900009D01*
X-7096252Y7906105D01*
X-7116368Y7906105D01*
X-7116368Y7957108D01*
G37*
G36*
X-7003897Y7957108D02*
G01*
X-7003745Y7914894D01*
X-7004354Y7911388D01*
X-7005878Y7908442D01*
X-7007047Y7907426D01*
X-7008469Y7906715D01*
X-7010196Y7906258D01*
X-7014108Y7906207D01*
X-7015835Y7906715D01*
X-7017258Y7907578D01*
X-7018477Y7908798D01*
X-7019391Y7910169D01*
X-7020102Y7911744D01*
X-7020509Y7913573D01*
X-7020610Y7915656D01*
X-7027976Y7915452D01*
X-7027773Y7911947D01*
X-7027011Y7908798D01*
X-7025640Y7906003D01*
X-7023658Y7903616D01*
X-7021322Y7901736D01*
X-7018629Y7900416D01*
X-7015480Y7899653D01*
X-7012025Y7899450D01*
X-7008672Y7899653D01*
X-7005675Y7900416D01*
X-7003034Y7901736D01*
X-7000697Y7903616D01*
X-6998817Y7905902D01*
X-6997395Y7908594D01*
X-6996531Y7911592D01*
X-6996175Y7914894D01*
X-6996379Y7957108D01*
G37*
G36*
X-6981647Y7957108D02*
G01*
X-6981647Y7900009D01*
X-6954012Y7900009D01*
X-6954164Y7905953D01*
X-6974128Y7906105D01*
X-6974128Y7957108D01*
G37*
G36*
X-6336690Y7500061D02*
G01*
X-6311798Y7466025D01*
X-6338214Y7429957D01*
X-6329832Y7429957D01*
X-6307226Y7460691D01*
X-6284620Y7429957D01*
X-6275984Y7429957D01*
X-6302908Y7466279D01*
X-6278016Y7500061D01*
X-6285890Y7500061D01*
X-6306972Y7471359D01*
X-6328054Y7500061D01*
G37*
G36*
X-6267348Y7485837D02*
G01*
X-6267348Y7479487D01*
X-6230518Y7465009D01*
X-6267348Y7450531D01*
X-6267348Y7444181D01*
X-6223914Y7461707D01*
X-6223914Y7468311D01*
G37*
G36*
X-6339992Y7379970D02*
G01*
X-6311798Y7334250D01*
X-6311798Y7310120D01*
X-6304686Y7310120D01*
X-6304686Y7334250D01*
X-6276492Y7379970D01*
X-6284112Y7379970D01*
X-6307988Y7340600D01*
X-6332118Y7379970D01*
G37*
G36*
X-6250584Y7365746D02*
G01*
X-6268110Y7324344D01*
X-6262268Y7324344D01*
X-6247790Y7359650D01*
X-6233058Y7324344D01*
X-6227216Y7324344D01*
X-6244488Y7365746D01*
G37*
G36*
X-6334912Y7270038D02*
G01*
X-6334912Y7263688D01*
X-6289192Y7263688D01*
X-6335420Y7205014D01*
X-6335420Y7199934D01*
X-6278016Y7199934D01*
X-6278016Y7206284D01*
X-6325514Y7206284D01*
X-6279286Y7264958D01*
X-6279286Y7270038D01*
G37*
G36*
X-6271920Y7252512D02*
G01*
X-6252108Y7227112D01*
X-6272936Y7199934D01*
X-6265062Y7199934D01*
X-6248298Y7222032D01*
X-6231534Y7199934D01*
X-6223406Y7199934D01*
X-6244488Y7227112D01*
X-6224676Y7252512D01*
X-6232296Y7252512D01*
X-6248298Y7231938D01*
X-6264046Y7252512D01*
G37*
D10*
X-2869994Y8445428D02*
G01*
X-2869994Y8559982D01*
X-2869994Y8559982D02*
G01*
X-2935526Y8559982D01*
X-2998772Y8445428D02*
G01*
X-2982516Y8450762D01*
X-2976928Y8461684D01*
X-2976928Y8472606D01*
X-2982516Y8483528D01*
X-2993438Y8489116D01*
X-3015282Y8494450D01*
X-3031538Y8500038D01*
X-3042460Y8510960D01*
X-3047794Y8521882D01*
X-3047794Y8538138D01*
X-3042460Y8549060D01*
X-3036872Y8554394D01*
X-3020616Y8559982D01*
X-2998772Y8559982D01*
X-2982516Y8554394D01*
X-2976928Y8549060D01*
X-2971594Y8538138D01*
X-2971594Y8521882D01*
X-2976928Y8510960D01*
X-2987850Y8500038D01*
X-3004360Y8494450D01*
X-3025950Y8489116D01*
X-3036872Y8483528D01*
X-3042460Y8472606D01*
X-3042460Y8461684D01*
X-3036872Y8450762D01*
X-3020616Y8445428D01*
X-2998772Y8445428D01*
X-3116628Y8445428D02*
G01*
X-3100372Y8450762D01*
X-3089450Y8467272D01*
X-3083862Y8494450D01*
X-3083862Y8510960D01*
X-3089450Y8538138D01*
X-3100372Y8554394D01*
X-3116628Y8559982D01*
X-3127550Y8559982D01*
X-3143806Y8554394D01*
X-3154728Y8538138D01*
X-3160316Y8510960D01*
X-3160316Y8494450D01*
X-3154728Y8467272D01*
X-3143806Y8450762D01*
X-3127550Y8445428D01*
X-3116628Y8445428D01*
X-3196130Y8445428D02*
G01*
X-3196130Y8559982D01*
X-3196130Y8445428D02*
G01*
X-3245406Y8445428D01*
X-3261662Y8450762D01*
X-3267250Y8456350D01*
X-3272584Y8467272D01*
X-3272584Y8478194D01*
X-3267250Y8489116D01*
X-3261662Y8494450D01*
X-3245406Y8500038D01*
X-3196130Y8500038D01*
X-3234484Y8500038D02*
G01*
X-3272584Y8559982D01*
X-3308652Y8445428D02*
G01*
X-3308652Y8559982D01*
X-3308652Y8445428D02*
G01*
X-3379518Y8445428D01*
X-3308652Y8500038D02*
G01*
X-3352340Y8500038D01*
X-3308652Y8559982D02*
G01*
X-3379518Y8559982D01*
X-3415586Y8510960D02*
G01*
X-3513630Y8510960D01*
X-3549698Y8445428D02*
G01*
X-3549698Y8559982D01*
X-3549698Y8445428D02*
G01*
X-3593386Y8559982D01*
X-3637074Y8445428D02*
G01*
X-3593386Y8559982D01*
X-3637074Y8445428D02*
G01*
X-3637074Y8559982D01*
X-3683810Y8445428D02*
G01*
X-3744008Y8445428D01*
X-3711242Y8489116D01*
X-3727498Y8489116D01*
X-3738420Y8494450D01*
X-3744008Y8500038D01*
X-3749342Y8516294D01*
X-3749342Y8527216D01*
X-3744008Y8543726D01*
X-3733086Y8554394D01*
X-3716576Y8559982D01*
X-3700320Y8559982D01*
X-3683810Y8554394D01*
X-3678476Y8549060D01*
X-3672888Y8538138D01*
X-3861610Y8445428D02*
G01*
X-3807254Y8559982D01*
X-3785410Y8445428D02*
G01*
X-3861610Y8445428D01*
X-2902783Y8244448D02*
G01*
X-2891861Y8250036D01*
X-2880939Y8260958D01*
X-2875351Y8271880D01*
X-2870017Y8288136D01*
X-2870017Y8315314D01*
X-2875351Y8331824D01*
X-2880939Y8342746D01*
X-2891861Y8353668D01*
X-2902783Y8359002D01*
X-2924627Y8359002D01*
X-2935549Y8353668D01*
X-2946471Y8342746D01*
X-2951805Y8331824D01*
X-2957139Y8315314D01*
X-2957139Y8288136D01*
X-2951805Y8271880D01*
X-2946471Y8260958D01*
X-2935549Y8250036D01*
X-2924627Y8244448D01*
X-2902783Y8244448D01*
X-2919039Y8337158D02*
G01*
X-2951805Y8369924D01*
X-2993207Y8266292D02*
G01*
X-3004129Y8260958D01*
X-3020639Y8244448D01*
X-3020639Y8359002D01*
X-3056453Y8309980D02*
G01*
X-3154751Y8309980D01*
X-3234253Y8244448D02*
G01*
X-3190819Y8359002D01*
X-3234253Y8244448D02*
G01*
X-3277941Y8359002D01*
X-3207075Y8320902D02*
G01*
X-3261685Y8320902D01*
X-3346775Y8244448D02*
G01*
X-3330265Y8250036D01*
X-3319343Y8266292D01*
X-3314009Y8293724D01*
X-3314009Y8309980D01*
X-3319343Y8337158D01*
X-3330265Y8353668D01*
X-3346775Y8359002D01*
X-3357697Y8359002D01*
X-3373953Y8353668D01*
X-3384875Y8337158D01*
X-3390463Y8309980D01*
X-3390463Y8293724D01*
X-3384875Y8266292D01*
X-3373953Y8250036D01*
X-3357697Y8244448D01*
X-3346775Y8244448D01*
X-3480887Y8244448D02*
G01*
X-3426277Y8320902D01*
X-3508065Y8320902D01*
X-3480887Y8244448D02*
G01*
X-3480887Y8359002D01*
X-3598743Y8244448D02*
G01*
X-3544133Y8320902D01*
X-3625921Y8320902D01*
X-3598743Y8244448D02*
G01*
X-3598743Y8359002D01*
X-3694755Y8244448D02*
G01*
X-3678245Y8250036D01*
X-3667323Y8266292D01*
X-3661989Y8293724D01*
X-3661989Y8309980D01*
X-3667323Y8337158D01*
X-3678245Y8353668D01*
X-3694755Y8359002D01*
X-3705677Y8359002D01*
X-3721933Y8353668D01*
X-3732855Y8337158D01*
X-3738443Y8309980D01*
X-3738443Y8293724D01*
X-3732855Y8266292D01*
X-3721933Y8250036D01*
X-3705677Y8244448D01*
X-3694755Y8244448D01*
G36*
X-1707997Y7800238D02*
G01*
X-1707997Y7764983D01*
X-1677517Y7764983D01*
X-1677517Y7800238D01*
G37*
G36*
X-1707997Y7674965D02*
G01*
X-1707997Y7639761D01*
X-1677517Y7639761D01*
X-1677517Y7674965D01*
G37*
G36*
X-1772970Y8815222D02*
G01*
X-1772970Y8780018D01*
X-1742490Y8780018D01*
X-1742490Y8815222D01*
G37*
G36*
X-1772970Y8690000D02*
G01*
X-1772970Y8654745D01*
X-1742490Y8654745D01*
X-1742490Y8690000D01*
G37*
D11*
X-4248360Y8949842D02*
G01*
X-4327370Y8949842D01*
X-4327370Y8850121D02*
G01*
X-4248360Y8850121D01*
X-4233120Y8865362D02*
G01*
X-4233120Y8934602D01*
X-4451621Y8949842D02*
G01*
X-4372612Y8949842D01*
X-4372612Y8850121D02*
G01*
X-4451621Y8850121D01*
X-4466861Y8865362D02*
G01*
X-4466861Y8934602D01*
D12*
X-2609992Y8809984D02*
G01*
X-2609992Y7209983D01*
X-4209994Y7209983D02*
G01*
X-4209994Y8809984D01*
X-2739991Y8469983D02*
G01*
X-2829991Y8469983D01*
X-2789991Y8619985D01*
X-2739991Y8469983D01*
X-3962483Y7309982D02*
G01*
X-3873502Y7309982D01*
X-3708483Y7309982D02*
G01*
X-3619502Y7309982D01*
X-3454483Y7309982D02*
G01*
X-3365502Y7309982D01*
X-3200483Y7309982D02*
G01*
X-3111502Y7309982D01*
X-2946483Y7309982D02*
G01*
X-2857502Y7309982D01*
X-2709992Y7351626D02*
G01*
X-2709992Y8609982D01*
X-2709992Y8609982D02*
G01*
X-2743215Y8643205D01*
X-2857502Y8709985D02*
G01*
X-2946483Y8709985D01*
X-3111502Y8709985D02*
G01*
X-3200483Y8709985D01*
X-3365502Y8709985D02*
G01*
X-3454483Y8709985D01*
X-3619502Y8709985D02*
G01*
X-3708483Y8709985D01*
X-3873502Y8709985D02*
G01*
X-3962483Y8709985D01*
X-4109994Y8668341D02*
G01*
X-4109994Y7351626D01*
X-4209994Y7209983D02*
G01*
X-4128107Y7209983D01*
X-3961879Y7209983D02*
G01*
X-3874107Y7209983D01*
X-3707879Y7209983D02*
G01*
X-3620107Y7209983D01*
X-3453879Y7209983D02*
G01*
X-3366107Y7209983D01*
X-3199879Y7209983D02*
G01*
X-3112107Y7209983D01*
X-2945879Y7209983D02*
G01*
X-2858107Y7209983D01*
X-2691879Y7209983D02*
G01*
X-2609992Y7209983D01*
X-2609992Y8809984D02*
G01*
X-2691879Y8809984D01*
X-2858107Y8809984D02*
G01*
X-2945879Y8809984D01*
X-3112107Y8809984D02*
G01*
X-3199879Y8809984D01*
X-3366107Y8809984D02*
G01*
X-3453879Y8809984D01*
X-3620107Y8809984D02*
G01*
X-3707879Y8809984D01*
X-3874107Y8809984D02*
G01*
X-3961879Y8809984D01*
X-4128107Y8809984D02*
G01*
X-4209994Y8809984D01*
D13*
X-1940003Y8491987D02*
G01*
X-1940003Y8429983D01*
X-1940003Y8527991D02*
G01*
X-1940003Y8589982D01*
X-1819998Y8527991D02*
G01*
X-1819998Y8589982D01*
X-1839998Y8604991D02*
G01*
X-1919996Y8604991D01*
X-1819998Y8491987D02*
G01*
X-1819998Y8429983D01*
X-1839998Y8414986D02*
G01*
X-1919996Y8414986D01*
X-1835007Y8604991D02*
G01*
X-1839998Y8604991D01*
X-1924994Y8604991D02*
G01*
X-1919996Y8604991D01*
X-1834995Y8414986D02*
G01*
X-1839998Y8414986D01*
X-1925007Y8414986D02*
G01*
X-1919996Y8414986D01*
X-2201999Y8669975D02*
G01*
X-2139995Y8669975D01*
X-2238004Y8669975D02*
G01*
X-2299995Y8669975D01*
X-2238004Y8789979D02*
G01*
X-2299995Y8789979D01*
X-2315004Y8769979D02*
G01*
X-2315004Y8689982D01*
X-2201999Y8789979D02*
G01*
X-2139995Y8789979D01*
X-2124999Y8769979D02*
G01*
X-2124999Y8689982D01*
X-2315004Y8774971D02*
G01*
X-2315004Y8769979D01*
X-2315004Y8684983D02*
G01*
X-2315004Y8689982D01*
X-2124999Y8774983D02*
G01*
X-2124999Y8769979D01*
X-2124999Y8684971D02*
G01*
X-2124999Y8689982D01*
D11*
X-1888365Y8779842D02*
G01*
X-1967374Y8779842D01*
X-1967374Y8680122D02*
G01*
X-1888365Y8680122D01*
X-1873125Y8695362D02*
G01*
X-1873125Y8764602D01*
X-2091626Y8779842D02*
G01*
X-2012617Y8779842D01*
X-2012617Y8680122D02*
G01*
X-2091626Y8680122D01*
X-2106866Y8695362D02*
G01*
X-2106866Y8764602D01*
D14*
X-1509872Y7647363D02*
G01*
X-1509872Y7667985D01*
X-1509872Y7792605D02*
G01*
X-1509872Y7772984D01*
D11*
X-1685117Y7792605D02*
G01*
X-1509872Y7792605D01*
X-1685117Y7647363D02*
G01*
X-1509872Y7647363D01*
X-1644672Y7792605D02*
G01*
X-1644672Y7647363D01*
D14*
X-1574868Y8662372D02*
G01*
X-1574868Y8682995D01*
X-1574868Y8807615D02*
G01*
X-1574868Y8787993D01*
D11*
X-1750113Y8807615D02*
G01*
X-1574868Y8807615D01*
X-1750113Y8662372D02*
G01*
X-1574868Y8662372D01*
X-1709668Y8807615D02*
G01*
X-1709668Y8662372D01*
D12*
X-2383485Y7533985D02*
G01*
X-2464993Y7533985D01*
X-2464993Y7599974D01*
X-2464993Y7759994D02*
G01*
X-2464993Y7825983D01*
X-2464993Y7759994D01*
X-2464993Y7825983D01*
X-2383485Y7825983D01*
D15*
X-2310003Y7649987D02*
G01*
X-2310003Y7709982D01*
D12*
X-1996506Y7825983D02*
G01*
X-1914997Y7825983D01*
X-1914997Y7759994D01*
X-1914997Y7599974D02*
G01*
X-1914997Y7533985D01*
X-1914997Y7599974D01*
X-1914997Y7533985D01*
X-1996506Y7533985D01*
D15*
X-2069988Y7709982D02*
G01*
X-2069988Y7649987D01*
D11*
X-2032617Y7870123D02*
G01*
X-2104420Y7870123D01*
X-2104420Y7969844D01*
X-2032617Y7969844D01*
X-1987374Y7870123D02*
G01*
X-1915571Y7870123D01*
X-1915571Y7969844D01*
X-1987374Y7969844D01*
X-2212616Y7390124D02*
G01*
X-2284420Y7390124D01*
X-2284420Y7489845D01*
X-2212616Y7489845D01*
X-2167374Y7390124D02*
G01*
X-2095571Y7390124D01*
X-2095571Y7489845D01*
X-2167374Y7489845D01*
D15*
X-1994992Y8129963D02*
G01*
X-1994992Y8064964D01*
X-2059990Y8064964D01*
X-2524988Y8129963D02*
G01*
X-2524988Y8064964D01*
X-2459989Y8064964D01*
X-2459989Y8594961D02*
G01*
X-2524988Y8594961D01*
X-2524988Y8529962D01*
X-1994992Y8529962D02*
G01*
X-1994992Y8594961D01*
X-2059990Y8594961D01*
D12*
X-1064994Y6889991D02*
G01*
X-1044994Y6909991D01*
X-1154993Y6889991D02*
G01*
X-1174993Y6909991D01*
X-1044994Y6909991D02*
G01*
X-1044994Y7039990D01*
X-1174993Y6909991D02*
G01*
X-1174993Y7039990D01*
X-1154993Y6889991D02*
G01*
X-1064994Y6889991D01*
X-1421879Y7309990D02*
G01*
X-1407556Y7309990D01*
X-1464993Y7129990D02*
G01*
X-1464993Y7226876D01*
X-828108Y7049990D02*
G01*
X-1424993Y7049990D01*
X-784994Y7226876D02*
G01*
X-784994Y7133104D01*
X-842431Y7309990D02*
G01*
X-824994Y7309990D01*
X-992431Y7309990D02*
G01*
X-957554Y7309990D01*
X-1292433Y7309990D02*
G01*
X-1107554Y7309990D01*
X-8139986Y7789986D02*
G01*
X-8139986Y8629987D01*
X-6599984Y8629987D01*
X-6599984Y7369985D01*
X-7749984Y7369985D01*
X-7749984Y7789986D01*
X-8139986Y7789986D01*
X-6566870Y8799987D02*
G01*
X-6499984Y8799987D01*
X-6766872Y8799987D02*
G01*
X-6733098Y8799987D01*
X-6966872Y8799987D02*
G01*
X-6933100Y8799987D01*
X-7166871Y8799987D02*
G01*
X-7133099Y8799987D01*
X-7366871Y8799987D02*
G01*
X-7333099Y8799987D01*
X-7566870Y8799987D02*
G01*
X-7533098Y8799987D01*
X-7766870Y8799987D02*
G01*
X-7733098Y8799987D01*
X-7966872Y8799987D02*
G01*
X-7933098Y8799987D01*
X-8199986Y8799987D02*
G01*
X-8133100Y8799987D01*
X-6566870Y7199985D02*
G01*
X-6499984Y7199985D01*
X-6766872Y7199985D02*
G01*
X-6733098Y7199985D01*
X-6966872Y7199985D02*
G01*
X-6933100Y7199985D01*
X-7166871Y7199985D02*
G01*
X-7133099Y7199985D01*
X-7366871Y7199985D02*
G01*
X-7333099Y7199985D01*
X-7566870Y7199985D02*
G01*
X-7533098Y7199985D01*
X-7766870Y7199985D02*
G01*
X-7733098Y7199985D01*
X-7966872Y7199985D02*
G01*
X-7933098Y7199985D01*
X-8199986Y7199985D02*
G01*
X-8133100Y7199985D01*
X-6499984Y8799987D02*
G01*
X-6499984Y7199985D01*
X-8199986Y8799987D02*
G01*
X-8199986Y7199985D01*
X-8144979Y7364986D02*
G01*
X-8144979Y7674993D01*
X-7854988Y7674993D01*
X-7854988Y7364986D01*
X-8144979Y7364986D01*
X-4249991Y8364984D02*
G01*
X-4249991Y8366168D01*
D14*
X-4479991Y8369983D02*
G01*
X-4279991Y8369983D01*
X-4279991Y8589982D02*
G01*
X-4479991Y8589982D01*
D12*
X-4569990Y8364984D02*
G01*
X-4569990Y8366168D01*
D14*
X-4799990Y8369983D02*
G01*
X-4599990Y8369983D01*
X-4599990Y8589982D02*
G01*
X-4799990Y8589982D01*
D11*
X-2074852Y7063356D02*
G01*
X-2074852Y7142365D01*
X-1975131Y7187608D02*
G01*
X-1975131Y7266617D01*
X-2074852Y7266617D02*
G01*
X-2074852Y7187608D01*
X-1990371Y7281857D02*
G01*
X-2059612Y7281857D01*
X-1975131Y7142365D02*
G01*
X-1975131Y7063356D01*
X-1990371Y7048116D02*
G01*
X-2059612Y7048116D01*
X-2147371Y7067367D02*
G01*
X-2362611Y7067367D01*
X-2147371Y7282606D02*
G01*
X-2362611Y7282606D01*
X-6360126Y7727363D02*
G01*
X-6360126Y7655560D01*
X-6459847Y7655560D01*
X-6459847Y7727363D01*
X-6360126Y7772605D02*
G01*
X-6360126Y7844409D01*
X-6459847Y7844409D01*
X-6459847Y7772605D01*
X-6207366Y7999844D02*
G01*
X-6135563Y7999844D01*
X-6135563Y7900123D01*
X-6207366Y7900123D01*
X-6252608Y7999844D02*
G01*
X-6324412Y7999844D01*
X-6324412Y7900123D01*
X-6252608Y7900123D01*
X-6459847Y8232604D02*
G01*
X-6459847Y8304408D01*
X-6360126Y8304408D01*
X-6360126Y8232604D01*
X-6459847Y8187362D02*
G01*
X-6459847Y8115559D01*
X-6360126Y8115559D01*
X-6360126Y8187362D01*
X-6360126Y7517363D02*
G01*
X-6360126Y7445560D01*
X-6459847Y7445560D01*
X-6459847Y7517363D01*
X-6360126Y7562606D02*
G01*
X-6360126Y7634409D01*
X-6459847Y7634409D01*
X-6459847Y7562606D01*
D12*
X-948519Y7548173D02*
G01*
X-1134811Y7548173D01*
X-576681Y8442172D02*
G01*
X-576681Y7548173D01*
X-724811Y7548173D01*
X-948484Y8442172D02*
G01*
X-1134846Y8442172D01*
X-576681Y8442172D02*
G01*
X-724847Y8442172D01*
D11*
X-4671623Y8230123D02*
G01*
X-4592614Y8230123D01*
X-4592614Y8329843D02*
G01*
X-4671623Y8329843D01*
X-4686863Y8314603D02*
G01*
X-4686863Y8245363D01*
X-4468362Y8230123D02*
G01*
X-4547372Y8230123D01*
X-4547372Y8329843D02*
G01*
X-4468362Y8329843D01*
X-4453122Y8314603D02*
G01*
X-4453122Y8245363D01*
D12*
X-4750079Y7779908D02*
G01*
X-4750079Y7969900D01*
X-4659909Y8060070D01*
X-4480077Y8060070D01*
X-4380001Y7959994D01*
X-4380001Y7790068D01*
X-4470171Y7699898D01*
X-4670069Y7699898D01*
X-4750079Y7779908D01*
X-4825009Y8007492D02*
G01*
X-4735502Y8096999D01*
X-4686833Y8135000D02*
G01*
X-4453153Y8135000D01*
X-4404484Y8096999D02*
G01*
X-4314977Y8007492D01*
X-4686833Y7624968D02*
G01*
X-4453153Y7624968D01*
X-4404484Y7662969D02*
G01*
X-4314977Y7752476D01*
X-4825009Y7752476D02*
G01*
X-4735502Y7662969D01*
X-4314977Y7752476D02*
G01*
X-4314977Y8007492D01*
X-4825009Y7752476D02*
G01*
X-4825009Y8007492D01*
D11*
X-5880620Y7964934D02*
G01*
X-5915670Y7999984D01*
X-5880620Y8035033D01*
X-5374871Y8470684D02*
G01*
X-5409920Y8505733D01*
X-5444970Y8470684D01*
X-5444970Y7529283D02*
G01*
X-5409920Y7494234D01*
X-5374871Y7529283D01*
X-4939220Y8035033D02*
G01*
X-4904171Y7999984D01*
X-4939220Y7964934D01*
D12*
X-5153792Y7274285D02*
G01*
X-5153792Y7032985D01*
X-5128392Y7032985D01*
X-5128392Y7286985D01*
X-5102992Y7286985D01*
X-5102992Y7032985D01*
X-5077592Y7032985D01*
X-5077592Y7286985D01*
X-5052192Y7286985D01*
X-5052192Y7032985D01*
X-5306192Y7286985D02*
G01*
X-4620392Y7286985D01*
X-4620392Y7032985D01*
X-5306192Y7032985D01*
X-5306192Y7286985D01*
D13*
X-1887004Y7385006D02*
G01*
X-1825000Y7385006D01*
X-1923008Y7385006D02*
G01*
X-1984999Y7385006D01*
X-1923008Y7505011D02*
G01*
X-1984999Y7505011D01*
X-2000008Y7485011D02*
G01*
X-2000008Y7405014D01*
X-1887004Y7505011D02*
G01*
X-1825000Y7505011D01*
X-1810004Y7485011D02*
G01*
X-1810004Y7405014D01*
X-2000008Y7490002D02*
G01*
X-2000008Y7485011D01*
X-2000008Y7400015D02*
G01*
X-2000008Y7405014D01*
X-1810004Y7490015D02*
G01*
X-1810004Y7485011D01*
X-1810004Y7400002D02*
G01*
X-1810004Y7405014D01*
X-1635008Y8527021D02*
G01*
X-1635008Y8465017D01*
X-1635008Y8563025D02*
G01*
X-1635008Y8625017D01*
X-1515003Y8563025D02*
G01*
X-1515003Y8625017D01*
X-1535003Y8640025D02*
G01*
X-1615000Y8640025D01*
X-1515003Y8527021D02*
G01*
X-1515003Y8465017D01*
X-1535003Y8450021D02*
G01*
X-1615000Y8450021D01*
X-1530012Y8640025D02*
G01*
X-1535003Y8640025D01*
X-1619999Y8640025D02*
G01*
X-1615000Y8640025D01*
X-1529999Y8450021D02*
G01*
X-1535003Y8450021D01*
X-1620012Y8450021D02*
G01*
X-1615000Y8450021D01*
D11*
X-1766630Y7395154D02*
G01*
X-1687621Y7395154D01*
X-1687621Y7494874D02*
G01*
X-1766630Y7494874D01*
X-1781870Y7479634D02*
G01*
X-1781870Y7410394D01*
X-1563370Y7395154D02*
G01*
X-1642379Y7395154D01*
X-1642379Y7494874D02*
G01*
X-1563370Y7494874D01*
X-1548129Y7479634D02*
G01*
X-1548129Y7410394D01*
D12*
X-678469Y8578656D02*
G01*
X-678469Y8751376D01*
X-678469Y8751376D02*
G01*
X-825789Y8751376D01*
X-678469Y8578656D02*
G01*
X-825789Y8578656D01*
X-884209Y8751376D02*
G01*
X-1001049Y8751376D01*
X-886749Y8578656D02*
G01*
X-1001049Y8578656D01*
X-1001049Y8578656D02*
G01*
X-1036609Y8614216D01*
X-1036609Y8715816D01*
X-1001049Y8751376D01*
D16*
X-847379Y8624376D02*
G01*
X-847379Y8703116D01*
X-847379Y8664221D02*
G01*
X-864915Y8664221D01*
D11*
X-2012617Y8936042D02*
G01*
X-2108504Y8936042D01*
X-2108504Y8803921D01*
X-2012617Y8803921D01*
X-1927374Y8936042D02*
G01*
X-1831487Y8936042D01*
X-1831487Y8803921D01*
X-1927374Y8803921D01*
X-967618Y8785133D02*
G01*
X-1039421Y8785133D01*
X-1039421Y8884853D01*
X-967618Y8884853D01*
X-922375Y8785133D02*
G01*
X-850572Y8785133D01*
X-850572Y8884853D01*
X-922375Y8884853D01*
D12*
X-1204996Y8840025D02*
G01*
X-1384998Y8840025D01*
X-1204996Y8725027D02*
G01*
X-1204996Y8645024D01*
X-1204996Y8530023D02*
G01*
X-1384998Y8530023D01*
X-1804723Y7310965D02*
G01*
X-1704647Y7310965D01*
X-1704647Y7031057D01*
X-1804723Y7031057D01*
X-1804723Y7031057D02*
G01*
X-1804723Y7310965D01*
D11*
X-5610146Y7228372D02*
G01*
X-5610146Y7307381D01*
X-5709866Y7307381D02*
G01*
X-5709866Y7228372D01*
X-5694626Y7213132D02*
G01*
X-5625386Y7213132D01*
X-5610146Y7431633D02*
G01*
X-5610146Y7352624D01*
X-5709866Y7352624D02*
G01*
X-5709866Y7431633D01*
X-5694626Y7446873D02*
G01*
X-5625386Y7446873D01*
X-5760595Y7124037D02*
G01*
X-5839604Y7124037D01*
X-5839604Y7024316D02*
G01*
X-5760595Y7024316D01*
X-5745355Y7039556D02*
G01*
X-5745355Y7108797D01*
X-5963856Y7124037D02*
G01*
X-5884847Y7124037D01*
X-5884847Y7024316D02*
G01*
X-5963856Y7024316D01*
X-5979096Y7039556D02*
G01*
X-5979096Y7108797D01*
X-6079865Y7891635D02*
G01*
X-6079865Y7812625D01*
X-5980145Y7812625D02*
G01*
X-5980145Y7891635D01*
X-5995385Y7906875D02*
G01*
X-6064625Y7906875D01*
X-6079865Y7688374D02*
G01*
X-6079865Y7767383D01*
X-5980145Y7767383D02*
G01*
X-5980145Y7688374D01*
X-5995385Y7673134D02*
G01*
X-6064625Y7673134D01*
X-6213855Y7024316D02*
G01*
X-6134846Y7024316D01*
X-6134846Y7124037D02*
G01*
X-6213855Y7124037D01*
X-6229095Y7108797D02*
G01*
X-6229095Y7039556D01*
X-6010595Y7024316D02*
G01*
X-6089604Y7024316D01*
X-6089604Y7124037D02*
G01*
X-6010595Y7124037D01*
X-5995355Y7108797D02*
G01*
X-5995355Y7039556D01*
X-6220145Y7767383D02*
G01*
X-6220145Y7695580D01*
X-6319865Y7695580D01*
X-6319865Y7767383D01*
X-6220145Y7812625D02*
G01*
X-6220145Y7884429D01*
X-6319865Y7884429D01*
X-6319865Y7812625D01*
X-6199865Y7812625D02*
G01*
X-6199865Y7884429D01*
X-6100145Y7884429D01*
X-6100145Y7812625D01*
X-6199865Y7767383D02*
G01*
X-6199865Y7695580D01*
X-6100145Y7695580D01*
X-6100145Y7767383D01*
X-5821956Y7617622D02*
G01*
X-5772386Y7617622D01*
X-5772386Y7568051D01*
X-5821956Y7202383D02*
G01*
X-5772386Y7202383D01*
X-5772386Y7251954D01*
X-6138054Y7617622D02*
G01*
X-6187625Y7617622D01*
X-6187625Y7568051D01*
X-6138054Y7202383D02*
G01*
X-6187625Y7202383D01*
X-6187625Y7251954D01*
X-6066152Y8169480D02*
G01*
X-6079990Y8155642D01*
X-6444322Y8519975D01*
X-6430484Y8533813D01*
X-5729493Y8506139D02*
G01*
X-5715657Y8519975D01*
X-6079990Y8884307D01*
X-6093825Y8870472D01*
X-5141622Y7530124D02*
G01*
X-5062613Y7530124D01*
X-5062613Y7629845D02*
G01*
X-5141622Y7629845D01*
X-5156862Y7614602D02*
G01*
X-5156862Y7545367D01*
X-4938361Y7530124D02*
G01*
X-5017371Y7530124D01*
X-5017371Y7629845D02*
G01*
X-4938361Y7629845D01*
X-4923121Y7614602D02*
G01*
X-4923121Y7545367D01*
X-5351635Y8790144D02*
G01*
X-5272625Y8790144D01*
X-5272625Y8889865D02*
G01*
X-5351635Y8889865D01*
X-5366875Y8874625D02*
G01*
X-5366875Y8805384D01*
X-5148374Y8790144D02*
G01*
X-5227383Y8790144D01*
X-5227383Y8889865D02*
G01*
X-5148374Y8889865D01*
X-5133134Y8874625D02*
G01*
X-5133134Y8805384D01*
X-5388376Y8749865D02*
G01*
X-5467385Y8749865D01*
X-5467385Y8650145D02*
G01*
X-5388376Y8650145D01*
X-5373136Y8665385D02*
G01*
X-5373136Y8734625D01*
X-5591637Y8749865D02*
G01*
X-5512628Y8749865D01*
X-5512628Y8650145D02*
G01*
X-5591637Y8650145D01*
X-5606877Y8665385D02*
G01*
X-5606877Y8734625D01*
X-4471621Y7040125D02*
G01*
X-4392612Y7040125D01*
X-4392612Y7139846D02*
G01*
X-4471621Y7139846D01*
X-4486861Y7124606D02*
G01*
X-4486861Y7055365D01*
X-4268360Y7040125D02*
G01*
X-4347370Y7040125D01*
X-4347370Y7139846D02*
G01*
X-4268360Y7139846D01*
X-4253120Y7124606D02*
G01*
X-4253120Y7055365D01*
X-5262626Y8650145D02*
G01*
X-5334429Y8650145D01*
X-5334429Y8749865D01*
X-5262626Y8749865D01*
X-5217383Y8650145D02*
G01*
X-5145580Y8650145D01*
X-5145580Y8749865D01*
X-5217383Y8749865D01*
X-5457385Y8889865D02*
G01*
X-5385582Y8889865D01*
X-5385582Y8790144D01*
X-5457385Y8790144D01*
X-5502628Y8889865D02*
G01*
X-5574431Y8889865D01*
X-5574431Y8790144D01*
X-5502628Y8790144D01*
X-1627621Y7825155D02*
G01*
X-1699425Y7825155D01*
X-1699425Y7924876D01*
X-1627621Y7924876D01*
X-1582379Y7825155D02*
G01*
X-1510576Y7825155D01*
X-1510576Y7924876D01*
X-1582379Y7924876D01*
X-1627621Y8115155D02*
G01*
X-1699425Y8115155D01*
X-1699425Y8214875D01*
X-1627621Y8214875D01*
X-1582379Y8115155D02*
G01*
X-1510576Y8115155D01*
X-1510576Y8214875D01*
X-1582379Y8214875D01*
G75*
G01*
X-4248361Y8850122D02*
G03*
X-4233121Y8865362I0J15240D01*
G75*
G01*
X-4233121Y8934602D02*
G03*
X-4248361Y8949842I-15240J0D01*
G75*
G01*
X-4451622Y8850122D02*
G02*
X-4466862Y8865362I0J15240D01*
G75*
G01*
X-4466862Y8934602D02*
G02*
X-4451622Y8949842I15240J0D01*
D13*
G75*
G01*
X-1819999Y8589983D02*
G03*
X-1835008Y8604992I-15009J0D01*
G75*
G01*
X-1940004Y8589983D02*
G02*
X-1924995Y8604992I15009J0D01*
G75*
G01*
X-1819999Y8429983D02*
G02*
X-1834995Y8414987I-14996J0D01*
G75*
G01*
X-1940004Y8429983D02*
G03*
X-1925008Y8414987I14996J0D01*
G75*
G01*
X-2299995Y8789980D02*
G03*
X-2315004Y8774971I0J-15009D01*
G75*
G01*
X-2299995Y8669975D02*
G02*
X-2315004Y8684984I0J15009D01*
G75*
G01*
X-2139996Y8789980D02*
G02*
X-2125000Y8774984I0J-14996D01*
G75*
G01*
X-2139996Y8669975D02*
G03*
X-2125000Y8684971I0J14996D01*
D11*
G75*
G01*
X-1888366Y8680122D02*
G03*
X-1873126Y8695362I0J15240D01*
G75*
G01*
X-1873126Y8764603D02*
G03*
X-1888366Y8779843I-15240J0D01*
G75*
G01*
X-2091626Y8680122D02*
G02*
X-2106867Y8695362I-1J15240D01*
G75*
G01*
X-2106867Y8764603D02*
G02*
X-2091626Y8779843I15240J0D01*
D17*
G75*
G01*
X-1960016Y8084853D02*
G03*
X-1960016Y8085107I15000J127D01*
D11*
G75*
G01*
X-1975132Y7266617D02*
G03*
X-1990372Y7281857I-15240J0D01*
G75*
G01*
X-2059612Y7281857D02*
G03*
X-2074852Y7266617I0J-15240D01*
G75*
G01*
X-1975132Y7063356D02*
G02*
X-1990372Y7048116I-15240J0D01*
G75*
G01*
X-2059612Y7048116D02*
G02*
X-2074852Y7063356I0J15240D01*
G75*
G01*
X-4671624Y8329844D02*
G03*
X-4686864Y8314604I0J-15240D01*
G75*
G01*
X-4686864Y8245363D02*
G03*
X-4671624Y8230123I15240J0D01*
G75*
G01*
X-4468363Y8329844D02*
G02*
X-4453123Y8314604I0J-15240D01*
G75*
G01*
X-4453123Y8245363D02*
G02*
X-4468363Y8230123I-15240J0D01*
D13*
G75*
G01*
X-1985000Y7505012D02*
G03*
X-2000009Y7490003I0J-15009D01*
G75*
G01*
X-1985000Y7385007D02*
G02*
X-2000009Y7400016I0J15009D01*
G75*
G01*
X-1825000Y7505012D02*
G02*
X-1810004Y7490016I0J-14996D01*
G75*
G01*
X-1825000Y7385007D02*
G03*
X-1810004Y7400003I0J14996D01*
G75*
G01*
X-1515003Y8625017D02*
G03*
X-1530012Y8640026I-15009J0D01*
G75*
G01*
X-1635008Y8625017D02*
G02*
X-1619999Y8640026I15009J0D01*
G75*
G01*
X-1515003Y8465017D02*
G02*
X-1529999Y8450021I-14996J0D01*
G75*
G01*
X-1635008Y8465017D02*
G03*
X-1620012Y8450021I14996J0D01*
D11*
G75*
G01*
X-1766631Y7494875D02*
G03*
X-1781871Y7479635I0J-15240D01*
G75*
G01*
X-1781871Y7410394D02*
G03*
X-1766631Y7395154I15240J0D01*
G75*
G01*
X-1563370Y7494875D02*
G02*
X-1548130Y7479635I0J-15240D01*
G75*
G01*
X-1548130Y7410394D02*
G02*
X-1563370Y7395154I-15240J0D01*
D18*
G75*
G01*
X-1881685Y7337377D02*
G02*
X-1881685Y7337123I12445J-127D01*
D11*
G75*
G01*
X-5709867Y7228373D02*
G03*
X-5694627Y7213133I15240J0D01*
G75*
G01*
X-5625386Y7213133D02*
G03*
X-5610146Y7228373I0J15240D01*
G75*
G01*
X-5709867Y7431634D02*
G02*
X-5694627Y7446874I15240J0D01*
G75*
G01*
X-5625386Y7446874D02*
G02*
X-5610146Y7431634I0J-15240D01*
G75*
G01*
X-5760596Y7024317D02*
G03*
X-5745356Y7039557I0J15240D01*
G75*
G01*
X-5745356Y7108797D02*
G03*
X-5760596Y7124037I-15240J0D01*
G75*
G01*
X-5963857Y7024317D02*
G02*
X-5979097Y7039557I1J15240D01*
G75*
G01*
X-5979097Y7108797D02*
G02*
X-5963857Y7124037I15241J0D01*
G75*
G01*
X-5980146Y7891635D02*
G03*
X-5995386Y7906875I-15240J0D01*
G75*
G01*
X-6064626Y7906875D02*
G03*
X-6079866Y7891635I0J-15240D01*
G75*
G01*
X-5980146Y7688374D02*
G02*
X-5995386Y7673134I-15240J0D01*
G75*
G01*
X-6064626Y7673134D02*
G02*
X-6079866Y7688374I0J15240D01*
G75*
G01*
X-6213856Y7124037D02*
G03*
X-6229096Y7108797I0J-15240D01*
G75*
G01*
X-6229096Y7039557D02*
G03*
X-6213856Y7024317I15240J0D01*
G75*
G01*
X-6010595Y7124037D02*
G02*
X-5995355Y7108797I0J-15240D01*
G75*
G01*
X-5995355Y7039557D02*
G02*
X-6010595Y7024317I-15240J0D01*
G75*
G01*
X-5141623Y7629845D02*
G03*
X-5156863Y7614602I0J-15240D01*
G75*
G01*
X-5156863Y7545367D02*
G03*
X-5141623Y7530125I15240J-2D01*
G75*
G01*
X-4938362Y7629845D02*
G02*
X-4923122Y7614602I0J-15240D01*
G75*
G01*
X-4923122Y7545367D02*
G02*
X-4938362Y7530125I-15240J-2D01*
G75*
G01*
X-5351635Y8889865D02*
G03*
X-5366875Y8874625I0J-15240D01*
G75*
G01*
X-5366875Y8805385D02*
G03*
X-5351635Y8790145I15240J0D01*
G75*
G01*
X-5148374Y8889865D02*
G02*
X-5133134Y8874625I0J-15240D01*
G75*
G01*
X-5133134Y8805385D02*
G02*
X-5148374Y8790145I-15240J0D01*
G75*
G01*
X-5388376Y8650145D02*
G03*
X-5373136Y8665385I0J15240D01*
G75*
G01*
X-5373136Y8734626D02*
G03*
X-5388376Y8749866I-15240J0D01*
G75*
G01*
X-5591637Y8650145D02*
G02*
X-5606877Y8665385I0J15240D01*
G75*
G01*
X-5606877Y8734626D02*
G02*
X-5591637Y8749866I15240J0D01*
G75*
G01*
X-4471622Y7139846D02*
G03*
X-4486862Y7124606I0J-15240D01*
G75*
G01*
X-4486862Y7055366D02*
G03*
X-4471622Y7040126I15240J0D01*
G75*
G01*
X-4268361Y7139846D02*
G02*
X-4253121Y7124606I0J-15240D01*
G75*
G01*
X-4253121Y7055366D02*
G02*
X-4268361Y7040126I-15240J0D01*
D12*
G75*
G01
X-2622956Y8880043D02*
G03X-2622956Y8880043I-29997J0D01*
G75*
G01
X-3277997Y8009992D02*
G03X-3277997Y8009992I-132004J0D01*
G75*
G01
X-8145831Y7149973D02*
G03X-8145831Y7149973I-14148J0D01*
D13*
G75*
G01
X-2099488Y7100011D02*
G03X-2099488Y7100011I-7493J0D01*
D12*
G75*
G01
X-4442485Y7879994D02*
G03X-4442485Y7879994I-127508J0D01*
D13*
G75*
G01
X-5311216Y7519848D02*
G03X-5311216Y7519848I-7493J0D01*
D12*
G75*
G01
X-1434694Y8850122D02*
G03X-1434694Y8850122I-12700J0D01*
D13*
G75*
G01
X-6226505Y7534986D02*
G03X-6226505Y7534986I-7493J0D01*
D19*
G75*
G01
X-5690337Y8394243D02*
G03X-5690337Y8394243I-12497J0D01*
M02*
