G04 Layer: TopPasteMaskLayer*
G04 EasyEDA v6.5.29, 2023-07-07 16:20:56*
G04 d9f499156d004e84aee0404722c7e58c,63a96235fadc4189ab89c93b90d034ab,10*
G04 Gerber Generator version 0.2*
G04 Scale: 100 percent, Rotated: No, Reflected: No *
G04 Dimensions in millimeters *
G04 leading zeros omitted , absolute positions ,4 integer and 5 decimal *
%FSLAX45Y45*%
%MOMM*%

%AMMACRO1*21,1,$1,$2,0,0,$3*%
%ADD10O,1.1999976X2.999994*%
%ADD11R,0.8000X0.5000*%
%ADD12R,0.5000X0.8000*%
%ADD13R,1.0000X0.7500*%
%ADD14R,1.2500X0.7000*%
%ADD15R,3.5000X3.5000*%
%ADD16O,0.2800096X0.8999982*%
%ADD17O,0.8999982X0.2800096*%
%ADD18R,0.7000X1.5000*%
%ADD19R,1.0000X0.8000*%
%ADD20R,1.2000X2.2000*%
%ADD21R,0.9000X0.7000*%
%ADD22MACRO1,0.505X0.28X0.0000*%
%ADD23MACRO1,0.9X1.65X0.0000*%
%ADD24R,1.0000X1.7000*%
%ADD25R,1.0000X2.0000*%
%ADD26R,0.8000X0.8000*%
%ADD27R,1.0000X0.6000*%
%ADD28MACRO1,0.6223X1.1049X-90.0000*%
%ADD29MACRO1,0.665X0.28X0.0000*%
%ADD30R,0.2800X0.6650*%
%ADD31MACRO1,1.945X0.98X135.0000*%
%ADD32MACRO1,1.945X0.98X134.9995*%
%ADD33MACRO1,1.945X0.98X-45.0000*%
%ADD34C,0.0135*%

%LPD*%
G36*
X-4423003Y8927490D02*
G01*
X-4427982Y8922461D01*
X-4427982Y8877503D01*
X-4423003Y8872474D01*
X-4374997Y8872474D01*
X-4367987Y8877503D01*
X-4367987Y8922461D01*
X-4374997Y8927490D01*
G37*
G36*
X-4325010Y8927490D02*
G01*
X-4331970Y8922461D01*
X-4331970Y8877503D01*
X-4325010Y8872474D01*
X-4277004Y8872474D01*
X-4271975Y8877503D01*
X-4271975Y8922461D01*
X-4277004Y8927490D01*
G37*
G36*
X-2062988Y8757462D02*
G01*
X-2068017Y8752484D01*
X-2068017Y8707475D01*
X-2062988Y8702497D01*
X-2014982Y8702497D01*
X-2008022Y8707475D01*
X-2008022Y8752484D01*
X-2014982Y8757462D01*
G37*
G36*
X-1964994Y8757462D02*
G01*
X-1972005Y8752484D01*
X-1972005Y8707475D01*
X-1964994Y8702497D01*
X-1916988Y8702497D01*
X-1912010Y8707475D01*
X-1912010Y8752484D01*
X-1916988Y8757462D01*
G37*
G36*
X-1992477Y7946999D02*
G01*
X-1996490Y7942986D01*
X-1996490Y7896961D01*
X-1992477Y7892999D01*
X-1942439Y7892999D01*
X-1938426Y7896961D01*
X-1938426Y7942986D01*
X-1942439Y7946999D01*
G37*
G36*
X-2077567Y7946999D02*
G01*
X-2081580Y7942986D01*
X-2081580Y7896961D01*
X-2077567Y7892999D01*
X-2027478Y7892999D01*
X-2023516Y7896961D01*
X-2023516Y7942986D01*
X-2027478Y7946999D01*
G37*
G36*
X-2172512Y7466990D02*
G01*
X-2176475Y7462977D01*
X-2176475Y7417003D01*
X-2172512Y7412990D01*
X-2122424Y7412990D01*
X-2118410Y7417003D01*
X-2118410Y7462977D01*
X-2122424Y7466990D01*
G37*
G36*
X-2257552Y7466990D02*
G01*
X-2261565Y7462977D01*
X-2261565Y7417003D01*
X-2257552Y7412990D01*
X-2207514Y7412990D01*
X-2203500Y7417003D01*
X-2203500Y7462977D01*
X-2207514Y7466990D01*
G37*
G36*
X-2047493Y7247991D02*
G01*
X-2052472Y7243013D01*
X-2052472Y7189978D01*
X-2047493Y7184999D01*
X-2002485Y7184999D01*
X-1997506Y7189978D01*
X-1997506Y7243013D01*
X-2002485Y7247991D01*
G37*
G36*
X-2047493Y7144969D02*
G01*
X-2052472Y7139990D01*
X-2052472Y7087006D01*
X-2047493Y7081977D01*
X-2002485Y7081977D01*
X-1997506Y7087006D01*
X-1997506Y7139990D01*
X-2002485Y7144969D01*
G37*
G36*
X-6433007Y7821523D02*
G01*
X-6436969Y7817561D01*
X-6436969Y7767472D01*
X-6433007Y7763459D01*
X-6386982Y7763459D01*
X-6382969Y7767472D01*
X-6382969Y7817561D01*
X-6386982Y7821523D01*
G37*
G36*
X-6433007Y7736484D02*
G01*
X-6436969Y7732471D01*
X-6436969Y7682433D01*
X-6433007Y7678420D01*
X-6386982Y7678420D01*
X-6382969Y7682433D01*
X-6382969Y7732471D01*
X-6386982Y7736484D01*
G37*
G36*
X-6297574Y7976971D02*
G01*
X-6301536Y7972958D01*
X-6301536Y7926984D01*
X-6297574Y7922971D01*
X-6247485Y7922971D01*
X-6243472Y7926984D01*
X-6243472Y7972958D01*
X-6247485Y7976971D01*
G37*
G36*
X-6212484Y7976971D02*
G01*
X-6216497Y7972958D01*
X-6216497Y7926984D01*
X-6212484Y7922971D01*
X-6162446Y7922971D01*
X-6158433Y7926984D01*
X-6158433Y7972958D01*
X-6162446Y7976971D01*
G37*
G36*
X-6433007Y8196478D02*
G01*
X-6436969Y8192465D01*
X-6436969Y8142427D01*
X-6433007Y8138414D01*
X-6386982Y8138414D01*
X-6382969Y8142427D01*
X-6382969Y8192465D01*
X-6386982Y8196478D01*
G37*
G36*
X-6433007Y8281568D02*
G01*
X-6436969Y8277555D01*
X-6436969Y8227466D01*
X-6433007Y8223503D01*
X-6386982Y8223503D01*
X-6382969Y8227466D01*
X-6382969Y8277555D01*
X-6386982Y8281568D01*
G37*
G36*
X-6433007Y7611567D02*
G01*
X-6436969Y7607553D01*
X-6436969Y7557465D01*
X-6433007Y7553502D01*
X-6386982Y7553502D01*
X-6382969Y7557465D01*
X-6382969Y7607553D01*
X-6386982Y7611567D01*
G37*
G36*
X-6433007Y7526477D02*
G01*
X-6436969Y7522464D01*
X-6436969Y7472425D01*
X-6433007Y7468412D01*
X-6386982Y7468412D01*
X-6382969Y7472425D01*
X-6382969Y7522464D01*
X-6386982Y7526477D01*
G37*
G36*
X-1398524Y8345068D02*
G01*
X-1398524Y8285073D01*
X-1268526Y8285073D01*
X-1268526Y8345068D01*
G37*
G36*
X-1398524Y7935061D02*
G01*
X-1398524Y7905089D01*
X-1268526Y7905089D01*
X-1268526Y7935061D01*
G37*
G36*
X-1398524Y7705090D02*
G01*
X-1398473Y7645095D01*
X-1268476Y7645095D01*
X-1268526Y7705090D01*
G37*
G36*
X-1398524Y8035086D02*
G01*
X-1398524Y8005064D01*
X-1268526Y8005064D01*
X-1268526Y8035086D01*
G37*
G36*
X-1398524Y8185099D02*
G01*
X-1398524Y8155076D01*
X-1268526Y8155076D01*
X-1268526Y8185099D01*
G37*
G36*
X-1398524Y7885074D02*
G01*
X-1398524Y7855102D01*
X-1268526Y7855102D01*
X-1268526Y7885074D01*
G37*
G36*
X-1398524Y8135061D02*
G01*
X-1398524Y8105038D01*
X-1268526Y8105038D01*
X-1268526Y8135061D01*
G37*
G36*
X-1398524Y8085074D02*
G01*
X-1398524Y8055102D01*
X-1268526Y8055102D01*
X-1268526Y8085074D01*
G37*
G36*
X-1398524Y7835087D02*
G01*
X-1398524Y7805064D01*
X-1268526Y7805064D01*
X-1268526Y7835087D01*
G37*
G36*
X-1398524Y7985099D02*
G01*
X-1398524Y7955076D01*
X-1268526Y7955076D01*
X-1268526Y7985099D01*
G37*
G36*
X-1398473Y7785049D02*
G01*
X-1398473Y7725054D01*
X-1268476Y7725054D01*
X-1268476Y7785049D01*
G37*
G36*
X-1296670Y7622540D02*
G01*
X-1302613Y7622286D01*
X-1308557Y7621371D01*
X-1314348Y7619898D01*
X-1319987Y7617866D01*
X-1325372Y7615275D01*
X-1330452Y7612125D01*
X-1335227Y7608519D01*
X-1339596Y7604455D01*
X-1343558Y7599984D01*
X-1347063Y7595108D01*
X-1350060Y7589926D01*
X-1352499Y7584490D01*
X-1354429Y7578801D01*
X-1355750Y7572959D01*
X-1356512Y7567066D01*
X-1356664Y7561072D01*
X-1356207Y7555077D01*
X-1355140Y7549235D01*
X-1353566Y7543444D01*
X-1351330Y7537907D01*
X-1348638Y7532573D01*
X-1345387Y7527544D01*
X-1341628Y7522870D01*
X-1337462Y7518603D01*
X-1332890Y7514742D01*
X-1327962Y7511338D01*
X-1322679Y7508494D01*
X-1317193Y7506157D01*
X-1311452Y7504430D01*
X-1305610Y7503210D01*
X-1299667Y7502652D01*
X-1216660Y7502550D01*
X-1210665Y7502855D01*
X-1204772Y7503769D01*
X-1198981Y7505242D01*
X-1193342Y7507274D01*
X-1187958Y7509865D01*
X-1182878Y7512964D01*
X-1178102Y7516622D01*
X-1173734Y7520686D01*
X-1169771Y7525156D01*
X-1166266Y7529982D01*
X-1163269Y7535164D01*
X-1160830Y7540650D01*
X-1158900Y7546289D01*
X-1157579Y7552131D01*
X-1156817Y7558074D01*
X-1156665Y7564069D01*
X-1157122Y7570012D01*
X-1158189Y7575905D01*
X-1159814Y7581646D01*
X-1161948Y7587234D01*
X-1164691Y7592568D01*
X-1167942Y7597597D01*
X-1171702Y7602270D01*
X-1175867Y7606538D01*
X-1180439Y7610398D01*
X-1185367Y7613751D01*
X-1190650Y7616596D01*
X-1196136Y7618933D01*
X-1201877Y7620711D01*
X-1207719Y7621879D01*
X-1213662Y7622489D01*
G37*
G36*
X-1296670Y8487562D02*
G01*
X-1302613Y8487308D01*
X-1308557Y8486394D01*
X-1314348Y8484920D01*
X-1319987Y8482888D01*
X-1325372Y8480298D01*
X-1330452Y8477148D01*
X-1335227Y8473541D01*
X-1339596Y8469477D01*
X-1343558Y8465007D01*
X-1347063Y8460130D01*
X-1350060Y8454948D01*
X-1352499Y8449513D01*
X-1354429Y8443823D01*
X-1355750Y8437981D01*
X-1356512Y8432088D01*
X-1356664Y8426094D01*
X-1356207Y8420100D01*
X-1355140Y8414207D01*
X-1353566Y8408466D01*
X-1351330Y8402929D01*
X-1348638Y8397595D01*
X-1345387Y8392566D01*
X-1341628Y8387892D01*
X-1337462Y8383625D01*
X-1332890Y8379764D01*
X-1327962Y8376412D01*
X-1322679Y8373516D01*
X-1317193Y8371179D01*
X-1311452Y8369452D01*
X-1305610Y8368233D01*
X-1299667Y8367674D01*
X-1216660Y8367572D01*
X-1210665Y8367877D01*
X-1204772Y8368792D01*
X-1198981Y8370265D01*
X-1193342Y8372297D01*
X-1187958Y8374888D01*
X-1182878Y8377986D01*
X-1178102Y8381644D01*
X-1173734Y8385708D01*
X-1169771Y8390178D01*
X-1166266Y8395004D01*
X-1163269Y8400186D01*
X-1160830Y8405672D01*
X-1158900Y8411311D01*
X-1157579Y8417153D01*
X-1156817Y8423097D01*
X-1156665Y8429091D01*
X-1157122Y8435035D01*
X-1158189Y8440928D01*
X-1159814Y8446668D01*
X-1161948Y8452256D01*
X-1164691Y8457590D01*
X-1167942Y8462619D01*
X-1171702Y8467293D01*
X-1175867Y8471560D01*
X-1180439Y8475421D01*
X-1185367Y8478774D01*
X-1190650Y8481618D01*
X-1196136Y8483955D01*
X-1201877Y8485733D01*
X-1207719Y8486902D01*
X-1213662Y8487511D01*
G37*
G36*
X-866698Y7622540D02*
G01*
X-872642Y7622286D01*
X-878586Y7621371D01*
X-884377Y7619898D01*
X-889965Y7617866D01*
X-895350Y7615275D01*
X-900480Y7612125D01*
X-905256Y7608519D01*
X-909624Y7604455D01*
X-913587Y7599984D01*
X-917092Y7595108D01*
X-920089Y7589926D01*
X-922528Y7584490D01*
X-924407Y7578801D01*
X-925779Y7572959D01*
X-926490Y7567066D01*
X-926642Y7561072D01*
X-926236Y7555077D01*
X-925169Y7549235D01*
X-923544Y7543444D01*
X-921359Y7537907D01*
X-918616Y7532573D01*
X-915416Y7527544D01*
X-911656Y7522870D01*
X-907491Y7518603D01*
X-902919Y7514742D01*
X-897940Y7511338D01*
X-892708Y7508494D01*
X-887221Y7506157D01*
X-881481Y7504430D01*
X-875639Y7503210D01*
X-869645Y7502652D01*
X-806653Y7502550D01*
X-800709Y7502855D01*
X-794766Y7503769D01*
X-788974Y7505242D01*
X-783386Y7507274D01*
X-778002Y7509865D01*
X-772871Y7512964D01*
X-768096Y7516622D01*
X-763727Y7520686D01*
X-759764Y7525156D01*
X-756259Y7529982D01*
X-753262Y7535164D01*
X-750824Y7540650D01*
X-748944Y7546289D01*
X-747572Y7552131D01*
X-746861Y7558074D01*
X-746709Y7564069D01*
X-747115Y7570012D01*
X-748182Y7575905D01*
X-749808Y7581646D01*
X-751992Y7587234D01*
X-754735Y7592568D01*
X-757936Y7597597D01*
X-761695Y7602270D01*
X-765860Y7606538D01*
X-770432Y7610398D01*
X-775411Y7613751D01*
X-780643Y7616596D01*
X-786180Y7618933D01*
X-791870Y7620711D01*
X-797712Y7621879D01*
X-803706Y7622489D01*
G37*
G36*
X-866698Y8487562D02*
G01*
X-872642Y8487308D01*
X-878586Y8486394D01*
X-884377Y8484920D01*
X-889965Y8482888D01*
X-895350Y8480298D01*
X-900480Y8477148D01*
X-905256Y8473541D01*
X-909624Y8469477D01*
X-913587Y8465007D01*
X-917092Y8460130D01*
X-920089Y8454948D01*
X-922528Y8449513D01*
X-924407Y8443823D01*
X-925779Y8437981D01*
X-926490Y8432088D01*
X-926642Y8426094D01*
X-926236Y8420100D01*
X-925169Y8414207D01*
X-923544Y8408466D01*
X-921359Y8402929D01*
X-918616Y8397595D01*
X-915416Y8392566D01*
X-911656Y8387892D01*
X-907491Y8383625D01*
X-902919Y8379764D01*
X-897940Y8376412D01*
X-892708Y8373516D01*
X-887221Y8371179D01*
X-881481Y8369452D01*
X-875639Y8368233D01*
X-869645Y8367674D01*
X-806653Y8367572D01*
X-800709Y8367877D01*
X-794766Y8368792D01*
X-788974Y8370265D01*
X-783386Y8372297D01*
X-778002Y8374888D01*
X-772871Y8377986D01*
X-768096Y8381644D01*
X-763727Y8385708D01*
X-759764Y8390178D01*
X-756259Y8395004D01*
X-753262Y8400186D01*
X-750824Y8405672D01*
X-748944Y8411311D01*
X-747572Y8417153D01*
X-746861Y8423097D01*
X-746709Y8429091D01*
X-747115Y8435035D01*
X-748182Y8440928D01*
X-749808Y8446668D01*
X-751992Y8452256D01*
X-754735Y8457590D01*
X-757936Y8462619D01*
X-761695Y8467293D01*
X-765860Y8471560D01*
X-770432Y8475421D01*
X-775411Y8478774D01*
X-780643Y8481618D01*
X-786180Y8483955D01*
X-791870Y8485733D01*
X-797712Y8486902D01*
X-803706Y8487511D01*
G37*
G36*
X-1398524Y8265109D02*
G01*
X-1398524Y8205063D01*
X-1268526Y8205063D01*
X-1268526Y8265109D01*
G37*
G36*
X-4544974Y8307476D02*
G01*
X-4551984Y8302498D01*
X-4551984Y8257489D01*
X-4544974Y8252459D01*
X-4496968Y8252459D01*
X-4491990Y8257489D01*
X-4491990Y8302498D01*
X-4496968Y8307476D01*
G37*
G36*
X-4642967Y8307476D02*
G01*
X-4647996Y8302498D01*
X-4647996Y8257489D01*
X-4642967Y8252459D01*
X-4595012Y8252459D01*
X-4588002Y8257489D01*
X-4588002Y8302498D01*
X-4595012Y8307476D01*
G37*
G36*
X-5409946Y8288477D02*
G01*
X-5698439Y7999984D01*
X-5409946Y7711490D01*
X-5121402Y7999984D01*
G37*
G36*
X-5831890Y7986725D02*
G01*
X-5881370Y7937246D01*
X-5861608Y7917434D01*
X-5812078Y7966913D01*
G37*
G36*
X-5796534Y7951368D02*
G01*
X-5846013Y7901889D01*
X-5826201Y7882077D01*
X-5776722Y7931556D01*
G37*
G36*
X-5761177Y7916011D02*
G01*
X-5810656Y7866532D01*
X-5790895Y7846720D01*
X-5741365Y7896250D01*
G37*
G36*
X-5725820Y7880654D02*
G01*
X-5775299Y7831175D01*
X-5755487Y7811363D01*
X-5706008Y7860842D01*
G37*
G36*
X-5690463Y7845298D02*
G01*
X-5739942Y7795818D01*
X-5720181Y7776006D01*
X-5670651Y7825536D01*
G37*
G36*
X-5655106Y7809941D02*
G01*
X-5704586Y7760462D01*
X-5684774Y7740650D01*
X-5635294Y7790129D01*
G37*
G36*
X-5619750Y7774584D02*
G01*
X-5669229Y7725105D01*
X-5649468Y7705293D01*
X-5599938Y7754823D01*
G37*
G36*
X-5584393Y7739227D02*
G01*
X-5633872Y7689748D01*
X-5614111Y7669936D01*
X-5564581Y7719415D01*
G37*
G36*
X-5549036Y7703870D02*
G01*
X-5598515Y7654391D01*
X-5578754Y7634579D01*
X-5529224Y7684109D01*
G37*
G36*
X-5513679Y7668514D02*
G01*
X-5563158Y7619034D01*
X-5543397Y7599222D01*
X-5493867Y7648752D01*
G37*
G36*
X-5478322Y7633157D02*
G01*
X-5527852Y7583678D01*
X-5508040Y7563866D01*
X-5458510Y7613396D01*
G37*
G36*
X-5442966Y7597800D02*
G01*
X-5492445Y7548321D01*
X-5472684Y7528509D01*
X-5423154Y7578039D01*
G37*
G36*
X-5347157Y8471458D02*
G01*
X-5396687Y8421979D01*
X-5376875Y8402167D01*
X-5327345Y8451646D01*
G37*
G36*
X-5311800Y8436102D02*
G01*
X-5361279Y8386572D01*
X-5341518Y8366810D01*
X-5291988Y8416290D01*
G37*
G36*
X-5276443Y8400745D02*
G01*
X-5325973Y8351266D01*
X-5306161Y8331453D01*
X-5256631Y8380933D01*
G37*
G36*
X-5241086Y8365388D02*
G01*
X-5290566Y8315858D01*
X-5270804Y8296097D01*
X-5221274Y8345576D01*
G37*
G36*
X-5205730Y8330031D02*
G01*
X-5255260Y8280552D01*
X-5235448Y8260740D01*
X-5185968Y8310219D01*
G37*
G36*
X-5170373Y8294674D02*
G01*
X-5219903Y8245195D01*
X-5200091Y8225383D01*
X-5150561Y8274862D01*
G37*
G36*
X-5135016Y8259318D02*
G01*
X-5184546Y8209838D01*
X-5164734Y8190026D01*
X-5115255Y8239506D01*
G37*
G36*
X-5099659Y8223961D02*
G01*
X-5149189Y8174481D01*
X-5129377Y8154670D01*
X-5079847Y8204149D01*
G37*
G36*
X-5064302Y8188604D02*
G01*
X-5113832Y8139125D01*
X-5094020Y8119313D01*
X-5044541Y8168792D01*
G37*
G36*
X-5028946Y8153247D02*
G01*
X-5078476Y8103768D01*
X-5058664Y8083956D01*
X-5009134Y8133435D01*
G37*
G36*
X-4993640Y8117890D02*
G01*
X-5043119Y8068411D01*
X-5023307Y8048599D01*
X-4973828Y8098078D01*
G37*
G36*
X-4958232Y8082534D02*
G01*
X-5007762Y8033054D01*
X-4987950Y8013242D01*
X-4938471Y8062722D01*
G37*
G36*
X-5376875Y7597800D02*
G01*
X-5396687Y7578039D01*
X-5347157Y7528509D01*
X-5327396Y7548321D01*
G37*
G36*
X-5341518Y7633157D02*
G01*
X-5361330Y7613396D01*
X-5311800Y7563866D01*
X-5291988Y7583678D01*
G37*
G36*
X-5306161Y7668514D02*
G01*
X-5325973Y7648752D01*
X-5276443Y7599222D01*
X-5256682Y7619034D01*
G37*
G36*
X-5270804Y7703870D02*
G01*
X-5290616Y7684109D01*
X-5241086Y7634579D01*
X-5221325Y7654391D01*
G37*
G36*
X-5235448Y7739227D02*
G01*
X-5255260Y7719415D01*
X-5205780Y7669936D01*
X-5185968Y7689748D01*
G37*
G36*
X-5200091Y7774584D02*
G01*
X-5219903Y7754823D01*
X-5170373Y7705293D01*
X-5150612Y7725105D01*
G37*
G36*
X-5164734Y7809941D02*
G01*
X-5184546Y7790129D01*
X-5135067Y7740650D01*
X-5115255Y7760462D01*
G37*
G36*
X-5129377Y7845298D02*
G01*
X-5149189Y7825536D01*
X-5099659Y7776006D01*
X-5079898Y7795818D01*
G37*
G36*
X-5094020Y7880654D02*
G01*
X-5113832Y7860842D01*
X-5064353Y7811363D01*
X-5044541Y7831175D01*
G37*
G36*
X-5058664Y7916011D02*
G01*
X-5078476Y7896250D01*
X-5028946Y7846720D01*
X-5009184Y7866532D01*
G37*
G36*
X-5023307Y7951368D02*
G01*
X-5043119Y7931556D01*
X-4993640Y7882077D01*
X-4973828Y7901889D01*
G37*
G36*
X-4987950Y7986725D02*
G01*
X-5007762Y7966913D01*
X-4958232Y7917434D01*
X-4938471Y7937246D01*
G37*
G36*
X-5861608Y8082534D02*
G01*
X-5881370Y8062722D01*
X-5831890Y8013242D01*
X-5812078Y8033054D01*
G37*
G36*
X-5826201Y8117890D02*
G01*
X-5846013Y8098078D01*
X-5796534Y8048599D01*
X-5776722Y8068411D01*
G37*
G36*
X-5790895Y8153247D02*
G01*
X-5810656Y8133435D01*
X-5761177Y8083956D01*
X-5741365Y8103768D01*
G37*
G36*
X-5755538Y8188604D02*
G01*
X-5775299Y8168792D01*
X-5725820Y8119313D01*
X-5706008Y8139125D01*
G37*
G36*
X-5720181Y8223961D02*
G01*
X-5739993Y8204149D01*
X-5690463Y8154670D01*
X-5670651Y8174481D01*
G37*
G36*
X-5684824Y8259318D02*
G01*
X-5704586Y8239506D01*
X-5655106Y8190026D01*
X-5635294Y8209838D01*
G37*
G36*
X-5649468Y8294674D02*
G01*
X-5669280Y8274862D01*
X-5619750Y8225383D01*
X-5599938Y8245195D01*
G37*
G36*
X-5614111Y8330031D02*
G01*
X-5633872Y8310219D01*
X-5584393Y8260740D01*
X-5564581Y8280552D01*
G37*
G36*
X-5578754Y8365388D02*
G01*
X-5598566Y8345576D01*
X-5549036Y8296097D01*
X-5529275Y8315858D01*
G37*
G36*
X-5543397Y8400745D02*
G01*
X-5563209Y8380933D01*
X-5513679Y8331453D01*
X-5493867Y8351266D01*
G37*
G36*
X-5508040Y8436102D02*
G01*
X-5527852Y8416290D01*
X-5478322Y8366810D01*
X-5458561Y8386572D01*
G37*
G36*
X-5472684Y8471458D02*
G01*
X-5492496Y8451646D01*
X-5442966Y8402167D01*
X-5423154Y8421979D01*
G37*
G36*
X-1639976Y7472527D02*
G01*
X-1646986Y7467498D01*
X-1646986Y7422489D01*
X-1639976Y7417511D01*
X-1592021Y7417511D01*
X-1586992Y7422489D01*
X-1586992Y7467498D01*
X-1592021Y7472527D01*
G37*
G36*
X-1738020Y7472527D02*
G01*
X-1742998Y7467498D01*
X-1742998Y7422489D01*
X-1738020Y7417511D01*
X-1690014Y7417511D01*
X-1683004Y7422489D01*
X-1683004Y7467498D01*
X-1690014Y7472527D01*
G37*
G36*
X-2089505Y8914993D02*
G01*
X-2094484Y8909964D01*
X-2094484Y8830005D01*
X-2089505Y8824976D01*
X-2009495Y8824976D01*
X-2004517Y8830005D01*
X-2004517Y8852763D01*
X-2041499Y8852763D01*
X-2041499Y8885783D01*
X-2004517Y8885783D01*
X-2004517Y8909964D01*
X-2009495Y8914993D01*
G37*
G36*
X-1929485Y8914993D02*
G01*
X-1934514Y8909964D01*
X-1934514Y8885783D01*
X-1896516Y8885783D01*
X-1896516Y8852763D01*
X-1934514Y8852763D01*
X-1934514Y8830005D01*
X-1929485Y8824976D01*
X-1850491Y8824976D01*
X-1845513Y8830005D01*
X-1845513Y8909964D01*
X-1850491Y8914993D01*
G37*
G36*
X-927506Y8862009D02*
G01*
X-931519Y8857996D01*
X-931519Y8811971D01*
X-927506Y8808008D01*
X-877417Y8808008D01*
X-873455Y8811971D01*
X-873455Y8857996D01*
X-877417Y8862009D01*
G37*
G36*
X-1012545Y8862009D02*
G01*
X-1016558Y8857996D01*
X-1016558Y8811971D01*
X-1012545Y8808008D01*
X-962507Y8808008D01*
X-958494Y8811971D01*
X-958494Y8857996D01*
X-962507Y8862009D01*
G37*
G36*
X-5682488Y7408011D02*
G01*
X-5687517Y7402982D01*
X-5687517Y7355027D01*
X-5682488Y7348016D01*
X-5637530Y7348016D01*
X-5632500Y7355027D01*
X-5632500Y7402982D01*
X-5637530Y7408011D01*
G37*
G36*
X-5682488Y7311999D02*
G01*
X-5687517Y7304989D01*
X-5687517Y7256983D01*
X-5682488Y7252004D01*
X-5637530Y7252004D01*
X-5632500Y7256983D01*
X-5632500Y7304989D01*
X-5637530Y7311999D01*
G37*
G36*
X-5935218Y7101687D02*
G01*
X-5940247Y7096658D01*
X-5940247Y7051700D01*
X-5935218Y7046671D01*
X-5887212Y7046671D01*
X-5880252Y7051700D01*
X-5880252Y7096658D01*
X-5887212Y7101687D01*
G37*
G36*
X-5837224Y7101687D02*
G01*
X-5844235Y7096658D01*
X-5844235Y7051700D01*
X-5837224Y7046671D01*
X-5789218Y7046671D01*
X-5784240Y7051700D01*
X-5784240Y7096658D01*
X-5789218Y7101687D01*
G37*
G36*
X-6052515Y7771993D02*
G01*
X-6057493Y7764983D01*
X-6057493Y7716977D01*
X-6052515Y7711998D01*
X-6007506Y7711998D01*
X-6002528Y7716977D01*
X-6002528Y7764983D01*
X-6007506Y7771993D01*
G37*
G36*
X-6052515Y7868005D02*
G01*
X-6057493Y7863027D01*
X-6057493Y7815021D01*
X-6052515Y7808010D01*
X-6007506Y7808010D01*
X-6002528Y7815021D01*
X-6002528Y7863027D01*
X-6007506Y7868005D01*
G37*
G36*
X-6087211Y7101687D02*
G01*
X-6094222Y7096658D01*
X-6094222Y7051700D01*
X-6087211Y7046671D01*
X-6039205Y7046671D01*
X-6034227Y7051700D01*
X-6034227Y7096658D01*
X-6039205Y7101687D01*
G37*
G36*
X-6185204Y7101687D02*
G01*
X-6190234Y7096658D01*
X-6190234Y7051700D01*
X-6185204Y7046671D01*
X-6137249Y7046671D01*
X-6130239Y7051700D01*
X-6130239Y7096658D01*
X-6137249Y7101687D01*
G37*
G36*
X-6293002Y7861553D02*
G01*
X-6297015Y7857591D01*
X-6297015Y7807502D01*
X-6293002Y7803489D01*
X-6247028Y7803489D01*
X-6243015Y7807502D01*
X-6243015Y7857591D01*
X-6247028Y7861553D01*
G37*
G36*
X-6293002Y7776514D02*
G01*
X-6297015Y7772501D01*
X-6297015Y7722463D01*
X-6293002Y7718450D01*
X-6247028Y7718450D01*
X-6243015Y7722463D01*
X-6243015Y7772501D01*
X-6247028Y7776514D01*
G37*
G36*
X-6173012Y7776514D02*
G01*
X-6177026Y7772501D01*
X-6177026Y7722463D01*
X-6173012Y7718450D01*
X-6126988Y7718450D01*
X-6123025Y7722463D01*
X-6123025Y7772501D01*
X-6126988Y7776514D01*
G37*
G36*
X-6173012Y7861553D02*
G01*
X-6177026Y7857591D01*
X-6177026Y7807502D01*
X-6173012Y7803489D01*
X-6126988Y7803489D01*
X-6123025Y7807502D01*
X-6123025Y7857591D01*
X-6126988Y7861553D01*
G37*
G36*
X-5014976Y7607503D02*
G01*
X-5021986Y7602474D01*
X-5021986Y7557465D01*
X-5014976Y7552486D01*
X-4966970Y7552486D01*
X-4961991Y7557465D01*
X-4961991Y7602474D01*
X-4966970Y7607503D01*
G37*
G36*
X-5112969Y7607503D02*
G01*
X-5117998Y7602474D01*
X-5117998Y7557465D01*
X-5112969Y7552486D01*
X-5065014Y7552486D01*
X-5058003Y7557465D01*
X-5058003Y7602474D01*
X-5065014Y7607503D01*
G37*
G36*
X-5224983Y8867495D02*
G01*
X-5231993Y8862517D01*
X-5231993Y8817508D01*
X-5224983Y8812530D01*
X-5176977Y8812530D01*
X-5171998Y8817508D01*
X-5171998Y8862517D01*
X-5176977Y8867495D01*
G37*
G36*
X-5322976Y8867495D02*
G01*
X-5328005Y8862517D01*
X-5328005Y8817508D01*
X-5322976Y8812530D01*
X-5275021Y8812530D01*
X-5268010Y8817508D01*
X-5268010Y8862517D01*
X-5275021Y8867495D01*
G37*
G36*
X-5563006Y8727490D02*
G01*
X-5568035Y8722512D01*
X-5568035Y8677503D01*
X-5563006Y8672525D01*
X-5515000Y8672525D01*
X-5507990Y8677503D01*
X-5507990Y8722512D01*
X-5515000Y8727490D01*
G37*
G36*
X-5465013Y8727490D02*
G01*
X-5472023Y8722512D01*
X-5472023Y8677503D01*
X-5465013Y8672525D01*
X-5417007Y8672525D01*
X-5412028Y8677503D01*
X-5412028Y8722512D01*
X-5417007Y8727490D01*
G37*
G36*
X-4344974Y7117486D02*
G01*
X-4351985Y7112508D01*
X-4351985Y7067499D01*
X-4344974Y7062470D01*
X-4296968Y7062470D01*
X-4291990Y7067499D01*
X-4291990Y7112508D01*
X-4296968Y7117486D01*
G37*
G36*
X-4442968Y7117486D02*
G01*
X-4447997Y7112508D01*
X-4447997Y7067499D01*
X-4442968Y7062470D01*
X-4395012Y7062470D01*
X-4388002Y7067499D01*
X-4388002Y7112508D01*
X-4395012Y7117486D01*
G37*
G36*
X-5222494Y8726982D02*
G01*
X-5226507Y8723020D01*
X-5226507Y8676995D01*
X-5222494Y8672982D01*
X-5172456Y8672982D01*
X-5168442Y8676995D01*
X-5168442Y8723020D01*
X-5172456Y8726982D01*
G37*
G36*
X-5307584Y8726982D02*
G01*
X-5311546Y8723020D01*
X-5311546Y8676995D01*
X-5307584Y8672982D01*
X-5257495Y8672982D01*
X-5253482Y8676995D01*
X-5253482Y8723020D01*
X-5257495Y8726982D01*
G37*
G36*
X-5547563Y8866987D02*
G01*
X-5551576Y8863025D01*
X-5551576Y8817000D01*
X-5547563Y8812987D01*
X-5497525Y8812987D01*
X-5493512Y8817000D01*
X-5493512Y8863025D01*
X-5497525Y8866987D01*
G37*
G36*
X-5462524Y8866987D02*
G01*
X-5466486Y8863025D01*
X-5466486Y8817000D01*
X-5462524Y8812987D01*
X-5412435Y8812987D01*
X-5408422Y8817000D01*
X-5408422Y8863025D01*
X-5412435Y8866987D01*
G37*
G36*
X-1587500Y7902041D02*
G01*
X-1591513Y7898028D01*
X-1591513Y7852003D01*
X-1587500Y7847990D01*
X-1537411Y7847990D01*
X-1533448Y7852003D01*
X-1533448Y7898028D01*
X-1537411Y7902041D01*
G37*
G36*
X-1672589Y7902041D02*
G01*
X-1676552Y7898028D01*
X-1676552Y7852003D01*
X-1672589Y7847990D01*
X-1622501Y7847990D01*
X-1618488Y7852003D01*
X-1618488Y7898028D01*
X-1622501Y7902041D01*
G37*
G36*
X-1587500Y8192008D02*
G01*
X-1591513Y8187994D01*
X-1591513Y8142020D01*
X-1587500Y8138007D01*
X-1537411Y8138007D01*
X-1533448Y8142020D01*
X-1533448Y8187994D01*
X-1537411Y8192008D01*
G37*
G36*
X-1672589Y8192008D02*
G01*
X-1676552Y8187994D01*
X-1676552Y8142020D01*
X-1672589Y8138007D01*
X-1622501Y8138007D01*
X-1618488Y8142020D01*
X-1618488Y8187994D01*
X-1622501Y8192008D01*
G37*
D10*
G01*
X-2775000Y8809989D03*
G01*
X-3029000Y8809989D03*
G01*
X-3283000Y8809989D03*
G01*
X-3537000Y8809989D03*
G01*
X-3791000Y8809989D03*
G01*
X-4045000Y8809989D03*
G01*
X-4045000Y7209993D03*
G01*
X-3791000Y7209993D03*
G01*
X-3537000Y7209993D03*
G01*
X-3283000Y7209993D03*
G01*
X-3029000Y7209993D03*
G01*
X-2775000Y7209993D03*
D11*
G01*
X-1880006Y8559977D03*
G01*
X-1880006Y8459978D03*
D12*
G01*
X-2269997Y8729979D03*
G01*
X-2169998Y8729979D03*
D13*
G01*
X-1482750Y7719974D03*
G01*
X-1717243Y7719974D03*
G01*
X-1547748Y8734983D03*
G01*
X-1782241Y8734983D03*
D14*
G01*
X-2524963Y7679994D03*
G01*
X-2275027Y7774990D03*
G01*
X-2275027Y7584998D03*
G01*
X-1855038Y7679994D03*
G01*
X-2104974Y7584998D03*
G01*
X-2104974Y7774990D03*
D15*
G01*
X-2259990Y8329955D03*
D16*
G01*
X-2109876Y8079994D03*
G01*
X-2159914Y8079994D03*
G01*
X-2209952Y8079994D03*
G01*
X-2259990Y8079994D03*
G01*
X-2310028Y8079994D03*
G01*
X-2360066Y8079994D03*
G01*
X-2410104Y8079994D03*
D17*
G01*
X-2510002Y8179866D03*
G01*
X-2510002Y8229904D03*
G01*
X-2510002Y8279942D03*
G01*
X-2510002Y8329980D03*
G01*
X-2510002Y8380018D03*
G01*
X-2510002Y8430056D03*
G01*
X-2510002Y8480094D03*
D16*
G01*
X-2410104Y8579993D03*
G01*
X-2360066Y8579993D03*
G01*
X-2310028Y8579993D03*
G01*
X-2259990Y8579993D03*
G01*
X-2209952Y8579993D03*
G01*
X-2159914Y8579993D03*
G01*
X-2109876Y8579993D03*
D17*
G01*
X-2010003Y8480094D03*
G01*
X-2010003Y8430056D03*
G01*
X-2010003Y8380018D03*
G01*
X-2010003Y8329980D03*
G01*
X-2010003Y8279942D03*
G01*
X-2010003Y8229904D03*
G01*
X-2010003Y8179866D03*
D18*
G01*
X-1349984Y7379995D03*
G01*
X-1049985Y7379995D03*
G01*
X-899998Y7379995D03*
D19*
G01*
X-1489989Y7289977D03*
G01*
X-759993Y7289977D03*
G01*
X-759993Y7069988D03*
G01*
X-1489989Y7069988D03*
D20*
G01*
X-8049971Y7209993D03*
G01*
X-7849971Y7209993D03*
G01*
X-7649971Y7209993D03*
G01*
X-7449972Y7209993D03*
G01*
X-7249972Y7209993D03*
G01*
X-7049973Y7209993D03*
G01*
X-6849973Y7209993D03*
G01*
X-6649973Y7209993D03*
G01*
X-6649973Y8789974D03*
G01*
X-6849973Y8789974D03*
G01*
X-7049973Y8789974D03*
G01*
X-7249972Y8789974D03*
G01*
X-7449972Y8789974D03*
G01*
X-7649971Y8789974D03*
G01*
X-7849971Y8789974D03*
G01*
X-8049971Y8789974D03*
D21*
G01*
X-4288485Y8424976D03*
G01*
X-4288485Y8534984D03*
G01*
X-4471492Y8534984D03*
G01*
X-4471492Y8424976D03*
G01*
X-4608474Y8424976D03*
G01*
X-4608474Y8534984D03*
G01*
X-4791481Y8534984D03*
G01*
X-4791481Y8424976D03*
D22*
G01*
X-2162241Y7099987D03*
G01*
X-2162241Y7149986D03*
G01*
X-2162241Y7199986D03*
G01*
X-2162241Y7249986D03*
G01*
X-2347742Y7249986D03*
G01*
X-2347742Y7199986D03*
G01*
X-2347742Y7149986D03*
G01*
X-2347742Y7099987D03*
D23*
G01*
X-2254991Y7174986D03*
D24*
G01*
X-4754905Y7549972D03*
G01*
X-4755032Y8209991D03*
G01*
X-4384954Y7549972D03*
G01*
X-4384954Y8209991D03*
D25*
G01*
X-4689982Y7159980D03*
G01*
X-5229987Y7159980D03*
D12*
G01*
X-1954987Y7444994D03*
G01*
X-1854987Y7444994D03*
D11*
G01*
X-1575003Y8595004D03*
G01*
X-1575003Y8495004D03*
D26*
G01*
X-769899Y8665006D03*
G01*
X-940079Y8665006D03*
D27*
G01*
X-1164996Y8780018D03*
G01*
X-1164996Y8590026D03*
G01*
X-1425016Y8590026D03*
G01*
X-1425016Y8685021D03*
G01*
X-1425016Y8780018D03*
D28*
G01*
X-1894385Y7077031D03*
G01*
X-1894385Y7171011D03*
G01*
X-1894385Y7267526D03*
G01*
X-1614985Y7264991D03*
G01*
X-1614985Y7077031D03*
D29*
G01*
X-6170756Y7535002D03*
G01*
X-6170756Y7485002D03*
G01*
X-6170756Y7435002D03*
G01*
X-6170756Y7385003D03*
G01*
X-6170756Y7335003D03*
G01*
X-6170756Y7285003D03*
D30*
G01*
X-6105017Y7219264D03*
G01*
X-6055004Y7219264D03*
G01*
X-6005017Y7219264D03*
G01*
X-5955004Y7219264D03*
G01*
X-5905017Y7219264D03*
G01*
X-5855004Y7219264D03*
D29*
G01*
X-5789255Y7285003D03*
G01*
X-5789255Y7335003D03*
G01*
X-5789255Y7385003D03*
G01*
X-5789255Y7435002D03*
G01*
X-5789255Y7485002D03*
G01*
X-5789255Y7535002D03*
D30*
G01*
X-5855004Y7600746D03*
G01*
X-5905017Y7600746D03*
G01*
X-5955004Y7600746D03*
G01*
X-6005017Y7600746D03*
G01*
X-6055004Y7600746D03*
G01*
X-6105017Y7600746D03*
D31*
G01*
X-6041275Y8240848D03*
D32*
G01*
X-5800860Y8481264D03*
D33*
G01*
X-6118705Y8799109D03*
M02*
