G04 Layer: TopLayer*
G04 EasyEDA v6.5.29, 2023-07-07 16:20:56*
G04 d9f499156d004e84aee0404722c7e58c,63a96235fadc4189ab89c93b90d034ab,10*
G04 Gerber Generator version 0.2*
G04 Scale: 100 percent, Rotated: No, Reflected: No *
G04 Dimensions in millimeters *
G04 leading zeros omitted , absolute positions ,4 integer and 5 decimal *
%FSLAX45Y45*%
%MOMM*%

%AMMACRO1*21,1,$1,$2,0,0,$3*%
%ADD10C,0.2540*%
%ADD11C,0.1280*%
%ADD12C,0.5080*%
%ADD13C,0.3500*%
%ADD14MACRO1,0.54X0.7901X90.0000*%
%ADD15O,1.1999976X2.999994*%
%ADD16R,0.8000X0.5000*%
%ADD17R,0.5000X0.8000*%
%ADD18R,1.0000X0.7500*%
%ADD19R,1.2500X0.7000*%
%ADD20MACRO1,0.54X0.5656X90.0000*%
%ADD21R,3.5000X3.5000*%
%ADD22O,0.2800096X0.8999982*%
%ADD23O,0.8999982X0.2800096*%
%ADD24R,0.7000X1.5000*%
%ADD25R,1.0000X0.8000*%
%ADD26R,1.2000X2.2000*%
%ADD27R,0.9000X0.7000*%
%ADD28MACRO1,0.54X0.7901X0.0000*%
%ADD29R,0.5400X0.7901*%
%ADD30MACRO1,0.505X0.28X0.0000*%
%ADD31MACRO1,0.9X1.65X0.0000*%
%ADD32MACRO1,0.54X0.5656X0.0000*%
%ADD33R,0.5400X0.5657*%
%ADD34MACRO1,0.54X0.5656X-90.0000*%
%ADD35R,1.3000X0.3000*%
%ADD36MACRO1,0.54X0.7901X-90.0000*%
%ADD37R,1.0000X1.7000*%
%ADD38MACRO1,0.28X0.7X45.0000*%
%ADD39MACRO1,0.28X0.7X44.9963*%
%ADD40MACRO1,0.28X0.7X45.0037*%
%ADD41MACRO1,0.7X0.28X45.0000*%
%ADD42MACRO1,0.7X0.28X45.0015*%
%ADD43MACRO1,0.7X0.28X44.9985*%
%ADD44MACRO1,5.1X5.1X45.0000*%
%ADD45R,1.0000X2.0000*%
%ADD46R,0.8000X0.8000*%
%ADD47MACRO1,0.864X0.8065X-90.0000*%
%ADD48R,1.0000X0.6000*%
%ADD49MACRO1,0.6223X1.1049X-90.0000*%
%ADD50MACRO1,0.665X0.28X0.0000*%
%ADD51R,0.2800X0.6650*%
%ADD52MACRO1,1.945X0.98X135.0000*%
%ADD53MACRO1,1.945X0.98X134.9995*%
%ADD54MACRO1,1.945X0.98X-45.0000*%
%ADD55O,1.7999964X1.1999976*%
%ADD56O,1.9999959999999999X1.1999976*%
%ADD57C,0.6096*%
%ADD58C,0.0124*%

%LPD*%
G36*
X-6209995Y7865618D02*
G01*
X-6214059Y7866481D01*
X-6217462Y7868869D01*
X-6222796Y7877708D01*
X-6225184Y7880096D01*
X-6227470Y7883550D01*
X-6228130Y7887614D01*
X-6227165Y7891678D01*
X-6224625Y7894980D01*
X-6220968Y7896961D01*
X-6216853Y7897368D01*
X-6214414Y7897063D01*
X-6207201Y7897063D01*
X-6207201Y7930134D01*
X-6208928Y7930134D01*
X-6212789Y7930896D01*
X-6216091Y7933131D01*
X-6218326Y7936382D01*
X-6219088Y7940294D01*
X-6219088Y7959648D01*
X-6218326Y7963560D01*
X-6216091Y7966862D01*
X-6212789Y7969046D01*
X-6208928Y7969808D01*
X-6207201Y7969808D01*
X-6206439Y7974888D01*
X-6204204Y7978140D01*
X-6200952Y7980375D01*
X-6197041Y7981137D01*
X-6176365Y7981137D01*
X-6172504Y7980375D01*
X-6169202Y7978190D01*
X-6166967Y7974888D01*
X-6166205Y7969808D01*
X-6132525Y7969808D01*
X-6131763Y7974939D01*
X-6129528Y7978241D01*
X-6126226Y7980425D01*
X-6122365Y7981238D01*
X-6012942Y7981340D01*
X-6009284Y7980629D01*
X-6006134Y7978698D01*
X-6003899Y7975803D01*
X-6002832Y7972247D01*
X-6003137Y7968538D01*
X-6005474Y7959750D01*
X-6006185Y7951571D01*
X-6007201Y7947964D01*
X-6009436Y7944967D01*
X-6012637Y7942986D01*
X-6016294Y7942325D01*
X-6129477Y7942325D01*
X-6136690Y7941564D01*
X-6143142Y7939481D01*
X-6149086Y7936026D01*
X-6153150Y7932572D01*
X-6156198Y7930743D01*
X-6159754Y7930134D01*
X-6166205Y7930134D01*
X-6166205Y7923682D01*
X-6166967Y7919821D01*
X-6169202Y7916519D01*
X-6172454Y7913217D01*
X-6177076Y7907578D01*
X-6180175Y7901431D01*
X-6181547Y7896809D01*
X-6182004Y7893100D01*
X-6182817Y7890154D01*
X-6184442Y7887563D01*
X-6186830Y7885582D01*
X-6191758Y7882585D01*
X-6193739Y7881924D01*
X-6195161Y7879740D01*
X-6197193Y7877708D01*
X-6202578Y7868869D01*
X-6205931Y7866481D01*
G37*

%LPD*%
G36*
X-6142075Y7683144D02*
G01*
X-6146139Y7684820D01*
X-6151829Y7688783D01*
X-6160719Y7692948D01*
X-6162294Y7693355D01*
X-6166205Y7695387D01*
X-6168898Y7698841D01*
X-6169863Y7703159D01*
X-6169863Y7726222D01*
X-6199632Y7726222D01*
X-6203492Y7727035D01*
X-6206794Y7729220D01*
X-6214110Y7736535D01*
X-6216345Y7739837D01*
X-6217107Y7743698D01*
X-6217107Y7757058D01*
X-6216345Y7760970D01*
X-6214110Y7764221D01*
X-6210808Y7766456D01*
X-6206947Y7767218D01*
X-6169863Y7767218D01*
X-6169863Y7768945D01*
X-6169101Y7772806D01*
X-6166866Y7776108D01*
X-6163564Y7778343D01*
X-6159703Y7779105D01*
X-6140297Y7779105D01*
X-6136436Y7778343D01*
X-6133134Y7776108D01*
X-6130950Y7772806D01*
X-6130137Y7768945D01*
X-6130137Y7766964D01*
X-6126124Y7764983D01*
X-6123330Y7761427D01*
X-6122314Y7757058D01*
X-6122314Y7736382D01*
X-6123330Y7732014D01*
X-6126124Y7728458D01*
X-6130137Y7726527D01*
X-6130137Y7693152D01*
X-6131102Y7688834D01*
X-6133795Y7685328D01*
X-6137706Y7683347D01*
G37*

%LPD*%
G36*
X-8479129Y7025894D02*
G01*
X-8497519Y7026859D01*
X-8514435Y7029399D01*
X-8530996Y7033564D01*
X-8547049Y7039406D01*
X-8562441Y7046722D01*
X-8577072Y7055561D01*
X-8590788Y7065772D01*
X-8603386Y7077252D01*
X-8614816Y7089952D01*
X-8624976Y7103719D01*
X-8633714Y7118400D01*
X-8640978Y7133844D01*
X-8646668Y7149947D01*
X-8650782Y7166508D01*
X-8653221Y7183424D01*
X-8654084Y7200849D01*
X-8654084Y8799118D01*
X-8653119Y8817559D01*
X-8650579Y8834424D01*
X-8646363Y8850985D01*
X-8640572Y8867038D01*
X-8633256Y8882481D01*
X-8624417Y8897112D01*
X-8614206Y8910777D01*
X-8602675Y8923375D01*
X-8590026Y8934856D01*
X-8576259Y8944965D01*
X-8561578Y8953703D01*
X-8546134Y8960967D01*
X-8530031Y8966657D01*
X-8513470Y8970772D01*
X-8496554Y8973210D01*
X-8479129Y8974074D01*
X-4422038Y8974074D01*
X-4417974Y8973210D01*
X-4414570Y8970822D01*
X-4412437Y8967266D01*
X-4411878Y8963152D01*
X-4413046Y8959189D01*
X-4415688Y8955989D01*
X-4419396Y8954109D01*
X-4425238Y8952890D01*
X-4443425Y8952890D01*
X-4449775Y8952179D01*
X-4455210Y8950248D01*
X-4460138Y8947200D01*
X-4464202Y8943086D01*
X-4467301Y8938209D01*
X-4469180Y8932722D01*
X-4469892Y8926423D01*
X-4469892Y8873540D01*
X-4469180Y8867241D01*
X-4467301Y8861755D01*
X-4464202Y8856878D01*
X-4460138Y8852763D01*
X-4455210Y8849715D01*
X-4449775Y8847785D01*
X-4443425Y8847074D01*
X-4425238Y8847074D01*
X-4422648Y8846718D01*
X-4414266Y8844483D01*
X-4404461Y8843619D01*
X-4394708Y8844483D01*
X-4386326Y8846718D01*
X-4383735Y8847074D01*
X-4365548Y8847074D01*
X-4359249Y8847785D01*
X-4353356Y8849868D01*
X-4350004Y8850426D01*
X-4346651Y8849868D01*
X-4340758Y8847785D01*
X-4334408Y8847074D01*
X-4321606Y8847074D01*
X-4321606Y8880144D01*
X-4328922Y8880144D01*
X-4332833Y8880906D01*
X-4336084Y8883091D01*
X-4338320Y8886393D01*
X-4339082Y8890304D01*
X-4339082Y8909659D01*
X-4338320Y8913571D01*
X-4336084Y8916873D01*
X-4332833Y8919057D01*
X-4328922Y8919819D01*
X-4321606Y8919819D01*
X-4321606Y8952890D01*
X-4334408Y8952890D01*
X-4340758Y8952179D01*
X-4346651Y8950096D01*
X-4350004Y8949537D01*
X-4353356Y8950096D01*
X-4359249Y8952179D01*
X-4365548Y8952890D01*
X-4383735Y8952890D01*
X-4389577Y8954109D01*
X-4393285Y8955989D01*
X-4395927Y8959189D01*
X-4397095Y8963152D01*
X-4396536Y8967266D01*
X-4394403Y8970822D01*
X-4390999Y8973210D01*
X-4386935Y8974074D01*
X-4116578Y8974074D01*
X-4112666Y8973312D01*
X-4109415Y8971076D01*
X-4107179Y8967825D01*
X-4106418Y8963914D01*
X-4107179Y8960002D01*
X-4117238Y8946388D01*
X-4123131Y8935669D01*
X-4127398Y8924188D01*
X-4129989Y8912199D01*
X-4130903Y8899601D01*
X-4130903Y8720328D01*
X-4129989Y8707780D01*
X-4127398Y8695791D01*
X-4123131Y8684310D01*
X-4117238Y8673541D01*
X-4109923Y8663736D01*
X-4101236Y8655100D01*
X-4091432Y8647734D01*
X-4080662Y8641842D01*
X-4069181Y8637574D01*
X-4057192Y8634984D01*
X-4045000Y8634120D01*
X-4032758Y8634984D01*
X-4020820Y8637574D01*
X-4009339Y8641842D01*
X-3998569Y8647734D01*
X-3988765Y8655100D01*
X-3980078Y8663736D01*
X-3972763Y8673541D01*
X-3966870Y8684310D01*
X-3962603Y8695791D01*
X-3959961Y8707780D01*
X-3959098Y8720328D01*
X-3959098Y8899601D01*
X-3959961Y8912199D01*
X-3962603Y8924188D01*
X-3966870Y8935669D01*
X-3972763Y8946388D01*
X-3980586Y8956751D01*
X-3982821Y8960002D01*
X-3983583Y8963914D01*
X-3982821Y8967825D01*
X-3980586Y8971076D01*
X-3977284Y8973312D01*
X-3973423Y8974074D01*
X-3862578Y8974074D01*
X-3858666Y8973312D01*
X-3855415Y8971076D01*
X-3853179Y8967825D01*
X-3852418Y8963914D01*
X-3853179Y8960002D01*
X-3863238Y8946388D01*
X-3869131Y8935669D01*
X-3873398Y8924188D01*
X-3875989Y8912199D01*
X-3876903Y8899601D01*
X-3876903Y8720328D01*
X-3875989Y8707780D01*
X-3873398Y8695791D01*
X-3869131Y8684310D01*
X-3863238Y8673541D01*
X-3855923Y8663736D01*
X-3847236Y8655100D01*
X-3837432Y8647734D01*
X-3826662Y8641842D01*
X-3815181Y8637574D01*
X-3803192Y8634984D01*
X-3791000Y8634120D01*
X-3778758Y8634984D01*
X-3766820Y8637574D01*
X-3755339Y8641842D01*
X-3744569Y8647734D01*
X-3734765Y8655100D01*
X-3726078Y8663736D01*
X-3718763Y8673541D01*
X-3712870Y8684310D01*
X-3708603Y8695791D01*
X-3705961Y8707780D01*
X-3705098Y8720328D01*
X-3705098Y8899601D01*
X-3705961Y8912199D01*
X-3708603Y8924188D01*
X-3712870Y8935669D01*
X-3718763Y8946388D01*
X-3726586Y8956751D01*
X-3728821Y8960002D01*
X-3729583Y8963914D01*
X-3728821Y8967825D01*
X-3726586Y8971076D01*
X-3723284Y8973312D01*
X-3719423Y8974074D01*
X-3608578Y8974074D01*
X-3604666Y8973312D01*
X-3601415Y8971076D01*
X-3599179Y8967825D01*
X-3598418Y8963914D01*
X-3599179Y8960002D01*
X-3609238Y8946388D01*
X-3615131Y8935669D01*
X-3619398Y8924188D01*
X-3621989Y8912199D01*
X-3622903Y8899601D01*
X-3622903Y8891320D01*
X-3573322Y8891320D01*
X-3573322Y8963914D01*
X-3572560Y8967825D01*
X-3570376Y8971076D01*
X-3567074Y8973312D01*
X-3563162Y8974074D01*
X-3510787Y8974074D01*
X-3506927Y8973312D01*
X-3503625Y8971076D01*
X-3501440Y8967825D01*
X-3500628Y8963914D01*
X-3500628Y8891320D01*
X-3451098Y8891320D01*
X-3451098Y8899601D01*
X-3451961Y8912199D01*
X-3454603Y8924188D01*
X-3458870Y8935669D01*
X-3464763Y8946388D01*
X-3472586Y8956751D01*
X-3474821Y8960002D01*
X-3475583Y8963914D01*
X-3474821Y8967825D01*
X-3472586Y8971076D01*
X-3469284Y8973312D01*
X-3465423Y8974074D01*
X-3354578Y8974074D01*
X-3350666Y8973312D01*
X-3347415Y8971076D01*
X-3345179Y8967825D01*
X-3344418Y8963914D01*
X-3345179Y8960002D01*
X-3355238Y8946388D01*
X-3361131Y8935669D01*
X-3365398Y8924188D01*
X-3367989Y8912199D01*
X-3368903Y8899601D01*
X-3368903Y8720328D01*
X-3367989Y8707780D01*
X-3365398Y8695791D01*
X-3361131Y8684310D01*
X-3355238Y8673541D01*
X-3347923Y8663736D01*
X-3339236Y8655100D01*
X-3329432Y8647734D01*
X-3318662Y8641842D01*
X-3307181Y8637574D01*
X-3295192Y8634984D01*
X-3283000Y8634120D01*
X-3270758Y8634984D01*
X-3258820Y8637574D01*
X-3247339Y8641842D01*
X-3236569Y8647734D01*
X-3226765Y8655100D01*
X-3218078Y8663736D01*
X-3210763Y8673541D01*
X-3204870Y8684310D01*
X-3200603Y8695791D01*
X-3197961Y8707780D01*
X-3197098Y8720328D01*
X-3197098Y8899601D01*
X-3197961Y8912199D01*
X-3200603Y8924188D01*
X-3204870Y8935669D01*
X-3210763Y8946388D01*
X-3218586Y8956751D01*
X-3220821Y8960002D01*
X-3221583Y8963914D01*
X-3220821Y8967825D01*
X-3218586Y8971076D01*
X-3215284Y8973312D01*
X-3211423Y8974074D01*
X-3100578Y8974074D01*
X-3096666Y8973312D01*
X-3093415Y8971076D01*
X-3091180Y8967825D01*
X-3090418Y8963914D01*
X-3091180Y8960002D01*
X-3101238Y8946388D01*
X-3107131Y8935669D01*
X-3111398Y8924188D01*
X-3113989Y8912199D01*
X-3114903Y8899601D01*
X-3114903Y8720328D01*
X-3113989Y8707780D01*
X-3111398Y8695791D01*
X-3107131Y8684310D01*
X-3101238Y8673541D01*
X-3093923Y8663736D01*
X-3085236Y8655100D01*
X-3075432Y8647734D01*
X-3072841Y8646312D01*
X-3070047Y8644077D01*
X-3068218Y8640978D01*
X-3067558Y8637422D01*
X-3067558Y8301126D01*
X-3068320Y8297214D01*
X-3070555Y8293912D01*
X-3443020Y7921701D01*
X-3446322Y7919466D01*
X-3450183Y7918703D01*
X-4239869Y7918703D01*
X-4243781Y7919466D01*
X-4247083Y7921701D01*
X-4407154Y8081721D01*
X-4409338Y8085023D01*
X-4410100Y8088934D01*
X-4409338Y8092795D01*
X-4407154Y8096097D01*
X-4403852Y8098332D01*
X-4399940Y8099094D01*
X-4335526Y8099094D01*
X-4329226Y8099806D01*
X-4323740Y8101685D01*
X-4318863Y8104784D01*
X-4314748Y8108899D01*
X-4311650Y8113775D01*
X-4309770Y8119262D01*
X-4309059Y8125561D01*
X-4309059Y8294420D01*
X-4309770Y8300720D01*
X-4311650Y8306206D01*
X-4314748Y8311083D01*
X-4318863Y8315198D01*
X-4323740Y8318296D01*
X-4329226Y8320176D01*
X-4335526Y8320887D01*
X-4434382Y8320887D01*
X-4440732Y8320176D01*
X-4443933Y8319058D01*
X-4448352Y8318550D01*
X-4452569Y8319973D01*
X-4459884Y8327186D01*
X-4464761Y8330285D01*
X-4470247Y8332165D01*
X-4476546Y8332876D01*
X-4494682Y8332876D01*
X-4497324Y8333231D01*
X-4505706Y8335467D01*
X-4515459Y8336330D01*
X-4525264Y8335467D01*
X-4533646Y8333231D01*
X-4536287Y8332876D01*
X-4554423Y8332876D01*
X-4560722Y8332165D01*
X-4566615Y8330133D01*
X-4570018Y8329574D01*
X-4573371Y8330133D01*
X-4579264Y8332165D01*
X-4585563Y8332876D01*
X-4599228Y8332876D01*
X-4601870Y8333231D01*
X-4610201Y8335467D01*
X-4620006Y8336330D01*
X-4629810Y8335467D01*
X-4638141Y8333231D01*
X-4640783Y8332876D01*
X-4663440Y8332876D01*
X-4667300Y8332470D01*
X-4671466Y8332825D01*
X-4675073Y8334857D01*
X-4677613Y8338159D01*
X-4678578Y8342172D01*
X-4677918Y8346287D01*
X-4675632Y8349742D01*
X-4673041Y8352332D01*
X-4665014Y8362391D01*
X-4661458Y8364220D01*
X-4657445Y8364575D01*
X-4652924Y8364067D01*
X-4564075Y8364067D01*
X-4557725Y8364778D01*
X-4552289Y8366709D01*
X-4543856Y8372195D01*
X-4539996Y8372957D01*
X-4536084Y8372195D01*
X-4527702Y8366709D01*
X-4522216Y8364778D01*
X-4515916Y8364067D01*
X-4500321Y8364067D01*
X-4500321Y8401151D01*
X-4527397Y8401151D01*
X-4531309Y8401913D01*
X-4534611Y8404098D01*
X-4536795Y8407400D01*
X-4537557Y8411311D01*
X-4537557Y8423605D01*
X-4536795Y8427466D01*
X-4534611Y8430768D01*
X-4519523Y8445855D01*
X-4516221Y8448040D01*
X-4512360Y8448802D01*
X-4500321Y8448802D01*
X-4500321Y8460841D01*
X-4499559Y8464702D01*
X-4497374Y8468004D01*
X-4494276Y8471103D01*
X-4490974Y8473287D01*
X-4487113Y8474049D01*
X-4452823Y8474049D01*
X-4448911Y8473287D01*
X-4445609Y8471103D01*
X-4443425Y8467801D01*
X-4442663Y8463889D01*
X-4442663Y8448802D01*
X-4400600Y8448802D01*
X-4400600Y8459419D01*
X-4401312Y8465718D01*
X-4403191Y8471204D01*
X-4405325Y8474557D01*
X-4406696Y8478062D01*
X-4406696Y8481872D01*
X-4405325Y8485378D01*
X-4403191Y8488781D01*
X-4401312Y8494217D01*
X-4400600Y8500567D01*
X-4400600Y8569401D01*
X-4401312Y8575751D01*
X-4403191Y8581186D01*
X-4406290Y8586114D01*
X-4410354Y8590178D01*
X-4415282Y8593277D01*
X-4420717Y8595156D01*
X-4427067Y8595868D01*
X-4515916Y8595868D01*
X-4522216Y8595156D01*
X-4527702Y8593277D01*
X-4536084Y8587790D01*
X-4539996Y8587028D01*
X-4543856Y8587790D01*
X-4552289Y8593277D01*
X-4557725Y8595156D01*
X-4564075Y8595868D01*
X-4652924Y8595868D01*
X-4659223Y8595156D01*
X-4664710Y8593277D01*
X-4669586Y8590178D01*
X-4673701Y8586114D01*
X-4676749Y8581186D01*
X-4678680Y8575751D01*
X-4679391Y8569401D01*
X-4679391Y8538514D01*
X-4680153Y8534654D01*
X-4682388Y8531352D01*
X-4685690Y8529116D01*
X-4689551Y8528354D01*
X-4693462Y8529116D01*
X-4696764Y8531352D01*
X-4717592Y8552180D01*
X-4719828Y8555482D01*
X-4720590Y8559393D01*
X-4720590Y8569401D01*
X-4721301Y8575751D01*
X-4723180Y8581186D01*
X-4726279Y8586114D01*
X-4730394Y8590178D01*
X-4735271Y8593277D01*
X-4740757Y8595156D01*
X-4747056Y8595868D01*
X-4835906Y8595868D01*
X-4842256Y8595156D01*
X-4847691Y8593277D01*
X-4852619Y8590178D01*
X-4856683Y8586114D01*
X-4859782Y8581186D01*
X-4861661Y8575751D01*
X-4862372Y8569401D01*
X-4862372Y8500567D01*
X-4861661Y8494217D01*
X-4859782Y8488781D01*
X-4857648Y8485378D01*
X-4856276Y8481872D01*
X-4856276Y8478062D01*
X-4857648Y8474557D01*
X-4859782Y8471204D01*
X-4861661Y8465718D01*
X-4862372Y8459419D01*
X-4862372Y8448802D01*
X-4820361Y8448802D01*
X-4820361Y8463889D01*
X-4819548Y8467801D01*
X-4817364Y8471103D01*
X-4814062Y8473287D01*
X-4810201Y8474049D01*
X-4772812Y8474049D01*
X-4768900Y8473287D01*
X-4765598Y8471103D01*
X-4763414Y8467801D01*
X-4762652Y8463889D01*
X-4762652Y8448802D01*
X-4748733Y8448802D01*
X-4744872Y8448040D01*
X-4741570Y8445855D01*
X-4739386Y8442553D01*
X-4738573Y8438642D01*
X-4738573Y8411311D01*
X-4739386Y8407400D01*
X-4741570Y8404098D01*
X-4744872Y8401913D01*
X-4748733Y8401151D01*
X-4762652Y8401151D01*
X-4762652Y8398764D01*
X-4763414Y8394852D01*
X-4765598Y8391550D01*
X-4768900Y8389366D01*
X-4772812Y8388603D01*
X-4810201Y8388603D01*
X-4814062Y8389366D01*
X-4817364Y8391550D01*
X-4819548Y8394852D01*
X-4820361Y8398764D01*
X-4820361Y8401151D01*
X-4854397Y8401151D01*
X-4858715Y8402066D01*
X-4862220Y8404758D01*
X-4864252Y8408670D01*
X-4867046Y8419287D01*
X-4871161Y8428177D01*
X-4874463Y8432850D01*
X-4876444Y8436914D01*
X-4879746Y8439150D01*
X-4883759Y8443163D01*
X-4891786Y8448802D01*
X-4900726Y8452916D01*
X-4910175Y8455456D01*
X-4919980Y8456320D01*
X-4923078Y8456066D01*
X-4927041Y8456472D01*
X-4930495Y8458403D01*
X-4932984Y8461502D01*
X-4934102Y8465312D01*
X-4934508Y8469782D01*
X-4937048Y8479231D01*
X-4941163Y8488172D01*
X-4946802Y8496198D01*
X-4953762Y8503158D01*
X-4961788Y8508796D01*
X-4970729Y8512911D01*
X-4980178Y8515451D01*
X-4989982Y8516315D01*
X-4999786Y8515451D01*
X-5009235Y8512911D01*
X-5018176Y8508796D01*
X-5026202Y8503158D01*
X-5033162Y8496198D01*
X-5038801Y8488172D01*
X-5042916Y8479231D01*
X-5045456Y8469782D01*
X-5045862Y8465108D01*
X-5046776Y8461705D01*
X-5048808Y8458809D01*
X-5051704Y8456777D01*
X-5055108Y8455863D01*
X-5059781Y8455456D01*
X-5069230Y8452916D01*
X-5076952Y8449360D01*
X-5080863Y8448395D01*
X-5084876Y8449056D01*
X-5088280Y8451240D01*
X-5090566Y8454593D01*
X-5091379Y8458555D01*
X-5091379Y8479485D01*
X-5092192Y8487511D01*
X-5094376Y8494776D01*
X-5097932Y8501430D01*
X-5103063Y8507679D01*
X-5224119Y8628684D01*
X-5226456Y8632393D01*
X-5227066Y8636762D01*
X-5225745Y8640978D01*
X-5222748Y8644229D01*
X-5218684Y8645906D01*
X-5214315Y8645702D01*
X-5209794Y8644483D01*
X-5199989Y8643620D01*
X-5190185Y8644483D01*
X-5181752Y8646769D01*
X-5179110Y8647125D01*
X-5169001Y8647125D01*
X-5162702Y8647836D01*
X-5157216Y8649716D01*
X-5152339Y8652814D01*
X-5148224Y8656878D01*
X-5145176Y8661806D01*
X-5143246Y8667242D01*
X-5142534Y8673592D01*
X-5142534Y8726424D01*
X-5143246Y8732774D01*
X-5145176Y8738209D01*
X-5148224Y8743137D01*
X-5152339Y8747201D01*
X-5156606Y8749893D01*
X-5159146Y8752179D01*
X-5160822Y8755176D01*
X-5161381Y8758529D01*
X-5161381Y8777478D01*
X-5160721Y8781084D01*
X-5158790Y8784234D01*
X-5155895Y8786520D01*
X-5152339Y8787587D01*
X-5150256Y8787841D01*
X-5144770Y8789720D01*
X-5139893Y8792819D01*
X-5135778Y8796883D01*
X-5132730Y8801811D01*
X-5130800Y8807246D01*
X-5130088Y8813596D01*
X-5130088Y8866428D01*
X-5130800Y8872778D01*
X-5132730Y8878214D01*
X-5135778Y8883142D01*
X-5139893Y8887206D01*
X-5144770Y8890304D01*
X-5150256Y8892184D01*
X-5156555Y8892895D01*
X-5234432Y8892895D01*
X-5240782Y8892184D01*
X-5246674Y8890152D01*
X-5250027Y8889593D01*
X-5253380Y8890152D01*
X-5259273Y8892184D01*
X-5265572Y8892895D01*
X-5283758Y8892895D01*
X-5286349Y8893251D01*
X-5294731Y8895486D01*
X-5304485Y8896350D01*
X-5314289Y8895486D01*
X-5322671Y8893251D01*
X-5325262Y8892895D01*
X-5343448Y8892895D01*
X-5349748Y8892184D01*
X-5355234Y8890304D01*
X-5360111Y8887206D01*
X-5364226Y8883142D01*
X-5367629Y8877706D01*
X-5370423Y8874760D01*
X-5374182Y8873134D01*
X-5378246Y8873134D01*
X-5382006Y8874760D01*
X-5384850Y8877706D01*
X-5388254Y8883142D01*
X-5392318Y8887206D01*
X-5397246Y8890304D01*
X-5402681Y8892184D01*
X-5409031Y8892895D01*
X-5464454Y8892895D01*
X-5470753Y8892184D01*
X-5476646Y8890152D01*
X-5479999Y8889593D01*
X-5483352Y8890152D01*
X-5489244Y8892184D01*
X-5495594Y8892895D01*
X-5502808Y8892895D01*
X-5502808Y8859875D01*
X-5501081Y8859875D01*
X-5497169Y8859113D01*
X-5493918Y8856878D01*
X-5491683Y8853576D01*
X-5490921Y8849715D01*
X-5490921Y8830310D01*
X-5491683Y8826449D01*
X-5493918Y8823147D01*
X-5497169Y8820912D01*
X-5501081Y8820150D01*
X-5502808Y8820150D01*
X-5502808Y8787079D01*
X-5497728Y8787079D01*
X-5493867Y8786317D01*
X-5490565Y8784183D01*
X-5488381Y8780881D01*
X-5487568Y8777020D01*
X-5487466Y8762339D01*
X-5488279Y8758224D01*
X-5490718Y8754770D01*
X-5494375Y8752636D01*
X-5498541Y8752128D01*
X-5507431Y8752941D01*
X-5510530Y8753754D01*
X-5513222Y8755481D01*
X-5515254Y8758021D01*
X-5518505Y8763558D01*
X-5521960Y8767622D01*
X-5540806Y8786469D01*
X-5542991Y8789771D01*
X-5543804Y8793683D01*
X-5543804Y8820150D01*
X-5570321Y8820150D01*
X-5573725Y8820759D01*
X-5576722Y8822436D01*
X-5582412Y8827008D01*
X-5588406Y8830106D01*
X-5595061Y8831884D01*
X-5600395Y8832291D01*
X-5678779Y8832291D01*
X-5682691Y8833053D01*
X-5685993Y8835288D01*
X-5693765Y8843162D01*
X-5701792Y8848801D01*
X-5710732Y8852916D01*
X-5720181Y8855456D01*
X-5729986Y8856319D01*
X-5739790Y8855456D01*
X-5749239Y8852916D01*
X-5758180Y8848801D01*
X-5766206Y8843162D01*
X-5773166Y8836202D01*
X-5778804Y8828176D01*
X-5782919Y8819235D01*
X-5785459Y8809786D01*
X-5786323Y8799982D01*
X-5785459Y8790178D01*
X-5782919Y8780729D01*
X-5778804Y8771788D01*
X-5773166Y8763762D01*
X-5766206Y8756802D01*
X-5758180Y8751163D01*
X-5749239Y8747048D01*
X-5739790Y8744508D01*
X-5729986Y8743645D01*
X-5720181Y8744508D01*
X-5710732Y8747048D01*
X-5707786Y8748420D01*
X-5704078Y8749334D01*
X-5700268Y8748826D01*
X-5696966Y8746998D01*
X-5694527Y8744000D01*
X-5693410Y8740394D01*
X-5693664Y8736584D01*
X-5695492Y8729776D01*
X-5696356Y8719972D01*
X-5695492Y8710218D01*
X-5692952Y8700719D01*
X-5688787Y8691829D01*
X-5683148Y8683752D01*
X-5681675Y8682278D01*
X-5679440Y8678976D01*
X-5678678Y8675065D01*
X-5678678Y8650732D01*
X-5677865Y8642705D01*
X-5675680Y8635492D01*
X-5672124Y8628786D01*
X-5666994Y8622588D01*
X-5627573Y8583168D01*
X-5620766Y8577732D01*
X-5617413Y8574786D01*
X-5615584Y8570722D01*
X-5615686Y8566302D01*
X-5617718Y8562289D01*
X-5621223Y8559546D01*
X-5625541Y8558580D01*
X-5729478Y8558580D01*
X-5737504Y8557818D01*
X-5744718Y8555583D01*
X-5751423Y8552027D01*
X-5755386Y8549640D01*
X-5759094Y8549132D01*
X-5762701Y8549995D01*
X-5765749Y8552129D01*
X-5816244Y8602624D01*
X-5821222Y8606586D01*
X-5826455Y8609076D01*
X-5832094Y8610346D01*
X-5837885Y8610346D01*
X-5843524Y8609076D01*
X-5848705Y8606586D01*
X-5853684Y8602624D01*
X-5922213Y8534095D01*
X-5926175Y8529116D01*
X-5928664Y8523935D01*
X-5929934Y8518296D01*
X-5929934Y8512505D01*
X-5928664Y8506866D01*
X-5926175Y8501634D01*
X-5922213Y8496655D01*
X-5785459Y8359952D01*
X-5780481Y8355990D01*
X-5775299Y8353450D01*
X-5769660Y8352180D01*
X-5764225Y8351367D01*
X-5760923Y8349081D01*
X-5758738Y8345678D01*
X-5758078Y8341664D01*
X-5758992Y8337702D01*
X-5762955Y8329269D01*
X-5765495Y8319770D01*
X-5766358Y8309965D01*
X-5765495Y8300212D01*
X-5762955Y8290712D01*
X-5758789Y8281822D01*
X-5753150Y8273745D01*
X-5746242Y8266836D01*
X-5734913Y8258759D01*
X-5732830Y8255203D01*
X-5732373Y8251139D01*
X-5733542Y8247176D01*
X-5736183Y8244078D01*
X-5738876Y8241893D01*
X-5758281Y8222488D01*
X-5761380Y8220405D01*
X-5765038Y8219541D01*
X-5768797Y8220100D01*
X-5772048Y8221980D01*
X-5774385Y8224926D01*
X-5777890Y8231479D01*
X-5783021Y8237677D01*
X-6370828Y8825433D01*
X-6372860Y8828328D01*
X-6373774Y8831732D01*
X-6374485Y8839860D01*
X-6377025Y8849309D01*
X-6381191Y8858250D01*
X-6386830Y8866276D01*
X-6393738Y8873236D01*
X-6401816Y8878874D01*
X-6410706Y8882989D01*
X-6420205Y8885529D01*
X-6429959Y8886393D01*
X-6439763Y8885529D01*
X-6449263Y8882989D01*
X-6458153Y8878874D01*
X-6466230Y8873236D01*
X-6473139Y8866276D01*
X-6478778Y8858250D01*
X-6482943Y8849309D01*
X-6485483Y8839860D01*
X-6486347Y8830056D01*
X-6485483Y8820251D01*
X-6482943Y8810802D01*
X-6478778Y8801862D01*
X-6473139Y8793835D01*
X-6466230Y8786876D01*
X-6458153Y8781237D01*
X-6449263Y8777122D01*
X-6439763Y8774582D01*
X-6431838Y8773871D01*
X-6428435Y8772956D01*
X-6425539Y8770924D01*
X-5851550Y8197037D01*
X-5849366Y8193735D01*
X-5848553Y8189823D01*
X-5848553Y8178749D01*
X-5849366Y8174888D01*
X-5851550Y8171586D01*
X-5854852Y8169351D01*
X-5858713Y8168589D01*
X-5914847Y8168589D01*
X-5918708Y8169351D01*
X-5922010Y8171586D01*
X-5924245Y8174888D01*
X-5925007Y8178749D01*
X-5924245Y8182660D01*
X-5922010Y8185912D01*
X-5919927Y8187994D01*
X-5915964Y8192973D01*
X-5913475Y8198205D01*
X-5912205Y8203844D01*
X-5912205Y8209635D01*
X-5913475Y8215274D01*
X-5915964Y8220506D01*
X-5919927Y8225485D01*
X-6056680Y8362188D01*
X-6061659Y8366150D01*
X-6066840Y8368690D01*
X-6072479Y8369960D01*
X-6078270Y8369960D01*
X-6083909Y8368690D01*
X-6089142Y8366150D01*
X-6094120Y8362188D01*
X-6162598Y8293709D01*
X-6166561Y8288731D01*
X-6169101Y8283498D01*
X-6170371Y8277859D01*
X-6170371Y8272068D01*
X-6169101Y8266430D01*
X-6166561Y8261248D01*
X-6162598Y8256270D01*
X-6052312Y8145932D01*
X-6050076Y8142630D01*
X-6049314Y8138769D01*
X-6050076Y8134858D01*
X-6052312Y8131556D01*
X-6055614Y8129371D01*
X-6059474Y8128609D01*
X-6346901Y8128609D01*
X-6350812Y8129371D01*
X-6354114Y8131556D01*
X-6356299Y8134858D01*
X-6357061Y8138769D01*
X-6357061Y8194395D01*
X-6357772Y8200745D01*
X-6359855Y8206638D01*
X-6360414Y8209991D01*
X-6359855Y8213344D01*
X-6357772Y8219236D01*
X-6357061Y8225536D01*
X-6357061Y8232749D01*
X-6390132Y8232749D01*
X-6390132Y8231073D01*
X-6390894Y8227161D01*
X-6393129Y8223859D01*
X-6396431Y8221675D01*
X-6400292Y8220913D01*
X-6419697Y8220913D01*
X-6423558Y8221675D01*
X-6426860Y8223859D01*
X-6429044Y8227161D01*
X-6429857Y8231073D01*
X-6429857Y8232749D01*
X-6462877Y8232749D01*
X-6462877Y8225536D01*
X-6462166Y8219236D01*
X-6460134Y8213344D01*
X-6459575Y8209991D01*
X-6460540Y8205419D01*
X-6462674Y8201863D01*
X-6466078Y8199475D01*
X-6470142Y8198612D01*
X-6496456Y8198612D01*
X-6500774Y8199577D01*
X-6504228Y8202218D01*
X-6506260Y8206130D01*
X-6507124Y8209229D01*
X-6511239Y8218170D01*
X-6516878Y8226196D01*
X-6523837Y8233156D01*
X-6531864Y8238794D01*
X-6540804Y8242909D01*
X-6550253Y8245449D01*
X-6560058Y8246313D01*
X-6569862Y8245449D01*
X-6579311Y8242909D01*
X-6588252Y8238794D01*
X-6596278Y8233156D01*
X-6603238Y8226196D01*
X-6608876Y8218170D01*
X-6612991Y8209229D01*
X-6615531Y8199780D01*
X-6616395Y8189975D01*
X-6615531Y8180171D01*
X-6612991Y8170722D01*
X-6609435Y8163052D01*
X-6608470Y8159089D01*
X-6609181Y8155127D01*
X-6611366Y8151723D01*
X-6614668Y8149386D01*
X-6618630Y8148574D01*
X-6694982Y8148574D01*
X-6698894Y8149386D01*
X-6702196Y8151571D01*
X-6703771Y8153146D01*
X-6711797Y8158784D01*
X-6720738Y8162950D01*
X-6730187Y8165490D01*
X-6739991Y8166353D01*
X-6749796Y8165490D01*
X-6759244Y8162950D01*
X-6768185Y8158784D01*
X-6776212Y8153146D01*
X-6783171Y8146237D01*
X-6788810Y8138159D01*
X-6792925Y8129270D01*
X-6795465Y8119770D01*
X-6796328Y8109966D01*
X-6795465Y8100212D01*
X-6792925Y8090712D01*
X-6788810Y8081822D01*
X-6783425Y8074152D01*
X-6781749Y8070088D01*
X-6781901Y8065668D01*
X-6783933Y8061756D01*
X-6787438Y8059115D01*
X-6791756Y8058150D01*
X-6909409Y8058150D01*
X-6913321Y8058912D01*
X-6916623Y8061147D01*
X-6928408Y8072932D01*
X-6930644Y8076234D01*
X-6931406Y8080146D01*
X-6931406Y8309356D01*
X-6932218Y8317382D01*
X-6934403Y8324596D01*
X-6937959Y8331301D01*
X-6943090Y8337499D01*
X-7132472Y8526932D01*
X-7138720Y8532063D01*
X-7145375Y8535619D01*
X-7152589Y8537803D01*
X-7160615Y8538565D01*
X-7207554Y8538565D01*
X-7211466Y8539378D01*
X-7214768Y8541562D01*
X-7216952Y8544915D01*
X-7217714Y8548776D01*
X-7216902Y8552688D01*
X-7214717Y8555990D01*
X-7206792Y8563813D01*
X-7201153Y8571788D01*
X-7197039Y8580729D01*
X-7194499Y8590178D01*
X-7193635Y8599982D01*
X-7194499Y8609787D01*
X-7197039Y8619236D01*
X-7201153Y8628176D01*
X-7209536Y8640013D01*
X-7210298Y8643924D01*
X-7209536Y8647785D01*
X-7207351Y8651087D01*
X-7204049Y8653322D01*
X-7200138Y8654084D01*
X-7190536Y8654084D01*
X-7184237Y8654796D01*
X-7178751Y8656675D01*
X-7173874Y8659774D01*
X-7169759Y8663889D01*
X-7166711Y8668766D01*
X-7164781Y8674252D01*
X-7164070Y8680551D01*
X-7164070Y8899398D01*
X-7164781Y8905748D01*
X-7166711Y8911183D01*
X-7169759Y8916111D01*
X-7173874Y8920175D01*
X-7178751Y8923274D01*
X-7184237Y8925204D01*
X-7190536Y8925915D01*
X-7309408Y8925915D01*
X-7315758Y8925204D01*
X-7321194Y8923274D01*
X-7326122Y8920175D01*
X-7330186Y8916111D01*
X-7333284Y8911183D01*
X-7335164Y8905748D01*
X-7335875Y8899398D01*
X-7335875Y8680551D01*
X-7335164Y8674252D01*
X-7333284Y8668766D01*
X-7330186Y8663889D01*
X-7326122Y8659774D01*
X-7321194Y8656675D01*
X-7315758Y8654796D01*
X-7309408Y8654084D01*
X-7299807Y8654084D01*
X-7295896Y8653322D01*
X-7292594Y8651087D01*
X-7290409Y8647785D01*
X-7289647Y8643924D01*
X-7290409Y8640013D01*
X-7298791Y8628176D01*
X-7302906Y8619236D01*
X-7305446Y8609787D01*
X-7306309Y8599982D01*
X-7305446Y8590178D01*
X-7302906Y8580729D01*
X-7298791Y8571788D01*
X-7293152Y8563813D01*
X-7285228Y8555990D01*
X-7283043Y8552688D01*
X-7282230Y8548776D01*
X-7282992Y8544915D01*
X-7285177Y8541562D01*
X-7288479Y8539378D01*
X-7292390Y8538565D01*
X-7415377Y8538565D01*
X-7419492Y8539480D01*
X-7422946Y8542020D01*
X-7425029Y8545677D01*
X-7425436Y8549944D01*
X-7424064Y8553958D01*
X-7421168Y8557056D01*
X-7413752Y8562289D01*
X-7406792Y8569198D01*
X-7401153Y8577275D01*
X-7397038Y8586165D01*
X-7394498Y8595664D01*
X-7393635Y8605418D01*
X-7394498Y8615222D01*
X-7397038Y8624722D01*
X-7401153Y8633612D01*
X-7404303Y8638082D01*
X-7405979Y8642146D01*
X-7405776Y8646566D01*
X-7403744Y8650427D01*
X-7400290Y8653119D01*
X-7395972Y8654084D01*
X-7390536Y8654084D01*
X-7384237Y8654796D01*
X-7378750Y8656675D01*
X-7373874Y8659774D01*
X-7369759Y8663889D01*
X-7366711Y8668766D01*
X-7364780Y8674252D01*
X-7364069Y8680551D01*
X-7364069Y8899398D01*
X-7364780Y8905748D01*
X-7366711Y8911183D01*
X-7369759Y8916111D01*
X-7373874Y8920175D01*
X-7378750Y8923274D01*
X-7384237Y8925204D01*
X-7390536Y8925915D01*
X-7509408Y8925915D01*
X-7515758Y8925204D01*
X-7521194Y8923274D01*
X-7526121Y8920175D01*
X-7530185Y8916111D01*
X-7533284Y8911183D01*
X-7535164Y8905748D01*
X-7535875Y8899398D01*
X-7535875Y8680551D01*
X-7535164Y8674252D01*
X-7533284Y8668766D01*
X-7530185Y8663889D01*
X-7526121Y8659774D01*
X-7521194Y8656675D01*
X-7515758Y8654796D01*
X-7509408Y8654084D01*
X-7503972Y8654084D01*
X-7499654Y8653119D01*
X-7496200Y8650427D01*
X-7494168Y8646566D01*
X-7493965Y8642146D01*
X-7495641Y8638082D01*
X-7498791Y8633612D01*
X-7502906Y8624722D01*
X-7505446Y8615222D01*
X-7506411Y8604605D01*
X-7507427Y8600948D01*
X-7509764Y8597900D01*
X-7513066Y8595918D01*
X-7516825Y8595309D01*
X-7520533Y8596172D01*
X-7523683Y8598306D01*
X-7572349Y8646922D01*
X-7574534Y8650224D01*
X-7575296Y8654135D01*
X-7574534Y8657996D01*
X-7572349Y8661298D01*
X-7569758Y8663889D01*
X-7566710Y8668766D01*
X-7564780Y8674252D01*
X-7564069Y8680551D01*
X-7564069Y8899398D01*
X-7564780Y8905748D01*
X-7566710Y8911183D01*
X-7569758Y8916111D01*
X-7573873Y8920175D01*
X-7578750Y8923274D01*
X-7584236Y8925204D01*
X-7590536Y8925915D01*
X-7709408Y8925915D01*
X-7715758Y8925204D01*
X-7721193Y8923274D01*
X-7726121Y8920175D01*
X-7730185Y8916111D01*
X-7733284Y8911183D01*
X-7735163Y8905748D01*
X-7735874Y8899398D01*
X-7735874Y8680551D01*
X-7735163Y8674252D01*
X-7733284Y8668766D01*
X-7730185Y8663889D01*
X-7726121Y8659774D01*
X-7721193Y8656675D01*
X-7715758Y8654796D01*
X-7709408Y8654084D01*
X-7691069Y8654084D01*
X-7687513Y8653424D01*
X-7684363Y8651544D01*
X-7676896Y8642299D01*
X-7507630Y8473033D01*
X-7501381Y8467902D01*
X-7494727Y8464346D01*
X-7487513Y8462162D01*
X-7479487Y8461349D01*
X-7180325Y8461349D01*
X-7176465Y8460587D01*
X-7173163Y8458403D01*
X-7088022Y8373262D01*
X-7085888Y8370112D01*
X-7085025Y8366353D01*
X-7085634Y8362594D01*
X-7087616Y8359343D01*
X-7090613Y8357006D01*
X-7094321Y8355939D01*
X-7099757Y8355482D01*
X-7109256Y8352942D01*
X-7118146Y8348776D01*
X-7126224Y8343138D01*
X-7133132Y8336229D01*
X-7138771Y8328152D01*
X-7142937Y8319262D01*
X-7145477Y8309762D01*
X-7146340Y8299958D01*
X-7144918Y8284921D01*
X-7146340Y8281060D01*
X-7149134Y8278063D01*
X-7152894Y8276437D01*
X-7157008Y8276437D01*
X-7170724Y8282940D01*
X-7180173Y8285480D01*
X-7189978Y8286343D01*
X-7199782Y8285480D01*
X-7209231Y8282940D01*
X-7218172Y8278774D01*
X-7226198Y8273135D01*
X-7233158Y8266226D01*
X-7238796Y8258149D01*
X-7242911Y8249259D01*
X-7245451Y8239759D01*
X-7246315Y8229955D01*
X-7245451Y8220202D01*
X-7242911Y8210702D01*
X-7238796Y8201812D01*
X-7233158Y8193735D01*
X-7231583Y8192160D01*
X-7229348Y8188909D01*
X-7228586Y8184997D01*
X-7228586Y7950504D01*
X-7227824Y7942478D01*
X-7225588Y7935214D01*
X-7222032Y7928559D01*
X-7216952Y7922310D01*
X-7191552Y7896961D01*
X-7189368Y7893659D01*
X-7188606Y7889798D01*
X-7188606Y7860487D01*
X-7187793Y7852460D01*
X-7185609Y7845247D01*
X-7182053Y7838592D01*
X-7176922Y7832344D01*
X-7159142Y7814513D01*
X-7157110Y7811617D01*
X-7156196Y7808214D01*
X-7155484Y7800187D01*
X-7152944Y7790738D01*
X-7148779Y7781798D01*
X-7143140Y7773771D01*
X-7136231Y7766812D01*
X-7128154Y7761173D01*
X-7119264Y7757058D01*
X-7109764Y7754518D01*
X-7099960Y7753654D01*
X-7090206Y7754518D01*
X-7080707Y7757058D01*
X-7071817Y7761173D01*
X-7063790Y7766812D01*
X-7055967Y7774736D01*
X-7052716Y7776921D01*
X-7048804Y7777734D01*
X-7044893Y7776972D01*
X-7041591Y7774787D01*
X-7039356Y7771485D01*
X-7038594Y7767574D01*
X-7038594Y7356043D01*
X-7039356Y7352182D01*
X-7041591Y7348880D01*
X-7044842Y7346645D01*
X-7048753Y7345883D01*
X-7109409Y7345883D01*
X-7115759Y7345172D01*
X-7121194Y7343292D01*
X-7126122Y7340193D01*
X-7130186Y7336078D01*
X-7133285Y7331202D01*
X-7135164Y7325715D01*
X-7135875Y7319416D01*
X-7135875Y7100570D01*
X-7135164Y7094220D01*
X-7133285Y7088784D01*
X-7130186Y7083856D01*
X-7126122Y7079792D01*
X-7121194Y7076694D01*
X-7115759Y7074763D01*
X-7109409Y7074052D01*
X-6990537Y7074052D01*
X-6984238Y7074763D01*
X-6978751Y7076694D01*
X-6973874Y7079792D01*
X-6969759Y7083856D01*
X-6966712Y7088784D01*
X-6964781Y7094220D01*
X-6964070Y7100570D01*
X-6964070Y7244638D01*
X-6963664Y7247585D01*
X-6962190Y7252462D01*
X-6961378Y7260488D01*
X-6961378Y7959496D01*
X-6962190Y7967522D01*
X-6964425Y7974990D01*
X-6964832Y7978902D01*
X-6963664Y7982712D01*
X-6961174Y7985759D01*
X-6957669Y7987639D01*
X-6953707Y7988046D01*
X-6949897Y7986877D01*
X-6944359Y7983931D01*
X-6937146Y7981746D01*
X-6929120Y7980934D01*
X-6455003Y7980934D01*
X-6451092Y7980172D01*
X-6447790Y7977936D01*
X-6446215Y7976362D01*
X-6438188Y7970723D01*
X-6429248Y7966608D01*
X-6419799Y7964068D01*
X-6409994Y7963204D01*
X-6400190Y7964068D01*
X-6390741Y7966608D01*
X-6381800Y7970723D01*
X-6373774Y7976362D01*
X-6372148Y7977987D01*
X-6368846Y7980222D01*
X-6364986Y7980984D01*
X-6337604Y7980984D01*
X-6333744Y7980222D01*
X-6330442Y7978038D01*
X-6328257Y7974736D01*
X-6327444Y7970824D01*
X-6327444Y7923530D01*
X-6326733Y7917230D01*
X-6324854Y7911795D01*
X-6321755Y7906867D01*
X-6317640Y7902803D01*
X-6312357Y7899450D01*
X-6309410Y7896656D01*
X-6307836Y7892897D01*
X-6307836Y7888833D01*
X-6309410Y7885074D01*
X-6313119Y7881772D01*
X-6317234Y7877708D01*
X-6320282Y7872780D01*
X-6322212Y7867345D01*
X-6322923Y7860995D01*
X-6322923Y7853781D01*
X-6289852Y7853781D01*
X-6289852Y7886903D01*
X-6289090Y7890814D01*
X-6286906Y7894116D01*
X-6283604Y7896301D01*
X-6279692Y7897063D01*
X-6260338Y7897063D01*
X-6256426Y7896301D01*
X-6253124Y7894116D01*
X-6250940Y7890814D01*
X-6250178Y7886903D01*
X-6250178Y7853781D01*
X-6213094Y7853781D01*
X-6209182Y7853019D01*
X-6205880Y7850784D01*
X-6203696Y7847533D01*
X-6202934Y7843621D01*
X-6202934Y7822946D01*
X-6203696Y7819085D01*
X-6205880Y7815783D01*
X-6209182Y7813598D01*
X-6213094Y7812786D01*
X-6250178Y7812786D01*
X-6250178Y7811058D01*
X-6250940Y7807198D01*
X-6253124Y7803896D01*
X-6256426Y7801711D01*
X-6260338Y7800898D01*
X-6279692Y7800898D01*
X-6283604Y7801711D01*
X-6286906Y7803896D01*
X-6289090Y7807198D01*
X-6289852Y7811058D01*
X-6289852Y7812786D01*
X-6322923Y7812786D01*
X-6322923Y7805572D01*
X-6322212Y7799273D01*
X-6320129Y7793380D01*
X-6319570Y7790027D01*
X-6320129Y7786674D01*
X-6322212Y7780781D01*
X-6322923Y7774431D01*
X-6322923Y7719009D01*
X-6322212Y7712709D01*
X-6320282Y7707223D01*
X-6316827Y7701686D01*
X-6315354Y7697876D01*
X-6315557Y7693761D01*
X-6317335Y7690103D01*
X-6320383Y7687411D01*
X-6324295Y7686192D01*
X-6328359Y7686548D01*
X-6332474Y7687818D01*
X-6340500Y7688580D01*
X-6464198Y7688580D01*
X-6467906Y7689291D01*
X-6471056Y7691272D01*
X-6473291Y7694269D01*
X-6474307Y7697876D01*
X-6474510Y7699756D01*
X-6477050Y7709255D01*
X-6478676Y7712760D01*
X-6479590Y7716774D01*
X-6481368Y7718450D01*
X-6486804Y7726222D01*
X-6493764Y7733131D01*
X-6501790Y7738770D01*
X-6510731Y7742936D01*
X-6520180Y7745475D01*
X-6529984Y7746339D01*
X-6539788Y7745475D01*
X-6549237Y7742936D01*
X-6558178Y7738770D01*
X-6566204Y7733131D01*
X-6573164Y7726222D01*
X-6578803Y7718145D01*
X-6582918Y7709255D01*
X-6585458Y7699756D01*
X-6586321Y7689951D01*
X-6585458Y7680198D01*
X-6582918Y7670698D01*
X-6578803Y7661808D01*
X-6573164Y7653731D01*
X-6571589Y7652156D01*
X-6569354Y7648854D01*
X-6568592Y7644993D01*
X-6568592Y7354011D01*
X-6569303Y7350252D01*
X-6571386Y7347000D01*
X-6574536Y7344765D01*
X-6578295Y7343851D01*
X-6582105Y7344409D01*
X-6584238Y7345172D01*
X-6590538Y7345883D01*
X-6709409Y7345883D01*
X-6715759Y7345172D01*
X-6721195Y7343292D01*
X-6726072Y7340193D01*
X-6730187Y7336078D01*
X-6733286Y7331202D01*
X-6735165Y7325715D01*
X-6735876Y7319416D01*
X-6735876Y7100570D01*
X-6735165Y7094220D01*
X-6733286Y7088784D01*
X-6730187Y7083856D01*
X-6726072Y7079792D01*
X-6721195Y7076694D01*
X-6715759Y7074763D01*
X-6709409Y7074052D01*
X-6590538Y7074052D01*
X-6584238Y7074763D01*
X-6578752Y7076694D01*
X-6573875Y7079792D01*
X-6569760Y7083856D01*
X-6566712Y7088784D01*
X-6564782Y7094220D01*
X-6564071Y7100570D01*
X-6564071Y7240422D01*
X-6563309Y7244283D01*
X-6561124Y7247585D01*
X-6557822Y7249820D01*
X-6553911Y7250582D01*
X-6550050Y7249820D01*
X-6546748Y7247585D01*
X-6538976Y7239812D01*
X-6536944Y7236917D01*
X-6536029Y7233513D01*
X-6535318Y7225487D01*
X-6532778Y7216038D01*
X-6528612Y7207097D01*
X-6522974Y7199071D01*
X-6516065Y7192111D01*
X-6507988Y7186472D01*
X-6499098Y7182358D01*
X-6489598Y7179818D01*
X-6479794Y7178954D01*
X-6470040Y7179818D01*
X-6460540Y7182358D01*
X-6451650Y7186472D01*
X-6443573Y7192111D01*
X-6436664Y7199071D01*
X-6431026Y7207097D01*
X-6426860Y7216038D01*
X-6424320Y7225487D01*
X-6423456Y7235291D01*
X-6424320Y7245096D01*
X-6426860Y7254544D01*
X-6431026Y7263485D01*
X-6436664Y7271512D01*
X-6443573Y7278471D01*
X-6451650Y7284110D01*
X-6460540Y7288225D01*
X-6470040Y7290765D01*
X-6478066Y7291476D01*
X-6481470Y7292390D01*
X-6484366Y7294422D01*
X-6488379Y7298486D01*
X-6490614Y7301788D01*
X-6491376Y7305649D01*
X-6491376Y7601203D01*
X-6490614Y7605115D01*
X-6488379Y7608417D01*
X-6485128Y7610602D01*
X-6481216Y7611364D01*
X-6473037Y7611364D01*
X-6469430Y7610703D01*
X-6466281Y7608773D01*
X-6464046Y7605877D01*
X-6462979Y7602372D01*
X-6463233Y7598714D01*
X-6465468Y7589824D01*
X-6466332Y7579969D01*
X-6465468Y7570216D01*
X-6463233Y7561834D01*
X-6462877Y7555534D01*
X-6462166Y7549235D01*
X-6460134Y7543342D01*
X-6459575Y7539990D01*
X-6460134Y7536637D01*
X-6462166Y7530744D01*
X-6462877Y7524394D01*
X-6462877Y7517180D01*
X-6429400Y7517180D01*
X-6427876Y7520279D01*
X-6425387Y7522718D01*
X-6422237Y7524140D01*
X-6418783Y7524394D01*
X-6409994Y7523632D01*
X-6401206Y7524394D01*
X-6397752Y7524140D01*
X-6394602Y7522718D01*
X-6392113Y7520279D01*
X-6390538Y7517180D01*
X-6357061Y7517180D01*
X-6357061Y7524394D01*
X-6357772Y7530744D01*
X-6359855Y7536637D01*
X-6360414Y7539990D01*
X-6359855Y7543342D01*
X-6357772Y7549235D01*
X-6357061Y7555534D01*
X-6356756Y7561884D01*
X-6354521Y7570216D01*
X-6353657Y7579969D01*
X-6354013Y7584033D01*
X-6353505Y7588097D01*
X-6351473Y7591653D01*
X-6348171Y7594092D01*
X-6344158Y7595057D01*
X-6340144Y7594346D01*
X-6336690Y7592110D01*
X-6252667Y7508087D01*
X-6246418Y7502956D01*
X-6239764Y7499400D01*
X-6237122Y7498588D01*
X-6233363Y7496505D01*
X-6230823Y7493050D01*
X-6229908Y7488885D01*
X-6229908Y7471562D01*
X-6229197Y7465263D01*
X-6227978Y7460030D01*
X-6229197Y7454747D01*
X-6229908Y7448448D01*
X-6229908Y7421575D01*
X-6229197Y7415275D01*
X-6227978Y7409992D01*
X-6229197Y7404760D01*
X-6229908Y7398461D01*
X-6229908Y7371588D01*
X-6229197Y7365238D01*
X-6227978Y7360005D01*
X-6229197Y7354773D01*
X-6229908Y7348423D01*
X-6229908Y7321600D01*
X-6229197Y7315250D01*
X-6227978Y7310018D01*
X-6229197Y7304786D01*
X-6229908Y7298436D01*
X-6229908Y7271562D01*
X-6229197Y7265263D01*
X-6227267Y7259777D01*
X-6224219Y7254900D01*
X-6220104Y7250785D01*
X-6215227Y7247737D01*
X-6209741Y7245807D01*
X-6203442Y7245096D01*
X-6155080Y7245096D01*
X-6151168Y7244334D01*
X-6147917Y7242149D01*
X-6145682Y7238847D01*
X-6144920Y7234936D01*
X-6144920Y7186574D01*
X-6144209Y7180275D01*
X-6142278Y7174788D01*
X-6139230Y7169912D01*
X-6135116Y7165797D01*
X-6130239Y7162749D01*
X-6124752Y7160818D01*
X-6118453Y7160107D01*
X-6091580Y7160107D01*
X-6085281Y7160818D01*
X-6079998Y7162038D01*
X-6074765Y7160818D01*
X-6068364Y7160107D01*
X-6068364Y7171232D01*
X-6067806Y7174636D01*
X-6065824Y7180275D01*
X-6065113Y7186523D01*
X-6063792Y7190536D01*
X-6060948Y7193635D01*
X-6057087Y7195362D01*
X-6052921Y7195362D01*
X-6049060Y7193635D01*
X-6046216Y7190536D01*
X-6044895Y7186523D01*
X-6044184Y7180275D01*
X-6042253Y7174636D01*
X-6041644Y7171232D01*
X-6041593Y7160107D01*
X-6035243Y7160818D01*
X-6030010Y7162038D01*
X-6024778Y7160818D01*
X-6018428Y7160107D01*
X-6003798Y7160107D01*
X-5999886Y7159345D01*
X-5996584Y7157110D01*
X-5994400Y7153808D01*
X-5993638Y7149947D01*
X-5993638Y7134098D01*
X-5994349Y7130338D01*
X-5996432Y7127087D01*
X-5999581Y7124852D01*
X-6003340Y7123938D01*
X-6007150Y7124496D01*
X-6012484Y7126376D01*
X-6018784Y7127087D01*
X-6031636Y7127087D01*
X-6031636Y7094016D01*
X-5994349Y7094016D01*
X-5989980Y7093051D01*
X-5986475Y7090308D01*
X-5984443Y7087819D01*
X-5982716Y7084822D01*
X-5982157Y7081367D01*
X-5982157Y7064502D01*
X-5982919Y7060590D01*
X-5985103Y7057288D01*
X-5988405Y7055103D01*
X-5992317Y7054342D01*
X-6031636Y7054342D01*
X-6031636Y7036053D01*
X-6032398Y7032142D01*
X-6034582Y7028891D01*
X-6037884Y7026656D01*
X-6041796Y7025894D01*
X-6073648Y7025894D01*
X-6077559Y7026656D01*
X-6080861Y7028891D01*
X-6083046Y7032142D01*
X-6083808Y7036053D01*
X-6083808Y7054342D01*
X-6091174Y7054342D01*
X-6095034Y7055103D01*
X-6098336Y7057288D01*
X-6100572Y7060590D01*
X-6101334Y7064502D01*
X-6101334Y7083856D01*
X-6100572Y7087768D01*
X-6098336Y7091070D01*
X-6095034Y7093254D01*
X-6091174Y7094016D01*
X-6083808Y7094016D01*
X-6083808Y7127087D01*
X-6096660Y7127087D01*
X-6102959Y7126376D01*
X-6108852Y7124293D01*
X-6112205Y7123734D01*
X-6115608Y7124293D01*
X-6121501Y7126376D01*
X-6127800Y7127087D01*
X-6145987Y7127087D01*
X-6148628Y7127443D01*
X-6156960Y7129678D01*
X-6166713Y7130542D01*
X-6176518Y7129678D01*
X-6184849Y7127443D01*
X-6187490Y7127087D01*
X-6205677Y7127087D01*
X-6211976Y7126376D01*
X-6217462Y7124446D01*
X-6222339Y7121398D01*
X-6226454Y7117283D01*
X-6229502Y7112406D01*
X-6231432Y7106920D01*
X-6232144Y7100620D01*
X-6232144Y7047738D01*
X-6231432Y7041438D01*
X-6230721Y7039406D01*
X-6230162Y7035596D01*
X-6231077Y7031837D01*
X-6233312Y7028688D01*
X-6236512Y7026605D01*
X-6240322Y7025894D01*
G37*

%LPC*%
G36*
X-3489960Y7983626D02*
G01*
X-3480206Y7984490D01*
X-3470706Y7987030D01*
X-3461816Y7991195D01*
X-3453739Y7996834D01*
X-3446830Y8003743D01*
X-3441192Y8011820D01*
X-3437026Y8020710D01*
X-3434486Y8030209D01*
X-3433622Y8039963D01*
X-3434486Y8049768D01*
X-3437026Y8059267D01*
X-3441192Y8068157D01*
X-3446830Y8076234D01*
X-3453739Y8083143D01*
X-3461816Y8088782D01*
X-3470706Y8092948D01*
X-3480206Y8095488D01*
X-3489960Y8096351D01*
X-3499764Y8095488D01*
X-3509264Y8092948D01*
X-3518154Y8088782D01*
X-3526231Y8083143D01*
X-3527806Y8081568D01*
X-3531108Y8079384D01*
X-3534968Y8078571D01*
X-3639820Y8078571D01*
X-3643680Y8079384D01*
X-3646982Y8081568D01*
X-3669436Y8104022D01*
X-3671671Y8107324D01*
X-3672433Y8111185D01*
X-3671671Y8115096D01*
X-3669436Y8118398D01*
X-3666134Y8120583D01*
X-3662273Y8121345D01*
X-3655009Y8121345D01*
X-3651097Y8120583D01*
X-3647795Y8118398D01*
X-3646220Y8116824D01*
X-3638194Y8111185D01*
X-3629253Y8107019D01*
X-3619804Y8104479D01*
X-3610000Y8103616D01*
X-3600196Y8104479D01*
X-3590747Y8107019D01*
X-3581806Y8111185D01*
X-3573779Y8116824D01*
X-3566820Y8123732D01*
X-3561181Y8131809D01*
X-3557066Y8140700D01*
X-3554526Y8150199D01*
X-3553663Y8159953D01*
X-3554526Y8169757D01*
X-3557066Y8179257D01*
X-3561181Y8188147D01*
X-3566820Y8196224D01*
X-3573779Y8203133D01*
X-3581806Y8208772D01*
X-3590747Y8212937D01*
X-3600196Y8215477D01*
X-3610000Y8216341D01*
X-3619804Y8215477D01*
X-3629253Y8212937D01*
X-3638194Y8208772D01*
X-3646220Y8203133D01*
X-3647795Y8201558D01*
X-3651097Y8199374D01*
X-3655009Y8198561D01*
X-3669893Y8198561D01*
X-3673754Y8199374D01*
X-3677056Y8201558D01*
X-4272330Y8796782D01*
X-4278528Y8801912D01*
X-4285234Y8805468D01*
X-4292447Y8807653D01*
X-4300474Y8808466D01*
X-4894884Y8808466D01*
X-4898745Y8809228D01*
X-4902047Y8811463D01*
X-4903774Y8813139D01*
X-4911801Y8818778D01*
X-4920742Y8822944D01*
X-4930190Y8825484D01*
X-4939995Y8826347D01*
X-4949799Y8825484D01*
X-4959248Y8822944D01*
X-4968189Y8818778D01*
X-4976215Y8813139D01*
X-4983175Y8806230D01*
X-4988814Y8798153D01*
X-4992928Y8789263D01*
X-4995468Y8779764D01*
X-4996332Y8769959D01*
X-4995976Y8765844D01*
X-4996383Y8761984D01*
X-4998212Y8758580D01*
X-5001158Y8756091D01*
X-5004866Y8754872D01*
X-5019751Y8756345D01*
X-5029555Y8755481D01*
X-5039055Y8752941D01*
X-5047945Y8748776D01*
X-5056022Y8743137D01*
X-5062931Y8736228D01*
X-5068570Y8728151D01*
X-5072735Y8719261D01*
X-5075275Y8709761D01*
X-5076139Y8699957D01*
X-5075275Y8690203D01*
X-5072735Y8680704D01*
X-5068570Y8671814D01*
X-5062931Y8663736D01*
X-5056022Y8656828D01*
X-5047945Y8651189D01*
X-5039055Y8647023D01*
X-5029555Y8644483D01*
X-5019751Y8643620D01*
X-5009997Y8644483D01*
X-5000498Y8647023D01*
X-4991608Y8651189D01*
X-4983530Y8656828D01*
X-4981956Y8658402D01*
X-4978654Y8660638D01*
X-4974742Y8661400D01*
X-4340250Y8661400D01*
X-4336338Y8660638D01*
X-4333036Y8658402D01*
X-4287875Y8613241D01*
X-4285640Y8609939D01*
X-4284878Y8606028D01*
X-4285640Y8602167D01*
X-4287875Y8598865D01*
X-4291126Y8596680D01*
X-4295038Y8595868D01*
X-4332935Y8595868D01*
X-4339234Y8595156D01*
X-4344720Y8593277D01*
X-4349597Y8590178D01*
X-4353712Y8586114D01*
X-4356760Y8581186D01*
X-4358690Y8575751D01*
X-4359402Y8569401D01*
X-4359402Y8500567D01*
X-4358690Y8494217D01*
X-4356760Y8488781D01*
X-4354626Y8485378D01*
X-4353255Y8481872D01*
X-4353255Y8478062D01*
X-4354626Y8474557D01*
X-4356760Y8471204D01*
X-4358690Y8465718D01*
X-4359402Y8459419D01*
X-4359402Y8390534D01*
X-4358690Y8384235D01*
X-4356760Y8378748D01*
X-4353712Y8373872D01*
X-4349597Y8369757D01*
X-4344720Y8366709D01*
X-4339234Y8364778D01*
X-4332935Y8364067D01*
X-4244086Y8364067D01*
X-4237736Y8364778D01*
X-4232300Y8366709D01*
X-4227372Y8369757D01*
X-4223308Y8373872D01*
X-4220210Y8378748D01*
X-4218279Y8384235D01*
X-4217568Y8390534D01*
X-4217568Y8459419D01*
X-4218279Y8465718D01*
X-4220210Y8471204D01*
X-4222343Y8474557D01*
X-4223715Y8478062D01*
X-4223715Y8481872D01*
X-4222343Y8485378D01*
X-4220210Y8488781D01*
X-4218279Y8494217D01*
X-4217568Y8500567D01*
X-4217568Y8518448D01*
X-4216806Y8522309D01*
X-4214622Y8525611D01*
X-4211320Y8527796D01*
X-4207408Y8528608D01*
X-4203547Y8527796D01*
X-4200245Y8525611D01*
X-3687673Y8013039D01*
X-3681425Y8007908D01*
X-3674770Y8004352D01*
X-3667506Y8002168D01*
X-3659530Y8001355D01*
X-3534968Y8001355D01*
X-3531057Y8000593D01*
X-3527806Y7998409D01*
X-3526231Y7996834D01*
X-3518154Y7991195D01*
X-3509264Y7987030D01*
X-3499764Y7984490D01*
G37*
G36*
X-7735874Y7271308D02*
G01*
X-7686344Y7271308D01*
X-7686344Y7345883D01*
X-7709408Y7345883D01*
X-7715758Y7345172D01*
X-7721193Y7343292D01*
X-7726121Y7340193D01*
X-7730185Y7336078D01*
X-7733284Y7331202D01*
X-7735163Y7325715D01*
X-7735874Y7319416D01*
G37*
G36*
X-7509408Y7074052D02*
G01*
X-7390536Y7074052D01*
X-7384237Y7074763D01*
X-7378750Y7076694D01*
X-7373874Y7079792D01*
X-7369759Y7083856D01*
X-7366711Y7088784D01*
X-7364780Y7094220D01*
X-7364069Y7100570D01*
X-7364069Y7319416D01*
X-7364780Y7325715D01*
X-7366711Y7331202D01*
X-7369149Y7335062D01*
X-7370419Y7338212D01*
X-7370622Y7341616D01*
X-7369708Y7344867D01*
X-7367727Y7347661D01*
X-7333030Y7382306D01*
X-7327849Y7388656D01*
X-7324344Y7391400D01*
X-7319975Y7392365D01*
X-7315657Y7391400D01*
X-7312152Y7388656D01*
X-7306919Y7382306D01*
X-7291578Y7366965D01*
X-7289342Y7363663D01*
X-7288580Y7359751D01*
X-7288580Y7356043D01*
X-7289342Y7352182D01*
X-7291578Y7348880D01*
X-7294829Y7346645D01*
X-7298740Y7345883D01*
X-7309408Y7345883D01*
X-7315758Y7345172D01*
X-7321194Y7343292D01*
X-7326122Y7340193D01*
X-7330186Y7336078D01*
X-7333284Y7331202D01*
X-7335164Y7325715D01*
X-7335875Y7319416D01*
X-7335875Y7100570D01*
X-7335164Y7094220D01*
X-7333284Y7088784D01*
X-7330186Y7083856D01*
X-7326122Y7079792D01*
X-7321194Y7076694D01*
X-7315758Y7074763D01*
X-7309408Y7074052D01*
X-7190536Y7074052D01*
X-7184237Y7074763D01*
X-7178751Y7076694D01*
X-7173874Y7079792D01*
X-7169759Y7083856D01*
X-7166711Y7088784D01*
X-7164781Y7094220D01*
X-7164070Y7100570D01*
X-7164070Y7319416D01*
X-7164781Y7325715D01*
X-7166711Y7331202D01*
X-7169759Y7336078D01*
X-7173874Y7340193D01*
X-7178751Y7343292D01*
X-7184237Y7345172D01*
X-7190536Y7345883D01*
X-7201204Y7345883D01*
X-7205116Y7346645D01*
X-7208367Y7348880D01*
X-7210602Y7352182D01*
X-7211364Y7356043D01*
X-7211364Y7379462D01*
X-7212177Y7387488D01*
X-7214362Y7394702D01*
X-7217918Y7401407D01*
X-7223048Y7407605D01*
X-7238390Y7422997D01*
X-7240625Y7426299D01*
X-7241387Y7430160D01*
X-7241387Y7774990D01*
X-7240625Y7778851D01*
X-7238390Y7782153D01*
X-7236815Y7783728D01*
X-7231176Y7791805D01*
X-7227062Y7800695D01*
X-7224522Y7810195D01*
X-7223658Y7819948D01*
X-7224522Y7829753D01*
X-7227062Y7839252D01*
X-7231176Y7848142D01*
X-7236815Y7856220D01*
X-7243775Y7863128D01*
X-7251801Y7868767D01*
X-7260742Y7872933D01*
X-7270191Y7875473D01*
X-7279995Y7876336D01*
X-7289800Y7875473D01*
X-7299248Y7872933D01*
X-7308189Y7868767D01*
X-7316216Y7863128D01*
X-7323175Y7856220D01*
X-7328814Y7848142D01*
X-7332929Y7839252D01*
X-7335469Y7829753D01*
X-7336332Y7819948D01*
X-7335469Y7810195D01*
X-7334656Y7807096D01*
X-7334453Y7802880D01*
X-7335977Y7798917D01*
X-7338923Y7795971D01*
X-7342886Y7794447D01*
X-7347102Y7794650D01*
X-7350201Y7795463D01*
X-7359954Y7796326D01*
X-7369759Y7795463D01*
X-7379258Y7792923D01*
X-7388148Y7788808D01*
X-7396225Y7783169D01*
X-7403134Y7776209D01*
X-7408773Y7768183D01*
X-7412939Y7759242D01*
X-7415479Y7749794D01*
X-7416342Y7739989D01*
X-7415479Y7730185D01*
X-7412939Y7720736D01*
X-7408773Y7711795D01*
X-7403134Y7703769D01*
X-7401559Y7702194D01*
X-7399375Y7698892D01*
X-7398613Y7695031D01*
X-7398613Y7568234D01*
X-7399426Y7564170D01*
X-7401814Y7560818D01*
X-7405319Y7558684D01*
X-7409383Y7558074D01*
X-7413396Y7559192D01*
X-7416596Y7561783D01*
X-7424318Y7571130D01*
X-7433005Y7578852D01*
X-7442708Y7585151D01*
X-7453325Y7589926D01*
X-7464552Y7592974D01*
X-7476083Y7594346D01*
X-7487666Y7593888D01*
X-7499096Y7591653D01*
X-7510018Y7587742D01*
X-7520228Y7582204D01*
X-7529474Y7575143D01*
X-7537500Y7566761D01*
X-7544206Y7557262D01*
X-7549337Y7546848D01*
X-7552842Y7535773D01*
X-7554620Y7524292D01*
X-7554620Y7512710D01*
X-7552842Y7501229D01*
X-7549337Y7490155D01*
X-7544206Y7479741D01*
X-7537500Y7470241D01*
X-7529474Y7461859D01*
X-7520228Y7454798D01*
X-7510018Y7449261D01*
X-7499096Y7445349D01*
X-7487666Y7443114D01*
X-7476083Y7442657D01*
X-7464552Y7444028D01*
X-7453325Y7447076D01*
X-7442708Y7451852D01*
X-7433005Y7458151D01*
X-7424318Y7465872D01*
X-7416596Y7475220D01*
X-7413396Y7477810D01*
X-7409383Y7478928D01*
X-7405319Y7478318D01*
X-7401814Y7476185D01*
X-7399426Y7472832D01*
X-7398613Y7468768D01*
X-7398613Y7430160D01*
X-7399375Y7426299D01*
X-7401559Y7422997D01*
X-7475728Y7348880D01*
X-7478979Y7346645D01*
X-7482890Y7345883D01*
X-7509408Y7345883D01*
X-7515758Y7345172D01*
X-7521194Y7343292D01*
X-7526121Y7340193D01*
X-7530185Y7336078D01*
X-7533284Y7331202D01*
X-7535164Y7325715D01*
X-7535875Y7319416D01*
X-7535875Y7100570D01*
X-7535164Y7094220D01*
X-7533284Y7088784D01*
X-7530185Y7083856D01*
X-7526121Y7079792D01*
X-7521194Y7076694D01*
X-7515758Y7074763D01*
G37*
G36*
X-8473998Y7089140D02*
G01*
X-8457946Y7089597D01*
X-8441994Y7091883D01*
X-8426450Y7095998D01*
X-8411464Y7101840D01*
X-8397240Y7109307D01*
X-8383930Y7118400D01*
X-8371789Y7128967D01*
X-8360918Y7140803D01*
X-8351469Y7153808D01*
X-8343544Y7167829D01*
X-8337296Y7182612D01*
X-8332774Y7198055D01*
X-8330031Y7213904D01*
X-8329117Y7229957D01*
X-8330031Y7246061D01*
X-8332774Y7261910D01*
X-8337296Y7277353D01*
X-8343544Y7292136D01*
X-8351469Y7306157D01*
X-8360918Y7319162D01*
X-8371789Y7330998D01*
X-8383930Y7341565D01*
X-8397240Y7350658D01*
X-8411464Y7358125D01*
X-8426450Y7363968D01*
X-8441994Y7368082D01*
X-8457946Y7370368D01*
X-8473998Y7370825D01*
X-8490051Y7369454D01*
X-8505799Y7366253D01*
X-8521090Y7361275D01*
X-8535720Y7354570D01*
X-8549487Y7346289D01*
X-8562238Y7336485D01*
X-8573770Y7325258D01*
X-8583980Y7312812D01*
X-8592667Y7299248D01*
X-8599779Y7284821D01*
X-8605164Y7269683D01*
X-8608822Y7253986D01*
X-8610650Y7238034D01*
X-8610650Y7221931D01*
X-8608822Y7205980D01*
X-8605164Y7190282D01*
X-8599779Y7175144D01*
X-8592667Y7160717D01*
X-8583980Y7147153D01*
X-8573770Y7134707D01*
X-8562238Y7123480D01*
X-8549487Y7113676D01*
X-8535720Y7105396D01*
X-8521090Y7098690D01*
X-8505799Y7093712D01*
X-8490051Y7090511D01*
G37*
G36*
X-6390132Y7442504D02*
G01*
X-6383578Y7442504D01*
X-6377228Y7443216D01*
X-6371793Y7445146D01*
X-6366865Y7448194D01*
X-6362801Y7452309D01*
X-6359702Y7457186D01*
X-6357772Y7462672D01*
X-6357061Y7468971D01*
X-6357061Y7476236D01*
X-6390132Y7476236D01*
G37*
G36*
X-6436410Y7442504D02*
G01*
X-6429857Y7442504D01*
X-6429857Y7476236D01*
X-6462877Y7476236D01*
X-6462877Y7468971D01*
X-6462166Y7462672D01*
X-6460286Y7457186D01*
X-6457188Y7452309D01*
X-6453124Y7448194D01*
X-6448196Y7445146D01*
X-6442760Y7443216D01*
G37*
G36*
X-8109407Y7074052D02*
G01*
X-7990535Y7074052D01*
X-7984236Y7074763D01*
X-7978749Y7076694D01*
X-7973872Y7079792D01*
X-7969758Y7083856D01*
X-7966709Y7088784D01*
X-7964779Y7094220D01*
X-7964068Y7100570D01*
X-7964068Y7319416D01*
X-7964779Y7325715D01*
X-7966709Y7331202D01*
X-7969758Y7336078D01*
X-7973872Y7340193D01*
X-7978749Y7343292D01*
X-7984236Y7345172D01*
X-7990535Y7345883D01*
X-8109407Y7345883D01*
X-8115757Y7345172D01*
X-8121192Y7343292D01*
X-8126120Y7340193D01*
X-8130184Y7336078D01*
X-8133283Y7331202D01*
X-8135162Y7325715D01*
X-8135874Y7319416D01*
X-8135874Y7100570D01*
X-8135162Y7094220D01*
X-8133283Y7088784D01*
X-8130184Y7083856D01*
X-8126120Y7079792D01*
X-8121192Y7076694D01*
X-8115757Y7074763D01*
G37*
G36*
X-5577484Y8859875D02*
G01*
X-5543804Y8859875D01*
X-5543804Y8892895D01*
X-5551017Y8892895D01*
X-5557316Y8892184D01*
X-5562803Y8890304D01*
X-5567680Y8887206D01*
X-5571794Y8883142D01*
X-5574842Y8878214D01*
X-5576773Y8872778D01*
X-5577484Y8866428D01*
G37*
G36*
X-6462877Y7727188D02*
G01*
X-6429857Y7727188D01*
X-6429857Y7728915D01*
X-6429044Y7732826D01*
X-6426860Y7736078D01*
X-6423558Y7738313D01*
X-6419697Y7739075D01*
X-6400292Y7739075D01*
X-6396431Y7738313D01*
X-6393129Y7736078D01*
X-6390894Y7732826D01*
X-6390132Y7728915D01*
X-6390132Y7727188D01*
X-6357061Y7727188D01*
X-6357061Y7734401D01*
X-6357772Y7740751D01*
X-6359855Y7746644D01*
X-6360414Y7749997D01*
X-6359855Y7753350D01*
X-6357772Y7759242D01*
X-6357061Y7765542D01*
X-6357061Y7779003D01*
X-6356756Y7781594D01*
X-6354521Y7789925D01*
X-6353657Y7799730D01*
X-6354521Y7809534D01*
X-6357010Y7819491D01*
X-6357823Y7827365D01*
X-6359702Y7832750D01*
X-6362801Y7837678D01*
X-6366865Y7841742D01*
X-6371793Y7844840D01*
X-6381038Y7848142D01*
X-6390741Y7852664D01*
X-6400190Y7855203D01*
X-6409994Y7856067D01*
X-6419799Y7855203D01*
X-6429248Y7852664D01*
X-6439865Y7847787D01*
X-6448196Y7844840D01*
X-6453124Y7841742D01*
X-6457188Y7837678D01*
X-6460286Y7832750D01*
X-6462166Y7827365D01*
X-6463233Y7817916D01*
X-6465468Y7809534D01*
X-6466332Y7799730D01*
X-6465468Y7789925D01*
X-6463233Y7781544D01*
X-6462877Y7778953D01*
X-6462877Y7765542D01*
X-6462166Y7759242D01*
X-6460134Y7753350D01*
X-6459575Y7749997D01*
X-6460134Y7746644D01*
X-6462166Y7740751D01*
X-6462877Y7734401D01*
G37*
G36*
X-7909407Y7074052D02*
G01*
X-7790535Y7074052D01*
X-7784236Y7074763D01*
X-7778750Y7076694D01*
X-7773873Y7079792D01*
X-7769758Y7083856D01*
X-7766710Y7088784D01*
X-7764780Y7094220D01*
X-7764068Y7100570D01*
X-7764068Y7319416D01*
X-7764780Y7325715D01*
X-7766710Y7331202D01*
X-7769758Y7336078D01*
X-7773873Y7340193D01*
X-7778750Y7343292D01*
X-7784236Y7345172D01*
X-7790535Y7345883D01*
X-7909407Y7345883D01*
X-7915757Y7345172D01*
X-7921193Y7343292D01*
X-7926120Y7340193D01*
X-7930184Y7336078D01*
X-7933283Y7331202D01*
X-7935163Y7325715D01*
X-7935874Y7319416D01*
X-7935874Y7100570D01*
X-7935163Y7094220D01*
X-7933283Y7088784D01*
X-7930184Y7083856D01*
X-7926120Y7079792D01*
X-7921193Y7076694D01*
X-7915757Y7074763D01*
G37*
G36*
X-4269384Y8847074D02*
G01*
X-4256532Y8847074D01*
X-4250232Y8847785D01*
X-4244746Y8849715D01*
X-4239869Y8852763D01*
X-4235754Y8856878D01*
X-4232706Y8861755D01*
X-4230776Y8867241D01*
X-4230065Y8873540D01*
X-4230065Y8880144D01*
X-4269384Y8880144D01*
G37*
G36*
X-6909409Y7074052D02*
G01*
X-6790537Y7074052D01*
X-6784238Y7074763D01*
X-6778752Y7076694D01*
X-6773875Y7079792D01*
X-6769760Y7083856D01*
X-6766712Y7088784D01*
X-6764781Y7094220D01*
X-6764070Y7100570D01*
X-6764070Y7319416D01*
X-6764781Y7325715D01*
X-6766712Y7331202D01*
X-6769760Y7336078D01*
X-6773875Y7340193D01*
X-6778752Y7343292D01*
X-6784238Y7345172D01*
X-6790537Y7345883D01*
X-6909409Y7345883D01*
X-6915759Y7345172D01*
X-6921195Y7343292D01*
X-6926122Y7340193D01*
X-6930186Y7336078D01*
X-6933285Y7331202D01*
X-6935165Y7325715D01*
X-6935876Y7319416D01*
X-6935876Y7100570D01*
X-6935165Y7094220D01*
X-6933285Y7088784D01*
X-6930186Y7083856D01*
X-6926122Y7079792D01*
X-6921195Y7076694D01*
X-6915759Y7074763D01*
G37*
G36*
X-6669989Y8233613D02*
G01*
X-6660184Y8234476D01*
X-6650736Y8237016D01*
X-6641795Y8241182D01*
X-6633768Y8246821D01*
X-6626809Y8253730D01*
X-6621170Y8261807D01*
X-6617055Y8270697D01*
X-6614515Y8280196D01*
X-6613652Y8289950D01*
X-6614515Y8299754D01*
X-6617055Y8309254D01*
X-6621170Y8318144D01*
X-6626809Y8326221D01*
X-6633768Y8333130D01*
X-6641795Y8338769D01*
X-6650736Y8342934D01*
X-6660184Y8345474D01*
X-6668211Y8346186D01*
X-6671614Y8347100D01*
X-6674510Y8349081D01*
X-6972350Y8646972D01*
X-6974535Y8650224D01*
X-6975297Y8654135D01*
X-6974535Y8657996D01*
X-6972350Y8661298D01*
X-6969759Y8663889D01*
X-6966712Y8668766D01*
X-6964781Y8674252D01*
X-6964070Y8680551D01*
X-6964070Y8899398D01*
X-6964781Y8905748D01*
X-6966712Y8911183D01*
X-6969759Y8916111D01*
X-6973874Y8920175D01*
X-6978751Y8923274D01*
X-6984238Y8925204D01*
X-6990537Y8925915D01*
X-7109409Y8925915D01*
X-7115759Y8925204D01*
X-7121194Y8923274D01*
X-7126122Y8920175D01*
X-7130186Y8916111D01*
X-7133285Y8911183D01*
X-7135164Y8905748D01*
X-7135875Y8899398D01*
X-7135875Y8680551D01*
X-7135164Y8674252D01*
X-7133285Y8668766D01*
X-7130186Y8663889D01*
X-7126122Y8659774D01*
X-7121194Y8656675D01*
X-7115759Y8654796D01*
X-7109409Y8654084D01*
X-7091070Y8654084D01*
X-7087514Y8653424D01*
X-7084364Y8651544D01*
X-7076897Y8642350D01*
X-6729120Y8294522D01*
X-6727088Y8291626D01*
X-6726174Y8288223D01*
X-6725462Y8280196D01*
X-6722922Y8270697D01*
X-6718808Y8261807D01*
X-6713169Y8253730D01*
X-6706209Y8246821D01*
X-6698183Y8241182D01*
X-6689242Y8237016D01*
X-6679793Y8234476D01*
G37*
G36*
X-7475829Y8242503D02*
G01*
X-7464298Y8243874D01*
X-7453071Y8246922D01*
X-7442453Y8251698D01*
X-7432751Y8257997D01*
X-7424064Y8265718D01*
X-7416647Y8274710D01*
X-7410703Y8284667D01*
X-7406386Y8295436D01*
X-7403744Y8306765D01*
X-7402830Y8318347D01*
X-7403744Y8329930D01*
X-7406386Y8341258D01*
X-7410703Y8352028D01*
X-7416647Y8361984D01*
X-7424064Y8370976D01*
X-7432751Y8378698D01*
X-7442453Y8384997D01*
X-7453071Y8389772D01*
X-7464298Y8392820D01*
X-7475829Y8394192D01*
X-7487412Y8393734D01*
X-7498842Y8391499D01*
X-7509764Y8387588D01*
X-7519974Y8382050D01*
X-7529220Y8374989D01*
X-7537246Y8366607D01*
X-7543952Y8357108D01*
X-7549083Y8346694D01*
X-7552588Y8335619D01*
X-7554366Y8324138D01*
X-7554366Y8312556D01*
X-7552588Y8301075D01*
X-7549083Y8290001D01*
X-7543952Y8279587D01*
X-7537246Y8270087D01*
X-7529220Y8261705D01*
X-7519974Y8254644D01*
X-7509764Y8249107D01*
X-7498842Y8245195D01*
X-7487412Y8242960D01*
G37*
G36*
X-6462877Y8273745D02*
G01*
X-6429857Y8273745D01*
X-6429857Y8307476D01*
X-6436410Y8307476D01*
X-6442760Y8306765D01*
X-6448196Y8304834D01*
X-6453124Y8301736D01*
X-6457188Y8297672D01*
X-6460286Y8292744D01*
X-6462166Y8287308D01*
X-6462877Y8280958D01*
G37*
G36*
X-6390132Y8273745D02*
G01*
X-6357061Y8273745D01*
X-6357061Y8280958D01*
X-6357772Y8287308D01*
X-6359702Y8292744D01*
X-6362801Y8297672D01*
X-6366865Y8301736D01*
X-6371793Y8304834D01*
X-6377228Y8306765D01*
X-6383578Y8307476D01*
X-6390132Y8307476D01*
G37*
G36*
X-7613650Y7074052D02*
G01*
X-7590536Y7074052D01*
X-7584236Y7074763D01*
X-7578750Y7076694D01*
X-7573873Y7079792D01*
X-7569758Y7083856D01*
X-7566710Y7088784D01*
X-7564780Y7094220D01*
X-7564069Y7100570D01*
X-7564069Y7148626D01*
X-7613650Y7148626D01*
G37*
G36*
X-4442663Y8364067D02*
G01*
X-4427067Y8364067D01*
X-4420717Y8364778D01*
X-4415282Y8366709D01*
X-4410354Y8369757D01*
X-4406290Y8373872D01*
X-4403191Y8378748D01*
X-4401312Y8384235D01*
X-4400600Y8390534D01*
X-4400600Y8401151D01*
X-4442663Y8401151D01*
G37*
G36*
X-7709408Y7074052D02*
G01*
X-7686344Y7074052D01*
X-7686344Y7148626D01*
X-7735874Y7148626D01*
X-7735874Y7100570D01*
X-7735163Y7094220D01*
X-7733284Y7088784D01*
X-7730185Y7083856D01*
X-7726121Y7079792D01*
X-7721193Y7076694D01*
X-7715758Y7074763D01*
G37*
G36*
X-8473998Y8629142D02*
G01*
X-8457946Y8629599D01*
X-8441994Y8631885D01*
X-8426450Y8636000D01*
X-8411464Y8641842D01*
X-8397240Y8649309D01*
X-8383930Y8658402D01*
X-8371789Y8668969D01*
X-8360918Y8680805D01*
X-8351469Y8693810D01*
X-8343544Y8707831D01*
X-8337296Y8722614D01*
X-8332774Y8738057D01*
X-8330031Y8753906D01*
X-8329117Y8769959D01*
X-8330031Y8786063D01*
X-8332774Y8801912D01*
X-8337296Y8817356D01*
X-8343544Y8832138D01*
X-8351469Y8846159D01*
X-8360918Y8859164D01*
X-8371789Y8871000D01*
X-8383930Y8881567D01*
X-8397240Y8890660D01*
X-8411464Y8898128D01*
X-8426450Y8903970D01*
X-8441994Y8908084D01*
X-8457946Y8910370D01*
X-8473998Y8910828D01*
X-8490051Y8909456D01*
X-8505799Y8906256D01*
X-8521090Y8901277D01*
X-8535720Y8894572D01*
X-8549487Y8886291D01*
X-8562238Y8876487D01*
X-8573770Y8865260D01*
X-8583980Y8852814D01*
X-8592667Y8839250D01*
X-8599779Y8824823D01*
X-8605164Y8809685D01*
X-8608822Y8793988D01*
X-8610650Y8778036D01*
X-8610650Y8761933D01*
X-8608822Y8745982D01*
X-8605164Y8730284D01*
X-8599779Y8715146D01*
X-8592667Y8700719D01*
X-8583980Y8687155D01*
X-8573770Y8674709D01*
X-8562238Y8663482D01*
X-8549487Y8653678D01*
X-8535720Y8645398D01*
X-8521090Y8638692D01*
X-8505799Y8633714D01*
X-8490051Y8630513D01*
G37*
G36*
X-3573322Y8642248D02*
G01*
X-3573322Y8728608D01*
X-3622903Y8728608D01*
X-3622903Y8720328D01*
X-3621989Y8707780D01*
X-3619398Y8695791D01*
X-3615131Y8684310D01*
X-3609238Y8673541D01*
X-3601923Y8663736D01*
X-3593236Y8655100D01*
X-3583432Y8647734D01*
G37*
G36*
X-3500628Y8642248D02*
G01*
X-3490569Y8647734D01*
X-3480765Y8655100D01*
X-3472078Y8663736D01*
X-3464763Y8673541D01*
X-3458870Y8684310D01*
X-3454603Y8695791D01*
X-3451961Y8707780D01*
X-3451098Y8720328D01*
X-3451098Y8728608D01*
X-3500628Y8728608D01*
G37*
G36*
X-6709409Y8654084D02*
G01*
X-6590538Y8654084D01*
X-6584238Y8654796D01*
X-6578752Y8656675D01*
X-6573875Y8659774D01*
X-6569760Y8663889D01*
X-6566712Y8668766D01*
X-6564782Y8674252D01*
X-6564071Y8680551D01*
X-6564071Y8899398D01*
X-6564782Y8905748D01*
X-6566712Y8911183D01*
X-6569760Y8916111D01*
X-6573875Y8920175D01*
X-6578752Y8923274D01*
X-6584238Y8925204D01*
X-6590538Y8925915D01*
X-6709409Y8925915D01*
X-6715759Y8925204D01*
X-6721195Y8923274D01*
X-6726072Y8920175D01*
X-6730187Y8916111D01*
X-6733286Y8911183D01*
X-6735165Y8905748D01*
X-6735876Y8899398D01*
X-6735876Y8680551D01*
X-6735165Y8674252D01*
X-6733286Y8668766D01*
X-6730187Y8663889D01*
X-6726072Y8659774D01*
X-6721195Y8656675D01*
X-6715759Y8654796D01*
G37*
G36*
X-8109407Y8654084D02*
G01*
X-7990535Y8654084D01*
X-7984236Y8654796D01*
X-7978749Y8656675D01*
X-7973872Y8659774D01*
X-7969758Y8663889D01*
X-7966709Y8668766D01*
X-7964779Y8674252D01*
X-7964068Y8680551D01*
X-7964068Y8899398D01*
X-7964779Y8905748D01*
X-7966709Y8911183D01*
X-7969758Y8916111D01*
X-7973872Y8920175D01*
X-7978749Y8923274D01*
X-7984236Y8925204D01*
X-7990535Y8925915D01*
X-8109407Y8925915D01*
X-8115757Y8925204D01*
X-8121192Y8923274D01*
X-8126120Y8920175D01*
X-8130184Y8916111D01*
X-8133283Y8911183D01*
X-8135162Y8905748D01*
X-8135874Y8899398D01*
X-8135874Y8680551D01*
X-8135162Y8674252D01*
X-8133283Y8668766D01*
X-8130184Y8663889D01*
X-8126120Y8659774D01*
X-8121192Y8656675D01*
X-8115757Y8654796D01*
G37*
G36*
X-6909409Y8654084D02*
G01*
X-6790537Y8654084D01*
X-6784238Y8654796D01*
X-6778752Y8656675D01*
X-6773875Y8659774D01*
X-6769760Y8663889D01*
X-6766712Y8668766D01*
X-6764781Y8674252D01*
X-6764070Y8680551D01*
X-6764070Y8899398D01*
X-6764781Y8905748D01*
X-6766712Y8911183D01*
X-6769760Y8916111D01*
X-6773875Y8920175D01*
X-6778752Y8923274D01*
X-6784238Y8925204D01*
X-6790537Y8925915D01*
X-6909409Y8925915D01*
X-6915759Y8925204D01*
X-6921195Y8923274D01*
X-6926122Y8920175D01*
X-6930186Y8916111D01*
X-6933285Y8911183D01*
X-6935165Y8905748D01*
X-6935876Y8899398D01*
X-6935876Y8680551D01*
X-6935165Y8674252D01*
X-6933285Y8668766D01*
X-6930186Y8663889D01*
X-6926122Y8659774D01*
X-6921195Y8656675D01*
X-6915759Y8654796D01*
G37*
G36*
X-7909407Y8654084D02*
G01*
X-7790535Y8654084D01*
X-7784236Y8654796D01*
X-7778750Y8656675D01*
X-7773873Y8659774D01*
X-7769758Y8663889D01*
X-7766710Y8668766D01*
X-7764780Y8674252D01*
X-7764068Y8680551D01*
X-7764068Y8899398D01*
X-7764780Y8905748D01*
X-7766710Y8911183D01*
X-7769758Y8916111D01*
X-7773873Y8920175D01*
X-7778750Y8923274D01*
X-7784236Y8925204D01*
X-7790535Y8925915D01*
X-7909407Y8925915D01*
X-7915757Y8925204D01*
X-7921193Y8923274D01*
X-7926120Y8920175D01*
X-7930184Y8916111D01*
X-7933283Y8911183D01*
X-7935163Y8905748D01*
X-7935874Y8899398D01*
X-7935874Y8680551D01*
X-7935163Y8674252D01*
X-7933283Y8668766D01*
X-7930184Y8663889D01*
X-7926120Y8659774D01*
X-7921193Y8656675D01*
X-7915757Y8654796D01*
G37*
G36*
X-6087465Y8670036D02*
G01*
X-6081674Y8670036D01*
X-6076035Y8671306D01*
X-6070854Y8673795D01*
X-6065875Y8677808D01*
X-5997397Y8746286D01*
X-5993434Y8751265D01*
X-5990894Y8756446D01*
X-5989624Y8762085D01*
X-5989624Y8767876D01*
X-5990894Y8773515D01*
X-5993434Y8778748D01*
X-5997397Y8783726D01*
X-6134100Y8920429D01*
X-6139078Y8924391D01*
X-6144310Y8926931D01*
X-6149949Y8928201D01*
X-6155740Y8928201D01*
X-6161379Y8926931D01*
X-6166561Y8924391D01*
X-6171539Y8920429D01*
X-6240018Y8851950D01*
X-6243980Y8846972D01*
X-6246520Y8841790D01*
X-6247790Y8836152D01*
X-6247790Y8830360D01*
X-6246520Y8824722D01*
X-6243980Y8819489D01*
X-6240018Y8814511D01*
X-6103315Y8677808D01*
X-6098336Y8673795D01*
X-6093104Y8671306D01*
G37*
G36*
X-7613650Y7271308D02*
G01*
X-7564069Y7271308D01*
X-7564069Y7319416D01*
X-7564780Y7325715D01*
X-7566710Y7331202D01*
X-7569758Y7336078D01*
X-7573873Y7340193D01*
X-7578750Y7343292D01*
X-7584236Y7345172D01*
X-7590536Y7345883D01*
X-7613650Y7345883D01*
G37*
G36*
X-4269384Y8919819D02*
G01*
X-4230065Y8919819D01*
X-4230065Y8926423D01*
X-4230776Y8932722D01*
X-4232706Y8938209D01*
X-4235754Y8943086D01*
X-4239869Y8947200D01*
X-4244746Y8950248D01*
X-4250232Y8952179D01*
X-4256532Y8952890D01*
X-4269384Y8952890D01*
G37*

%LPD*%
G36*
X-4440428Y7025894D02*
G01*
X-4444339Y7026656D01*
X-4447641Y7028891D01*
X-4449826Y7032142D01*
X-4450588Y7036053D01*
X-4450588Y7070140D01*
X-4498644Y7070140D01*
X-4502404Y7070852D01*
X-4505604Y7072884D01*
X-4507839Y7075982D01*
X-4511192Y7083196D01*
X-4513681Y7086701D01*
X-4515307Y7090460D01*
X-4515307Y7094575D01*
X-4513681Y7098334D01*
X-4511192Y7101840D01*
X-4509262Y7105954D01*
X-4506569Y7109510D01*
X-4502556Y7111542D01*
X-4498136Y7111644D01*
X-4494022Y7109815D01*
X-4450588Y7109815D01*
X-4450588Y7142886D01*
X-4463440Y7142886D01*
X-4469739Y7142175D01*
X-4475226Y7140244D01*
X-4480102Y7137196D01*
X-4484217Y7133081D01*
X-4485436Y7131151D01*
X-4488332Y7128154D01*
X-4492244Y7126579D01*
X-4496409Y7126681D01*
X-4500219Y7128509D01*
X-4502962Y7131659D01*
X-4504182Y7135672D01*
X-4504537Y7139787D01*
X-4507077Y7149287D01*
X-4511192Y7158177D01*
X-4513681Y7161682D01*
X-4515307Y7165441D01*
X-4515307Y7169556D01*
X-4513681Y7173315D01*
X-4511192Y7176820D01*
X-4507077Y7185761D01*
X-4504537Y7195210D01*
X-4503674Y7205014D01*
X-4504537Y7214819D01*
X-4507077Y7224268D01*
X-4511192Y7233208D01*
X-4513630Y7236663D01*
X-4515256Y7240473D01*
X-4515256Y7244537D01*
X-4513630Y7248347D01*
X-4511192Y7251801D01*
X-4507077Y7260742D01*
X-4504537Y7270191D01*
X-4503674Y7279995D01*
X-4504537Y7289800D01*
X-4507077Y7299248D01*
X-4511192Y7308189D01*
X-4515408Y7314184D01*
X-4517034Y7317943D01*
X-4517034Y7322058D01*
X-4515408Y7325817D01*
X-4511192Y7331811D01*
X-4509414Y7335672D01*
X-4507128Y7338822D01*
X-4503826Y7340853D01*
X-4500016Y7341565D01*
X-4496206Y7340752D01*
X-4493006Y7338568D01*
X-4489145Y7334656D01*
X-4487113Y7331760D01*
X-4486249Y7328408D01*
X-4485487Y7320127D01*
X-4482947Y7310678D01*
X-4478832Y7301738D01*
X-4473194Y7293711D01*
X-4466234Y7286752D01*
X-4458208Y7281113D01*
X-4449267Y7276998D01*
X-4439818Y7274458D01*
X-4430014Y7273594D01*
X-4420209Y7274458D01*
X-4410760Y7276998D01*
X-4401820Y7281113D01*
X-4393793Y7286752D01*
X-4386834Y7293711D01*
X-4381195Y7301738D01*
X-4377080Y7310678D01*
X-4374540Y7320127D01*
X-4373676Y7329931D01*
X-4374540Y7339736D01*
X-4377080Y7349185D01*
X-4381195Y7358125D01*
X-4386834Y7366152D01*
X-4393793Y7373112D01*
X-4402531Y7379208D01*
X-4405426Y7382357D01*
X-4406798Y7386370D01*
X-4406392Y7390587D01*
X-4404309Y7394295D01*
X-4400854Y7396784D01*
X-4396689Y7397699D01*
X-4280509Y7397699D01*
X-4273143Y7398461D01*
X-4268520Y7399832D01*
X-4262069Y7403134D01*
X-4259376Y7404049D01*
X-4256532Y7404201D01*
X-4249978Y7403642D01*
X-4240174Y7404506D01*
X-4230725Y7407046D01*
X-4221784Y7411161D01*
X-4213758Y7416800D01*
X-4206798Y7423759D01*
X-4201160Y7431786D01*
X-4197045Y7440726D01*
X-4194505Y7450175D01*
X-4193641Y7459980D01*
X-4194505Y7469784D01*
X-4197045Y7479233D01*
X-4201160Y7488174D01*
X-4206798Y7496200D01*
X-4213758Y7503159D01*
X-4221784Y7508798D01*
X-4230725Y7512913D01*
X-4240174Y7515453D01*
X-4249978Y7516317D01*
X-4259783Y7515453D01*
X-4269232Y7512913D01*
X-4278172Y7508798D01*
X-4286199Y7503159D01*
X-4291685Y7497622D01*
X-4294987Y7495438D01*
X-4298899Y7494676D01*
X-4302760Y7495438D01*
X-4306062Y7497622D01*
X-4308297Y7500924D01*
X-4309059Y7504836D01*
X-4309059Y7634427D01*
X-4309770Y7640726D01*
X-4311650Y7646212D01*
X-4314748Y7651089D01*
X-4318863Y7655204D01*
X-4323740Y7658252D01*
X-4329226Y7660182D01*
X-4335526Y7660894D01*
X-4403547Y7660894D01*
X-4407204Y7661605D01*
X-4410405Y7663586D01*
X-4412640Y7666583D01*
X-4413656Y7670190D01*
X-4414520Y7679791D01*
X-4417060Y7689240D01*
X-4421174Y7698181D01*
X-4426813Y7706156D01*
X-4434687Y7713980D01*
X-4436922Y7717281D01*
X-4437735Y7721193D01*
X-4436973Y7725054D01*
X-4434789Y7728407D01*
X-4431487Y7730591D01*
X-4427575Y7731353D01*
X-4404969Y7731353D01*
X-4401058Y7730591D01*
X-4397806Y7728407D01*
X-4396232Y7726832D01*
X-4388154Y7721193D01*
X-4379264Y7717028D01*
X-4369765Y7714488D01*
X-4359960Y7713624D01*
X-4350207Y7714488D01*
X-4340707Y7717028D01*
X-4331817Y7721193D01*
X-4323740Y7726832D01*
X-4316831Y7733741D01*
X-4311192Y7741818D01*
X-4307027Y7750708D01*
X-4304487Y7760208D01*
X-4303623Y7769961D01*
X-4304538Y7780426D01*
X-4304030Y7784541D01*
X-4301896Y7788148D01*
X-4298543Y7790586D01*
X-4294428Y7791450D01*
X-3410458Y7791450D01*
X-3402431Y7792262D01*
X-3395218Y7794447D01*
X-3388512Y7798003D01*
X-3382314Y7803134D01*
X-2748026Y8437422D01*
X-2742895Y8443620D01*
X-2739339Y8450326D01*
X-2737154Y8457539D01*
X-2736342Y8465566D01*
X-2736342Y8637473D01*
X-2735681Y8641029D01*
X-2733852Y8644128D01*
X-2731058Y8646363D01*
X-2728569Y8647734D01*
X-2718765Y8655100D01*
X-2710078Y8663736D01*
X-2702763Y8673541D01*
X-2696870Y8684310D01*
X-2692603Y8695791D01*
X-2689961Y8707780D01*
X-2689098Y8720328D01*
X-2689098Y8899601D01*
X-2689961Y8912199D01*
X-2692603Y8924188D01*
X-2696870Y8935669D01*
X-2702763Y8946388D01*
X-2710586Y8956751D01*
X-2712821Y8960002D01*
X-2713583Y8963914D01*
X-2712821Y8967825D01*
X-2710586Y8971076D01*
X-2707284Y8973312D01*
X-2703423Y8974074D01*
X-780846Y8974074D01*
X-762457Y8973108D01*
X-745540Y8970568D01*
X-728980Y8966403D01*
X-712927Y8960561D01*
X-697534Y8953246D01*
X-682904Y8944406D01*
X-669188Y8934196D01*
X-656590Y8922715D01*
X-645160Y8910015D01*
X-635000Y8896248D01*
X-626262Y8881567D01*
X-618998Y8866124D01*
X-613308Y8850020D01*
X-609193Y8833459D01*
X-606755Y8816543D01*
X-605891Y8799118D01*
X-605891Y7200849D01*
X-606856Y7182408D01*
X-609396Y7165543D01*
X-613613Y7148982D01*
X-619404Y7132929D01*
X-626770Y7117486D01*
X-635558Y7102856D01*
X-645769Y7089190D01*
X-657301Y7076592D01*
X-667105Y7067651D01*
X-670407Y7065670D01*
X-674268Y7065060D01*
X-678027Y7065924D01*
X-681228Y7068159D01*
X-683361Y7071410D01*
X-684072Y7075220D01*
X-684072Y7109409D01*
X-684784Y7115759D01*
X-686714Y7121194D01*
X-689813Y7126122D01*
X-693877Y7130186D01*
X-698804Y7133285D01*
X-704240Y7135164D01*
X-710590Y7135875D01*
X-809447Y7135875D01*
X-815746Y7135164D01*
X-821232Y7133285D01*
X-826109Y7130186D01*
X-830224Y7126122D01*
X-833272Y7121194D01*
X-835202Y7115759D01*
X-835914Y7109409D01*
X-835914Y7036053D01*
X-836676Y7032142D01*
X-838860Y7028891D01*
X-842162Y7026656D01*
X-846074Y7025894D01*
X-1403908Y7025894D01*
X-1407820Y7026656D01*
X-1411122Y7028891D01*
X-1413306Y7032142D01*
X-1414068Y7036053D01*
X-1414068Y7109409D01*
X-1414780Y7115759D01*
X-1416710Y7121194D01*
X-1419809Y7126122D01*
X-1423873Y7130186D01*
X-1428800Y7133285D01*
X-1434236Y7135164D01*
X-1440586Y7135875D01*
X-1539443Y7135875D01*
X-1545742Y7135164D01*
X-1551736Y7133336D01*
X-1554022Y7133336D01*
X-1560322Y7134047D01*
X-1669643Y7134047D01*
X-1675993Y7133336D01*
X-1681429Y7131456D01*
X-1686356Y7128357D01*
X-1690420Y7124242D01*
X-1693519Y7119366D01*
X-1695450Y7113930D01*
X-1696161Y7107580D01*
X-1696161Y7046518D01*
X-1694586Y7035596D01*
X-1695500Y7031837D01*
X-1697736Y7028688D01*
X-1700987Y7026605D01*
X-1704746Y7025894D01*
X-1783638Y7025894D01*
X-1788007Y7026859D01*
X-1791512Y7029602D01*
X-1793493Y7033564D01*
X-1793646Y7037984D01*
X-1791868Y7042048D01*
X-1782267Y7050074D01*
X-1757730Y7074611D01*
X-1752650Y7080859D01*
X-1749094Y7087514D01*
X-1746859Y7094778D01*
X-1746097Y7102754D01*
X-1746097Y7251801D01*
X-1746859Y7259777D01*
X-1749094Y7267041D01*
X-1752650Y7273696D01*
X-1757730Y7279944D01*
X-1777034Y7299248D01*
X-1783283Y7304328D01*
X-1789938Y7307884D01*
X-1797151Y7310120D01*
X-1806244Y7310881D01*
X-1810105Y7311644D01*
X-1813407Y7313879D01*
X-1815592Y7317181D01*
X-1816404Y7321042D01*
X-1816404Y7378090D01*
X-1815592Y7382002D01*
X-1813407Y7385303D01*
X-1809800Y7388910D01*
X-1806702Y7393787D01*
X-1804822Y7399274D01*
X-1804111Y7405573D01*
X-1804111Y7409332D01*
X-1803298Y7413294D01*
X-1801012Y7416596D01*
X-1797608Y7418781D01*
X-1793595Y7419492D01*
X-1789684Y7418527D01*
X-1786432Y7416139D01*
X-1784350Y7412685D01*
X-1782318Y7406792D01*
X-1779219Y7401915D01*
X-1775104Y7397800D01*
X-1770227Y7394752D01*
X-1764741Y7392822D01*
X-1758442Y7392111D01*
X-1740306Y7392111D01*
X-1737664Y7391755D01*
X-1729282Y7389520D01*
X-1719478Y7388656D01*
X-1709724Y7389520D01*
X-1701342Y7391755D01*
X-1698701Y7392111D01*
X-1680565Y7392111D01*
X-1674266Y7392822D01*
X-1668373Y7394905D01*
X-1665020Y7395464D01*
X-1661668Y7394905D01*
X-1655775Y7392822D01*
X-1649425Y7392111D01*
X-1636623Y7392111D01*
X-1636623Y7425181D01*
X-1643938Y7425181D01*
X-1647799Y7425944D01*
X-1651101Y7428128D01*
X-1653336Y7431430D01*
X-1654098Y7435342D01*
X-1654098Y7454696D01*
X-1653336Y7458608D01*
X-1651101Y7461910D01*
X-1647799Y7464094D01*
X-1643938Y7464856D01*
X-1636623Y7464856D01*
X-1636623Y7497927D01*
X-1649425Y7497927D01*
X-1655775Y7497216D01*
X-1661668Y7495133D01*
X-1665020Y7494574D01*
X-1668373Y7495133D01*
X-1674266Y7497216D01*
X-1680565Y7497927D01*
X-1698752Y7497927D01*
X-1701393Y7498283D01*
X-1709724Y7500518D01*
X-1719478Y7501381D01*
X-1729282Y7500518D01*
X-1737614Y7498283D01*
X-1740255Y7497927D01*
X-1758442Y7497927D01*
X-1764741Y7497216D01*
X-1770227Y7495286D01*
X-1775104Y7492238D01*
X-1779219Y7488123D01*
X-1782318Y7483246D01*
X-1784350Y7477353D01*
X-1786432Y7473899D01*
X-1789684Y7471511D01*
X-1793595Y7470546D01*
X-1797608Y7471257D01*
X-1801012Y7473442D01*
X-1803298Y7476744D01*
X-1804111Y7480706D01*
X-1804111Y7484465D01*
X-1804822Y7490764D01*
X-1806702Y7496251D01*
X-1812086Y7504480D01*
X-1812848Y7508392D01*
X-1812086Y7512253D01*
X-1809851Y7515555D01*
X-1802028Y7523378D01*
X-1798726Y7525613D01*
X-1794865Y7526375D01*
X-1589938Y7526375D01*
X-1586026Y7525613D01*
X-1582724Y7523378D01*
X-1581200Y7521854D01*
X-1573428Y7516418D01*
X-1570532Y7513320D01*
X-1569161Y7509256D01*
X-1569567Y7505039D01*
X-1571701Y7501331D01*
X-1575104Y7498842D01*
X-1579270Y7497927D01*
X-1584401Y7497927D01*
X-1584401Y7464856D01*
X-1545082Y7464856D01*
X-1545082Y7471460D01*
X-1545793Y7477759D01*
X-1547723Y7483246D01*
X-1550771Y7488123D01*
X-1554073Y7491425D01*
X-1556359Y7494879D01*
X-1557070Y7498943D01*
X-1556105Y7502906D01*
X-1553667Y7506208D01*
X-1550111Y7508290D01*
X-1535176Y7509509D01*
X-1525727Y7512050D01*
X-1516786Y7516215D01*
X-1508760Y7521854D01*
X-1501800Y7528763D01*
X-1496161Y7536840D01*
X-1492046Y7545730D01*
X-1489506Y7555230D01*
X-1488643Y7564983D01*
X-1489506Y7574788D01*
X-1492046Y7584287D01*
X-1496161Y7593177D01*
X-1501800Y7601254D01*
X-1508760Y7608163D01*
X-1516786Y7613802D01*
X-1525727Y7617968D01*
X-1535176Y7620508D01*
X-1544980Y7621371D01*
X-1554784Y7620508D01*
X-1564233Y7617968D01*
X-1573174Y7613802D01*
X-1581200Y7608163D01*
X-1582826Y7606538D01*
X-1586128Y7604353D01*
X-1589989Y7603591D01*
X-1671472Y7603591D01*
X-1675130Y7604302D01*
X-1678330Y7606284D01*
X-1680616Y7609331D01*
X-1681581Y7612938D01*
X-1681175Y7616698D01*
X-1679448Y7622438D01*
X-1678635Y7630464D01*
X-1678635Y7646416D01*
X-1677974Y7650073D01*
X-1675993Y7653223D01*
X-1673047Y7655509D01*
X-1669440Y7656525D01*
X-1661414Y7657338D01*
X-1656029Y7659217D01*
X-1651152Y7662265D01*
X-1647037Y7666380D01*
X-1643989Y7671257D01*
X-1642059Y7676743D01*
X-1641348Y7683042D01*
X-1641348Y7756906D01*
X-1642059Y7763256D01*
X-1643989Y7768691D01*
X-1647037Y7773619D01*
X-1651152Y7777683D01*
X-1656029Y7780781D01*
X-1661515Y7782661D01*
X-1667814Y7783372D01*
X-1766671Y7783372D01*
X-1773021Y7782661D01*
X-1778457Y7780781D01*
X-1783384Y7777683D01*
X-1787448Y7773619D01*
X-1790547Y7768691D01*
X-1792427Y7763256D01*
X-1793138Y7756906D01*
X-1793138Y7751064D01*
X-1793951Y7747152D01*
X-1796135Y7743850D01*
X-1799437Y7741666D01*
X-1803298Y7740903D01*
X-1916938Y7740903D01*
X-1923288Y7740192D01*
X-1928723Y7738262D01*
X-1934514Y7734655D01*
X-1938375Y7733182D01*
X-1942541Y7733436D01*
X-1950212Y7735468D01*
X-1959965Y7736331D01*
X-1969770Y7735468D01*
X-1974291Y7734300D01*
X-1978660Y7734096D01*
X-1982724Y7735773D01*
X-1985721Y7739024D01*
X-1987042Y7743190D01*
X-1986483Y7747558D01*
X-1984095Y7751267D01*
X-1939747Y7795615D01*
X-1934667Y7801864D01*
X-1931111Y7808518D01*
X-1928875Y7815732D01*
X-1928114Y7823758D01*
X-1928114Y7863535D01*
X-1927555Y7866888D01*
X-1925878Y7869885D01*
X-1922322Y7872780D01*
X-1918207Y7876895D01*
X-1915160Y7881772D01*
X-1913229Y7887208D01*
X-1912518Y7893558D01*
X-1912518Y7946390D01*
X-1913229Y7952740D01*
X-1915160Y7958175D01*
X-1918207Y7963103D01*
X-1922322Y7967167D01*
X-1927199Y7970266D01*
X-1932686Y7972196D01*
X-1938985Y7972907D01*
X-1994407Y7972907D01*
X-2000757Y7972196D01*
X-2006650Y7970113D01*
X-2010003Y7969554D01*
X-2013356Y7970113D01*
X-2019249Y7972196D01*
X-2025548Y7972907D01*
X-2061108Y7972907D01*
X-2064969Y7973669D01*
X-2068271Y7975853D01*
X-2070506Y7979156D01*
X-2071268Y7983067D01*
X-2071268Y8038134D01*
X-2070760Y8041182D01*
X-2069947Y8049463D01*
X-2069947Y8110474D01*
X-2070811Y8118805D01*
X-2072284Y8123936D01*
X-2072639Y8127492D01*
X-2071725Y8130997D01*
X-2069693Y8133943D01*
X-2063953Y8139734D01*
X-2060956Y8141817D01*
X-2057400Y8142681D01*
X-2053793Y8142274D01*
X-2048764Y8140750D01*
X-2040483Y8139938D01*
X-1979523Y8139938D01*
X-1971243Y8140750D01*
X-1963775Y8143036D01*
X-1956866Y8146694D01*
X-1950821Y8151672D01*
X-1945843Y8157718D01*
X-1942185Y8164575D01*
X-1939899Y8172094D01*
X-1939137Y8179866D01*
X-1939899Y8187639D01*
X-1942185Y8195106D01*
X-1944827Y8200085D01*
X-1945893Y8203234D01*
X-1945893Y8206536D01*
X-1944827Y8209635D01*
X-1942185Y8214614D01*
X-1939899Y8222132D01*
X-1939137Y8229904D01*
X-1939899Y8237677D01*
X-1942185Y8245144D01*
X-1944827Y8250123D01*
X-1945893Y8253272D01*
X-1945893Y8256574D01*
X-1944827Y8259673D01*
X-1942185Y8264652D01*
X-1939899Y8272170D01*
X-1938680Y8284362D01*
X-1936597Y8287969D01*
X-1933193Y8290458D01*
X-1929079Y8291322D01*
X-1850491Y8291322D01*
X-1846325Y8290407D01*
X-1842922Y8287918D01*
X-1840788Y8284209D01*
X-1840382Y8279993D01*
X-1841754Y8275929D01*
X-1844649Y8272830D01*
X-1851304Y8268208D01*
X-1858264Y8261248D01*
X-1863902Y8253222D01*
X-1868017Y8244281D01*
X-1870557Y8234832D01*
X-1871421Y8225028D01*
X-1870557Y8215223D01*
X-1868017Y8205774D01*
X-1863902Y8196834D01*
X-1858264Y8188807D01*
X-1851304Y8181848D01*
X-1843278Y8176209D01*
X-1834337Y8172094D01*
X-1831238Y8171230D01*
X-1827326Y8169198D01*
X-1824685Y8165744D01*
X-1823720Y8161426D01*
X-1823720Y8095488D01*
X-1822907Y8087461D01*
X-1820722Y8080248D01*
X-1817166Y8073542D01*
X-1812036Y8067344D01*
X-1737563Y7992872D01*
X-1731365Y7987741D01*
X-1724660Y7984185D01*
X-1717446Y7982000D01*
X-1709420Y7981188D01*
X-1513789Y7981188D01*
X-1509877Y7980425D01*
X-1506575Y7978190D01*
X-1504391Y7974939D01*
X-1503629Y7971028D01*
X-1503629Y7945475D01*
X-1502816Y7937449D01*
X-1501597Y7933436D01*
X-1501241Y7929372D01*
X-1502511Y7925460D01*
X-1505153Y7922412D01*
X-1508861Y7920634D01*
X-1512925Y7920431D01*
X-1516735Y7921853D01*
X-1522222Y7925308D01*
X-1527708Y7927238D01*
X-1534007Y7927949D01*
X-1589430Y7927949D01*
X-1595780Y7927238D01*
X-1601622Y7925155D01*
X-1605026Y7924596D01*
X-1608378Y7925155D01*
X-1614271Y7927238D01*
X-1620570Y7927949D01*
X-1627530Y7927949D01*
X-1630172Y7928254D01*
X-1638503Y7930489D01*
X-1648256Y7931353D01*
X-1658061Y7930489D01*
X-1666392Y7928254D01*
X-1669034Y7927949D01*
X-1675993Y7927949D01*
X-1682343Y7927238D01*
X-1687779Y7925308D01*
X-1692656Y7922209D01*
X-1696770Y7918145D01*
X-1699869Y7913217D01*
X-1701749Y7907781D01*
X-1702460Y7901431D01*
X-1702460Y7890967D01*
X-1703781Y7884820D01*
X-1704644Y7875016D01*
X-1703781Y7865211D01*
X-1702460Y7859064D01*
X-1702460Y7848600D01*
X-1701749Y7842250D01*
X-1699869Y7836814D01*
X-1696770Y7831886D01*
X-1692656Y7827822D01*
X-1687779Y7824724D01*
X-1682343Y7822844D01*
X-1675993Y7822133D01*
X-1669084Y7822133D01*
X-1666443Y7821777D01*
X-1658061Y7819542D01*
X-1648256Y7818678D01*
X-1638503Y7819542D01*
X-1630121Y7821777D01*
X-1627479Y7822133D01*
X-1620570Y7822133D01*
X-1614271Y7822844D01*
X-1608378Y7824876D01*
X-1605026Y7825435D01*
X-1601622Y7824876D01*
X-1595780Y7822844D01*
X-1589430Y7822133D01*
X-1534007Y7822133D01*
X-1527708Y7822844D01*
X-1522222Y7824724D01*
X-1517345Y7827822D01*
X-1510944Y7834325D01*
X-1508048Y7835849D01*
X-1504797Y7836408D01*
X-1434592Y7836408D01*
X-1430680Y7835646D01*
X-1427378Y7833410D01*
X-1425194Y7830108D01*
X-1424432Y7826248D01*
X-1424432Y7805623D01*
X-1424736Y7800644D01*
X-1426819Y7796987D01*
X-1430274Y7794447D01*
X-1434439Y7793583D01*
X-1484630Y7793583D01*
X-1492656Y7792770D01*
X-1499870Y7790586D01*
X-1506524Y7787030D01*
X-1511198Y7783982D01*
X-1514602Y7783372D01*
X-1532178Y7783372D01*
X-1538478Y7782661D01*
X-1543964Y7780781D01*
X-1548841Y7777683D01*
X-1552956Y7773619D01*
X-1556004Y7768691D01*
X-1557934Y7763256D01*
X-1558645Y7756906D01*
X-1558645Y7683042D01*
X-1557934Y7676743D01*
X-1556004Y7671257D01*
X-1552956Y7666380D01*
X-1548841Y7662265D01*
X-1543964Y7659217D01*
X-1538478Y7657287D01*
X-1532178Y7656575D01*
X-1480820Y7656575D01*
X-1476857Y7655763D01*
X-1473504Y7653477D01*
X-1471320Y7650073D01*
X-1470660Y7646060D01*
X-1471574Y7642098D01*
X-1472946Y7639253D01*
X-1475486Y7629753D01*
X-1476349Y7619949D01*
X-1475486Y7610195D01*
X-1472946Y7600696D01*
X-1468780Y7591806D01*
X-1463141Y7583728D01*
X-1456232Y7576820D01*
X-1448155Y7571181D01*
X-1439265Y7567015D01*
X-1429766Y7564475D01*
X-1419961Y7563612D01*
X-1410208Y7564475D01*
X-1400708Y7567015D01*
X-1396796Y7568844D01*
X-1393037Y7569809D01*
X-1389126Y7569200D01*
X-1385773Y7567218D01*
X-1383385Y7564120D01*
X-1382369Y7560360D01*
X-1381658Y7550353D01*
X-1379067Y7538364D01*
X-1374800Y7526883D01*
X-1368907Y7516164D01*
X-1361541Y7506309D01*
X-1353464Y7498232D01*
X-1351280Y7494930D01*
X-1350518Y7491069D01*
X-1351280Y7487158D01*
X-1353464Y7483856D01*
X-1356766Y7481671D01*
X-1360678Y7480909D01*
X-1384401Y7480909D01*
X-1390751Y7480198D01*
X-1396187Y7478268D01*
X-1401114Y7475220D01*
X-1405178Y7471105D01*
X-1408277Y7466228D01*
X-1410208Y7460742D01*
X-1410919Y7454442D01*
X-1410919Y7360412D01*
X-1411833Y7356246D01*
X-1414373Y7352792D01*
X-1418132Y7350709D01*
X-1422450Y7350353D01*
X-1426464Y7351826D01*
X-1428800Y7353300D01*
X-1434236Y7355179D01*
X-1440586Y7355890D01*
X-1539443Y7355890D01*
X-1545742Y7355179D01*
X-1551228Y7353300D01*
X-1556105Y7350201D01*
X-1560220Y7346086D01*
X-1563268Y7341209D01*
X-1565198Y7335723D01*
X-1565706Y7331049D01*
X-1566773Y7327544D01*
X-1569059Y7324598D01*
X-1572209Y7322667D01*
X-1575816Y7322007D01*
X-1580997Y7322007D01*
X-1580997Y7286904D01*
X-1576070Y7286904D01*
X-1572158Y7286142D01*
X-1568856Y7283907D01*
X-1566672Y7280656D01*
X-1565910Y7276744D01*
X-1565910Y7253274D01*
X-1566672Y7249363D01*
X-1568856Y7246061D01*
X-1572158Y7243876D01*
X-1576070Y7243114D01*
X-1580997Y7243114D01*
X-1580997Y7207961D01*
X-1560322Y7207961D01*
X-1553972Y7208672D01*
X-1548536Y7210602D01*
X-1543608Y7213701D01*
X-1539544Y7217765D01*
X-1536293Y7221880D01*
X-1533296Y7223506D01*
X-1529943Y7224064D01*
X-1440586Y7224064D01*
X-1434236Y7224775D01*
X-1428800Y7226706D01*
X-1423873Y7229805D01*
X-1419809Y7233869D01*
X-1416710Y7238796D01*
X-1414780Y7244232D01*
X-1414068Y7250582D01*
X-1414068Y7274559D01*
X-1413154Y7278776D01*
X-1410614Y7282230D01*
X-1406855Y7284262D01*
X-1402537Y7284618D01*
X-1398524Y7283145D01*
X-1396187Y7281722D01*
X-1390751Y7279792D01*
X-1384401Y7279081D01*
X-1315567Y7279081D01*
X-1309268Y7279792D01*
X-1303782Y7281722D01*
X-1298905Y7284770D01*
X-1294790Y7288885D01*
X-1291691Y7293762D01*
X-1289812Y7299248D01*
X-1289100Y7305548D01*
X-1289100Y7454442D01*
X-1289812Y7460742D01*
X-1290624Y7463129D01*
X-1291183Y7466939D01*
X-1290320Y7470698D01*
X-1288084Y7473848D01*
X-1284833Y7475931D01*
X-1281074Y7476642D01*
X-1217015Y7476642D01*
X-1204417Y7477556D01*
X-1192479Y7480147D01*
X-1180998Y7484465D01*
X-1175054Y7487666D01*
X-1171143Y7488885D01*
X-1167028Y7488428D01*
X-1163472Y7486396D01*
X-1160983Y7483094D01*
X-1160018Y7479080D01*
X-1160729Y7475016D01*
X-1163015Y7471613D01*
X-1171956Y7462621D01*
X-1177036Y7456424D01*
X-1180592Y7449769D01*
X-1182827Y7442504D01*
X-1183589Y7434478D01*
X-1183589Y7305497D01*
X-1182827Y7297470D01*
X-1180592Y7290257D01*
X-1177036Y7283551D01*
X-1171956Y7277353D01*
X-1122629Y7228027D01*
X-1116431Y7222947D01*
X-1109726Y7219391D01*
X-1102512Y7217156D01*
X-1094486Y7216394D01*
X-1051610Y7216394D01*
X-1047699Y7215631D01*
X-1044397Y7213396D01*
X-1042212Y7210094D01*
X-1041450Y7206234D01*
X-1045006Y7191095D01*
X-1045870Y7179970D01*
X-1045006Y7168896D01*
X-1042365Y7158075D01*
X-1038148Y7147814D01*
X-1032306Y7138314D01*
X-1025093Y7129881D01*
X-1016660Y7122668D01*
X-1007160Y7116825D01*
X-996899Y7112609D01*
X-986078Y7109968D01*
X-974953Y7109104D01*
X-963879Y7109968D01*
X-953058Y7112609D01*
X-942797Y7116825D01*
X-933297Y7122668D01*
X-924864Y7129881D01*
X-917651Y7138314D01*
X-911809Y7147814D01*
X-907592Y7158075D01*
X-904951Y7168896D01*
X-904087Y7179970D01*
X-904951Y7191095D01*
X-907592Y7201916D01*
X-911809Y7212177D01*
X-917651Y7221677D01*
X-924864Y7230109D01*
X-933297Y7237323D01*
X-942797Y7243165D01*
X-953058Y7247381D01*
X-955548Y7247991D01*
X-959358Y7249820D01*
X-962152Y7253122D01*
X-963269Y7257237D01*
X-962660Y7261453D01*
X-960323Y7265060D01*
X-948588Y7276846D01*
X-946150Y7278624D01*
X-943254Y7279640D01*
X-940257Y7279741D01*
X-934415Y7279081D01*
X-865581Y7279081D01*
X-859231Y7279792D01*
X-853795Y7281722D01*
X-851458Y7283145D01*
X-847445Y7284618D01*
X-843127Y7284262D01*
X-839368Y7282230D01*
X-836828Y7278776D01*
X-835914Y7274559D01*
X-835914Y7250582D01*
X-835202Y7244232D01*
X-833272Y7238796D01*
X-830224Y7233869D01*
X-826109Y7229805D01*
X-821232Y7226706D01*
X-815746Y7224775D01*
X-809447Y7224064D01*
X-710590Y7224064D01*
X-704240Y7224775D01*
X-698804Y7226706D01*
X-693877Y7229805D01*
X-689813Y7233869D01*
X-686714Y7238796D01*
X-684784Y7244232D01*
X-684072Y7250582D01*
X-684072Y7329424D01*
X-684784Y7335723D01*
X-686714Y7341209D01*
X-689813Y7346086D01*
X-693877Y7350201D01*
X-698804Y7353300D01*
X-704240Y7355179D01*
X-710590Y7355890D01*
X-809447Y7355890D01*
X-815746Y7355179D01*
X-821232Y7353300D01*
X-823518Y7351826D01*
X-827582Y7350353D01*
X-831850Y7350709D01*
X-835609Y7352792D01*
X-838200Y7356246D01*
X-839063Y7360412D01*
X-839063Y7454442D01*
X-839774Y7460742D01*
X-840638Y7463129D01*
X-841197Y7466939D01*
X-840282Y7470698D01*
X-838047Y7473848D01*
X-834847Y7475931D01*
X-831037Y7476642D01*
X-807008Y7476642D01*
X-794461Y7477556D01*
X-782472Y7480147D01*
X-770991Y7484465D01*
X-760222Y7490307D01*
X-750417Y7497673D01*
X-741781Y7506309D01*
X-734415Y7516164D01*
X-728522Y7526883D01*
X-724255Y7538364D01*
X-721664Y7550353D01*
X-720801Y7562596D01*
X-721664Y7574788D01*
X-724255Y7586776D01*
X-728522Y7598257D01*
X-734415Y7609027D01*
X-741781Y7618831D01*
X-750417Y7627467D01*
X-760222Y7634833D01*
X-770991Y7640675D01*
X-782472Y7644993D01*
X-794461Y7647584D01*
X-807008Y7648498D01*
X-866292Y7648498D01*
X-878890Y7647584D01*
X-890879Y7644993D01*
X-902360Y7640675D01*
X-913079Y7634833D01*
X-922883Y7627467D01*
X-931570Y7618831D01*
X-938936Y7609027D01*
X-944778Y7598257D01*
X-949045Y7586776D01*
X-951687Y7574788D01*
X-952550Y7562596D01*
X-951687Y7550353D01*
X-950518Y7544917D01*
X-950417Y7540955D01*
X-951890Y7537297D01*
X-954633Y7534452D01*
X-958240Y7532827D01*
X-962202Y7532776D01*
X-965860Y7534198D01*
X-968756Y7536942D01*
X-971753Y7541259D01*
X-973277Y7542784D01*
X-975512Y7546086D01*
X-976274Y7549997D01*
X-975106Y8541258D01*
X-974344Y8545169D01*
X-972108Y8548420D01*
X-968857Y8550656D01*
X-964946Y8551418D01*
X-845413Y8551418D01*
X-837387Y8552180D01*
X-830173Y8554415D01*
X-823468Y8557971D01*
X-817270Y8563051D01*
X-784199Y8596122D01*
X-780897Y8598357D01*
X-776986Y8599119D01*
X-730504Y8599119D01*
X-724154Y8599830D01*
X-718718Y8601760D01*
X-713790Y8604808D01*
X-709726Y8608923D01*
X-706628Y8613800D01*
X-704697Y8619286D01*
X-703986Y8625586D01*
X-703986Y8704478D01*
X-704697Y8710777D01*
X-706628Y8716213D01*
X-709726Y8721140D01*
X-713790Y8725204D01*
X-718718Y8728303D01*
X-724154Y8730234D01*
X-730504Y8730945D01*
X-809345Y8730945D01*
X-815644Y8730234D01*
X-821131Y8728303D01*
X-826008Y8725204D01*
X-830122Y8721140D01*
X-833221Y8716213D01*
X-835101Y8710777D01*
X-835812Y8704478D01*
X-835812Y8657894D01*
X-836574Y8654034D01*
X-838809Y8650732D01*
X-856843Y8632698D01*
X-860145Y8630462D01*
X-864006Y8629700D01*
X-867918Y8630462D01*
X-871219Y8632698D01*
X-873404Y8636000D01*
X-874166Y8639860D01*
X-874166Y8704478D01*
X-874877Y8710777D01*
X-876808Y8716213D01*
X-879906Y8721140D01*
X-883970Y8725204D01*
X-888898Y8728303D01*
X-894334Y8730234D01*
X-900684Y8730945D01*
X-979525Y8730945D01*
X-985824Y8730234D01*
X-991311Y8728303D01*
X-996187Y8725204D01*
X-1000302Y8721140D01*
X-1003401Y8716213D01*
X-1005281Y8710777D01*
X-1005992Y8704478D01*
X-1005992Y8638794D01*
X-1006754Y8634882D01*
X-1008989Y8631580D01*
X-1012291Y8629396D01*
X-1016152Y8628634D01*
X-1084478Y8628634D01*
X-1087831Y8629192D01*
X-1090777Y8630869D01*
X-1093063Y8633358D01*
X-1094790Y8636152D01*
X-1098905Y8640216D01*
X-1103782Y8643315D01*
X-1109268Y8645194D01*
X-1115568Y8645906D01*
X-1214424Y8645906D01*
X-1220774Y8645194D01*
X-1225804Y8643416D01*
X-1228801Y8642858D01*
X-1231798Y8643213D01*
X-1240180Y8645448D01*
X-1249984Y8646312D01*
X-1259789Y8645448D01*
X-1269238Y8642908D01*
X-1278178Y8638794D01*
X-1286205Y8633155D01*
X-1293164Y8626195D01*
X-1298803Y8618169D01*
X-1302918Y8609228D01*
X-1305458Y8599779D01*
X-1306322Y8589975D01*
X-1305458Y8580170D01*
X-1304442Y8576411D01*
X-1304188Y8572703D01*
X-1305204Y8569147D01*
X-1307490Y8566251D01*
X-1310640Y8564321D01*
X-1314297Y8563610D01*
X-1338935Y8563610D01*
X-1342796Y8564372D01*
X-1346098Y8566607D01*
X-1348333Y8569909D01*
X-1349095Y8573770D01*
X-1349095Y8619439D01*
X-1349806Y8625789D01*
X-1351737Y8631224D01*
X-1353667Y8635644D01*
X-1353667Y8639403D01*
X-1351686Y8643823D01*
X-1349806Y8649258D01*
X-1349095Y8655608D01*
X-1349095Y8714435D01*
X-1349806Y8720785D01*
X-1351686Y8726220D01*
X-1353616Y8730640D01*
X-1353616Y8734399D01*
X-1351686Y8738819D01*
X-1349806Y8744254D01*
X-1349095Y8750604D01*
X-1349095Y8809431D01*
X-1349806Y8815781D01*
X-1351686Y8821216D01*
X-1354785Y8826144D01*
X-1358900Y8830208D01*
X-1363776Y8833307D01*
X-1369263Y8835237D01*
X-1375562Y8835948D01*
X-1419606Y8835948D01*
X-1424990Y8836355D01*
X-1430426Y8835948D01*
X-1474419Y8835948D01*
X-1480718Y8835237D01*
X-1486204Y8833307D01*
X-1491081Y8830208D01*
X-1495196Y8826144D01*
X-1498295Y8821216D01*
X-1500174Y8815781D01*
X-1500886Y8808567D01*
X-1501648Y8804656D01*
X-1503883Y8801354D01*
X-1507185Y8799169D01*
X-1511046Y8798407D01*
X-1597152Y8798407D01*
X-1603502Y8797696D01*
X-1608937Y8795766D01*
X-1613865Y8792718D01*
X-1617929Y8788603D01*
X-1621028Y8783726D01*
X-1622907Y8778240D01*
X-1623618Y8771940D01*
X-1623618Y8733993D01*
X-1624533Y8729980D01*
X-1623618Y8725966D01*
X-1623618Y8698077D01*
X-1622907Y8691727D01*
X-1621028Y8686292D01*
X-1617929Y8681364D01*
X-1613865Y8677300D01*
X-1608937Y8674201D01*
X-1603552Y8672322D01*
X-1595526Y8671560D01*
X-1591919Y8670493D01*
X-1588973Y8668258D01*
X-1587042Y8665108D01*
X-1586331Y8661400D01*
X-1586331Y8656116D01*
X-1587093Y8652205D01*
X-1589328Y8648903D01*
X-1592630Y8646718D01*
X-1596491Y8645956D01*
X-1614424Y8645956D01*
X-1620774Y8645245D01*
X-1626209Y8643315D01*
X-1631137Y8640216D01*
X-1635201Y8636152D01*
X-1638300Y8631224D01*
X-1640230Y8625789D01*
X-1640941Y8619439D01*
X-1640941Y8570620D01*
X-1640230Y8564270D01*
X-1638300Y8558834D01*
X-1635201Y8553907D01*
X-1633524Y8552230D01*
X-1631289Y8548928D01*
X-1630527Y8545017D01*
X-1631289Y8541156D01*
X-1633524Y8537854D01*
X-1635201Y8536127D01*
X-1638300Y8531250D01*
X-1640230Y8525764D01*
X-1640941Y8519464D01*
X-1640941Y8470595D01*
X-1640230Y8464296D01*
X-1638300Y8458809D01*
X-1635201Y8453932D01*
X-1631137Y8449818D01*
X-1626209Y8446770D01*
X-1620774Y8444839D01*
X-1614424Y8444128D01*
X-1600911Y8444128D01*
X-1596593Y8443163D01*
X-1594256Y8442096D01*
X-1584807Y8439556D01*
X-1575003Y8438692D01*
X-1565198Y8439556D01*
X-1555750Y8442096D01*
X-1553413Y8443163D01*
X-1549095Y8444128D01*
X-1535582Y8444128D01*
X-1529283Y8444839D01*
X-1523796Y8446770D01*
X-1518920Y8449818D01*
X-1514805Y8453932D01*
X-1511706Y8458809D01*
X-1509826Y8464296D01*
X-1509115Y8470595D01*
X-1509115Y8519464D01*
X-1509826Y8525764D01*
X-1511706Y8531250D01*
X-1514602Y8535822D01*
X-1516075Y8539886D01*
X-1515770Y8544153D01*
X-1513687Y8547912D01*
X-1510233Y8550503D01*
X-1505508Y8551418D01*
X-1502156Y8550859D01*
X-1499209Y8549182D01*
X-1496923Y8546642D01*
X-1495196Y8543899D01*
X-1491132Y8539835D01*
X-1486204Y8536736D01*
X-1480769Y8534857D01*
X-1474419Y8534146D01*
X-1427937Y8534146D01*
X-1424025Y8533333D01*
X-1420723Y8531148D01*
X-1387652Y8498078D01*
X-1381404Y8492947D01*
X-1373886Y8488984D01*
X-1370279Y8486648D01*
X-1367942Y8483041D01*
X-1367332Y8478774D01*
X-1368552Y8474659D01*
X-1374800Y8463229D01*
X-1379067Y8451748D01*
X-1381658Y8439810D01*
X-1382522Y8427567D01*
X-1381658Y8415324D01*
X-1379067Y8403386D01*
X-1374800Y8391906D01*
X-1371549Y8386013D01*
X-1370380Y8382000D01*
X-1370888Y8377885D01*
X-1372971Y8374278D01*
X-1376375Y8371840D01*
X-1380490Y8370976D01*
X-1397965Y8370976D01*
X-1404264Y8370265D01*
X-1410004Y8368284D01*
X-1412951Y8367674D01*
X-1415999Y8368030D01*
X-1425194Y8370519D01*
X-1434998Y8371382D01*
X-1444802Y8370519D01*
X-1454251Y8367979D01*
X-1463192Y8363813D01*
X-1471218Y8358174D01*
X-1478178Y8351266D01*
X-1483817Y8343188D01*
X-1487627Y8334908D01*
X-1490319Y8331453D01*
X-1494231Y8329422D01*
X-1498600Y8329218D01*
X-1502664Y8330895D01*
X-1506829Y8333790D01*
X-1515719Y8337956D01*
X-1525219Y8340496D01*
X-1534972Y8341359D01*
X-1544777Y8340496D01*
X-1554276Y8337956D01*
X-1563166Y8333790D01*
X-1571244Y8328152D01*
X-1578152Y8321243D01*
X-1583791Y8313166D01*
X-1587957Y8304275D01*
X-1590497Y8294776D01*
X-1591360Y8284972D01*
X-1590497Y8275218D01*
X-1587957Y8265718D01*
X-1583791Y8256828D01*
X-1578152Y8248751D01*
X-1571244Y8241842D01*
X-1563471Y8236407D01*
X-1560576Y8233308D01*
X-1559204Y8229295D01*
X-1559610Y8225028D01*
X-1561744Y8221319D01*
X-1565148Y8218830D01*
X-1569313Y8217916D01*
X-1589430Y8217916D01*
X-1595780Y8217204D01*
X-1601622Y8215172D01*
X-1605026Y8214563D01*
X-1608378Y8215172D01*
X-1614271Y8217204D01*
X-1620570Y8217916D01*
X-1627479Y8217916D01*
X-1630121Y8218271D01*
X-1638503Y8220506D01*
X-1648256Y8221370D01*
X-1658061Y8220506D01*
X-1666443Y8218271D01*
X-1669084Y8217916D01*
X-1675993Y8217916D01*
X-1686763Y8216442D01*
X-1690522Y8217357D01*
X-1693672Y8219541D01*
X-1695754Y8222792D01*
X-1696466Y8226602D01*
X-1696466Y8244586D01*
X-1697278Y8252612D01*
X-1699463Y8259825D01*
X-1703019Y8266531D01*
X-1708150Y8272729D01*
X-1735378Y8300008D01*
X-1737664Y8303564D01*
X-1738325Y8307730D01*
X-1737258Y8311794D01*
X-1734616Y8315096D01*
X-1721815Y8321192D01*
X-1713738Y8326831D01*
X-1706829Y8333740D01*
X-1701190Y8341817D01*
X-1697024Y8350707D01*
X-1694484Y8360206D01*
X-1693621Y8369960D01*
X-1694484Y8379764D01*
X-1697024Y8389264D01*
X-1701190Y8398154D01*
X-1706829Y8406231D01*
X-1713738Y8413140D01*
X-1721815Y8418779D01*
X-1730705Y8422944D01*
X-1740204Y8425484D01*
X-1749958Y8426348D01*
X-1759762Y8425484D01*
X-1769262Y8422944D01*
X-1776475Y8419592D01*
X-1780793Y8418626D01*
X-1804619Y8418626D01*
X-1808784Y8419490D01*
X-1812188Y8422030D01*
X-1814322Y8425688D01*
X-1814728Y8429904D01*
X-1814118Y8435543D01*
X-1814118Y8441131D01*
X-1853641Y8441131D01*
X-1853641Y8428786D01*
X-1854403Y8424875D01*
X-1856638Y8421573D01*
X-1859940Y8419388D01*
X-1863801Y8418626D01*
X-1896211Y8418626D01*
X-1900072Y8419388D01*
X-1903374Y8421573D01*
X-1905558Y8424875D01*
X-1906371Y8428786D01*
X-1906371Y8441131D01*
X-1923034Y8441131D01*
X-1920189Y8437778D01*
X-1919122Y8434222D01*
X-1918970Y8427770D01*
X-1919986Y8424214D01*
X-1922221Y8421268D01*
X-1925421Y8419287D01*
X-1929079Y8418626D01*
X-1968144Y8418626D01*
X-1979523Y8419896D01*
X-2040483Y8419896D01*
X-2047951Y8419185D01*
X-2052116Y8419642D01*
X-2055723Y8421776D01*
X-2058212Y8425180D01*
X-2059076Y8429294D01*
X-2059076Y8433206D01*
X-2058314Y8437118D01*
X-2056130Y8440420D01*
X-2052828Y8442604D01*
X-2048916Y8443366D01*
X-2038857Y8443366D01*
X-2038857Y8466734D01*
X-2048916Y8466734D01*
X-2052828Y8467496D01*
X-2056130Y8469680D01*
X-2058314Y8472982D01*
X-2059076Y8476894D01*
X-2059076Y8483244D01*
X-2058314Y8487156D01*
X-2056130Y8490458D01*
X-2052828Y8492642D01*
X-2048916Y8493404D01*
X-2038857Y8493404D01*
X-2038857Y8519972D01*
X-2040483Y8519972D01*
X-2048865Y8519160D01*
X-2053996Y8517686D01*
X-2057552Y8517331D01*
X-2061006Y8518194D01*
X-2063953Y8520226D01*
X-2069744Y8526018D01*
X-2071827Y8529015D01*
X-2072741Y8532520D01*
X-2072335Y8536178D01*
X-2070760Y8541207D01*
X-2069947Y8549487D01*
X-2069947Y8586622D01*
X-2069287Y8590280D01*
X-2067356Y8593429D01*
X-2064410Y8595715D01*
X-2060854Y8596731D01*
X-2057196Y8596477D01*
X-2049780Y8594496D01*
X-2039975Y8593632D01*
X-2030222Y8594496D01*
X-2020722Y8597036D01*
X-2011832Y8601151D01*
X-2003755Y8606790D01*
X-1996846Y8613749D01*
X-1991207Y8621776D01*
X-1987042Y8630716D01*
X-1984502Y8640165D01*
X-1983638Y8649970D01*
X-1984502Y8659774D01*
X-1985772Y8664397D01*
X-1986025Y8668308D01*
X-1984756Y8672017D01*
X-1982216Y8675014D01*
X-1978710Y8676792D01*
X-1974443Y8677097D01*
X-1956257Y8677097D01*
X-1953615Y8676741D01*
X-1945284Y8674506D01*
X-1937257Y8673795D01*
X-1933854Y8672880D01*
X-1930958Y8670848D01*
X-1921611Y8661501D01*
X-1919376Y8658199D01*
X-1918614Y8654288D01*
X-1918614Y8619896D01*
X-1919478Y8615832D01*
X-1921865Y8612428D01*
X-1925421Y8610295D01*
X-1931212Y8608263D01*
X-1936140Y8605215D01*
X-1940204Y8601100D01*
X-1943303Y8596223D01*
X-1945182Y8590737D01*
X-1945893Y8584438D01*
X-1945893Y8535568D01*
X-1945182Y8529218D01*
X-1944217Y8526475D01*
X-1943658Y8522462D01*
X-1944725Y8518601D01*
X-1947214Y8515400D01*
X-1950720Y8513419D01*
X-1954733Y8513013D01*
X-1958593Y8514130D01*
X-1963775Y8516924D01*
X-1971243Y8519160D01*
X-1979523Y8519972D01*
X-1981149Y8519972D01*
X-1981149Y8493404D01*
X-1929231Y8493404D01*
X-1925574Y8492744D01*
X-1922424Y8490813D01*
X-1920189Y8487816D01*
X-1919122Y8484260D01*
X-1918868Y8478824D01*
X-1906371Y8478824D01*
X-1906371Y8498941D01*
X-1905558Y8502802D01*
X-1903374Y8506104D01*
X-1900072Y8508288D01*
X-1896211Y8509101D01*
X-1863801Y8509101D01*
X-1859940Y8508288D01*
X-1856638Y8506104D01*
X-1854403Y8502802D01*
X-1853641Y8498941D01*
X-1853641Y8478824D01*
X-1814118Y8478824D01*
X-1814118Y8484412D01*
X-1814830Y8490762D01*
X-1816709Y8496198D01*
X-1819808Y8501126D01*
X-1821484Y8502802D01*
X-1823720Y8506104D01*
X-1824482Y8509965D01*
X-1823720Y8513876D01*
X-1821484Y8517178D01*
X-1819808Y8518855D01*
X-1816709Y8523782D01*
X-1814830Y8529218D01*
X-1814118Y8535568D01*
X-1814118Y8584438D01*
X-1814830Y8590737D01*
X-1816709Y8596223D01*
X-1819808Y8601100D01*
X-1823872Y8605215D01*
X-1828800Y8608263D01*
X-1834591Y8610295D01*
X-1838147Y8612428D01*
X-1840534Y8615832D01*
X-1841398Y8619896D01*
X-1841398Y8661400D01*
X-1840636Y8665311D01*
X-1838401Y8668613D01*
X-1835150Y8670798D01*
X-1831238Y8671560D01*
X-1732838Y8671560D01*
X-1726488Y8672322D01*
X-1717192Y8675624D01*
X-1713077Y8675370D01*
X-1709775Y8674506D01*
X-1699971Y8673642D01*
X-1690217Y8674506D01*
X-1680718Y8677046D01*
X-1671828Y8681161D01*
X-1663750Y8686800D01*
X-1656842Y8693759D01*
X-1651203Y8701786D01*
X-1647037Y8710726D01*
X-1644497Y8720175D01*
X-1643938Y8726830D01*
X-1642922Y8729980D01*
X-1643938Y8733129D01*
X-1644497Y8739784D01*
X-1647037Y8749233D01*
X-1651203Y8758174D01*
X-1656842Y8766200D01*
X-1663750Y8773160D01*
X-1671828Y8778798D01*
X-1680718Y8782913D01*
X-1690217Y8785453D01*
X-1699971Y8786317D01*
X-1704238Y8785961D01*
X-1708607Y8786520D01*
X-1712315Y8788908D01*
X-1716125Y8792718D01*
X-1721053Y8795766D01*
X-1726488Y8797696D01*
X-1732838Y8798407D01*
X-1823466Y8798407D01*
X-1827682Y8799322D01*
X-1831136Y8801862D01*
X-1833219Y8805621D01*
X-1833524Y8809939D01*
X-1832102Y8813952D01*
X-1831086Y8815578D01*
X-1829155Y8821013D01*
X-1828444Y8827363D01*
X-1828444Y8912606D01*
X-1829155Y8918956D01*
X-1831086Y8924391D01*
X-1834134Y8929319D01*
X-1838248Y8933383D01*
X-1843125Y8936482D01*
X-1848612Y8938361D01*
X-1854911Y8939072D01*
X-1934413Y8939072D01*
X-1940763Y8938361D01*
X-1946198Y8936482D01*
X-1951126Y8933383D01*
X-1955190Y8929319D01*
X-1958289Y8924391D01*
X-1960422Y8918346D01*
X-1962556Y8914790D01*
X-1965960Y8912352D01*
X-1969973Y8911539D01*
X-1974037Y8912352D01*
X-1977440Y8914790D01*
X-1979574Y8918346D01*
X-1981707Y8924391D01*
X-1984806Y8929319D01*
X-1988870Y8933383D01*
X-1993798Y8936482D01*
X-1999234Y8938361D01*
X-2005584Y8939072D01*
X-2085086Y8939072D01*
X-2091385Y8938361D01*
X-2096871Y8936482D01*
X-2101748Y8933383D01*
X-2105863Y8929319D01*
X-2108911Y8924391D01*
X-2110841Y8918956D01*
X-2111552Y8912606D01*
X-2111552Y8827363D01*
X-2110841Y8821013D01*
X-2108911Y8815578D01*
X-2105863Y8810701D01*
X-2101748Y8806586D01*
X-2096871Y8803538D01*
X-2090216Y8801201D01*
X-2086660Y8799068D01*
X-2084273Y8795715D01*
X-2083409Y8791651D01*
X-2084222Y8787536D01*
X-2086660Y8784183D01*
X-2090216Y8781999D01*
X-2095195Y8780272D01*
X-2100122Y8777173D01*
X-2103628Y8773668D01*
X-2107031Y8771432D01*
X-2111044Y8770670D01*
X-2115058Y8771585D01*
X-2118309Y8773972D01*
X-2120442Y8777478D01*
X-2121712Y8781186D01*
X-2124811Y8786063D01*
X-2128875Y8790178D01*
X-2133803Y8793276D01*
X-2139238Y8795156D01*
X-2145588Y8795867D01*
X-2194407Y8795867D01*
X-2200757Y8795156D01*
X-2206193Y8793276D01*
X-2211120Y8790178D01*
X-2212797Y8788501D01*
X-2216099Y8786266D01*
X-2220010Y8785504D01*
X-2223871Y8786266D01*
X-2227173Y8788501D01*
X-2228900Y8790178D01*
X-2233777Y8793276D01*
X-2239264Y8795156D01*
X-2245563Y8795867D01*
X-2294432Y8795867D01*
X-2300732Y8795156D01*
X-2306218Y8793276D01*
X-2311095Y8790178D01*
X-2315210Y8786063D01*
X-2318308Y8781186D01*
X-2320188Y8775750D01*
X-2320899Y8769400D01*
X-2320899Y8755888D01*
X-2321864Y8751570D01*
X-2322931Y8749233D01*
X-2325471Y8739784D01*
X-2326335Y8729980D01*
X-2325471Y8720175D01*
X-2322931Y8710726D01*
X-2321864Y8708390D01*
X-2320899Y8704072D01*
X-2320899Y8690559D01*
X-2320188Y8684209D01*
X-2318308Y8678773D01*
X-2315210Y8673846D01*
X-2311095Y8669782D01*
X-2307082Y8666226D01*
X-2305456Y8662365D01*
X-2305558Y8658199D01*
X-2307336Y8654389D01*
X-2310485Y8651646D01*
X-2314498Y8650376D01*
X-2317800Y8650071D01*
X-2325268Y8647785D01*
X-2330246Y8645144D01*
X-2333396Y8644077D01*
X-2336698Y8644077D01*
X-2339848Y8645144D01*
X-2344826Y8647785D01*
X-2352294Y8650071D01*
X-2360066Y8650833D01*
X-2367838Y8650071D01*
X-2375306Y8647785D01*
X-2380284Y8645144D01*
X-2383434Y8644077D01*
X-2386736Y8644077D01*
X-2389886Y8645144D01*
X-2394864Y8647785D01*
X-2402332Y8650071D01*
X-2410104Y8650833D01*
X-2417876Y8650071D01*
X-2425344Y8647785D01*
X-2432253Y8644128D01*
X-2438298Y8639149D01*
X-2443226Y8633104D01*
X-2446934Y8626246D01*
X-2449220Y8618728D01*
X-2450033Y8610498D01*
X-2450033Y8549487D01*
X-2449169Y8541105D01*
X-2447696Y8535974D01*
X-2447340Y8532418D01*
X-2448255Y8528913D01*
X-2450287Y8526018D01*
X-2456027Y8520176D01*
X-2459024Y8518144D01*
X-2462580Y8517229D01*
X-2466187Y8517636D01*
X-2471216Y8519160D01*
X-2479497Y8519972D01*
X-2540508Y8519972D01*
X-2548788Y8519160D01*
X-2556256Y8516924D01*
X-2563164Y8513216D01*
X-2569210Y8508238D01*
X-2574137Y8502243D01*
X-2577846Y8495334D01*
X-2580081Y8487867D01*
X-2580843Y8480094D01*
X-2580081Y8472322D01*
X-2577846Y8464804D01*
X-2575153Y8459825D01*
X-2574086Y8456726D01*
X-2574086Y8453424D01*
X-2575153Y8450275D01*
X-2577846Y8445296D01*
X-2580081Y8437829D01*
X-2580843Y8430056D01*
X-2580081Y8422284D01*
X-2577846Y8414766D01*
X-2575153Y8409787D01*
X-2574086Y8406688D01*
X-2574086Y8403386D01*
X-2575153Y8400237D01*
X-2577846Y8395258D01*
X-2580081Y8387791D01*
X-2580843Y8380018D01*
X-2580081Y8372246D01*
X-2577846Y8364728D01*
X-2575153Y8359749D01*
X-2574086Y8356650D01*
X-2574086Y8353348D01*
X-2575153Y8350199D01*
X-2577846Y8345220D01*
X-2580081Y8337753D01*
X-2580843Y8329980D01*
X-2580081Y8322208D01*
X-2577846Y8314690D01*
X-2575153Y8309711D01*
X-2574086Y8306612D01*
X-2574086Y8303310D01*
X-2575153Y8300161D01*
X-2577846Y8295182D01*
X-2580081Y8287715D01*
X-2580843Y8279942D01*
X-2580081Y8272170D01*
X-2577846Y8264652D01*
X-2575153Y8259673D01*
X-2574086Y8256574D01*
X-2574086Y8253272D01*
X-2575153Y8250123D01*
X-2577846Y8245144D01*
X-2580081Y8237677D01*
X-2580843Y8229904D01*
X-2580081Y8222132D01*
X-2577846Y8214614D01*
X-2575153Y8209635D01*
X-2574086Y8206536D01*
X-2574086Y8203234D01*
X-2575153Y8200085D01*
X-2577846Y8195106D01*
X-2580081Y8187639D01*
X-2580843Y8179866D01*
X-2580081Y8172094D01*
X-2577846Y8164575D01*
X-2574137Y8157718D01*
X-2569210Y8151672D01*
X-2563164Y8146694D01*
X-2556256Y8143036D01*
X-2548788Y8140750D01*
X-2540508Y8139938D01*
X-2479497Y8139938D01*
X-2471166Y8140750D01*
X-2465984Y8142224D01*
X-2462428Y8142630D01*
X-2458974Y8141716D01*
X-2456027Y8139684D01*
X-2450236Y8133892D01*
X-2448153Y8130946D01*
X-2447239Y8127390D01*
X-2447696Y8123783D01*
X-2449220Y8118754D01*
X-2450033Y8110474D01*
X-2450033Y8049463D01*
X-2449220Y8041182D01*
X-2446934Y8033715D01*
X-2445766Y8031530D01*
X-2444648Y8028025D01*
X-2444800Y8024368D01*
X-2446324Y8021015D01*
X-2448864Y8018373D01*
X-2456332Y8013192D01*
X-2463292Y8006232D01*
X-2468930Y7998206D01*
X-2473045Y7989265D01*
X-2475585Y7979816D01*
X-2476449Y7970012D01*
X-2475534Y7959648D01*
X-2476042Y7955483D01*
X-2478176Y7951876D01*
X-2481580Y7949438D01*
X-2485694Y7948574D01*
X-2859481Y7948574D01*
X-2867507Y7947812D01*
X-2874772Y7945628D01*
X-2881426Y7942021D01*
X-2887624Y7936941D01*
X-3065475Y7759141D01*
X-3068370Y7757109D01*
X-3071774Y7756194D01*
X-3079800Y7755483D01*
X-3089249Y7752943D01*
X-3098190Y7748778D01*
X-3106216Y7743139D01*
X-3113176Y7736230D01*
X-3118815Y7728153D01*
X-3122930Y7719263D01*
X-3125470Y7709763D01*
X-3126333Y7699959D01*
X-3125470Y7690205D01*
X-3122930Y7680706D01*
X-3118815Y7671816D01*
X-3113176Y7663789D01*
X-3105251Y7655966D01*
X-3103067Y7652715D01*
X-3102254Y7648803D01*
X-3103016Y7644892D01*
X-3105200Y7641590D01*
X-3108502Y7639354D01*
X-3112414Y7638592D01*
X-3154984Y7638592D01*
X-3158896Y7639354D01*
X-3162198Y7641590D01*
X-3163773Y7643164D01*
X-3171799Y7648803D01*
X-3180740Y7652918D01*
X-3190189Y7655458D01*
X-3199993Y7656322D01*
X-3209798Y7655458D01*
X-3219246Y7652918D01*
X-3228187Y7648803D01*
X-3236214Y7643164D01*
X-3243173Y7636205D01*
X-3248812Y7628178D01*
X-3252927Y7619238D01*
X-3255467Y7609789D01*
X-3256330Y7599984D01*
X-3255467Y7590180D01*
X-3252927Y7580731D01*
X-3248812Y7571790D01*
X-3243173Y7563764D01*
X-3236214Y7556804D01*
X-3228187Y7551166D01*
X-3219246Y7547051D01*
X-3209798Y7544511D01*
X-3199993Y7543647D01*
X-3190189Y7544511D01*
X-3180740Y7547051D01*
X-3171799Y7551166D01*
X-3163773Y7556804D01*
X-3162198Y7558379D01*
X-3158896Y7560614D01*
X-3154984Y7561376D01*
X-3070555Y7561376D01*
X-3062528Y7562189D01*
X-3055315Y7564374D01*
X-3048609Y7567930D01*
X-3042412Y7573060D01*
X-2796997Y7818424D01*
X-2793695Y7820659D01*
X-2789783Y7821422D01*
X-2373426Y7821422D01*
X-2369312Y7820558D01*
X-2365857Y7818018D01*
X-2363774Y7814360D01*
X-2363419Y7809433D01*
X-2363419Y7740548D01*
X-2362708Y7734249D01*
X-2360828Y7728762D01*
X-2357729Y7723886D01*
X-2353665Y7719771D01*
X-2348738Y7716672D01*
X-2343302Y7714792D01*
X-2336952Y7714081D01*
X-2213102Y7714081D01*
X-2206752Y7714792D01*
X-2201265Y7716723D01*
X-2195322Y7720431D01*
X-2191816Y7721752D01*
X-2188057Y7721752D01*
X-2184552Y7720380D01*
X-2178659Y7716672D01*
X-2173325Y7714843D01*
X-2169566Y7712506D01*
X-2167128Y7708798D01*
X-2166518Y7704378D01*
X-2167839Y7700162D01*
X-2170836Y7696911D01*
X-2176221Y7693152D01*
X-2183180Y7686192D01*
X-2188819Y7678166D01*
X-2192934Y7669225D01*
X-2195474Y7659776D01*
X-2195982Y7654442D01*
X-2197100Y7650581D01*
X-2199640Y7647482D01*
X-2203196Y7645603D01*
X-2207209Y7645247D01*
X-2213102Y7645908D01*
X-2336952Y7645908D01*
X-2343302Y7645196D01*
X-2348738Y7643266D01*
X-2353665Y7640218D01*
X-2357729Y7636103D01*
X-2360828Y7631226D01*
X-2362708Y7625740D01*
X-2363419Y7619441D01*
X-2363419Y7550556D01*
X-2362708Y7544257D01*
X-2360828Y7538770D01*
X-2357729Y7533894D01*
X-2353665Y7529779D01*
X-2348738Y7526680D01*
X-2343302Y7524800D01*
X-2336952Y7524089D01*
X-2323795Y7524089D01*
X-2319883Y7523327D01*
X-2316632Y7521092D01*
X-2314397Y7517790D01*
X-2313635Y7513929D01*
X-2313635Y7482230D01*
X-2312822Y7474203D01*
X-2310638Y7466990D01*
X-2307082Y7460335D01*
X-2301951Y7454087D01*
X-2290419Y7442555D01*
X-2288235Y7439253D01*
X-2287473Y7435392D01*
X-2287473Y7413548D01*
X-2286762Y7407249D01*
X-2284831Y7401763D01*
X-2281783Y7396886D01*
X-2277668Y7392771D01*
X-2272792Y7389723D01*
X-2267305Y7387793D01*
X-2261006Y7387081D01*
X-2205583Y7387081D01*
X-2199233Y7387793D01*
X-2193340Y7389875D01*
X-2189988Y7390434D01*
X-2186635Y7389875D01*
X-2180742Y7387793D01*
X-2174443Y7387081D01*
X-2119020Y7387081D01*
X-2112670Y7387793D01*
X-2107234Y7389723D01*
X-2102307Y7392771D01*
X-2098243Y7396886D01*
X-2095144Y7401763D01*
X-2093214Y7407249D01*
X-2092502Y7413548D01*
X-2092502Y7435392D01*
X-2091740Y7439253D01*
X-2089556Y7442555D01*
X-2078024Y7454087D01*
X-2072893Y7460335D01*
X-2069338Y7466990D01*
X-2067153Y7474203D01*
X-2066340Y7482230D01*
X-2066340Y7513929D01*
X-2065578Y7517790D01*
X-2063394Y7521092D01*
X-2060092Y7523327D01*
X-2056180Y7524089D01*
X-2043023Y7524089D01*
X-2036724Y7524800D01*
X-2031238Y7526680D01*
X-2026361Y7529779D01*
X-2022246Y7533894D01*
X-2019198Y7538770D01*
X-2017268Y7544257D01*
X-2016556Y7550556D01*
X-2016556Y7619441D01*
X-2017268Y7625740D01*
X-2020874Y7635392D01*
X-2022754Y7636560D01*
X-2026361Y7640218D01*
X-2031238Y7643266D01*
X-2036724Y7645196D01*
X-2043023Y7645908D01*
X-2073960Y7645908D01*
X-2077669Y7646568D01*
X-2080869Y7648549D01*
X-2083104Y7651546D01*
X-2084120Y7655153D01*
X-2084527Y7659776D01*
X-2087067Y7669225D01*
X-2091182Y7678166D01*
X-2096820Y7686192D01*
X-2103780Y7693152D01*
X-2107285Y7695590D01*
X-2110181Y7698689D01*
X-2111552Y7702753D01*
X-2111146Y7706969D01*
X-2109063Y7710678D01*
X-2105609Y7713167D01*
X-2101443Y7714081D01*
X-2043023Y7714081D01*
X-2036724Y7714792D01*
X-2031238Y7716672D01*
X-2026361Y7719771D01*
X-2022805Y7723327D01*
X-2020722Y7724698D01*
X-2020163Y7727035D01*
X-2018334Y7730998D01*
X-2016353Y7733893D01*
X-2013508Y7735976D01*
X-2010105Y7736890D01*
X-2007717Y7737144D01*
X-2003602Y7736687D01*
X-1999996Y7734655D01*
X-1997506Y7731353D01*
X-1996541Y7727340D01*
X-1997252Y7723276D01*
X-1999538Y7719822D01*
X-2003704Y7715656D01*
X-2005634Y7714284D01*
X-2007260Y7710322D01*
X-2008784Y7708188D01*
X-2012950Y7699248D01*
X-2015489Y7689799D01*
X-2016353Y7679994D01*
X-2015489Y7670190D01*
X-2012950Y7660741D01*
X-2008784Y7651800D01*
X-2007209Y7649616D01*
X-2005584Y7645552D01*
X-2003755Y7644384D01*
X-1996236Y7636814D01*
X-1988159Y7631175D01*
X-1979269Y7627061D01*
X-1969770Y7624521D01*
X-1959965Y7623657D01*
X-1950212Y7624521D01*
X-1942541Y7626553D01*
X-1938426Y7626756D01*
X-1934514Y7625334D01*
X-1928723Y7621676D01*
X-1923288Y7619796D01*
X-1916938Y7619085D01*
X-1835810Y7619085D01*
X-1831441Y7618120D01*
X-1827936Y7615377D01*
X-1825955Y7611364D01*
X-1825853Y7606944D01*
X-1827631Y7602880D01*
X-1831035Y7599934D01*
X-1836470Y7597038D01*
X-1842719Y7591907D01*
X-1881936Y7552690D01*
X-1887067Y7546492D01*
X-1890623Y7539786D01*
X-1892807Y7532573D01*
X-1893620Y7524546D01*
X-1893620Y7511948D01*
X-1894382Y7508087D01*
X-1896567Y7504785D01*
X-1897837Y7503515D01*
X-1901139Y7501331D01*
X-1905000Y7500518D01*
X-1908911Y7501331D01*
X-1912213Y7503515D01*
X-1913889Y7505242D01*
X-1918817Y7508290D01*
X-1924253Y7510221D01*
X-1930603Y7510932D01*
X-1979422Y7510932D01*
X-1985772Y7510221D01*
X-1991207Y7508290D01*
X-1996135Y7505242D01*
X-2000199Y7501128D01*
X-2003298Y7496251D01*
X-2005228Y7490764D01*
X-2005939Y7484465D01*
X-2005939Y7470902D01*
X-2006854Y7466584D01*
X-2007920Y7464298D01*
X-2010460Y7454798D01*
X-2011324Y7444994D01*
X-2010460Y7435240D01*
X-2007920Y7425740D01*
X-2006854Y7423454D01*
X-2005939Y7419136D01*
X-2005939Y7405573D01*
X-2005228Y7399274D01*
X-2003298Y7393787D01*
X-2000199Y7388910D01*
X-1996135Y7384796D01*
X-1991207Y7381748D01*
X-1985772Y7379817D01*
X-1979422Y7379106D01*
X-1930603Y7379106D01*
X-1924253Y7379817D01*
X-1918817Y7381748D01*
X-1913889Y7384796D01*
X-1912213Y7386523D01*
X-1908911Y7388707D01*
X-1905000Y7389469D01*
X-1901139Y7388707D01*
X-1897837Y7386523D01*
X-1896567Y7385253D01*
X-1894382Y7381951D01*
X-1893620Y7378090D01*
X-1893620Y7334707D01*
X-1894382Y7330846D01*
X-1896567Y7327544D01*
X-1899869Y7325309D01*
X-1903780Y7324547D01*
X-1949043Y7324547D01*
X-1955393Y7323836D01*
X-1960829Y7321956D01*
X-1965756Y7318857D01*
X-1969820Y7314742D01*
X-1972919Y7309866D01*
X-1974850Y7304379D01*
X-1975561Y7298080D01*
X-1975561Y7292644D01*
X-1976272Y7288885D01*
X-1978355Y7285634D01*
X-1981504Y7283399D01*
X-1985264Y7282535D01*
X-1989074Y7283094D01*
X-1992223Y7284212D01*
X-1998573Y7284923D01*
X-2051405Y7284923D01*
X-2057755Y7284212D01*
X-2063191Y7282281D01*
X-2068118Y7279182D01*
X-2072182Y7275118D01*
X-2075281Y7270191D01*
X-2077212Y7264755D01*
X-2077923Y7258405D01*
X-2077923Y7248753D01*
X-2078685Y7244842D01*
X-2080869Y7241540D01*
X-2084171Y7239355D01*
X-2088083Y7238593D01*
X-2100935Y7238593D01*
X-2104796Y7239355D01*
X-2108098Y7241540D01*
X-2110333Y7244842D01*
X-2111095Y7248753D01*
X-2111095Y7263434D01*
X-2111806Y7269734D01*
X-2113686Y7275220D01*
X-2116785Y7280097D01*
X-2120900Y7284212D01*
X-2125776Y7287259D01*
X-2131263Y7289190D01*
X-2137562Y7289901D01*
X-2148586Y7289901D01*
X-2151532Y7290308D01*
X-2159711Y7292797D01*
X-2167737Y7293609D01*
X-2194509Y7293609D01*
X-2202484Y7292797D01*
X-2209749Y7290612D01*
X-2216404Y7287056D01*
X-2221077Y7284008D01*
X-2224481Y7283399D01*
X-2304084Y7283450D01*
X-2307234Y7284720D01*
X-2311298Y7287259D01*
X-2316734Y7289190D01*
X-2323084Y7289901D01*
X-2372410Y7289901D01*
X-2378760Y7289190D01*
X-2384196Y7287259D01*
X-2389124Y7284212D01*
X-2393188Y7280097D01*
X-2396286Y7275220D01*
X-2398166Y7269734D01*
X-2398877Y7263434D01*
X-2398877Y7236561D01*
X-2398166Y7230211D01*
X-2396947Y7224979D01*
X-2398166Y7219746D01*
X-2398877Y7213396D01*
X-2398877Y7198766D01*
X-2399690Y7194854D01*
X-2401874Y7191552D01*
X-2405176Y7189368D01*
X-2409799Y7188606D01*
X-2413711Y7189368D01*
X-2417013Y7191552D01*
X-2440838Y7215428D01*
X-2442870Y7218324D01*
X-2443784Y7221728D01*
X-2444496Y7229754D01*
X-2447036Y7239253D01*
X-2451201Y7248144D01*
X-2456840Y7256221D01*
X-2463749Y7263130D01*
X-2471826Y7268768D01*
X-2480716Y7272934D01*
X-2490216Y7275474D01*
X-2499969Y7276338D01*
X-2509774Y7275474D01*
X-2519273Y7272934D01*
X-2528163Y7268768D01*
X-2536240Y7263130D01*
X-2543149Y7256221D01*
X-2549093Y7247483D01*
X-2551633Y7244080D01*
X-2555341Y7242048D01*
X-2559558Y7241692D01*
X-2563571Y7243064D01*
X-2573782Y7253173D01*
X-2581808Y7258812D01*
X-2590749Y7262926D01*
X-2600198Y7265466D01*
X-2610002Y7266330D01*
X-2619806Y7265466D01*
X-2629255Y7262926D01*
X-2638196Y7258812D01*
X-2646222Y7253173D01*
X-2653182Y7246213D01*
X-2658821Y7238187D01*
X-2662936Y7229246D01*
X-2665476Y7219797D01*
X-2666339Y7209993D01*
X-2665476Y7200188D01*
X-2662936Y7190740D01*
X-2658821Y7181799D01*
X-2653182Y7173772D01*
X-2646222Y7166813D01*
X-2638196Y7161174D01*
X-2629255Y7157059D01*
X-2619806Y7154519D01*
X-2611780Y7153808D01*
X-2608376Y7152894D01*
X-2605481Y7150862D01*
X-2527655Y7073036D01*
X-2521407Y7067905D01*
X-2514752Y7064349D01*
X-2507538Y7062165D01*
X-2499512Y7061352D01*
X-2382164Y7061352D01*
X-2372410Y7060082D01*
X-2323084Y7060082D01*
X-2316734Y7060793D01*
X-2311298Y7062724D01*
X-2307234Y7065213D01*
X-2304084Y7066534D01*
X-2224481Y7066584D01*
X-2221077Y7065975D01*
X-2216404Y7062927D01*
X-2209749Y7059371D01*
X-2202484Y7057186D01*
X-2194509Y7056374D01*
X-2167737Y7056374D01*
X-2159762Y7057136D01*
X-2151583Y7059625D01*
X-2148636Y7060082D01*
X-2137562Y7060082D01*
X-2127859Y7061352D01*
X-2081885Y7061352D01*
X-2078532Y7060793D01*
X-2075586Y7059168D01*
X-2072182Y7054850D01*
X-2068118Y7050786D01*
X-2063191Y7047687D01*
X-2057349Y7045655D01*
X-2053894Y7043572D01*
X-2051507Y7040321D01*
X-2050542Y7036358D01*
X-2051253Y7032396D01*
X-2053386Y7028992D01*
X-2056739Y7026706D01*
X-2060702Y7025894D01*
X-2728772Y7025894D01*
X-2733090Y7026859D01*
X-2736596Y7029602D01*
X-2738628Y7033564D01*
X-2738729Y7037984D01*
X-2736951Y7042048D01*
X-2733649Y7044994D01*
X-2728569Y7047738D01*
X-2718765Y7055103D01*
X-2710078Y7063740D01*
X-2702763Y7073544D01*
X-2696870Y7084314D01*
X-2692603Y7095794D01*
X-2689961Y7107783D01*
X-2689098Y7120331D01*
X-2689098Y7299604D01*
X-2689961Y7312202D01*
X-2692603Y7324191D01*
X-2696870Y7335672D01*
X-2702763Y7346391D01*
X-2710078Y7356246D01*
X-2718765Y7364882D01*
X-2728569Y7372248D01*
X-2739339Y7378090D01*
X-2750820Y7382408D01*
X-2762758Y7384999D01*
X-2775000Y7385862D01*
X-2787192Y7384999D01*
X-2799181Y7382408D01*
X-2810662Y7378090D01*
X-2821432Y7372248D01*
X-2831236Y7364882D01*
X-2839923Y7356246D01*
X-2847238Y7346391D01*
X-2853131Y7335672D01*
X-2857398Y7324191D01*
X-2859989Y7312202D01*
X-2860903Y7299604D01*
X-2860903Y7120331D01*
X-2859989Y7107783D01*
X-2857398Y7095794D01*
X-2853131Y7084314D01*
X-2847238Y7073544D01*
X-2839923Y7063740D01*
X-2831236Y7055103D01*
X-2821432Y7047738D01*
X-2816352Y7044994D01*
X-2812999Y7042048D01*
X-2811272Y7037984D01*
X-2811373Y7033564D01*
X-2813405Y7029602D01*
X-2816910Y7026859D01*
X-2821228Y7025894D01*
X-2982772Y7025894D01*
X-2987090Y7026859D01*
X-2990596Y7029602D01*
X-2992628Y7033564D01*
X-2992729Y7037984D01*
X-2990951Y7042048D01*
X-2987649Y7044994D01*
X-2982569Y7047738D01*
X-2972765Y7055103D01*
X-2964078Y7063740D01*
X-2956763Y7073544D01*
X-2950870Y7084314D01*
X-2946603Y7095794D01*
X-2943961Y7107783D01*
X-2943098Y7120331D01*
X-2943098Y7299604D01*
X-2943961Y7312202D01*
X-2946603Y7324191D01*
X-2950870Y7335672D01*
X-2956763Y7346391D01*
X-2964078Y7356246D01*
X-2972765Y7364882D01*
X-2982569Y7372248D01*
X-2993339Y7378090D01*
X-3004820Y7382408D01*
X-3016758Y7384999D01*
X-3029000Y7385862D01*
X-3041192Y7384999D01*
X-3053181Y7382408D01*
X-3064662Y7378090D01*
X-3075432Y7372248D01*
X-3085236Y7364882D01*
X-3093923Y7356246D01*
X-3101238Y7346391D01*
X-3107131Y7335672D01*
X-3111398Y7324191D01*
X-3113989Y7312202D01*
X-3114903Y7299604D01*
X-3114903Y7120331D01*
X-3113989Y7107783D01*
X-3111398Y7095794D01*
X-3107131Y7084314D01*
X-3101238Y7073544D01*
X-3093923Y7063740D01*
X-3085236Y7055103D01*
X-3075432Y7047738D01*
X-3070352Y7044994D01*
X-3066999Y7042048D01*
X-3065272Y7037984D01*
X-3065373Y7033564D01*
X-3067405Y7029602D01*
X-3070910Y7026859D01*
X-3075228Y7025894D01*
X-3236772Y7025894D01*
X-3241090Y7026859D01*
X-3244596Y7029602D01*
X-3246628Y7033564D01*
X-3246729Y7037984D01*
X-3244951Y7042048D01*
X-3241649Y7044994D01*
X-3236569Y7047738D01*
X-3226765Y7055103D01*
X-3218078Y7063740D01*
X-3210763Y7073544D01*
X-3204870Y7084314D01*
X-3200603Y7095794D01*
X-3197961Y7107783D01*
X-3197098Y7120331D01*
X-3197098Y7299604D01*
X-3197961Y7312202D01*
X-3200603Y7324191D01*
X-3204870Y7335672D01*
X-3210763Y7346391D01*
X-3218078Y7356246D01*
X-3226765Y7364882D01*
X-3236569Y7372248D01*
X-3247339Y7378090D01*
X-3258820Y7382408D01*
X-3270758Y7384999D01*
X-3283000Y7385862D01*
X-3295192Y7384999D01*
X-3307181Y7382408D01*
X-3318662Y7378090D01*
X-3329432Y7372248D01*
X-3339236Y7364882D01*
X-3347923Y7356246D01*
X-3355238Y7346391D01*
X-3361131Y7335672D01*
X-3365398Y7324191D01*
X-3367989Y7312202D01*
X-3368903Y7299604D01*
X-3368903Y7120331D01*
X-3367989Y7107783D01*
X-3365398Y7095794D01*
X-3361131Y7084314D01*
X-3355238Y7073544D01*
X-3347923Y7063740D01*
X-3339236Y7055103D01*
X-3329432Y7047738D01*
X-3324351Y7044994D01*
X-3320999Y7042048D01*
X-3319272Y7037984D01*
X-3319373Y7033564D01*
X-3321405Y7029602D01*
X-3324910Y7026859D01*
X-3329228Y7025894D01*
X-3490772Y7025894D01*
X-3495090Y7026859D01*
X-3498596Y7029602D01*
X-3500628Y7033564D01*
X-3500729Y7037984D01*
X-3498951Y7042048D01*
X-3495649Y7044994D01*
X-3490569Y7047738D01*
X-3480765Y7055103D01*
X-3472078Y7063740D01*
X-3464763Y7073544D01*
X-3458870Y7084314D01*
X-3454603Y7095794D01*
X-3451961Y7107783D01*
X-3451098Y7120331D01*
X-3451098Y7299604D01*
X-3451961Y7312202D01*
X-3454603Y7324191D01*
X-3458870Y7335672D01*
X-3464763Y7346391D01*
X-3472078Y7356246D01*
X-3480765Y7364882D01*
X-3490569Y7372248D01*
X-3501339Y7378090D01*
X-3512820Y7382408D01*
X-3524758Y7384999D01*
X-3537000Y7385862D01*
X-3549192Y7384999D01*
X-3561181Y7382408D01*
X-3572662Y7378090D01*
X-3583432Y7372248D01*
X-3593236Y7364882D01*
X-3601923Y7356246D01*
X-3609238Y7346391D01*
X-3615131Y7335672D01*
X-3619398Y7324191D01*
X-3621989Y7312202D01*
X-3622903Y7299604D01*
X-3622903Y7120331D01*
X-3621989Y7107783D01*
X-3619398Y7095794D01*
X-3615131Y7084314D01*
X-3609238Y7073544D01*
X-3601923Y7063740D01*
X-3593236Y7055103D01*
X-3583432Y7047738D01*
X-3578351Y7044994D01*
X-3574999Y7042048D01*
X-3573272Y7037984D01*
X-3573373Y7033564D01*
X-3575405Y7029602D01*
X-3578910Y7026859D01*
X-3583228Y7025894D01*
X-3744772Y7025894D01*
X-3749090Y7026859D01*
X-3752596Y7029602D01*
X-3754628Y7033564D01*
X-3754729Y7037984D01*
X-3752951Y7042048D01*
X-3749649Y7044994D01*
X-3744569Y7047738D01*
X-3734765Y7055103D01*
X-3726078Y7063740D01*
X-3718763Y7073544D01*
X-3712870Y7084314D01*
X-3708603Y7095794D01*
X-3705961Y7107783D01*
X-3705098Y7120331D01*
X-3705098Y7299604D01*
X-3705961Y7312202D01*
X-3708603Y7324191D01*
X-3711092Y7330948D01*
X-3711701Y7334961D01*
X-3710686Y7338872D01*
X-3708196Y7342124D01*
X-3704691Y7344105D01*
X-3700678Y7344562D01*
X-3689959Y7343648D01*
X-3680206Y7344511D01*
X-3670706Y7347051D01*
X-3661816Y7351166D01*
X-3653739Y7356805D01*
X-3646830Y7363764D01*
X-3641191Y7371791D01*
X-3637026Y7380731D01*
X-3634486Y7390180D01*
X-3633622Y7399985D01*
X-3634486Y7409789D01*
X-3637026Y7419238D01*
X-3641191Y7428179D01*
X-3646830Y7436205D01*
X-3648405Y7437780D01*
X-3650589Y7441082D01*
X-3651402Y7444994D01*
X-3651402Y7619492D01*
X-3652164Y7627518D01*
X-3654348Y7634731D01*
X-3657955Y7641386D01*
X-3663035Y7647635D01*
X-3712362Y7696911D01*
X-3718560Y7702042D01*
X-3725214Y7705598D01*
X-3732479Y7707782D01*
X-3740505Y7708595D01*
X-3785006Y7708595D01*
X-3788867Y7709357D01*
X-3792169Y7711592D01*
X-3793744Y7713167D01*
X-3801821Y7718806D01*
X-3810711Y7722920D01*
X-3820210Y7725460D01*
X-3829964Y7726324D01*
X-3839768Y7725460D01*
X-3849268Y7722920D01*
X-3858158Y7718806D01*
X-3866235Y7713167D01*
X-3873144Y7706207D01*
X-3878783Y7698181D01*
X-3882948Y7689240D01*
X-3885488Y7679791D01*
X-3886352Y7669987D01*
X-3885488Y7660182D01*
X-3882948Y7650734D01*
X-3878783Y7641793D01*
X-3873144Y7633766D01*
X-3866235Y7626807D01*
X-3858158Y7621168D01*
X-3849268Y7617053D01*
X-3839768Y7614513D01*
X-3829964Y7613650D01*
X-3820210Y7614513D01*
X-3810711Y7617053D01*
X-3801821Y7621168D01*
X-3793744Y7626807D01*
X-3792169Y7628381D01*
X-3788867Y7630617D01*
X-3785006Y7631379D01*
X-3760215Y7631379D01*
X-3756304Y7630617D01*
X-3753002Y7628381D01*
X-3731564Y7606995D01*
X-3729380Y7603693D01*
X-3728618Y7599781D01*
X-3728618Y7444943D01*
X-3729380Y7441082D01*
X-3731564Y7437780D01*
X-3733139Y7436205D01*
X-3738778Y7428179D01*
X-3742944Y7419238D01*
X-3745484Y7409789D01*
X-3746347Y7399985D01*
X-3745433Y7389926D01*
X-3745941Y7385913D01*
X-3747922Y7382357D01*
X-3751173Y7379919D01*
X-3755085Y7378903D01*
X-3759149Y7379512D01*
X-3766820Y7382408D01*
X-3778758Y7384999D01*
X-3791000Y7385862D01*
X-3803192Y7384999D01*
X-3815181Y7382408D01*
X-3826662Y7378090D01*
X-3837432Y7372248D01*
X-3841292Y7369302D01*
X-3845102Y7367574D01*
X-3849268Y7367473D01*
X-3853078Y7369048D01*
X-3855974Y7372045D01*
X-3857447Y7375906D01*
X-3857193Y7380071D01*
X-3854500Y7390180D01*
X-3853637Y7399985D01*
X-3854500Y7409789D01*
X-3857040Y7419238D01*
X-3861206Y7428179D01*
X-3866845Y7436205D01*
X-3873754Y7443165D01*
X-3881831Y7448803D01*
X-3890721Y7452918D01*
X-3900220Y7455458D01*
X-3909974Y7456322D01*
X-3919778Y7455458D01*
X-3929278Y7452918D01*
X-3938168Y7448803D01*
X-3946245Y7443165D01*
X-3953154Y7436205D01*
X-3958793Y7428179D01*
X-3962958Y7419238D01*
X-3965498Y7409789D01*
X-3966362Y7399985D01*
X-3965498Y7390180D01*
X-3962958Y7380731D01*
X-3958793Y7371791D01*
X-3953154Y7363764D01*
X-3946245Y7356805D01*
X-3938168Y7351166D01*
X-3929278Y7347051D01*
X-3919778Y7344511D01*
X-3909974Y7343648D01*
X-3900220Y7344511D01*
X-3890721Y7347051D01*
X-3881424Y7351369D01*
X-3877310Y7352334D01*
X-3873195Y7351522D01*
X-3869740Y7349134D01*
X-3867556Y7345527D01*
X-3866997Y7341311D01*
X-3868216Y7337298D01*
X-3869131Y7335672D01*
X-3873398Y7324191D01*
X-3875989Y7312202D01*
X-3876903Y7299604D01*
X-3876903Y7120331D01*
X-3875989Y7107783D01*
X-3873398Y7095794D01*
X-3869131Y7084314D01*
X-3863238Y7073544D01*
X-3855923Y7063740D01*
X-3847236Y7055103D01*
X-3837432Y7047738D01*
X-3832351Y7044994D01*
X-3828999Y7042048D01*
X-3827272Y7037984D01*
X-3827373Y7033564D01*
X-3829405Y7029602D01*
X-3832910Y7026859D01*
X-3837228Y7025894D01*
X-3998772Y7025894D01*
X-4003090Y7026859D01*
X-4006596Y7029602D01*
X-4008628Y7033564D01*
X-4008729Y7037984D01*
X-4006951Y7042048D01*
X-4003649Y7044994D01*
X-3998569Y7047738D01*
X-3988765Y7055103D01*
X-3980078Y7063740D01*
X-3972763Y7073544D01*
X-3966870Y7084314D01*
X-3962603Y7095794D01*
X-3959961Y7107783D01*
X-3959098Y7120331D01*
X-3959098Y7299604D01*
X-3959961Y7312202D01*
X-3962603Y7324191D01*
X-3966870Y7335672D01*
X-3972763Y7346391D01*
X-3980078Y7356246D01*
X-3988765Y7364882D01*
X-3998569Y7372248D01*
X-4009339Y7378090D01*
X-4020820Y7382408D01*
X-4032758Y7384999D01*
X-4045000Y7385862D01*
X-4057192Y7384999D01*
X-4069181Y7382408D01*
X-4080662Y7378090D01*
X-4091432Y7372248D01*
X-4101236Y7364882D01*
X-4109923Y7356246D01*
X-4117238Y7346391D01*
X-4123131Y7335672D01*
X-4127398Y7324191D01*
X-4129989Y7312202D01*
X-4130903Y7299604D01*
X-4130903Y7120331D01*
X-4129989Y7107783D01*
X-4127398Y7095794D01*
X-4123131Y7084314D01*
X-4117238Y7073544D01*
X-4109923Y7063740D01*
X-4101236Y7055103D01*
X-4091432Y7047738D01*
X-4086351Y7044994D01*
X-4082999Y7042048D01*
X-4081272Y7037984D01*
X-4081373Y7033564D01*
X-4083405Y7029602D01*
X-4086910Y7026859D01*
X-4091228Y7025894D01*
X-4252214Y7025894D01*
X-4256125Y7026656D01*
X-4259427Y7028891D01*
X-4261612Y7032142D01*
X-4262374Y7036053D01*
X-4261612Y7039965D01*
X-4259427Y7043216D01*
X-4255770Y7046874D01*
X-4252722Y7051751D01*
X-4250791Y7057237D01*
X-4250080Y7063536D01*
X-4250080Y7116419D01*
X-4250791Y7122718D01*
X-4252722Y7128205D01*
X-4255770Y7133081D01*
X-4259884Y7137196D01*
X-4264761Y7140244D01*
X-4270248Y7142175D01*
X-4276547Y7142886D01*
X-4294733Y7142886D01*
X-4297375Y7143242D01*
X-4305706Y7145477D01*
X-4315460Y7146340D01*
X-4325264Y7145477D01*
X-4333595Y7143242D01*
X-4336237Y7142886D01*
X-4354423Y7142886D01*
X-4360773Y7142175D01*
X-4366666Y7140092D01*
X-4370019Y7139533D01*
X-4373372Y7140092D01*
X-4379264Y7142175D01*
X-4385564Y7142886D01*
X-4398416Y7142886D01*
X-4398416Y7109815D01*
X-4391050Y7109815D01*
X-4387189Y7109053D01*
X-4383887Y7106869D01*
X-4381703Y7103567D01*
X-4380890Y7099655D01*
X-4380890Y7080300D01*
X-4381703Y7076389D01*
X-4383887Y7073087D01*
X-4387189Y7070902D01*
X-4391050Y7070140D01*
X-4398416Y7070140D01*
X-4398416Y7036053D01*
X-4399178Y7032142D01*
X-4401362Y7028891D01*
X-4404664Y7026656D01*
X-4408576Y7025894D01*
G37*

%LPC*%
G36*
X-1274978Y7109104D02*
G01*
X-1263904Y7109968D01*
X-1253083Y7112609D01*
X-1242822Y7116825D01*
X-1233322Y7122668D01*
X-1224838Y7129881D01*
X-1217625Y7138314D01*
X-1211834Y7147814D01*
X-1207566Y7158075D01*
X-1204976Y7168896D01*
X-1204112Y7179970D01*
X-1204976Y7191095D01*
X-1207566Y7201916D01*
X-1211834Y7212177D01*
X-1217625Y7221677D01*
X-1224838Y7230109D01*
X-1233322Y7237323D01*
X-1242822Y7243165D01*
X-1253083Y7247381D01*
X-1263904Y7250023D01*
X-1274978Y7250887D01*
X-1286052Y7250023D01*
X-1296873Y7247381D01*
X-1307134Y7243165D01*
X-1316634Y7237323D01*
X-1325118Y7230109D01*
X-1332331Y7221677D01*
X-1338122Y7212177D01*
X-1342390Y7201916D01*
X-1344980Y7191095D01*
X-1345844Y7179970D01*
X-1344980Y7168896D01*
X-1342390Y7158075D01*
X-1338122Y7147814D01*
X-1332331Y7138314D01*
X-1325118Y7129881D01*
X-1316634Y7122668D01*
X-1307134Y7116825D01*
X-1296873Y7112609D01*
X-1286052Y7109968D01*
G37*
G36*
X-1669643Y7207961D02*
G01*
X-1648968Y7207961D01*
X-1648968Y7243114D01*
X-1696161Y7243114D01*
X-1696161Y7234478D01*
X-1695450Y7228128D01*
X-1693519Y7222693D01*
X-1690420Y7217765D01*
X-1686356Y7213701D01*
X-1681429Y7210602D01*
X-1675993Y7208672D01*
G37*
G36*
X-1696161Y7286904D02*
G01*
X-1648968Y7286904D01*
X-1648968Y7322007D01*
X-1669643Y7322007D01*
X-1675993Y7321296D01*
X-1681429Y7319416D01*
X-1686356Y7316317D01*
X-1690420Y7312202D01*
X-1693519Y7307325D01*
X-1695450Y7301890D01*
X-1696161Y7295540D01*
G37*
G36*
X-1584401Y7392111D02*
G01*
X-1571548Y7392111D01*
X-1565249Y7392822D01*
X-1559763Y7394752D01*
X-1554886Y7397800D01*
X-1550771Y7401915D01*
X-1547723Y7406792D01*
X-1545793Y7412278D01*
X-1545082Y7418578D01*
X-1545082Y7425181D01*
X-1584401Y7425181D01*
G37*
G36*
X-2586888Y7619085D02*
G01*
X-2463038Y7619085D01*
X-2456688Y7619796D01*
X-2451252Y7621676D01*
X-2446324Y7624775D01*
X-2442260Y7628890D01*
X-2439162Y7633766D01*
X-2437282Y7639253D01*
X-2436571Y7645552D01*
X-2436571Y7714437D01*
X-2437282Y7720736D01*
X-2439162Y7726222D01*
X-2442260Y7731099D01*
X-2446324Y7735214D01*
X-2451252Y7738262D01*
X-2456688Y7740192D01*
X-2463038Y7740903D01*
X-2586888Y7740903D01*
X-2593238Y7740192D01*
X-2598674Y7738262D01*
X-2604465Y7734655D01*
X-2608376Y7733182D01*
X-2612491Y7733436D01*
X-2620213Y7735468D01*
X-2629966Y7736331D01*
X-2639771Y7735468D01*
X-2649270Y7732928D01*
X-2658160Y7728813D01*
X-2666238Y7723174D01*
X-2673146Y7716215D01*
X-2678785Y7708188D01*
X-2682951Y7699248D01*
X-2685491Y7689799D01*
X-2686354Y7679994D01*
X-2685491Y7670190D01*
X-2682951Y7660741D01*
X-2678785Y7651800D01*
X-2673146Y7643774D01*
X-2666238Y7636814D01*
X-2658160Y7631175D01*
X-2649270Y7627061D01*
X-2639771Y7624521D01*
X-2629966Y7623657D01*
X-2620213Y7624521D01*
X-2612542Y7626553D01*
X-2608376Y7626807D01*
X-2604465Y7625334D01*
X-2598674Y7621676D01*
X-2593238Y7619796D01*
G37*
G36*
X-866292Y8341664D02*
G01*
X-807008Y8341664D01*
X-794461Y8342579D01*
X-782472Y8345170D01*
X-770991Y8349437D01*
X-760222Y8355330D01*
X-750417Y8362645D01*
X-741781Y8371331D01*
X-734415Y8381136D01*
X-728522Y8391906D01*
X-724255Y8403386D01*
X-721664Y8415324D01*
X-720801Y8427567D01*
X-721664Y8439810D01*
X-724255Y8451748D01*
X-728522Y8463229D01*
X-734415Y8473998D01*
X-741781Y8483803D01*
X-750417Y8492490D01*
X-760222Y8499805D01*
X-770991Y8505698D01*
X-782472Y8509965D01*
X-794461Y8512556D01*
X-807008Y8513470D01*
X-866292Y8513470D01*
X-878890Y8512556D01*
X-890879Y8509965D01*
X-902360Y8505698D01*
X-913079Y8499805D01*
X-922883Y8492490D01*
X-931570Y8483803D01*
X-938936Y8473998D01*
X-944778Y8463229D01*
X-949045Y8451748D01*
X-951687Y8439810D01*
X-952550Y8427567D01*
X-951687Y8415324D01*
X-949045Y8403386D01*
X-944778Y8391906D01*
X-938936Y8381136D01*
X-931570Y8371331D01*
X-922883Y8362645D01*
X-913079Y8355330D01*
X-902360Y8349437D01*
X-890879Y8345170D01*
X-878890Y8342579D01*
G37*
G36*
X-1981149Y8443366D02*
G01*
X-1962150Y8443366D01*
X-1963267Y8444128D01*
X-1965452Y8447430D01*
X-1966214Y8451291D01*
X-1966214Y8466734D01*
X-1981149Y8466734D01*
G37*
G36*
X-1214424Y8724087D02*
G01*
X-1115568Y8724087D01*
X-1109218Y8724798D01*
X-1103782Y8726728D01*
X-1098854Y8729827D01*
X-1094790Y8733891D01*
X-1093063Y8736634D01*
X-1090777Y8739174D01*
X-1087831Y8740851D01*
X-1084478Y8741410D01*
X-1043736Y8741410D01*
X-1035761Y8742172D01*
X-1028496Y8744407D01*
X-1021842Y8747963D01*
X-1015593Y8753043D01*
X-989533Y8779103D01*
X-986282Y8781338D01*
X-982370Y8782100D01*
X-960577Y8782100D01*
X-954227Y8782812D01*
X-948334Y8784844D01*
X-944981Y8785453D01*
X-941628Y8784844D01*
X-935736Y8782812D01*
X-929436Y8782100D01*
X-922426Y8782100D01*
X-919835Y8781745D01*
X-911504Y8779510D01*
X-901700Y8778646D01*
X-891895Y8779510D01*
X-883564Y8781745D01*
X-880973Y8782100D01*
X-874014Y8782100D01*
X-867664Y8782812D01*
X-862228Y8784691D01*
X-857300Y8787790D01*
X-853236Y8791905D01*
X-850137Y8796782D01*
X-848258Y8802268D01*
X-847547Y8808567D01*
X-847547Y8818981D01*
X-847191Y8821572D01*
X-846226Y8825230D01*
X-845362Y8834983D01*
X-846226Y8844788D01*
X-847191Y8848445D01*
X-847547Y8851036D01*
X-847547Y8861450D01*
X-848258Y8867749D01*
X-850137Y8873236D01*
X-853236Y8878112D01*
X-857300Y8882227D01*
X-862228Y8885275D01*
X-867664Y8887206D01*
X-874014Y8887917D01*
X-880922Y8887917D01*
X-883513Y8888272D01*
X-891895Y8890508D01*
X-901700Y8891371D01*
X-911504Y8890508D01*
X-919886Y8888272D01*
X-922477Y8887917D01*
X-929436Y8887917D01*
X-935736Y8887206D01*
X-941628Y8885123D01*
X-944981Y8884564D01*
X-948334Y8885123D01*
X-954227Y8887206D01*
X-960577Y8887917D01*
X-1016000Y8887917D01*
X-1022299Y8887206D01*
X-1027785Y8885275D01*
X-1032662Y8882227D01*
X-1036777Y8878112D01*
X-1039825Y8873236D01*
X-1041755Y8867749D01*
X-1042466Y8861450D01*
X-1042466Y8839606D01*
X-1043228Y8835745D01*
X-1045464Y8832443D01*
X-1056284Y8821572D01*
X-1059586Y8819388D01*
X-1063447Y8818626D01*
X-1084478Y8818626D01*
X-1087831Y8819184D01*
X-1090777Y8820810D01*
X-1093063Y8823350D01*
X-1094790Y8826144D01*
X-1098854Y8830208D01*
X-1103782Y8833307D01*
X-1109218Y8835186D01*
X-1115568Y8835898D01*
X-1214424Y8835898D01*
X-1220724Y8835186D01*
X-1226210Y8833307D01*
X-1231087Y8830208D01*
X-1235202Y8826144D01*
X-1238300Y8821216D01*
X-1240180Y8815781D01*
X-1240891Y8809431D01*
X-1240891Y8750604D01*
X-1240180Y8744254D01*
X-1238300Y8738819D01*
X-1235202Y8733891D01*
X-1231087Y8729827D01*
X-1226210Y8726728D01*
X-1220724Y8724798D01*
G37*

%LPD*%
G36*
X-5734151Y7025894D02*
G01*
X-5737910Y7026605D01*
X-5741162Y7028688D01*
X-5743397Y7031837D01*
X-5744311Y7035596D01*
X-5743752Y7039406D01*
X-5743041Y7041438D01*
X-5742330Y7047738D01*
X-5742330Y7100620D01*
X-5743041Y7106920D01*
X-5744921Y7112406D01*
X-5748020Y7117283D01*
X-5752084Y7121398D01*
X-5757011Y7124446D01*
X-5762447Y7126376D01*
X-5768797Y7127087D01*
X-5786983Y7127087D01*
X-5789574Y7127443D01*
X-5797905Y7129678D01*
X-5807710Y7130542D01*
X-5817514Y7129678D01*
X-5825845Y7127443D01*
X-5828436Y7127087D01*
X-5846673Y7127087D01*
X-5852972Y7126376D01*
X-5858865Y7124293D01*
X-5862218Y7123734D01*
X-5865571Y7124293D01*
X-5871464Y7126376D01*
X-5877814Y7127087D01*
X-5906262Y7127087D01*
X-5910122Y7127849D01*
X-5913424Y7130084D01*
X-5915660Y7133386D01*
X-5916422Y7137247D01*
X-5916422Y7149947D01*
X-5915660Y7153808D01*
X-5913424Y7157110D01*
X-5910122Y7159345D01*
X-5906262Y7160107D01*
X-5891580Y7160107D01*
X-5885230Y7160818D01*
X-5879998Y7162038D01*
X-5874766Y7160818D01*
X-5868416Y7160107D01*
X-5841593Y7160107D01*
X-5835243Y7160818D01*
X-5829808Y7162749D01*
X-5824880Y7165797D01*
X-5820816Y7169912D01*
X-5817717Y7174788D01*
X-5815787Y7180275D01*
X-5815076Y7186574D01*
X-5815076Y7234936D01*
X-5814364Y7238746D01*
X-5812231Y7241997D01*
X-5812231Y7271664D01*
X-5820003Y7271664D01*
X-5823966Y7272477D01*
X-5827318Y7274763D01*
X-5829452Y7278166D01*
X-5830163Y7282180D01*
X-5829198Y7286091D01*
X-5827725Y7289241D01*
X-5825490Y7292340D01*
X-5822289Y7294372D01*
X-5818530Y7295083D01*
X-5756605Y7295083D01*
X-5750255Y7295794D01*
X-5744616Y7297775D01*
X-5741263Y7298334D01*
X-5730544Y7298334D01*
X-5727141Y7300772D01*
X-5723077Y7301585D01*
X-5679846Y7301585D01*
X-5679846Y7308951D01*
X-5679084Y7312812D01*
X-5676900Y7316114D01*
X-5673598Y7318349D01*
X-5669686Y7319111D01*
X-5650331Y7319111D01*
X-5646420Y7318349D01*
X-5643118Y7316114D01*
X-5640933Y7312812D01*
X-5640171Y7308951D01*
X-5640171Y7301585D01*
X-5628741Y7301585D01*
X-5624880Y7300823D01*
X-5621578Y7298639D01*
X-5619394Y7295337D01*
X-5618581Y7291425D01*
X-5618581Y7259574D01*
X-5619394Y7255662D01*
X-5621578Y7252360D01*
X-5624880Y7250175D01*
X-5628741Y7249414D01*
X-5640171Y7249414D01*
X-5640171Y7210094D01*
X-5633567Y7210094D01*
X-5627268Y7210806D01*
X-5623560Y7212075D01*
X-5619496Y7212634D01*
X-5615533Y7211517D01*
X-5612384Y7208926D01*
X-5606948Y7202322D01*
X-5561888Y7157313D01*
X-5559653Y7153859D01*
X-5558942Y7149846D01*
X-5559856Y7145832D01*
X-5562955Y7139228D01*
X-5565495Y7129780D01*
X-5566359Y7119975D01*
X-5565495Y7110171D01*
X-5562955Y7100722D01*
X-5558790Y7091781D01*
X-5553151Y7083755D01*
X-5546242Y7076795D01*
X-5538165Y7071156D01*
X-5529275Y7067042D01*
X-5519775Y7064502D01*
X-5509971Y7063638D01*
X-5500217Y7064502D01*
X-5490718Y7067042D01*
X-5481828Y7071156D01*
X-5473750Y7076795D01*
X-5466842Y7083755D01*
X-5461203Y7091781D01*
X-5457037Y7100722D01*
X-5454497Y7110171D01*
X-5453634Y7119975D01*
X-5454497Y7129780D01*
X-5457037Y7139228D01*
X-5461203Y7148169D01*
X-5466842Y7156196D01*
X-5468924Y7158329D01*
X-5470956Y7161174D01*
X-5471871Y7164527D01*
X-5472176Y7167524D01*
X-5474360Y7174738D01*
X-5477916Y7181392D01*
X-5483047Y7187641D01*
X-5538419Y7243013D01*
X-5540603Y7246315D01*
X-5541365Y7250175D01*
X-5541365Y7267041D01*
X-5540705Y7270699D01*
X-5538774Y7273848D01*
X-5535828Y7276084D01*
X-5532272Y7277150D01*
X-5528614Y7276846D01*
X-5519775Y7274509D01*
X-5509971Y7273645D01*
X-5500217Y7274509D01*
X-5490718Y7277049D01*
X-5481828Y7281164D01*
X-5473750Y7286802D01*
X-5466842Y7293762D01*
X-5461203Y7301788D01*
X-5457037Y7310729D01*
X-5454497Y7320178D01*
X-5453634Y7329982D01*
X-5454497Y7339787D01*
X-5457037Y7349236D01*
X-5461203Y7358176D01*
X-5466791Y7366203D01*
X-5474665Y7373975D01*
X-5476900Y7377277D01*
X-5477713Y7381189D01*
X-5477713Y7492949D01*
X-5477103Y7496302D01*
X-5475478Y7499248D01*
X-5472938Y7501534D01*
X-5469788Y7502855D01*
X-5464149Y7504125D01*
X-5458917Y7506665D01*
X-5453938Y7510627D01*
X-5417108Y7547457D01*
X-5413806Y7549642D01*
X-5409946Y7550454D01*
X-5406034Y7549642D01*
X-5402732Y7547457D01*
X-5365902Y7510627D01*
X-5360924Y7506665D01*
X-5355691Y7504125D01*
X-5350052Y7502855D01*
X-5344261Y7502855D01*
X-5338622Y7504125D01*
X-5333441Y7506665D01*
X-5328462Y7510627D01*
X-5324652Y7514386D01*
X-5321554Y7516520D01*
X-5317947Y7517384D01*
X-5314238Y7516875D01*
X-5310987Y7515047D01*
X-5308600Y7512202D01*
X-5300167Y7497114D01*
X-5290616Y7476286D01*
X-5282742Y7454849D01*
X-5276545Y7432802D01*
X-5275326Y7426655D01*
X-5275376Y7422591D01*
X-5277002Y7418831D01*
X-5279999Y7416038D01*
X-5283860Y7414615D01*
X-5287924Y7414869D01*
X-5290210Y7415479D01*
X-5299964Y7416342D01*
X-5309768Y7415479D01*
X-5319268Y7412939D01*
X-5328107Y7408773D01*
X-5337251Y7402322D01*
X-5340451Y7400798D01*
X-5343956Y7400493D01*
X-5347411Y7401407D01*
X-5350713Y7402931D01*
X-5360212Y7405471D01*
X-5369966Y7406335D01*
X-5379770Y7405471D01*
X-5389270Y7402931D01*
X-5398160Y7398816D01*
X-5406237Y7393178D01*
X-5413146Y7386218D01*
X-5418785Y7378192D01*
X-5422950Y7369251D01*
X-5425490Y7359802D01*
X-5426354Y7349998D01*
X-5425490Y7340193D01*
X-5422950Y7330744D01*
X-5418785Y7321803D01*
X-5416346Y7318298D01*
X-5414721Y7314539D01*
X-5414721Y7310424D01*
X-5416346Y7306665D01*
X-5418785Y7303160D01*
X-5422950Y7294270D01*
X-5425490Y7284770D01*
X-5426354Y7274966D01*
X-5425490Y7265212D01*
X-5422950Y7255713D01*
X-5418785Y7246823D01*
X-5416346Y7243318D01*
X-5414721Y7239558D01*
X-5414721Y7235444D01*
X-5416346Y7231684D01*
X-5418785Y7228179D01*
X-5422950Y7219289D01*
X-5425490Y7209790D01*
X-5426354Y7199985D01*
X-5425490Y7190231D01*
X-5422950Y7180732D01*
X-5418785Y7171842D01*
X-5416346Y7168337D01*
X-5414721Y7164578D01*
X-5414721Y7160463D01*
X-5416346Y7156703D01*
X-5418785Y7153198D01*
X-5422950Y7144258D01*
X-5425490Y7134809D01*
X-5426354Y7125004D01*
X-5425490Y7115200D01*
X-5422950Y7105751D01*
X-5418785Y7096810D01*
X-5416346Y7093305D01*
X-5414721Y7089546D01*
X-5414721Y7085431D01*
X-5416346Y7081672D01*
X-5418785Y7078167D01*
X-5422950Y7069277D01*
X-5425490Y7059777D01*
X-5426354Y7049973D01*
X-5425490Y7040219D01*
X-5424779Y7034987D01*
X-5425846Y7031431D01*
X-5428081Y7028484D01*
X-5431231Y7026554D01*
X-5434888Y7025894D01*
G37*

%LPC*%
G36*
X-5766308Y7245096D02*
G01*
X-5756605Y7245096D01*
X-5750255Y7245807D01*
X-5744819Y7247737D01*
X-5739892Y7250785D01*
X-5735828Y7254900D01*
X-5733135Y7259116D01*
X-5733237Y7271664D01*
X-5766308Y7271664D01*
G37*
G36*
X-5686450Y7210094D02*
G01*
X-5679846Y7210094D01*
X-5679846Y7249414D01*
X-5712917Y7249414D01*
X-5712917Y7236561D01*
X-5712206Y7230262D01*
X-5710275Y7224775D01*
X-5707227Y7219899D01*
X-5703112Y7215784D01*
X-5698236Y7212736D01*
X-5692749Y7210806D01*
G37*

%LPD*%
D10*
X-2347747Y7099985D02*
G01*
X-2499995Y7099985D01*
X-2609994Y7209985D01*
X-4985512Y7580121D02*
G01*
X-4835397Y7430008D01*
X-4530089Y7430008D01*
X-4469892Y7370063D01*
X-6479819Y7235291D02*
G01*
X-6529984Y7285456D01*
X-6529984Y7689977D01*
X-3829989Y7669987D02*
G01*
X-3739995Y7669987D01*
X-3689995Y7619987D01*
X-3689995Y7399995D01*
X-2010003Y8279942D02*
G01*
X-2209977Y8279942D01*
X-2259990Y8329955D01*
X-1935479Y8729979D02*
G01*
X-1880006Y8674506D01*
X-1880006Y8559977D01*
X-6670039Y8290052D02*
G01*
X-7049973Y8669985D01*
X-7049973Y8789974D01*
X-4608487Y8424979D02*
G01*
X-4594994Y8424979D01*
X-4484987Y8534986D01*
X-4471494Y8534986D01*
X-4699990Y8479983D02*
G01*
X-4754994Y8534986D01*
X-4791494Y8534986D01*
X-4829990Y8332416D02*
G01*
X-4812423Y8349983D01*
X-4729990Y8349983D01*
X-4699990Y8379983D01*
X-4699990Y8479983D01*
X-5043804Y8118602D02*
G01*
X-4829990Y8332416D01*
X-6409944Y8166608D02*
G01*
X-6416802Y8160004D01*
X-6530086Y8160004D01*
X-6560058Y8189976D01*
X-4469892Y7370063D02*
G01*
X-4430013Y7329931D01*
X-5811365Y8083245D02*
G01*
X-5858103Y8129983D01*
X-5919985Y8129983D01*
X-5959990Y8089986D01*
X-6579989Y8089986D01*
X-6599994Y8109991D01*
X-6739991Y8109991D01*
X-6170754Y7535014D02*
G01*
X-6225014Y7535014D01*
X-6339984Y7649982D01*
X-6489989Y7649982D01*
X-6529984Y7689977D01*
D11*
X-5544515Y8700008D02*
G01*
X-5544515Y8744508D01*
X-5599988Y8799982D01*
X-5729988Y8799982D01*
X-5811265Y7916671D02*
G01*
X-5848095Y7880095D01*
X-5880100Y7880095D01*
X-5949950Y7949945D01*
D10*
X-6270015Y7833283D02*
G01*
X-6186693Y7916605D01*
X-6186693Y7949996D01*
X-6273281Y7949996D02*
G01*
X-6273281Y8019671D01*
X-5846826Y8047989D02*
G01*
X-5862065Y8047989D01*
X-5890005Y8020050D01*
X-6409944Y8019542D01*
D11*
X-5069989Y7689984D02*
G01*
X-4659990Y7689984D01*
X-4629990Y7659984D01*
X-4479991Y7659984D01*
X-4469991Y7669984D01*
X-4659884Y7510018D02*
G01*
X-4659884Y7489952D01*
X-4640071Y7469886D01*
X-4510023Y7469886D01*
X-4469892Y7430008D01*
X-4279968Y7430008D01*
X-4249991Y7459985D01*
X-4659884Y7510018D02*
G01*
X-4659884Y7489952D01*
X-4640071Y7469886D01*
X-4510023Y7469886D01*
X-4469892Y7430008D01*
X-5149900Y7775295D02*
G01*
X-5149900Y7769895D01*
X-5069989Y7689984D01*
X-5185232Y7739964D02*
G01*
X-5185232Y7735227D01*
X-5109989Y7659984D01*
X-4679990Y7659984D01*
X-4659990Y7639984D01*
X-4659990Y7509984D01*
X-5255945Y8330717D02*
G01*
X-5249255Y8330717D01*
X-5189989Y8389983D01*
X-5291302Y8366074D02*
G01*
X-5259989Y8397387D01*
X-5259989Y8419983D01*
X-5219989Y8459983D01*
X-5219989Y8469983D01*
X-5599176Y8295386D02*
G01*
X-5605271Y8295386D01*
X-5640070Y8329929D01*
X-5690107Y8329929D01*
X-5709920Y8310118D01*
D10*
X-5283286Y8700008D02*
G01*
X-5280007Y8696721D01*
X-5280007Y8630003D01*
X-5130004Y8480003D01*
X-5130004Y8360003D01*
X-7189985Y8229983D02*
G01*
X-7189985Y7949984D01*
X-7149988Y7909984D01*
X-7149988Y7859994D01*
X-7099985Y7809992D01*
X-4973104Y8047885D02*
G01*
X-4973104Y8023095D01*
X-4889990Y7939986D01*
X-4789995Y7939986D01*
X-4789909Y7940042D02*
G01*
X-4649942Y7940042D01*
X-4619995Y7969981D01*
X-4384954Y8209978D02*
G01*
X-4389338Y8214357D01*
X-4515589Y8214357D01*
X-4515589Y8214357D02*
G01*
X-4515487Y8279983D01*
X-4729987Y7999984D02*
G01*
X-4515487Y8214481D01*
X-5079182Y7846006D02*
G01*
X-5009997Y7776824D01*
X-5009997Y7749971D01*
X-4973104Y7952084D02*
G01*
X-4911006Y7889986D01*
X-4549998Y7889986D01*
X-4429993Y7769981D01*
X-4359993Y7769981D01*
X-5008463Y7916720D02*
G01*
X-4931730Y7839986D01*
X-4699998Y7839986D01*
X-4629993Y7769981D01*
X-4579993Y7769981D01*
X-5043810Y7881373D02*
G01*
X-4932418Y7769981D01*
X-4789995Y7769981D01*
X-5008463Y8083245D02*
G01*
X-4971732Y8119981D01*
X-4929987Y8119981D01*
X-4869997Y8059986D01*
X-4869997Y8009986D01*
X-5094485Y7579984D02*
G01*
X-5166692Y7579984D01*
X-5255945Y7669242D01*
X-6270017Y7833283D02*
G01*
X-6253286Y7833283D01*
X-6166731Y7746720D01*
X-6150000Y7746720D01*
X-5776193Y8118599D02*
G01*
X-5809970Y8152384D01*
X-5809970Y8210042D01*
X-6429989Y8829984D01*
X-5362023Y8436800D02*
G01*
X-5445206Y8519982D01*
X-5729988Y8519982D01*
X-5768708Y8481268D01*
X-5800849Y8481268D01*
X-6170754Y7535014D02*
G01*
X-6105017Y7535014D01*
X-6080000Y7509990D01*
X-6005022Y7219261D02*
G01*
X-6005022Y7284976D01*
X-5980000Y7309990D01*
X-5905022Y7219261D02*
G01*
X-5905022Y7284976D01*
X-5880000Y7309990D01*
X-5789246Y7535014D02*
G01*
X-5854979Y7535014D01*
X-5880000Y7509990D01*
X-5660014Y7275499D02*
G01*
X-5669508Y7284999D01*
X-5789246Y7284999D01*
X-5916736Y7074179D02*
G01*
X-5955017Y7112452D01*
X-5955017Y7219248D01*
X-6057719Y7074179D02*
G01*
X-6055017Y7076881D01*
X-6055017Y7219248D01*
D11*
X-6030008Y7735496D02*
G01*
X-6030008Y7690004D01*
X-6000005Y7660004D01*
X-5920011Y7660004D01*
X-5905004Y7644996D01*
X-5905004Y7600756D01*
D10*
X-5185321Y8260034D02*
G01*
X-5130004Y8315350D01*
X-5130004Y8360003D01*
X-5291399Y7633896D02*
G01*
X-5256032Y7669263D01*
X-5199989Y8699982D02*
G01*
X-5199989Y8835519D01*
X-5195547Y8839962D01*
D12*
X-5435500Y8700008D02*
G01*
X-5283286Y8700008D01*
X-5436847Y8839962D02*
G01*
X-5435569Y8700008D01*
D11*
X-5705320Y7810754D02*
G01*
X-5759932Y7756146D01*
X-5740735Y7846032D02*
G01*
X-5743978Y7846032D01*
X-5819978Y7770032D01*
X-5819978Y7749971D01*
X-5759932Y7756146D02*
G01*
X-5759932Y7659928D01*
X-5629988Y7529984D01*
X-5634713Y7739887D02*
G01*
X-5592043Y7782049D01*
X-5291305Y7633970D02*
G01*
X-5333969Y7676134D01*
X-5256001Y7669273D02*
G01*
X-5298163Y7711950D01*
X-5185389Y8260079D02*
G01*
X-5227805Y8217915D01*
X-5528543Y7633970D02*
G01*
X-5486120Y7676134D01*
X-5846831Y7952104D02*
G01*
X-5837908Y7952104D01*
X-5800006Y7990004D01*
X-5800006Y8009948D01*
X-5789904Y8020050D01*
X-5020035Y7990080D02*
G01*
X-5020035Y8010146D01*
X-5400017Y8390130D01*
X-5420085Y8390130D01*
X-5789904Y8020050D01*
X-5370047Y7640065D02*
G01*
X-5020035Y7990080D01*
X-5370047Y7640065D02*
G01*
X-5390108Y7620000D01*
X-5416519Y7610096D02*
G01*
X-5400017Y7610096D01*
X-5390108Y7620000D01*
X-5759932Y7949945D02*
G01*
X-5420085Y7610096D01*
X-5416519Y7610096D01*
X-5846831Y7952104D02*
G01*
X-5818931Y7980001D01*
X-5790003Y7980001D01*
X-5759932Y7949945D01*
X-5362166Y7563104D02*
G01*
X-5407385Y7610096D01*
D10*
X-5149900Y8224672D02*
G01*
X-5049989Y8324583D01*
X-5049989Y8399983D01*
X-5114518Y8189290D02*
G01*
X-4989990Y8313818D01*
X-4989990Y8459983D01*
X-5079187Y8153958D02*
G01*
X-4919990Y8313155D01*
X-4919990Y8399983D01*
X-5326887Y8401558D02*
G01*
X-5290057Y8438387D01*
X-5290057Y8540242D01*
X-5359907Y8610092D01*
X-5599937Y8610092D01*
X-5640070Y8650224D01*
X-5640070Y8720074D01*
D11*
X-5563895Y8330717D02*
G01*
X-5623156Y8389975D01*
X-5669991Y8389975D01*
X-5776112Y7881391D02*
G01*
X-5877506Y7779997D01*
X-5909995Y7779997D01*
X-5909995Y7779997D02*
G01*
X-5909995Y7829997D01*
X-5990008Y7910004D01*
X-6130008Y7910004D01*
X-6150005Y7890004D01*
X-6150005Y7833288D01*
X-6270005Y7746720D02*
G01*
X-6179997Y7656713D01*
X-6179997Y7639989D01*
X-6150005Y7833288D02*
G01*
X-6133287Y7833288D01*
X-6090010Y7790004D01*
X-6090010Y7680002D01*
X-6055017Y7645008D01*
X-6055017Y7600756D01*
X-6179997Y7639989D02*
G01*
X-6179997Y7609994D01*
X-6170762Y7600756D01*
X-6105004Y7600756D01*
X-5700013Y7679994D02*
G01*
X-5700013Y7745221D01*
X-5669940Y7775295D01*
X-5700013Y7679994D02*
G01*
X-5669998Y7679994D01*
X-5509996Y7519992D01*
X-5509996Y7329982D01*
D10*
X-5579988Y7459985D02*
G01*
X-5579988Y7229985D01*
X-5509988Y7159985D01*
X-5509988Y7119985D01*
D11*
X-5909995Y7779997D02*
G01*
X-5909995Y7749989D01*
X-5699993Y7539987D01*
X-5699993Y7489990D01*
X-5669988Y7459985D01*
X-5579988Y7459985D01*
D10*
X-7449972Y7209993D02*
G01*
X-7449972Y7319998D01*
X-7359985Y7409985D01*
X-7359985Y7739984D01*
X-7279995Y7819974D02*
G01*
X-7279995Y7409985D01*
X-7249972Y7379962D01*
X-7249972Y7209993D01*
X-7089978Y8299983D02*
G01*
X-7089978Y8049976D01*
X-6999986Y7959984D01*
X-6999986Y7259980D01*
X-7049973Y7209993D01*
X-7449985Y8605446D02*
G01*
X-7449972Y8789974D01*
X-7249985Y8599982D02*
G01*
X-7249972Y8789974D01*
X-6409944Y8019542D02*
G01*
X-6929628Y8019542D01*
X-6970013Y8059928D01*
X-6970013Y8309863D01*
X-7160133Y8499983D01*
X-7479985Y8499983D01*
X-7649971Y8669969D01*
X-7649971Y8789974D01*
X-5229987Y7365149D02*
G01*
X-5229987Y7159980D01*
X-1333482Y8220059D02*
G01*
X-1348427Y8235017D01*
X-1415003Y8235017D01*
D12*
X-1534995Y8284987D02*
G01*
X-1485026Y8235017D01*
X-1415003Y8235017D01*
D10*
X-1333482Y8070077D02*
G01*
X-1328559Y8074995D01*
X-1244998Y8074995D01*
X-1224998Y8054997D01*
X-1224998Y7984997D01*
X-1239918Y7970078D01*
X-1333482Y7970078D01*
D13*
X-1347416Y8219023D02*
G01*
X-1249116Y8219023D01*
X-1164996Y8134898D01*
X-1164996Y7855089D01*
X-1249116Y7770964D01*
X-1347416Y7770964D01*
D10*
X-1415003Y8235017D02*
G01*
X-1399928Y8250085D01*
X-1333482Y8250085D01*
X-1333482Y8300072D02*
G01*
X-1348414Y8315012D01*
X-1434995Y8315012D01*
X-988275Y8835003D02*
G01*
X-1043261Y8780007D01*
X-1164996Y8780007D01*
X-1465016Y8019884D02*
G01*
X-1465016Y7944957D01*
X-1439870Y7920065D01*
X-1347416Y7920065D01*
X-1347416Y7870022D02*
G01*
X-1352415Y7875013D01*
X-1561724Y7875013D01*
X-1347416Y7771013D02*
G01*
X-1347416Y7739009D01*
X-1347416Y8250006D02*
G01*
X-1347416Y8219018D01*
X-1347416Y8170021D02*
G01*
X-1465003Y8170021D01*
X-1470007Y8165017D01*
X-1561724Y8165017D01*
X-1164996Y8590020D02*
G01*
X-844905Y8590020D01*
X-769914Y8665019D01*
X-2162225Y7249993D02*
G01*
X-2167229Y7254989D01*
X-2194986Y7254989D01*
X-2254989Y7194986D01*
X-2254989Y7174981D01*
X-2347752Y7199980D02*
G01*
X-2342761Y7194986D01*
X-2274994Y7194986D01*
X-2254989Y7174981D01*
X-2162225Y7099978D02*
G01*
X-2167229Y7094987D01*
X-2194986Y7094987D01*
X-2254989Y7154989D01*
X-2254989Y7174981D01*
X-2162225Y7099978D02*
G01*
X-2035492Y7099978D01*
X-2024994Y7110483D01*
X-2162225Y7199980D02*
G01*
X-2044514Y7199980D01*
X-2024999Y7219500D01*
X-1894398Y7267534D02*
G01*
X-1889640Y7272279D01*
X-1804697Y7272279D01*
X-1784697Y7252279D01*
X-1784697Y7102279D01*
X-1809943Y7077034D01*
X-1894398Y7077034D01*
X-1575005Y8595019D02*
G01*
X-1570001Y8590020D01*
X-1425006Y8590020D01*
X-1013663Y8590114D02*
G01*
X-1014935Y7505026D01*
X-1425006Y8590020D02*
G01*
X-1360004Y8525014D01*
X-1095004Y8525014D01*
X-1065001Y8495019D01*
X-1065001Y7554991D01*
X-1114996Y7504996D01*
X-2162225Y7199980D02*
G01*
X-2162225Y7149990D01*
X-900003Y7379992D02*
G01*
X-1024991Y7254996D01*
X-1094991Y7254996D01*
X-1144991Y7304996D01*
X-1144991Y7434996D01*
X-1114996Y7464999D01*
X-1114996Y7504996D01*
X-1545054Y7564973D02*
G01*
X-1815058Y7564973D01*
X-1854989Y7525044D01*
X-1854989Y7445006D01*
X-1894385Y7267516D02*
G01*
X-1854989Y7306911D01*
X-1854989Y7445006D01*
X-1482725Y7719974D02*
G01*
X-1482725Y7752580D01*
X-1485112Y7754967D01*
X-1265113Y7754967D01*
X-1249113Y7770967D01*
X-1717243Y7719974D02*
G01*
X-1717243Y7629974D01*
X-1782246Y7564970D01*
X-2499995Y7219975D02*
G01*
X-2430007Y7149988D01*
X-2347744Y7149988D01*
X-1419997Y7619984D02*
G01*
X-1379910Y7660071D01*
X-1333500Y7660071D01*
X-2233277Y7439985D02*
G01*
X-2275027Y7481735D01*
X-2275027Y7584988D01*
X-2146714Y7439985D02*
G01*
X-2104964Y7481735D01*
X-2104964Y7584988D01*
X-2104964Y7774980D02*
G01*
X-2014999Y7774980D01*
X-1966714Y7823266D01*
X-1966714Y7919984D01*
X-2275027Y7774980D02*
G01*
X-2130023Y7919984D01*
X-2053277Y7919984D01*
X-2109868Y8079983D02*
G01*
X-2109868Y7919984D01*
X-2169995Y8729982D02*
G01*
X-2044504Y8729982D01*
X-2109868Y8579982D02*
G01*
X-2109868Y8729982D01*
X-1879996Y8459983D02*
G01*
X-2009995Y8459983D01*
X-2009995Y8430046D01*
X-1347470Y8070087D02*
G01*
X-1690115Y8070087D01*
X-1735073Y8115045D01*
X-1735073Y8245094D01*
X-1819910Y8329929D01*
X-2009902Y8329929D01*
X-1815084Y8225028D02*
G01*
X-1785112Y8195055D01*
X-1785112Y8094979D01*
X-1709928Y8019795D01*
X-1347470Y8019795D01*
X-2009998Y8380008D02*
G01*
X-1760006Y8380008D01*
X-1749983Y8369985D01*
X-1575003Y8595019D02*
G01*
X-1547733Y8622289D01*
X-1547733Y8734993D01*
X-1782251Y8734993D02*
G01*
X-1777240Y8729982D01*
X-1699996Y8729982D01*
X-1249934Y8590026D02*
G01*
X-1165097Y8590026D01*
X-4510023Y8130031D02*
G01*
X-4260087Y7880095D01*
X-3430015Y7880095D01*
X-3028950Y8280908D01*
X-3028950Y8809989D01*
X-4530089Y8039862D02*
G01*
X-4320031Y7830058D01*
X-3409950Y7830058D01*
X-2774950Y8465058D01*
X-2774950Y8809989D01*
X-2310129Y8079994D02*
G01*
X-2310129Y8020050D01*
X-2359913Y7970012D01*
X-2420112Y7970012D01*
X-2139995Y7649984D02*
G01*
X-2104964Y7614953D01*
X-2104964Y7584988D01*
X-2259982Y8079983D02*
G01*
X-2259982Y7999996D01*
X-2349995Y7909984D01*
X-2859994Y7909984D01*
X-3069993Y7699984D01*
X-2210054Y8079994D02*
G01*
X-2210054Y7979918D01*
X-2329942Y7860029D01*
X-2810002Y7860029D01*
X-3070047Y7599984D01*
X-3199993Y7599984D01*
X-5019802Y8700008D02*
G01*
X-4320031Y8700008D01*
X-3660007Y8039983D01*
X-3489993Y8039983D01*
X-4940045Y8769858D02*
G01*
X-4299965Y8769858D01*
X-3690086Y8159978D01*
X-3610000Y8159978D01*
X-2629994Y7679984D02*
G01*
X-2524963Y7679984D01*
X-1959996Y7679984D02*
G01*
X-1855028Y7679984D01*
X-2039995Y8649982D02*
G01*
X-2044504Y8654491D01*
X-2044504Y8729982D01*
D14*
G01*
X-4295485Y8899982D03*
G01*
X-4404497Y8899982D03*
D15*
G01*
X-2775000Y8809989D03*
G01*
X-3029000Y8809989D03*
G01*
X-3283000Y8809989D03*
G01*
X-3537000Y8809989D03*
G01*
X-3791000Y8809989D03*
G01*
X-4045000Y8809989D03*
G01*
X-4045000Y7209993D03*
G01*
X-3791000Y7209993D03*
G01*
X-3537000Y7209993D03*
G01*
X-3283000Y7209993D03*
G01*
X-3029000Y7209993D03*
G01*
X-2775000Y7209993D03*
D16*
G01*
X-1880006Y8559977D03*
G01*
X-1880006Y8459978D03*
D17*
G01*
X-2269997Y8729979D03*
G01*
X-2169998Y8729979D03*
D14*
G01*
X-1935490Y8729982D03*
G01*
X-2044501Y8729982D03*
D18*
G01*
X-1482750Y7719974D03*
G01*
X-1717243Y7719974D03*
G01*
X-1547748Y8734983D03*
G01*
X-1782241Y8734983D03*
D19*
G01*
X-2524963Y7679994D03*
G01*
X-2275027Y7774990D03*
G01*
X-2275027Y7584998D03*
G01*
X-1855038Y7679994D03*
G01*
X-2104974Y7584998D03*
G01*
X-2104974Y7774990D03*
D20*
G01*
X-1966713Y7919984D03*
G01*
X-2053278Y7919984D03*
G01*
X-2146712Y7439985D03*
G01*
X-2233278Y7439985D03*
D21*
G01*
X-2259990Y8329955D03*
D22*
G01*
X-2109876Y8079994D03*
G01*
X-2159914Y8079994D03*
G01*
X-2209952Y8079994D03*
G01*
X-2259990Y8079994D03*
G01*
X-2310028Y8079994D03*
G01*
X-2360066Y8079994D03*
G01*
X-2410104Y8079994D03*
D23*
G01*
X-2510002Y8179866D03*
G01*
X-2510002Y8229904D03*
G01*
X-2510002Y8279942D03*
G01*
X-2510002Y8329980D03*
G01*
X-2510002Y8380018D03*
G01*
X-2510002Y8430056D03*
G01*
X-2510002Y8480094D03*
D22*
G01*
X-2410104Y8579993D03*
G01*
X-2360066Y8579993D03*
G01*
X-2310028Y8579993D03*
G01*
X-2259990Y8579993D03*
G01*
X-2209952Y8579993D03*
G01*
X-2159914Y8579993D03*
G01*
X-2109876Y8579993D03*
D23*
G01*
X-2010003Y8480094D03*
G01*
X-2010003Y8430056D03*
G01*
X-2010003Y8380018D03*
G01*
X-2010003Y8329980D03*
G01*
X-2010003Y8279942D03*
G01*
X-2010003Y8229904D03*
G01*
X-2010003Y8179866D03*
D24*
G01*
X-1349984Y7379995D03*
G01*
X-1049985Y7379995D03*
G01*
X-899998Y7379995D03*
D25*
G01*
X-1489989Y7289977D03*
G01*
X-759993Y7289977D03*
G01*
X-759993Y7069988D03*
G01*
X-1489989Y7069988D03*
D26*
G01*
X-8049971Y7209993D03*
G01*
X-7849971Y7209993D03*
G01*
X-7649971Y7209993D03*
G01*
X-7449972Y7209993D03*
G01*
X-7249972Y7209993D03*
G01*
X-7049973Y7209993D03*
G01*
X-6849973Y7209993D03*
G01*
X-6649973Y7209993D03*
G01*
X-6649973Y8789974D03*
G01*
X-6849973Y8789974D03*
G01*
X-7049973Y8789974D03*
G01*
X-7249972Y8789974D03*
G01*
X-7449972Y8789974D03*
G01*
X-7649971Y8789974D03*
G01*
X-7849971Y8789974D03*
G01*
X-8049971Y8789974D03*
D27*
G01*
X-4288485Y8424976D03*
G01*
X-4288485Y8534984D03*
G01*
X-4471492Y8534984D03*
G01*
X-4471492Y8424976D03*
G01*
X-4608474Y8424976D03*
G01*
X-4608474Y8534984D03*
G01*
X-4791481Y8534984D03*
G01*
X-4791481Y8424976D03*
D28*
G01*
X-2024992Y7219492D03*
D29*
G01*
X-2024989Y7110476D03*
D30*
G01*
X-2162241Y7099987D03*
G01*
X-2162241Y7149986D03*
G01*
X-2162241Y7199986D03*
G01*
X-2162241Y7249986D03*
G01*
X-2347742Y7249986D03*
G01*
X-2347742Y7199986D03*
G01*
X-2347742Y7149986D03*
G01*
X-2347742Y7099987D03*
D31*
G01*
X-2254991Y7174986D03*
D32*
G01*
X-6409987Y7793267D03*
D33*
G01*
X-6409994Y7706690D03*
D34*
G01*
X-6273270Y7949984D03*
G01*
X-6186704Y7949984D03*
D32*
G01*
X-6409987Y8166700D03*
D33*
G01*
X-6409994Y8253272D03*
D32*
G01*
X-6409987Y7583267D03*
D33*
G01*
X-6409994Y7496708D03*
D35*
G01*
X-1333500Y7820075D03*
G01*
X-1333500Y7870088D03*
G01*
X-1333500Y7920075D03*
G01*
X-1333500Y7970088D03*
G01*
X-1333500Y8020075D03*
G01*
X-1333500Y8070087D03*
G01*
X-1333500Y8120049D03*
G01*
X-1333500Y8170087D03*
G01*
X-1333500Y7660081D03*
G01*
X-1333500Y7690078D03*
G01*
X-1333500Y7740065D03*
G01*
X-1333500Y7770063D03*
G01*
X-1333500Y8220075D03*
G01*
X-1333500Y8250072D03*
G01*
X-1333500Y8300059D03*
G01*
X-1333500Y8330082D03*
D36*
G01*
X-4624499Y8279983D03*
G01*
X-4515487Y8279983D03*
D37*
G01*
X-4754905Y7549972D03*
G01*
X-4755032Y8209991D03*
G01*
X-4384954Y7549972D03*
G01*
X-4384954Y8209991D03*
D38*
G01*
X-5362023Y7563170D03*
G01*
X-5326659Y7598534D03*
D39*
G01*
X-5291314Y7633881D03*
D38*
G01*
X-5255949Y7669245D03*
G01*
X-5220602Y7704592D03*
G01*
X-5185239Y7739956D03*
G01*
X-5149893Y7775303D03*
G01*
X-5114528Y7810667D03*
G01*
X-5079182Y7846013D03*
D40*
G01*
X-5043817Y7881376D03*
D38*
G01*
X-5008471Y7916722D03*
G01*
X-4973106Y7952087D03*
D41*
G01*
X-4973106Y8047880D03*
G01*
X-5008471Y8083245D03*
G01*
X-5043817Y8118591D03*
D42*
G01*
X-5079182Y8153954D03*
G01*
X-5114528Y8189300D03*
D41*
G01*
X-5149893Y8224664D03*
G01*
X-5185239Y8260011D03*
G01*
X-5220602Y8295375D03*
D43*
G01*
X-5255949Y8330722D03*
G01*
X-5291314Y8366086D03*
D41*
G01*
X-5326659Y8401433D03*
G01*
X-5362023Y8436797D03*
D38*
G01*
X-5457817Y8436797D03*
G01*
X-5493181Y8401433D03*
G01*
X-5528527Y8366086D03*
G01*
X-5563891Y8330722D03*
D39*
G01*
X-5599238Y8295375D03*
D38*
G01*
X-5634601Y8260011D03*
G01*
X-5669948Y8224664D03*
D40*
G01*
X-5705312Y8189300D03*
D38*
G01*
X-5740659Y8153954D03*
G01*
X-5776023Y8118591D03*
G01*
X-5811370Y8083245D03*
G01*
X-5846734Y8047880D03*
D41*
G01*
X-5846734Y7952087D03*
G01*
X-5811370Y7916722D03*
D42*
G01*
X-5776023Y7881376D03*
G01*
X-5740659Y7846013D03*
D41*
G01*
X-5705312Y7810667D03*
G01*
X-5669948Y7775303D03*
G01*
X-5634601Y7739956D03*
D43*
G01*
X-5599238Y7704592D03*
G01*
X-5563891Y7669245D03*
D41*
G01*
X-5528527Y7633881D03*
G01*
X-5493181Y7598534D03*
G01*
X-5457817Y7563170D03*
D44*
G01*
X-5409920Y7999984D03*
D45*
G01*
X-4689982Y7159980D03*
G01*
X-5229987Y7159980D03*
D17*
G01*
X-1954987Y7444994D03*
G01*
X-1854987Y7444994D03*
D16*
G01*
X-1575003Y8595004D03*
G01*
X-1575003Y8495004D03*
D36*
G01*
X-1719506Y7445014D03*
G01*
X-1610494Y7445014D03*
D46*
G01*
X-769899Y8665006D03*
G01*
X-940079Y8665006D03*
D47*
G01*
X-2045321Y8869982D03*
G01*
X-1894671Y8869982D03*
D20*
G01*
X-901713Y8834993D03*
G01*
X-988279Y8834993D03*
D48*
G01*
X-1164996Y8780018D03*
G01*
X-1164996Y8590026D03*
G01*
X-1425016Y8590026D03*
G01*
X-1425016Y8685021D03*
G01*
X-1425016Y8780018D03*
D49*
G01*
X-1894385Y7077031D03*
G01*
X-1894385Y7171011D03*
G01*
X-1894385Y7267526D03*
G01*
X-1614985Y7264991D03*
G01*
X-1614985Y7077031D03*
D28*
G01*
X-5660006Y7275497D03*
D29*
G01*
X-5660009Y7384516D03*
D14*
G01*
X-5807720Y7074176D03*
G01*
X-5916731Y7074176D03*
D28*
G01*
X-6030005Y7844510D03*
D29*
G01*
X-6030010Y7735493D03*
D36*
G01*
X-6166731Y7074176D03*
G01*
X-6057719Y7074176D03*
D32*
G01*
X-6270005Y7833287D03*
D33*
G01*
X-6270015Y7746720D03*
D32*
G01*
X-6150005Y7746721D03*
D33*
G01*
X-6150000Y7833283D03*
D50*
G01*
X-6170756Y7535002D03*
G01*
X-6170756Y7485002D03*
G01*
X-6170756Y7435002D03*
G01*
X-6170756Y7385003D03*
G01*
X-6170756Y7335003D03*
G01*
X-6170756Y7285003D03*
D51*
G01*
X-6105017Y7219264D03*
G01*
X-6055004Y7219264D03*
G01*
X-6005017Y7219264D03*
G01*
X-5955004Y7219264D03*
G01*
X-5905017Y7219264D03*
G01*
X-5855004Y7219264D03*
D50*
G01*
X-5789255Y7285003D03*
G01*
X-5789255Y7335003D03*
G01*
X-5789255Y7385003D03*
G01*
X-5789255Y7435002D03*
G01*
X-5789255Y7485002D03*
G01*
X-5789255Y7535002D03*
D51*
G01*
X-5855004Y7600746D03*
G01*
X-5905017Y7600746D03*
G01*
X-5955004Y7600746D03*
G01*
X-6005017Y7600746D03*
G01*
X-6055004Y7600746D03*
G01*
X-6105017Y7600746D03*
D52*
G01*
X-6041275Y8240848D03*
D53*
G01*
X-5800860Y8481264D03*
D54*
G01*
X-6118705Y8799109D03*
D36*
G01*
X-5094498Y7579984D03*
G01*
X-4985486Y7579984D03*
G01*
X-5304510Y8840005D03*
G01*
X-5195498Y8840005D03*
D14*
G01*
X-5435500Y8700005D03*
G01*
X-5544512Y8700005D03*
D36*
G01*
X-4424497Y7089985D03*
G01*
X-4315485Y7089985D03*
D20*
G01*
X-5196721Y8700005D03*
G01*
X-5283287Y8700005D03*
D34*
G01*
X-5523289Y8840005D03*
G01*
X-5436723Y8840005D03*
D20*
G01*
X-1561717Y7875015D03*
G01*
X-1648283Y7875015D03*
G01*
X-1561717Y8165015D03*
G01*
X-1648283Y8165015D03*
D10*
G75*
G01*
X-5326659Y7598537D02*
G02*
X-5229987Y7365149I-233388J-233388D01*
D55*
G01*
X-836676Y8427593D03*
D56*
G01*
X-1256664Y8427593D03*
G01*
X-1256664Y7562570D03*
D55*
G01*
X-836676Y7562570D03*
D57*
G01*
X-4509998Y8129981D03*
G01*
X-4529988Y8039988D03*
G01*
X-5909995Y7779994D03*
G01*
X-5700013Y7679994D03*
G01*
X-5819978Y7749971D03*
G01*
X-5629986Y7529982D03*
G01*
X-5219979Y8469985D03*
G01*
X-5369991Y7049998D03*
G01*
X-5369991Y7125004D03*
G01*
X-5369991Y7200011D03*
G01*
X-5369991Y7274991D03*
G01*
X-5369991Y7349997D03*
G01*
X-5299989Y7359980D03*
G01*
X-5159984Y7359980D03*
G01*
X-4864988Y7359980D03*
G01*
X-4939995Y7359980D03*
G01*
X-5015001Y7359980D03*
G01*
X-5089982Y7359980D03*
G01*
X-4560011Y7055002D03*
G01*
X-4560011Y7130008D03*
G01*
X-4560011Y7205014D03*
G01*
X-4560011Y7279995D03*
G01*
X-4560011Y7360005D03*
G01*
X-4639995Y7359980D03*
G01*
X-4715002Y7359980D03*
G01*
X-4789982Y7359980D03*
G01*
X-6270015Y7152995D03*
G01*
X-6179997Y7639989D03*
G01*
X-1534998Y8284997D03*
G01*
X-1648282Y8165033D03*
G01*
X-1648282Y7875015D03*
G01*
X-1894382Y7171004D03*
G01*
X-1719503Y7445019D03*
G01*
X-1425016Y8685021D03*
G01*
X-1434998Y8315020D03*
G01*
X-1954987Y7445019D03*
G01*
X-6166738Y7074179D03*
G01*
X-6079997Y7509992D03*
G01*
X-5979998Y7509992D03*
G01*
X-5879998Y7509992D03*
G01*
X-6079997Y7409992D03*
G01*
X-5879998Y7409992D03*
G01*
X-6079997Y7309993D03*
G01*
X-5979998Y7309993D03*
G01*
X-5879998Y7309993D03*
G01*
X-6030010Y7844510D03*
G01*
X-5660009Y7275499D03*
G01*
X-5807710Y7074179D03*
G01*
X-5660009Y7384516D03*
G01*
X-4315485Y7089978D03*
G01*
X-901700Y8835009D03*
G01*
X-4939995Y8769985D03*
G01*
X-5639993Y8719997D03*
G01*
X-6409994Y7909610D03*
G01*
X-6429984Y8830055D03*
G01*
X-6118707Y8799093D03*
G01*
X-4620005Y8279993D03*
G01*
X-4755032Y8209991D03*
G01*
X-4869992Y8009991D03*
G01*
X-4789982Y7769987D03*
G01*
X-4580001Y7769987D03*
G01*
X-4359986Y7769987D03*
G01*
X-5009997Y7749971D03*
G01*
X-4729987Y7999984D03*
G01*
X-4620005Y7969986D03*
G01*
X-5623534Y8029270D03*
G01*
X-5552846Y8099983D03*
G01*
X-5482132Y8170697D03*
G01*
X-5411419Y8241411D03*
G01*
X-5552846Y7958556D03*
G01*
X-5482132Y8029270D03*
G01*
X-5411419Y8099983D03*
G01*
X-5340705Y8170697D03*
G01*
X-5482132Y7887868D03*
G01*
X-5411419Y7958556D03*
G01*
X-5340705Y8029270D03*
G01*
X-5411419Y7817154D03*
G01*
X-5340705Y7887868D03*
G01*
X-5269992Y7958556D03*
G01*
X-5199278Y8029270D03*
G01*
X-5269992Y8099983D03*
G01*
X-4515485Y8279993D03*
G01*
X-1575003Y8495029D03*
G01*
X-5509996Y7329982D03*
G01*
X-5509996Y7119975D03*
G01*
X-1610487Y7445019D03*
G01*
X-1614982Y7264984D03*
G01*
X-4424502Y7089978D03*
G01*
X-6150000Y7746720D03*
G01*
X-5049977Y8399983D03*
G01*
X-4989982Y8459978D03*
G01*
X-4919979Y8399983D03*
G01*
X-5669991Y8389975D03*
G01*
X-5709996Y8309990D03*
G01*
X-7359980Y7739989D03*
G01*
X-7279995Y7819974D03*
G01*
X-7089978Y8299983D03*
G01*
X-6409994Y8019542D03*
G01*
X-6669989Y8289975D03*
G01*
X-7189978Y8229980D03*
G01*
X-7099985Y7809992D03*
G01*
X-5189981Y8389975D03*
G01*
X-3689985Y7399985D03*
G01*
X-3909999Y7399985D03*
G01*
X-4249978Y7459979D03*
G01*
X-4469993Y7669987D03*
G01*
X-3829989Y7669987D03*
G01*
X-6739991Y8109991D03*
G01*
X-6409994Y7579995D03*
G01*
X-6409994Y7799730D03*
G01*
X-5949975Y7949971D03*
G01*
X-5304510Y8840012D03*
G01*
X-5729986Y8799982D03*
G01*
X-6529984Y7689977D03*
G01*
X-2024989Y7110501D03*
G01*
X-2024989Y7219518D03*
G01*
X-5579998Y7459979D03*
G01*
X-4430013Y7329931D03*
G01*
X-6560058Y8189976D03*
G01*
X-5019776Y8699982D03*
G01*
X-4288485Y8534984D03*
G01*
X-4608474Y8534984D03*
G01*
X-2499995Y7219975D03*
G01*
X-7849971Y7209993D03*
G01*
X-8049971Y8789974D03*
G01*
X-6649973Y8789974D03*
G01*
X-6849973Y8789974D03*
G01*
X-7449972Y8605443D03*
G01*
X-7249972Y8599982D03*
G01*
X-7849971Y8789974D03*
G01*
X-5199989Y8699982D03*
G01*
X-1014933Y7505039D03*
G01*
X-1544980Y7565009D03*
G01*
X-1044981Y7325004D03*
G01*
X-899998Y7379995D03*
G01*
X-1419987Y7619974D03*
G01*
X-1815084Y8225028D03*
G01*
X-1749983Y8369985D03*
G01*
X-1699996Y8729979D03*
G01*
X-1249984Y8589975D03*
G01*
X-2420112Y7970012D03*
G01*
X-2140000Y7649971D03*
G01*
X-3199993Y7599984D03*
G01*
X-3069996Y7699984D03*
G01*
X-1959990Y7679994D03*
G01*
X-2629992Y7679994D03*
G01*
X-3489985Y8039988D03*
G01*
X-3610000Y8159978D03*
G01*
X-2040001Y8649970D03*
G01*
X-1935479Y8729979D03*
G01*
X-2269997Y8729979D03*
G01*
X-2259990Y8329955D03*
G01*
X-3283000Y8809989D03*
G01*
X-4404487Y8899982D03*
G01*
X-940079Y8665006D03*
G01*
X-2045309Y8869984D03*
G01*
X-1425016Y8780018D03*
G01*
X-1894662Y8869984D03*
G01*
X-3537000Y8809989D03*
G01*
X-2599994Y8729979D03*
G01*
X-6479819Y7235291D03*
G01*
X-2610002Y7209993D03*
G01*
X-3919981Y8659977D03*
G01*
X-3699992Y8659977D03*
M02*
