G04 Layer: BottomSilkscreenLayer*
G04 EasyEDA v6.5.29, 2023-07-07 16:20:56*
G04 d9f499156d004e84aee0404722c7e58c,63a96235fadc4189ab89c93b90d034ab,10*
G04 Gerber Generator version 0.2*
G04 Scale: 100 percent, Rotated: No, Reflected: No *
G04 Dimensions in millimeters *
G04 leading zeros omitted , absolute positions ,4 integer and 5 decimal *
%FSLAX45Y45*%
%MOMM*%

%ADD10C,0.2540*%
%ADD11C,0.2032*%
%ADD12C,0.2030*%
%ADD13C,0.1016*%

%LPD*%
G36*
X-2857093Y8897315D02*
G01*
X-2873044Y8897010D01*
X-2886964Y8896451D01*
X-2899511Y8895588D01*
X-2911348Y8894267D01*
X-2923032Y8892438D01*
X-2935224Y8890152D01*
X-2948482Y8887256D01*
X-2965602Y8883142D01*
X-2982366Y8878671D01*
X-2998216Y8874048D01*
X-3012592Y8869476D01*
X-3024987Y8865108D01*
X-3034944Y8861145D01*
X-3041853Y8857691D01*
X-3043986Y8856268D01*
X-3045206Y8854998D01*
X-3044952Y8854338D01*
X-3041396Y8851747D01*
X-3034233Y8847785D01*
X-3024073Y8842705D01*
X-2996844Y8830259D01*
X-2930753Y8802065D01*
X-2915310Y8809431D01*
X-2907131Y8812580D01*
X-2898444Y8814460D01*
X-2888996Y8815171D01*
X-2878582Y8814714D01*
X-2872028Y8814155D01*
X-2866593Y8814003D01*
X-2861970Y8814358D01*
X-2857855Y8815374D01*
X-2853842Y8817102D01*
X-2849676Y8819642D01*
X-2844952Y8823198D01*
X-2823819Y8840317D01*
X-2796082Y8861653D01*
X-2780182Y8873591D01*
X-2767939Y8883446D01*
X-2764586Y8886799D01*
X-2762808Y8889339D01*
X-2762453Y8891219D01*
X-2763469Y8892641D01*
X-2765602Y8893810D01*
X-2770124Y8894673D01*
X-2778658Y8895486D01*
X-2804871Y8896756D01*
X-2838551Y8897315D01*
G37*
G36*
X-2706268Y8880348D02*
G01*
X-2707944Y8880043D01*
X-2713482Y8877655D01*
X-2721660Y8873083D01*
X-2732125Y8866530D01*
X-2744622Y8858250D01*
X-2758744Y8848394D01*
X-2774188Y8837218D01*
X-2790596Y8824976D01*
X-2809494Y8810447D01*
X-2817469Y8803995D01*
X-2823311Y8798814D01*
X-2827324Y8794597D01*
X-2829712Y8790940D01*
X-2830830Y8787485D01*
X-2830931Y8783929D01*
X-2829356Y8773871D01*
X-2828544Y8766810D01*
X-2827985Y8759545D01*
X-2827680Y8749944D01*
X-2827324Y8747099D01*
X-2826613Y8744458D01*
X-2825445Y8741765D01*
X-2823616Y8739022D01*
X-2821178Y8736076D01*
X-2817876Y8732774D01*
X-2808528Y8724747D01*
X-2772359Y8697061D01*
X-2754376Y8682431D01*
X-2731820Y8662720D01*
X-2713786Y8645906D01*
X-2691434Y8623858D01*
X-2673807Y8605469D01*
X-2656433Y8586520D01*
X-2635199Y8562086D01*
X-2614726Y8537143D01*
X-2598978Y8516874D01*
X-2580182Y8491321D01*
X-2565958Y8470798D01*
X-2549347Y8445246D01*
X-2537053Y8424926D01*
X-2528468Y8409889D01*
X-2517952Y8390128D01*
X-2513076Y8381542D01*
X-2508504Y8375853D01*
X-2503881Y8372754D01*
X-2493568Y8370671D01*
X-2486761Y8367522D01*
X-2479243Y8362950D01*
X-2464663Y8351520D01*
X-2461260Y8349183D01*
X-2457653Y8347202D01*
X-2453792Y8345474D01*
X-2449372Y8343950D01*
X-2444292Y8342528D01*
X-2438298Y8341207D01*
X-2422906Y8338566D01*
X-2401620Y8335568D01*
X-2380691Y8332978D01*
X-2363165Y8331250D01*
X-2350820Y8330539D01*
X-2347214Y8330641D01*
X-2345588Y8330996D01*
X-2344978Y8332114D01*
X-2344420Y8334095D01*
X-2343556Y8340445D01*
X-2342946Y8349589D01*
X-2342540Y8374380D01*
X-2343099Y8404656D01*
X-2344470Y8436711D01*
X-2346553Y8466836D01*
X-2347874Y8479993D01*
X-2349246Y8491270D01*
X-2350820Y8500160D01*
X-2353614Y8512759D01*
X-2356713Y8525256D01*
X-2360168Y8537651D01*
X-2363876Y8549944D01*
X-2367940Y8562086D01*
X-2372258Y8574074D01*
X-2376881Y8585962D01*
X-2381808Y8597747D01*
X-2389733Y8615070D01*
X-2395372Y8626449D01*
X-2401265Y8637676D01*
X-2407462Y8648750D01*
X-2413914Y8659622D01*
X-2420620Y8670340D01*
X-2427630Y8680856D01*
X-2434894Y8691219D01*
X-2442413Y8701379D01*
X-2454148Y8716264D01*
X-2462276Y8725916D01*
X-2470658Y8735364D01*
X-2483713Y8749131D01*
X-2492705Y8758072D01*
X-2511399Y8775192D01*
X-2521102Y8783370D01*
X-2531008Y8791346D01*
X-2541016Y8798966D01*
X-2551379Y8806383D01*
X-2562250Y8813749D01*
X-2573578Y8821013D01*
X-2585212Y8828074D01*
X-2597099Y8834983D01*
X-2609037Y8841536D01*
X-2621026Y8847785D01*
X-2632862Y8853627D01*
X-2644495Y8859012D01*
X-2655773Y8863888D01*
X-2666644Y8868156D01*
X-2683510Y8874048D01*
X-2693822Y8877300D01*
X-2701798Y8879484D01*
G37*
G36*
X-3090773Y8832799D02*
G01*
X-3093516Y8831630D01*
X-3099308Y8828328D01*
X-3116630Y8817254D01*
X-3127146Y8810142D01*
X-3137408Y8802725D01*
X-3147415Y8795156D01*
X-3157270Y8787282D01*
X-3166872Y8779256D01*
X-3176270Y8770975D01*
X-3185414Y8762542D01*
X-3194354Y8753856D01*
X-3203041Y8744966D01*
X-3211474Y8735923D01*
X-3219704Y8726678D01*
X-3227679Y8717229D01*
X-3242919Y8697772D01*
X-3250133Y8687816D01*
X-3257143Y8677656D01*
X-3270351Y8656878D01*
X-3276549Y8646210D01*
X-3282492Y8635441D01*
X-3288182Y8624519D01*
X-3293618Y8613444D01*
X-3298748Y8602218D01*
X-3303625Y8590889D01*
X-3308248Y8579408D01*
X-3312566Y8567826D01*
X-3316579Y8556091D01*
X-3320338Y8544255D01*
X-3325418Y8526272D01*
X-3328415Y8514130D01*
X-3331159Y8501938D01*
X-3333597Y8489645D01*
X-3335731Y8477199D01*
X-3337407Y8465566D01*
X-3338576Y8453932D01*
X-3339439Y8441334D01*
X-3339998Y8427974D01*
X-3340201Y8413953D01*
X-3339744Y8384794D01*
X-3338118Y8355330D01*
X-3335375Y8326881D01*
X-3333597Y8313521D01*
X-3331565Y8300923D01*
X-3329330Y8289290D01*
X-3326637Y8277910D01*
X-3323437Y8265871D01*
X-3319932Y8253882D01*
X-3316122Y8241944D01*
X-3312007Y8230108D01*
X-3307587Y8218322D01*
X-3302914Y8206689D01*
X-3297986Y8195106D01*
X-3292754Y8183727D01*
X-3287268Y8172450D01*
X-3275584Y8150453D01*
X-3269335Y8139734D01*
X-3259632Y8124088D01*
X-3245866Y8104073D01*
X-3238703Y8094472D01*
X-3231337Y8085175D01*
X-3226917Y8080197D01*
X-3223209Y8076996D01*
X-3220313Y8075472D01*
X-3218230Y8075625D01*
X-3217011Y8077403D01*
X-3216808Y8080756D01*
X-3217621Y8085632D01*
X-3221380Y8098383D01*
X-3222955Y8105444D01*
X-3223971Y8112353D01*
X-3224326Y8118297D01*
X-3223717Y8124037D01*
X-3221939Y8131098D01*
X-3219297Y8138769D01*
X-3216148Y8146491D01*
X-3212693Y8153603D01*
X-3209239Y8159445D01*
X-3206089Y8163458D01*
X-3203498Y8164880D01*
X-3201466Y8165541D01*
X-3198469Y8167370D01*
X-3194862Y8170011D01*
X-3191103Y8173262D01*
X-3188868Y8175701D01*
X-3186887Y8178596D01*
X-3185109Y8182051D01*
X-3183534Y8186064D01*
X-3182162Y8190687D01*
X-3180994Y8195970D01*
X-3177946Y8217509D01*
X-3174441Y8240064D01*
X-3169970Y8265159D01*
X-3165094Y8289290D01*
X-3157982Y8319719D01*
X-3153257Y8337854D01*
X-3148177Y8355787D01*
X-3142792Y8373618D01*
X-3137052Y8391296D01*
X-3126790Y8420455D01*
X-3117900Y8443468D01*
X-3108401Y8466277D01*
X-3098292Y8488832D01*
X-3084830Y8516670D01*
X-3073400Y8538616D01*
X-3061411Y8560358D01*
X-3048762Y8581847D01*
X-3042259Y8592464D01*
X-3032150Y8608314D01*
X-3018231Y8629243D01*
X-2999943Y8654999D01*
X-2984652Y8675319D01*
X-2972816Y8690406D01*
X-2957118Y8709710D01*
X-2951378Y8717127D01*
X-2947263Y8723122D01*
X-2944520Y8728202D01*
X-2942945Y8732926D01*
X-2942336Y8737752D01*
X-2942437Y8743289D01*
X-2943047Y8749944D01*
X-2944114Y8758123D01*
X-2945384Y8765286D01*
X-2946704Y8770569D01*
X-2947924Y8773261D01*
X-2950870Y8775141D01*
X-2965805Y8782456D01*
X-2989224Y8792921D01*
X-3016758Y8804605D01*
X-3044037Y8815679D01*
X-3056229Y8820404D01*
X-3079699Y8829090D01*
G37*
G36*
X-2842869Y8707882D02*
G01*
X-2846019Y8707374D01*
X-2858262Y8703919D01*
X-2865831Y8701379D01*
X-2875788Y8698382D01*
X-2884322Y8697163D01*
X-2892704Y8697620D01*
X-2902356Y8699754D01*
X-2908249Y8701278D01*
X-2912872Y8702192D01*
X-2916580Y8702446D01*
X-2919780Y8701786D01*
X-2922828Y8700160D01*
X-2926029Y8697366D01*
X-2929839Y8693353D01*
X-2937560Y8684361D01*
X-2944114Y8676335D01*
X-2958846Y8657183D01*
X-2974898Y8635034D01*
X-2991459Y8611362D01*
X-3011322Y8581491D01*
X-3025495Y8559139D01*
X-3037078Y8539530D01*
X-3048812Y8517686D01*
X-3060242Y8494877D01*
X-3071164Y8471306D01*
X-3076448Y8459266D01*
X-3084118Y8440928D01*
X-3091535Y8422335D01*
X-3100832Y8397240D01*
X-3109468Y8371941D01*
X-3117392Y8346643D01*
X-3124555Y8321497D01*
X-3130905Y8296605D01*
X-3136442Y8272170D01*
X-3140964Y8248345D01*
X-3147110Y8208111D01*
X-3149447Y8194090D01*
X-3150057Y8187588D01*
X-3148228Y8182762D01*
X-3142843Y8178444D01*
X-3132988Y8173262D01*
X-3114294Y8164169D01*
X-3063138Y8198002D01*
X-3047492Y8207806D01*
X-3020822Y8223503D01*
X-3004464Y8232495D01*
X-2987903Y8241182D01*
X-2965500Y8252256D01*
X-2942691Y8262772D01*
X-2913634Y8275116D01*
X-2890062Y8284311D01*
X-2866237Y8292896D01*
X-2842056Y8300872D01*
X-2811576Y8310016D01*
X-2786888Y8316620D01*
X-2755849Y8323986D01*
X-2730754Y8329168D01*
X-2705608Y8333689D01*
X-2680309Y8337550D01*
X-2667609Y8339226D01*
X-2635859Y8342680D01*
X-2610358Y8344662D01*
X-2579420Y8346440D01*
X-2564993Y8347608D01*
X-2559202Y8348319D01*
X-2554224Y8349234D01*
X-2550160Y8350351D01*
X-2546858Y8351774D01*
X-2544419Y8353450D01*
X-2542692Y8355482D01*
X-2541778Y8357870D01*
X-2541574Y8360765D01*
X-2542032Y8364067D01*
X-2543200Y8367928D01*
X-2544978Y8372348D01*
X-2547366Y8377428D01*
X-2553919Y8389467D01*
X-2569057Y8415274D01*
X-2585618Y8441791D01*
X-2592527Y8452307D01*
X-2610408Y8478113D01*
X-2625293Y8498382D01*
X-2636824Y8513368D01*
X-2652674Y8532977D01*
X-2664866Y8547404D01*
X-2685846Y8570976D01*
X-2703118Y8589314D01*
X-2720898Y8607196D01*
X-2739085Y8624570D01*
X-2762402Y8645601D01*
X-2781452Y8661806D01*
X-2803855Y8679789D01*
X-2825902Y8696655D01*
X-2834233Y8702649D01*
X-2840024Y8706510D01*
G37*
G36*
X-2553157Y8316975D02*
G01*
X-2615793Y8312962D01*
X-2647137Y8309864D01*
X-2666187Y8307476D01*
X-2678938Y8305647D01*
X-2704541Y8301583D01*
X-2730042Y8296909D01*
X-2761538Y8290255D01*
X-2786278Y8284311D01*
X-2810357Y8277859D01*
X-2833674Y8270951D01*
X-2850540Y8265515D01*
X-2871266Y8258149D01*
X-2891028Y8250224D01*
X-2913176Y8240572D01*
X-2936849Y8229549D01*
X-2955137Y8220659D01*
X-2985465Y8205216D01*
X-3008680Y8192770D01*
X-3030067Y8180730D01*
X-3048762Y8169452D01*
X-3056890Y8164271D01*
X-3081731Y8147100D01*
X-3086404Y8143494D01*
X-3090062Y8140242D01*
X-3092907Y8137245D01*
X-3095040Y8134350D01*
X-3096615Y8131302D01*
X-3097733Y8128000D01*
X-3099257Y8119973D01*
X-3100882Y8108137D01*
X-3102152Y8101939D01*
X-3103727Y8096199D01*
X-3105607Y8090966D01*
X-3107893Y8086191D01*
X-3110585Y8081772D01*
X-3113633Y8077708D01*
X-3117189Y8073948D01*
X-3121202Y8070494D01*
X-3125724Y8067243D01*
X-3130753Y8064195D01*
X-3142538Y8058251D01*
X-3147161Y8055660D01*
X-3150565Y8053171D01*
X-3152851Y8050479D01*
X-3154273Y8047278D01*
X-3155035Y8043164D01*
X-3155340Y8037880D01*
X-3155289Y8024215D01*
X-3154934Y8018780D01*
X-3153968Y8014360D01*
X-3152241Y8010499D01*
X-3149447Y8006791D01*
X-3145332Y8002828D01*
X-3132277Y7992567D01*
X-3122777Y7985658D01*
X-3112871Y7978952D01*
X-3102559Y7972450D01*
X-3091891Y7966151D01*
X-3080867Y7960106D01*
X-3069590Y7954314D01*
X-3057956Y7948726D01*
X-3046120Y7943392D01*
X-3034030Y7938312D01*
X-3021736Y7933486D01*
X-3009290Y7928965D01*
X-2996692Y7924698D01*
X-2983941Y7920736D01*
X-2971088Y7917078D01*
X-2958185Y7913674D01*
X-2945231Y7910626D01*
X-2932277Y7907883D01*
X-2919323Y7905496D01*
X-2906369Y7903413D01*
X-2893517Y7901686D01*
X-2880766Y7900314D01*
X-2868066Y7899298D01*
X-2855569Y7898688D01*
X-2843225Y7898384D01*
X-2831084Y7898536D01*
X-2819146Y7899044D01*
X-2805836Y7899958D01*
X-2792679Y7901228D01*
X-2779674Y7902752D01*
X-2766771Y7904581D01*
X-2754020Y7906664D01*
X-2741422Y7909052D01*
X-2728925Y7911744D01*
X-2716580Y7914741D01*
X-2704388Y7918043D01*
X-2692298Y7921599D01*
X-2680360Y7925460D01*
X-2668574Y7929575D01*
X-2656941Y7934045D01*
X-2645410Y7938770D01*
X-2634030Y7943799D01*
X-2622804Y7949082D01*
X-2611678Y7954721D01*
X-2600706Y7960614D01*
X-2589885Y7966760D01*
X-2579217Y7973263D01*
X-2568651Y7980019D01*
X-2558237Y7987080D01*
X-2547975Y7994396D01*
X-2537815Y8002016D01*
X-2522880Y8014055D01*
X-2513126Y8022386D01*
X-2503474Y8031022D01*
X-2493975Y8039963D01*
X-2484577Y8049209D01*
X-2472436Y8061807D01*
X-2466086Y8068818D01*
X-2460904Y8074964D01*
X-2456789Y8080248D01*
X-2453741Y8084769D01*
X-2451709Y8088579D01*
X-2450744Y8091728D01*
X-2450744Y8094167D01*
X-2464562Y8158988D01*
X-2468372Y8174736D01*
X-2476652Y8205520D01*
X-2485237Y8233359D01*
X-2489454Y8245500D01*
X-2493416Y8256066D01*
X-2497074Y8264804D01*
X-2500325Y8271357D01*
X-2503119Y8275523D01*
X-2504287Y8276590D01*
X-2505303Y8276945D01*
X-2509926Y8277606D01*
X-2515209Y8279384D01*
X-2520899Y8282127D01*
X-2526690Y8285683D01*
X-2532329Y8289747D01*
X-2537460Y8294217D01*
X-2541879Y8298891D01*
X-2545181Y8303514D01*
G37*
G36*
X-2453792Y8310981D02*
G01*
X-2455519Y8310321D01*
X-2458008Y8308238D01*
X-2460853Y8304987D01*
X-2463800Y8300974D01*
X-2465882Y8297468D01*
X-2467203Y8294065D01*
X-2467762Y8290102D01*
X-2467406Y8285175D01*
X-2466136Y8278571D01*
X-2463800Y8269884D01*
X-2451354Y8230311D01*
X-2442768Y8201101D01*
X-2435453Y8174278D01*
X-2429510Y8150859D01*
X-2426106Y8140547D01*
X-2423007Y8133842D01*
X-2420670Y8131759D01*
X-2419197Y8132673D01*
X-2417470Y8134451D01*
X-2415438Y8137042D01*
X-2410663Y8144560D01*
X-2405126Y8154568D01*
X-2399030Y8166709D01*
X-2392527Y8180374D01*
X-2385923Y8195157D01*
X-2379421Y8210448D01*
X-2373172Y8225840D01*
X-2367432Y8240775D01*
X-2362454Y8254746D01*
X-2358339Y8267293D01*
X-2355443Y8277859D01*
X-2353868Y8285988D01*
X-2353665Y8288985D01*
X-2353868Y8290407D01*
X-2354681Y8291779D01*
X-2356104Y8293049D01*
X-2358237Y8294268D01*
X-2361184Y8295436D01*
X-2365095Y8296656D01*
X-2376068Y8299094D01*
X-2391867Y8301837D01*
G37*
G36*
X-2658313Y7708798D02*
G01*
X-2668219Y7708188D01*
X-2677718Y7706359D01*
X-2686761Y7703362D01*
X-2695397Y7699146D01*
X-2703423Y7693964D01*
X-2710637Y7687919D01*
X-2716885Y7680909D01*
X-2722321Y7672984D01*
X-2726537Y7664196D01*
X-2729534Y7654950D01*
X-2731363Y7645146D01*
X-2731973Y7634884D01*
X-2686253Y7634884D01*
X-2684475Y7648295D01*
X-2679141Y7658506D01*
X-2675077Y7662265D01*
X-2670251Y7664958D01*
X-2664663Y7666583D01*
X-2658313Y7667142D01*
X-2651861Y7666583D01*
X-2646222Y7664958D01*
X-2641447Y7662265D01*
X-2637485Y7658506D01*
X-2631948Y7648295D01*
X-2630119Y7634884D01*
X-2631948Y7621879D01*
X-2637485Y7611770D01*
X-2641447Y7607960D01*
X-2646222Y7605268D01*
X-2651861Y7603642D01*
X-2658313Y7603134D01*
X-2664663Y7603642D01*
X-2670251Y7605268D01*
X-2675077Y7607960D01*
X-2679141Y7611770D01*
X-2684475Y7621879D01*
X-2686253Y7634884D01*
X-2731973Y7634884D01*
X-2731363Y7624622D01*
X-2729534Y7614869D01*
X-2726537Y7605674D01*
X-2722321Y7597038D01*
X-2716885Y7589012D01*
X-2710637Y7581900D01*
X-2703423Y7575803D01*
X-2695397Y7570622D01*
X-2686659Y7566406D01*
X-2677617Y7563358D01*
X-2668117Y7561580D01*
X-2658313Y7560970D01*
X-2648356Y7561580D01*
X-2638806Y7563358D01*
X-2629662Y7566406D01*
X-2620975Y7570622D01*
X-2612898Y7575803D01*
X-2605735Y7581900D01*
X-2599436Y7589012D01*
X-2594051Y7597038D01*
X-2589682Y7605674D01*
X-2586583Y7614869D01*
X-2584754Y7624622D01*
X-2584145Y7634884D01*
X-2584754Y7645146D01*
X-2586583Y7654950D01*
X-2589682Y7664196D01*
X-2594051Y7672984D01*
X-2599436Y7680909D01*
X-2605735Y7687919D01*
X-2612898Y7693964D01*
X-2620975Y7699146D01*
X-2629662Y7703362D01*
X-2638806Y7706359D01*
X-2648356Y7708188D01*
G37*
G36*
X-2799283Y7708798D02*
G01*
X-2811780Y7708036D01*
X-2822956Y7705750D01*
X-2832760Y7701940D01*
X-2841193Y7696606D01*
X-2848102Y7689850D01*
X-2853182Y7681874D01*
X-2856382Y7672578D01*
X-2857703Y7662062D01*
X-2809189Y7662062D01*
X-2808884Y7664907D01*
X-2808274Y7667345D01*
X-2807360Y7669326D01*
X-2806141Y7670952D01*
X-2804515Y7672070D01*
X-2802839Y7672831D01*
X-2800959Y7673340D01*
X-2797657Y7673390D01*
X-2795371Y7672476D01*
X-2794457Y7671714D01*
X-2793644Y7670596D01*
X-2793085Y7669275D01*
X-2792679Y7666126D01*
X-2792984Y7663840D01*
X-2794000Y7661757D01*
X-2795676Y7659878D01*
X-2798013Y7658252D01*
X-2801061Y7656525D01*
X-2809697Y7652715D01*
X-2821686Y7648092D01*
X-2832862Y7643164D01*
X-2837637Y7640726D01*
X-2841904Y7638186D01*
X-2845866Y7635189D01*
X-2849524Y7631734D01*
X-2852877Y7627772D01*
X-2855722Y7623302D01*
X-2857804Y7618374D01*
X-2859024Y7612888D01*
X-2859481Y7606944D01*
X-2857804Y7594447D01*
X-2852877Y7583322D01*
X-2845003Y7573873D01*
X-2834081Y7566812D01*
X-2820466Y7562443D01*
X-2804617Y7560970D01*
X-2792222Y7561732D01*
X-2780995Y7564018D01*
X-2770886Y7567828D01*
X-2761945Y7573162D01*
X-2754528Y7579817D01*
X-2749042Y7587945D01*
X-2745486Y7597495D01*
X-2743911Y7608468D01*
X-2791917Y7608468D01*
X-2792984Y7603032D01*
X-2795117Y7599121D01*
X-2798419Y7596784D01*
X-2802839Y7596022D01*
X-2804515Y7596124D01*
X-2807563Y7597038D01*
X-2808935Y7597800D01*
X-2810002Y7598816D01*
X-2810814Y7600035D01*
X-2811272Y7601458D01*
X-2811475Y7603134D01*
X-2811119Y7605572D01*
X-2810103Y7607757D01*
X-2808478Y7609738D01*
X-2806141Y7611516D01*
X-2799029Y7614818D01*
X-2782265Y7621016D01*
X-2770835Y7625842D01*
X-2766009Y7628280D01*
X-2761691Y7630820D01*
X-2757678Y7633919D01*
X-2753918Y7637576D01*
X-2750515Y7641742D01*
X-2747721Y7646619D01*
X-2745740Y7652105D01*
X-2744520Y7658150D01*
X-2744165Y7664856D01*
X-2745994Y7677810D01*
X-2751531Y7688732D01*
X-2759964Y7697419D01*
X-2771089Y7703718D01*
X-2784449Y7707528D01*
G37*
G36*
X-3267151Y7708798D02*
G01*
X-3277057Y7708188D01*
X-3286556Y7706359D01*
X-3295599Y7703362D01*
X-3304235Y7699146D01*
X-3312261Y7693964D01*
X-3319373Y7687919D01*
X-3325622Y7680909D01*
X-3330905Y7672984D01*
X-3335223Y7664196D01*
X-3338322Y7654950D01*
X-3340150Y7645146D01*
X-3340811Y7634884D01*
X-3295091Y7634884D01*
X-3293211Y7648295D01*
X-3287725Y7658506D01*
X-3283762Y7662265D01*
X-3278987Y7664958D01*
X-3273450Y7666583D01*
X-3267151Y7667142D01*
X-3260648Y7666583D01*
X-3255010Y7664958D01*
X-3250133Y7662265D01*
X-3246069Y7658506D01*
X-3240735Y7648295D01*
X-3238957Y7634884D01*
X-3240735Y7621879D01*
X-3246069Y7611770D01*
X-3250133Y7607960D01*
X-3255010Y7605268D01*
X-3260648Y7603642D01*
X-3267151Y7603134D01*
X-3273450Y7603642D01*
X-3278987Y7605268D01*
X-3283762Y7607960D01*
X-3287725Y7611770D01*
X-3293211Y7621879D01*
X-3295091Y7634884D01*
X-3340811Y7634884D01*
X-3340150Y7624622D01*
X-3338322Y7614869D01*
X-3335223Y7605674D01*
X-3330905Y7597038D01*
X-3325622Y7589012D01*
X-3319373Y7581900D01*
X-3312261Y7575803D01*
X-3304235Y7570622D01*
X-3295497Y7566406D01*
X-3286455Y7563358D01*
X-3276955Y7561580D01*
X-3267151Y7560970D01*
X-3257194Y7561580D01*
X-3247644Y7563358D01*
X-3238500Y7566406D01*
X-3229813Y7570622D01*
X-3221736Y7575803D01*
X-3214573Y7581900D01*
X-3208274Y7589012D01*
X-3202889Y7597038D01*
X-3198520Y7605674D01*
X-3195421Y7614869D01*
X-3193592Y7624622D01*
X-3192983Y7634884D01*
X-3193592Y7645146D01*
X-3195421Y7654950D01*
X-3198520Y7664196D01*
X-3202889Y7672984D01*
X-3208274Y7680909D01*
X-3214573Y7687919D01*
X-3221736Y7693964D01*
X-3229813Y7699146D01*
X-3238500Y7703362D01*
X-3247644Y7706359D01*
X-3257194Y7708188D01*
G37*
G36*
X-3713937Y7708798D02*
G01*
X-3726434Y7708036D01*
X-3737610Y7705750D01*
X-3747414Y7701940D01*
X-3755847Y7696606D01*
X-3762654Y7689850D01*
X-3767683Y7681874D01*
X-3770934Y7672578D01*
X-3772357Y7662062D01*
X-3723589Y7662062D01*
X-3723386Y7664907D01*
X-3722827Y7667345D01*
X-3721862Y7669326D01*
X-3720541Y7670952D01*
X-3719068Y7672070D01*
X-3717391Y7672831D01*
X-3715613Y7673340D01*
X-3712311Y7673390D01*
X-3710025Y7672476D01*
X-3709111Y7671714D01*
X-3708298Y7670596D01*
X-3707739Y7669275D01*
X-3707333Y7666126D01*
X-3707637Y7663840D01*
X-3708654Y7661757D01*
X-3710330Y7659878D01*
X-3712667Y7658252D01*
X-3715715Y7656525D01*
X-3724198Y7652715D01*
X-3736238Y7648092D01*
X-3747515Y7643164D01*
X-3752291Y7640726D01*
X-3756558Y7638186D01*
X-3760520Y7635189D01*
X-3764178Y7631734D01*
X-3767531Y7627772D01*
X-3770376Y7623302D01*
X-3772458Y7618374D01*
X-3773678Y7612888D01*
X-3774135Y7606944D01*
X-3772458Y7594447D01*
X-3767531Y7583322D01*
X-3759657Y7573873D01*
X-3748735Y7566812D01*
X-3735120Y7562443D01*
X-3719271Y7560970D01*
X-3706876Y7561732D01*
X-3695649Y7564018D01*
X-3685540Y7567828D01*
X-3676599Y7573162D01*
X-3669182Y7579817D01*
X-3663696Y7587945D01*
X-3660140Y7597495D01*
X-3658565Y7608468D01*
X-3706317Y7608468D01*
X-3707384Y7603032D01*
X-3709619Y7599121D01*
X-3712972Y7596784D01*
X-3717493Y7596022D01*
X-3719169Y7596124D01*
X-3722217Y7597038D01*
X-3723589Y7597800D01*
X-3724656Y7598816D01*
X-3725468Y7600035D01*
X-3725926Y7601458D01*
X-3726129Y7603134D01*
X-3725773Y7605572D01*
X-3724706Y7607757D01*
X-3722979Y7609738D01*
X-3720541Y7611516D01*
X-3713581Y7614818D01*
X-3696919Y7621016D01*
X-3685489Y7625842D01*
X-3680663Y7628280D01*
X-3676345Y7630820D01*
X-3672332Y7633919D01*
X-3668572Y7637576D01*
X-3665169Y7641742D01*
X-3662273Y7646619D01*
X-3660241Y7652105D01*
X-3659124Y7658150D01*
X-3658819Y7664856D01*
X-3660648Y7677810D01*
X-3666185Y7688732D01*
X-3674618Y7697419D01*
X-3685743Y7703718D01*
X-3699001Y7707528D01*
G37*
G36*
X-3989273Y7708798D02*
G01*
X-4001770Y7708036D01*
X-4012946Y7705750D01*
X-4022750Y7701940D01*
X-4031183Y7696606D01*
X-4037990Y7689850D01*
X-4043019Y7681874D01*
X-4046270Y7672578D01*
X-4047693Y7662062D01*
X-3998925Y7662062D01*
X-3998722Y7664907D01*
X-3998163Y7667345D01*
X-3997198Y7669326D01*
X-3995877Y7670952D01*
X-3994404Y7672070D01*
X-3992727Y7672831D01*
X-3990949Y7673340D01*
X-3987647Y7673390D01*
X-3985361Y7672476D01*
X-3984447Y7671714D01*
X-3983634Y7670596D01*
X-3983075Y7669275D01*
X-3982669Y7666126D01*
X-3982974Y7663840D01*
X-3983990Y7661757D01*
X-3985666Y7659878D01*
X-3988003Y7658252D01*
X-3991051Y7656525D01*
X-3999534Y7652715D01*
X-4011574Y7648092D01*
X-4022851Y7643164D01*
X-4027627Y7640726D01*
X-4031894Y7638186D01*
X-4035856Y7635189D01*
X-4039514Y7631734D01*
X-4042867Y7627772D01*
X-4045712Y7623302D01*
X-4047794Y7618374D01*
X-4049014Y7612888D01*
X-4049471Y7606944D01*
X-4047794Y7594447D01*
X-4042867Y7583322D01*
X-4034993Y7573873D01*
X-4024071Y7566812D01*
X-4010456Y7562443D01*
X-3994607Y7560970D01*
X-3982212Y7561732D01*
X-3970985Y7564018D01*
X-3960876Y7567828D01*
X-3951935Y7573162D01*
X-3944518Y7579817D01*
X-3939032Y7587945D01*
X-3935476Y7597495D01*
X-3933901Y7608468D01*
X-3981653Y7608468D01*
X-3982720Y7603032D01*
X-3984955Y7599121D01*
X-3988308Y7596784D01*
X-3992829Y7596022D01*
X-3994505Y7596124D01*
X-3997553Y7597038D01*
X-3998925Y7597800D01*
X-3999992Y7598816D01*
X-4000804Y7600035D01*
X-4001262Y7601458D01*
X-4001465Y7603134D01*
X-4001109Y7605572D01*
X-4000042Y7607757D01*
X-3998315Y7609738D01*
X-3995877Y7611516D01*
X-3988917Y7614818D01*
X-3972255Y7621016D01*
X-3960825Y7625842D01*
X-3955999Y7628280D01*
X-3951681Y7630820D01*
X-3947668Y7633919D01*
X-3943908Y7637576D01*
X-3940505Y7641742D01*
X-3937609Y7646619D01*
X-3935577Y7652105D01*
X-3934460Y7658150D01*
X-3934155Y7664856D01*
X-3935984Y7677810D01*
X-3941521Y7688732D01*
X-3949954Y7697419D01*
X-3961079Y7703718D01*
X-3974337Y7707528D01*
G37*
G36*
X-4547565Y7708798D02*
G01*
X-4560062Y7708036D01*
X-4571288Y7705750D01*
X-4581144Y7701940D01*
X-4589729Y7696606D01*
X-4596536Y7689850D01*
X-4601514Y7681874D01*
X-4604664Y7672578D01*
X-4605985Y7662062D01*
X-4557471Y7662062D01*
X-4557166Y7664907D01*
X-4556556Y7667345D01*
X-4555642Y7669326D01*
X-4554423Y7670952D01*
X-4552950Y7672070D01*
X-4551273Y7672831D01*
X-4549495Y7673340D01*
X-4546092Y7673390D01*
X-4543704Y7672476D01*
X-4542739Y7671714D01*
X-4541926Y7670596D01*
X-4541367Y7669275D01*
X-4540961Y7666126D01*
X-4541266Y7663840D01*
X-4542282Y7661757D01*
X-4543958Y7659878D01*
X-4546295Y7658252D01*
X-4549343Y7656525D01*
X-4557979Y7652715D01*
X-4569968Y7648092D01*
X-4581144Y7643164D01*
X-4585919Y7640726D01*
X-4590186Y7638186D01*
X-4594199Y7635189D01*
X-4597958Y7631734D01*
X-4601413Y7627772D01*
X-4604156Y7623302D01*
X-4606137Y7618374D01*
X-4607356Y7612888D01*
X-4607763Y7606944D01*
X-4606137Y7594447D01*
X-4601413Y7583322D01*
X-4593336Y7573873D01*
X-4582363Y7566812D01*
X-4568748Y7562443D01*
X-4552899Y7560970D01*
X-4540605Y7561732D01*
X-4529429Y7564018D01*
X-4519422Y7567828D01*
X-4510481Y7573162D01*
X-4503013Y7579817D01*
X-4497527Y7587945D01*
X-4493869Y7597495D01*
X-4492193Y7608468D01*
X-4540199Y7608468D01*
X-4541266Y7603032D01*
X-4543399Y7599121D01*
X-4546701Y7596784D01*
X-4551121Y7596022D01*
X-4552797Y7596124D01*
X-4555845Y7597038D01*
X-4557217Y7597800D01*
X-4558284Y7598816D01*
X-4559096Y7600035D01*
X-4559554Y7601458D01*
X-4559757Y7603134D01*
X-4559401Y7605572D01*
X-4558385Y7607757D01*
X-4556760Y7609738D01*
X-4554423Y7611516D01*
X-4547362Y7614818D01*
X-4530699Y7621016D01*
X-4519269Y7625842D01*
X-4510125Y7630820D01*
X-4506010Y7633919D01*
X-4502251Y7637576D01*
X-4498797Y7641742D01*
X-4496003Y7646619D01*
X-4494072Y7652105D01*
X-4492955Y7658150D01*
X-4492701Y7664856D01*
X-4494479Y7677810D01*
X-4499813Y7688732D01*
X-4508296Y7697419D01*
X-4519625Y7703718D01*
X-4532833Y7707528D01*
G37*
G36*
X-2506675Y7706258D02*
G01*
X-2457145Y7637424D01*
X-2509977Y7562494D01*
X-2456383Y7562494D01*
X-2414473Y7624724D01*
X-2414473Y7562494D01*
X-2369261Y7562494D01*
X-2369261Y7706258D01*
X-2414473Y7706258D01*
X-2414473Y7645806D01*
X-2455621Y7706258D01*
G37*
G36*
X-2567889Y7706258D02*
G01*
X-2567889Y7562494D01*
X-2522677Y7562494D01*
X-2522677Y7706258D01*
G37*
G36*
X-2969717Y7706258D02*
G01*
X-2980639Y7705699D01*
X-2990900Y7703972D01*
X-3000451Y7701127D01*
X-3009341Y7697114D01*
X-3024378Y7686192D01*
X-3035503Y7671714D01*
X-3039465Y7663281D01*
X-3042361Y7654290D01*
X-3044037Y7644739D01*
X-3044647Y7634630D01*
X-2998927Y7634630D01*
X-2996692Y7648346D01*
X-2990037Y7658506D01*
X-2979369Y7664805D01*
X-2965653Y7666888D01*
X-2954985Y7666888D01*
X-2954985Y7602626D01*
X-2965653Y7602626D01*
X-2979369Y7604709D01*
X-2990037Y7611008D01*
X-2996692Y7620965D01*
X-2998927Y7634630D01*
X-3044647Y7634630D01*
X-3044037Y7624724D01*
X-3042361Y7615275D01*
X-3039465Y7606284D01*
X-3035503Y7597800D01*
X-3030423Y7589977D01*
X-3024378Y7583068D01*
X-3017316Y7577023D01*
X-3009341Y7571892D01*
X-3000451Y7567777D01*
X-2990900Y7564831D01*
X-2980639Y7563053D01*
X-2969717Y7562494D01*
X-2909773Y7562494D01*
X-2909773Y7706258D01*
G37*
G36*
X-3127959Y7706258D02*
G01*
X-3144113Y7704734D01*
X-3157677Y7700162D01*
X-3168599Y7692745D01*
X-3176473Y7683144D01*
X-3181045Y7671765D01*
X-3182569Y7659014D01*
X-3182152Y7656220D01*
X-3136849Y7656220D01*
X-3136646Y7658963D01*
X-3135985Y7661351D01*
X-3134969Y7663383D01*
X-3133547Y7665110D01*
X-3131667Y7666532D01*
X-3129483Y7667599D01*
X-3126841Y7668209D01*
X-3123895Y7668412D01*
X-3105861Y7668412D01*
X-3105861Y7644028D01*
X-3123895Y7644028D01*
X-3126841Y7644231D01*
X-3129483Y7644790D01*
X-3131667Y7645755D01*
X-3133547Y7647076D01*
X-3134969Y7648702D01*
X-3135985Y7650734D01*
X-3136646Y7653274D01*
X-3136849Y7656220D01*
X-3182152Y7656220D01*
X-3180537Y7645400D01*
X-3174441Y7633614D01*
X-3164789Y7623962D01*
X-3151581Y7617358D01*
X-3182823Y7562494D01*
X-3133293Y7562494D01*
X-3106115Y7614056D01*
X-3105861Y7614056D01*
X-3105861Y7562494D01*
X-3060903Y7562494D01*
X-3060903Y7706258D01*
G37*
G36*
X-3494989Y7706258D02*
G01*
X-3494989Y7562494D01*
X-3450031Y7562494D01*
X-3402279Y7634630D01*
X-3402279Y7562494D01*
X-3357067Y7562494D01*
X-3357067Y7706258D01*
X-3402279Y7706258D01*
X-3450031Y7632598D01*
X-3450031Y7706258D01*
G37*
G36*
X-3611321Y7706258D02*
G01*
X-3611321Y7670190D01*
X-3560521Y7670190D01*
X-3560521Y7652664D01*
X-3605225Y7652664D01*
X-3605225Y7618628D01*
X-3560521Y7618628D01*
X-3560521Y7598308D01*
X-3611321Y7598308D01*
X-3611321Y7562494D01*
X-3515309Y7562494D01*
X-3515309Y7706258D01*
G37*
G36*
X-3928059Y7706258D02*
G01*
X-3876497Y7605928D01*
X-3876497Y7562494D01*
X-3831285Y7562494D01*
X-3831285Y7605928D01*
X-3779723Y7706258D01*
X-3831285Y7706258D01*
X-3854399Y7655204D01*
X-3877259Y7706258D01*
G37*
G36*
X-4178249Y7706258D02*
G01*
X-4178249Y7670444D01*
X-4140149Y7670444D01*
X-4140149Y7562494D01*
X-4094937Y7562494D01*
X-4094937Y7670444D01*
X-4057091Y7670444D01*
X-4057091Y7706258D01*
G37*
G36*
X-4286453Y7706258D02*
G01*
X-4286453Y7670190D01*
X-4235653Y7670190D01*
X-4235653Y7652664D01*
X-4280357Y7652664D01*
X-4280357Y7618628D01*
X-4235653Y7618628D01*
X-4235653Y7598308D01*
X-4286453Y7598308D01*
X-4286453Y7562494D01*
X-4190441Y7562494D01*
X-4190441Y7706258D01*
G37*
G36*
X-4476445Y7706258D02*
G01*
X-4476445Y7562494D01*
X-4431487Y7562494D01*
X-4431487Y7634122D01*
X-4409389Y7562494D01*
X-4370781Y7562494D01*
X-4348429Y7634122D01*
X-4348429Y7562494D01*
X-4303471Y7562494D01*
X-4303471Y7706258D01*
X-4358589Y7706258D01*
X-4390339Y7619898D01*
X-4421327Y7706258D01*
G37*
G36*
X-2526385Y7257694D02*
G01*
X-2531465Y7257338D01*
X-2536088Y7256373D01*
X-2540254Y7254697D01*
X-2543911Y7252360D01*
X-2546959Y7249363D01*
X-2549296Y7245959D01*
X-2550922Y7242098D01*
X-2551785Y7237882D01*
X-2540609Y7237882D01*
X-2540101Y7240066D01*
X-2539187Y7242149D01*
X-2537815Y7244029D01*
X-2536037Y7245756D01*
X-2533853Y7247178D01*
X-2531313Y7248245D01*
X-2528519Y7248855D01*
X-2525369Y7249058D01*
X-2522321Y7248855D01*
X-2519629Y7248245D01*
X-2517241Y7247178D01*
X-2515209Y7245756D01*
X-2513431Y7244029D01*
X-2512161Y7241997D01*
X-2511399Y7239609D01*
X-2511145Y7236866D01*
X-2511298Y7234783D01*
X-2511704Y7233005D01*
X-2512415Y7231380D01*
X-2513431Y7230008D01*
X-2516124Y7227570D01*
X-2519273Y7225944D01*
X-2535885Y7220661D01*
X-2541371Y7218578D01*
X-2545588Y7216038D01*
X-2547518Y7214362D01*
X-2549245Y7212482D01*
X-2550668Y7210145D01*
X-2551684Y7207402D01*
X-2552344Y7204303D01*
X-2552547Y7200798D01*
X-2552344Y7198055D01*
X-2551785Y7195413D01*
X-2550820Y7192822D01*
X-2549499Y7190384D01*
X-2547772Y7187946D01*
X-2545740Y7185812D01*
X-2543352Y7183881D01*
X-2540609Y7182256D01*
X-2537663Y7180935D01*
X-2534361Y7179970D01*
X-2530805Y7179411D01*
X-2526893Y7179208D01*
X-2523185Y7179360D01*
X-2519680Y7179919D01*
X-2516428Y7180783D01*
X-2510536Y7183424D01*
X-2507996Y7185101D01*
X-2505862Y7187082D01*
X-2504033Y7189368D01*
X-2502458Y7191857D01*
X-2501341Y7194550D01*
X-2500680Y7197445D01*
X-2500477Y7200544D01*
X-2511145Y7200544D01*
X-2511602Y7197852D01*
X-2512517Y7195464D01*
X-2513888Y7193280D01*
X-2515717Y7191400D01*
X-2517851Y7189724D01*
X-2520391Y7188555D01*
X-2523439Y7187793D01*
X-2526893Y7187590D01*
X-2530348Y7187793D01*
X-2533396Y7188555D01*
X-2536088Y7189724D01*
X-2538323Y7191400D01*
X-2540101Y7193280D01*
X-2541371Y7195464D01*
X-2542133Y7197852D01*
X-2542387Y7200544D01*
X-2542235Y7202576D01*
X-2541727Y7204456D01*
X-2540965Y7206132D01*
X-2538628Y7208926D01*
X-2535682Y7210958D01*
X-2531922Y7212482D01*
X-2520442Y7215784D01*
X-2514346Y7217816D01*
X-2509672Y7219950D01*
X-2505760Y7222998D01*
X-2504033Y7224928D01*
X-2502662Y7227265D01*
X-2501747Y7229957D01*
X-2501138Y7232954D01*
X-2500985Y7236358D01*
X-2501138Y7239406D01*
X-2501747Y7242302D01*
X-2502662Y7244994D01*
X-2504033Y7247534D01*
X-2505811Y7249769D01*
X-2507945Y7251801D01*
X-2510383Y7253478D01*
X-2516073Y7256119D01*
X-2519273Y7256983D01*
X-2522677Y7257491D01*
G37*
G36*
X-3333851Y7257694D02*
G01*
X-3339033Y7257338D01*
X-3343757Y7256373D01*
X-3347923Y7254697D01*
X-3351631Y7252360D01*
X-3354679Y7249363D01*
X-3356965Y7245959D01*
X-3358489Y7242098D01*
X-3359251Y7237882D01*
X-3348329Y7237882D01*
X-3347821Y7240066D01*
X-3346907Y7242149D01*
X-3345535Y7244029D01*
X-3343757Y7245756D01*
X-3341522Y7247178D01*
X-3338982Y7248245D01*
X-3336086Y7248855D01*
X-3332835Y7249058D01*
X-3329889Y7248855D01*
X-3327247Y7248245D01*
X-3324809Y7247178D01*
X-3322675Y7245756D01*
X-3320999Y7244029D01*
X-3319779Y7241997D01*
X-3319068Y7239609D01*
X-3318865Y7236866D01*
X-3319018Y7234783D01*
X-3319424Y7233005D01*
X-3320135Y7231380D01*
X-3322370Y7228687D01*
X-3325266Y7226655D01*
X-3333750Y7223759D01*
X-3340252Y7221778D01*
X-3348837Y7218578D01*
X-3353054Y7216038D01*
X-3354984Y7214362D01*
X-3356711Y7212482D01*
X-3358134Y7210145D01*
X-3359150Y7207402D01*
X-3359810Y7204303D01*
X-3360013Y7200798D01*
X-3359810Y7198055D01*
X-3359302Y7195413D01*
X-3358438Y7192822D01*
X-3357219Y7190384D01*
X-3355492Y7187946D01*
X-3353460Y7185812D01*
X-3351072Y7183881D01*
X-3348329Y7182256D01*
X-3345281Y7180935D01*
X-3341979Y7179970D01*
X-3338423Y7179411D01*
X-3334613Y7179208D01*
X-3330905Y7179360D01*
X-3327349Y7179919D01*
X-3324047Y7180783D01*
X-3320897Y7182002D01*
X-3318103Y7183424D01*
X-3315614Y7185101D01*
X-3313429Y7187082D01*
X-3311499Y7189368D01*
X-3310026Y7191857D01*
X-3309010Y7194550D01*
X-3308400Y7197445D01*
X-3308197Y7200544D01*
X-3318865Y7200544D01*
X-3319322Y7197852D01*
X-3320186Y7195464D01*
X-3321456Y7193280D01*
X-3323183Y7191400D01*
X-3325418Y7189724D01*
X-3328060Y7188555D01*
X-3331108Y7187793D01*
X-3334613Y7187590D01*
X-3337966Y7187793D01*
X-3340963Y7188555D01*
X-3343554Y7189724D01*
X-3345789Y7191400D01*
X-3347669Y7193280D01*
X-3348990Y7195464D01*
X-3349802Y7197852D01*
X-3350107Y7200544D01*
X-3349955Y7202576D01*
X-3349447Y7204456D01*
X-3348685Y7206132D01*
X-3347567Y7207656D01*
X-3344875Y7210044D01*
X-3341471Y7211720D01*
X-3337255Y7213244D01*
X-3324961Y7216800D01*
X-3319627Y7218832D01*
X-3317392Y7219950D01*
X-3313480Y7222998D01*
X-3311753Y7224928D01*
X-3310280Y7227265D01*
X-3309264Y7229957D01*
X-3308654Y7232954D01*
X-3308451Y7236358D01*
X-3308654Y7239406D01*
X-3309264Y7242302D01*
X-3310280Y7244994D01*
X-3311753Y7247534D01*
X-3313429Y7249769D01*
X-3315462Y7251801D01*
X-3317900Y7253478D01*
X-3320643Y7254900D01*
X-3323640Y7256119D01*
X-3326841Y7256983D01*
X-3330244Y7257491D01*
G37*
G36*
X-3398621Y7257694D02*
G01*
X-3403701Y7257338D01*
X-3408324Y7256373D01*
X-3412490Y7254697D01*
X-3416147Y7252360D01*
X-3419195Y7249363D01*
X-3421532Y7245959D01*
X-3423158Y7242098D01*
X-3424021Y7237882D01*
X-3412845Y7237882D01*
X-3412337Y7240066D01*
X-3411423Y7242149D01*
X-3410051Y7244029D01*
X-3408273Y7245756D01*
X-3406089Y7247178D01*
X-3403549Y7248245D01*
X-3400755Y7248855D01*
X-3397605Y7249058D01*
X-3394557Y7248855D01*
X-3391814Y7248245D01*
X-3389376Y7247178D01*
X-3387191Y7245756D01*
X-3385515Y7244029D01*
X-3384296Y7241997D01*
X-3383584Y7239609D01*
X-3383381Y7236866D01*
X-3383534Y7234783D01*
X-3383940Y7233005D01*
X-3384651Y7231380D01*
X-3386886Y7228687D01*
X-3389782Y7226655D01*
X-3398265Y7223759D01*
X-3404768Y7221778D01*
X-3410864Y7219594D01*
X-3415639Y7217409D01*
X-3417773Y7216038D01*
X-3421481Y7212482D01*
X-3422904Y7210145D01*
X-3423920Y7207402D01*
X-3424580Y7204303D01*
X-3424783Y7200798D01*
X-3424580Y7198055D01*
X-3424021Y7195413D01*
X-3423056Y7192822D01*
X-3421735Y7190384D01*
X-3420008Y7187946D01*
X-3417976Y7185812D01*
X-3415588Y7183881D01*
X-3412845Y7182256D01*
X-3409797Y7180935D01*
X-3406495Y7179970D01*
X-3402939Y7179411D01*
X-3399129Y7179208D01*
X-3395421Y7179360D01*
X-3391915Y7179919D01*
X-3388664Y7180783D01*
X-3382772Y7183424D01*
X-3380232Y7185101D01*
X-3378098Y7187082D01*
X-3376269Y7189368D01*
X-3374694Y7191857D01*
X-3373577Y7194550D01*
X-3372916Y7197445D01*
X-3372713Y7200544D01*
X-3383381Y7200544D01*
X-3383838Y7197852D01*
X-3384702Y7195464D01*
X-3385972Y7193280D01*
X-3387699Y7191400D01*
X-3389934Y7189724D01*
X-3392576Y7188555D01*
X-3395624Y7187793D01*
X-3399129Y7187590D01*
X-3402482Y7187793D01*
X-3405530Y7188555D01*
X-3408222Y7189724D01*
X-3410559Y7191400D01*
X-3412337Y7193280D01*
X-3413607Y7195464D01*
X-3414369Y7197852D01*
X-3414623Y7200544D01*
X-3414471Y7202576D01*
X-3413963Y7204456D01*
X-3413201Y7206132D01*
X-3412083Y7207656D01*
X-3409391Y7210044D01*
X-3405987Y7211720D01*
X-3401771Y7213244D01*
X-3389477Y7216800D01*
X-3384143Y7218832D01*
X-3381908Y7219950D01*
X-3377996Y7222998D01*
X-3376269Y7224928D01*
X-3374898Y7227265D01*
X-3373983Y7229957D01*
X-3373374Y7232954D01*
X-3373221Y7236358D01*
X-3373374Y7239406D01*
X-3373983Y7242302D01*
X-3374898Y7244994D01*
X-3376269Y7247534D01*
X-3378047Y7249769D01*
X-3380130Y7251801D01*
X-3382518Y7253478D01*
X-3385159Y7254900D01*
X-3388156Y7256119D01*
X-3391408Y7256983D01*
X-3394913Y7257491D01*
G37*
G36*
X-3593693Y7257694D02*
G01*
X-3598773Y7257338D01*
X-3603396Y7256373D01*
X-3607562Y7254697D01*
X-3611219Y7252360D01*
X-3614267Y7249363D01*
X-3616604Y7245959D01*
X-3618229Y7242098D01*
X-3619093Y7237882D01*
X-3608171Y7237882D01*
X-3607562Y7240066D01*
X-3606546Y7242149D01*
X-3605174Y7244029D01*
X-3603345Y7245756D01*
X-3601161Y7247178D01*
X-3598621Y7248245D01*
X-3595827Y7248855D01*
X-3592677Y7249058D01*
X-3589629Y7248855D01*
X-3586937Y7248245D01*
X-3584549Y7247178D01*
X-3582517Y7245756D01*
X-3580739Y7244029D01*
X-3579469Y7241997D01*
X-3578707Y7239609D01*
X-3578453Y7236866D01*
X-3578606Y7234783D01*
X-3579012Y7233005D01*
X-3579723Y7231380D01*
X-3580739Y7230008D01*
X-3583432Y7227570D01*
X-3586581Y7225944D01*
X-3603345Y7220661D01*
X-3608679Y7218578D01*
X-3612896Y7216038D01*
X-3614826Y7214362D01*
X-3616553Y7212482D01*
X-3617976Y7210145D01*
X-3618992Y7207402D01*
X-3619652Y7204303D01*
X-3619855Y7200798D01*
X-3619652Y7198055D01*
X-3619093Y7195413D01*
X-3618128Y7192822D01*
X-3616807Y7190384D01*
X-3615182Y7187946D01*
X-3613251Y7185812D01*
X-3610864Y7183881D01*
X-3608171Y7182256D01*
X-3605072Y7180935D01*
X-3601720Y7179970D01*
X-3598113Y7179411D01*
X-3594201Y7179208D01*
X-3590594Y7179360D01*
X-3587140Y7179919D01*
X-3583838Y7180783D01*
X-3580739Y7182002D01*
X-3577844Y7183424D01*
X-3575304Y7185101D01*
X-3573170Y7187082D01*
X-3571341Y7189368D01*
X-3569868Y7191857D01*
X-3568801Y7194550D01*
X-3568090Y7197445D01*
X-3567785Y7200544D01*
X-3578453Y7200544D01*
X-3578910Y7197852D01*
X-3579825Y7195464D01*
X-3581196Y7193280D01*
X-3583025Y7191400D01*
X-3585159Y7189724D01*
X-3587699Y7188555D01*
X-3590747Y7187793D01*
X-3594201Y7187590D01*
X-3597656Y7187793D01*
X-3600704Y7188555D01*
X-3603396Y7189724D01*
X-3605631Y7191400D01*
X-3607409Y7193280D01*
X-3608679Y7195464D01*
X-3609441Y7197852D01*
X-3609695Y7200544D01*
X-3609543Y7202576D01*
X-3609086Y7204456D01*
X-3608374Y7206132D01*
X-3607409Y7207656D01*
X-3604615Y7210044D01*
X-3601313Y7211720D01*
X-3596894Y7213244D01*
X-3584549Y7216800D01*
X-3579215Y7218832D01*
X-3577031Y7219950D01*
X-3574999Y7221372D01*
X-3573221Y7222998D01*
X-3571595Y7224928D01*
X-3570122Y7227265D01*
X-3569106Y7229957D01*
X-3568496Y7232954D01*
X-3568293Y7236358D01*
X-3568446Y7239406D01*
X-3569055Y7242302D01*
X-3569970Y7244994D01*
X-3571341Y7247534D01*
X-3573119Y7249769D01*
X-3575253Y7251801D01*
X-3577691Y7253478D01*
X-3583381Y7256119D01*
X-3586581Y7256983D01*
X-3589985Y7257491D01*
G37*
G36*
X-3754983Y7257694D02*
G01*
X-3760978Y7257288D01*
X-3766667Y7256170D01*
X-3771900Y7254240D01*
X-3776827Y7251598D01*
X-3781196Y7248245D01*
X-3784955Y7244232D01*
X-3788054Y7239609D01*
X-3790543Y7234326D01*
X-3778351Y7234326D01*
X-3776624Y7237628D01*
X-3774541Y7240524D01*
X-3772052Y7242962D01*
X-3769207Y7244994D01*
X-3766108Y7246670D01*
X-3762705Y7247839D01*
X-3758996Y7248550D01*
X-3754983Y7248804D01*
X-3751021Y7248550D01*
X-3747262Y7247839D01*
X-3743756Y7246670D01*
X-3740505Y7244994D01*
X-3737508Y7243013D01*
X-3734815Y7240625D01*
X-3732529Y7237780D01*
X-3730599Y7234580D01*
X-3728923Y7230973D01*
X-3727704Y7227062D01*
X-3726992Y7222845D01*
X-3726789Y7218324D01*
X-3726992Y7213904D01*
X-3727704Y7209739D01*
X-3728923Y7205878D01*
X-3730599Y7202322D01*
X-3732529Y7199071D01*
X-3734815Y7196226D01*
X-3737508Y7193737D01*
X-3740505Y7191654D01*
X-3743756Y7190079D01*
X-3747262Y7188962D01*
X-3751021Y7188301D01*
X-3754983Y7188098D01*
X-3758996Y7188301D01*
X-3762705Y7188962D01*
X-3766108Y7190079D01*
X-3769207Y7191654D01*
X-3772052Y7193737D01*
X-3774541Y7196226D01*
X-3776624Y7199071D01*
X-3778351Y7202322D01*
X-3790543Y7202322D01*
X-3788054Y7197140D01*
X-3784955Y7192619D01*
X-3781196Y7188657D01*
X-3776827Y7185304D01*
X-3771900Y7182713D01*
X-3766667Y7180935D01*
X-3760978Y7179818D01*
X-3754983Y7179462D01*
X-3749751Y7179767D01*
X-3744722Y7180681D01*
X-3739946Y7182154D01*
X-3735425Y7184288D01*
X-3731310Y7187031D01*
X-3727653Y7190333D01*
X-3724452Y7194042D01*
X-3721709Y7198258D01*
X-3719474Y7202830D01*
X-3717899Y7207707D01*
X-3716934Y7212888D01*
X-3716629Y7218324D01*
X-3716934Y7223759D01*
X-3717899Y7228992D01*
X-3719474Y7233920D01*
X-3721709Y7238644D01*
X-3724452Y7242860D01*
X-3727653Y7246569D01*
X-3731310Y7249820D01*
X-3735425Y7252614D01*
X-3739946Y7254849D01*
X-3744722Y7256424D01*
X-3749751Y7257389D01*
G37*
G36*
X-4335119Y7257694D02*
G01*
X-4340301Y7257338D01*
X-4345025Y7256373D01*
X-4349191Y7254697D01*
X-4352899Y7252360D01*
X-4355947Y7249363D01*
X-4358233Y7245959D01*
X-4359757Y7242098D01*
X-4360519Y7237882D01*
X-4349597Y7237882D01*
X-4349089Y7240066D01*
X-4348175Y7242149D01*
X-4346803Y7244029D01*
X-4345025Y7245756D01*
X-4342790Y7247178D01*
X-4340250Y7248245D01*
X-4337354Y7248855D01*
X-4334103Y7249058D01*
X-4331157Y7248855D01*
X-4328515Y7248245D01*
X-4326077Y7247178D01*
X-4323943Y7245756D01*
X-4322165Y7244029D01*
X-4320895Y7241997D01*
X-4320133Y7239609D01*
X-4319879Y7236866D01*
X-4320032Y7234783D01*
X-4320489Y7233005D01*
X-4321302Y7231380D01*
X-4323638Y7228687D01*
X-4326534Y7226655D01*
X-4330090Y7225284D01*
X-4341520Y7221778D01*
X-4350105Y7218578D01*
X-4354322Y7216038D01*
X-4356252Y7214362D01*
X-4357979Y7212482D01*
X-4359402Y7210145D01*
X-4360418Y7207402D01*
X-4361078Y7204303D01*
X-4361281Y7200798D01*
X-4361078Y7198055D01*
X-4360570Y7195413D01*
X-4359706Y7192822D01*
X-4358487Y7190384D01*
X-4356760Y7187946D01*
X-4354728Y7185812D01*
X-4352340Y7183881D01*
X-4349597Y7182256D01*
X-4346549Y7180935D01*
X-4343247Y7179970D01*
X-4339691Y7179411D01*
X-4335881Y7179208D01*
X-4332173Y7179360D01*
X-4328617Y7179919D01*
X-4325315Y7180783D01*
X-4322165Y7182002D01*
X-4319371Y7183424D01*
X-4316882Y7185101D01*
X-4314698Y7187082D01*
X-4312767Y7189368D01*
X-4311294Y7191857D01*
X-4310227Y7194550D01*
X-4309516Y7197445D01*
X-4309211Y7200544D01*
X-4319879Y7200544D01*
X-4320438Y7197852D01*
X-4321403Y7195464D01*
X-4322724Y7193280D01*
X-4324451Y7191400D01*
X-4326585Y7189724D01*
X-4329176Y7188555D01*
X-4332274Y7187793D01*
X-4335881Y7187590D01*
X-4339234Y7187793D01*
X-4342231Y7188555D01*
X-4344822Y7189724D01*
X-4347057Y7191400D01*
X-4348835Y7193280D01*
X-4350105Y7195464D01*
X-4350867Y7197852D01*
X-4351121Y7200544D01*
X-4350969Y7202576D01*
X-4350512Y7204456D01*
X-4349800Y7206132D01*
X-4348835Y7207656D01*
X-4346041Y7210044D01*
X-4342739Y7211720D01*
X-4338523Y7213244D01*
X-4326229Y7216800D01*
X-4320895Y7218832D01*
X-4318660Y7219950D01*
X-4314748Y7222998D01*
X-4313021Y7224928D01*
X-4311548Y7227265D01*
X-4310532Y7229957D01*
X-4309922Y7232954D01*
X-4309719Y7236358D01*
X-4309922Y7239406D01*
X-4310532Y7242302D01*
X-4311548Y7244994D01*
X-4313021Y7247534D01*
X-4314698Y7249769D01*
X-4316730Y7251801D01*
X-4319168Y7253478D01*
X-4321911Y7254900D01*
X-4324908Y7256119D01*
X-4328109Y7256983D01*
X-4331512Y7257491D01*
G37*
G36*
X-2629001Y7257440D02*
G01*
X-2634894Y7257084D01*
X-2640482Y7255967D01*
X-2645714Y7254138D01*
X-2650591Y7251598D01*
X-2654960Y7248245D01*
X-2658719Y7244232D01*
X-2661818Y7239609D01*
X-2664307Y7234326D01*
X-2652369Y7234326D01*
X-2650642Y7237526D01*
X-2648559Y7240371D01*
X-2646070Y7242759D01*
X-2643225Y7244740D01*
X-2640025Y7246416D01*
X-2636621Y7247585D01*
X-2632913Y7248296D01*
X-2629001Y7248550D01*
X-2625140Y7248296D01*
X-2621432Y7247585D01*
X-2617876Y7246416D01*
X-2614523Y7244740D01*
X-2611475Y7242759D01*
X-2608783Y7240371D01*
X-2606395Y7237526D01*
X-2604363Y7234326D01*
X-2602788Y7230719D01*
X-2601671Y7226909D01*
X-2601010Y7222744D01*
X-2600807Y7218324D01*
X-2601010Y7214006D01*
X-2601671Y7209942D01*
X-2602788Y7206132D01*
X-2604363Y7202576D01*
X-2606395Y7199325D01*
X-2608783Y7196531D01*
X-2611475Y7194143D01*
X-2614523Y7192162D01*
X-2617876Y7190486D01*
X-2621432Y7189317D01*
X-2625140Y7188555D01*
X-2629001Y7188352D01*
X-2634335Y7188758D01*
X-2639212Y7189978D01*
X-2643632Y7192060D01*
X-2647543Y7194956D01*
X-2650794Y7198664D01*
X-2653284Y7202931D01*
X-2655011Y7207808D01*
X-2655925Y7213244D01*
X-2625445Y7213244D01*
X-2625445Y7221372D01*
X-2666593Y7221372D01*
X-2666593Y7213752D01*
X-2665933Y7209028D01*
X-2664714Y7204557D01*
X-2662986Y7200239D01*
X-2660751Y7196226D01*
X-2658008Y7192467D01*
X-2654909Y7189165D01*
X-2651404Y7186269D01*
X-2647543Y7183780D01*
X-2643225Y7181900D01*
X-2638704Y7180529D01*
X-2633980Y7179716D01*
X-2629001Y7179462D01*
X-2623769Y7179767D01*
X-2618841Y7180681D01*
X-2614117Y7182154D01*
X-2609697Y7184288D01*
X-2605481Y7187031D01*
X-2601722Y7190333D01*
X-2598470Y7194042D01*
X-2595727Y7198258D01*
X-2593492Y7202830D01*
X-2591917Y7207707D01*
X-2590952Y7212888D01*
X-2590647Y7218324D01*
X-2590952Y7223759D01*
X-2591917Y7228992D01*
X-2593492Y7233920D01*
X-2595727Y7238644D01*
X-2598470Y7242860D01*
X-2601722Y7246569D01*
X-2605481Y7249820D01*
X-2609697Y7252614D01*
X-2614117Y7254697D01*
X-2618841Y7256221D01*
X-2623769Y7257135D01*
G37*
G36*
X-3116681Y7257440D02*
G01*
X-3121914Y7257135D01*
X-3126892Y7256221D01*
X-3131667Y7254697D01*
X-3136239Y7252614D01*
X-3140303Y7249820D01*
X-3143961Y7246569D01*
X-3147161Y7242860D01*
X-3149955Y7238644D01*
X-3152140Y7234021D01*
X-3153765Y7229094D01*
X-3154680Y7223861D01*
X-3155035Y7218324D01*
X-3144875Y7218324D01*
X-3144621Y7222845D01*
X-3143910Y7227062D01*
X-3142742Y7230973D01*
X-3141065Y7234580D01*
X-3139084Y7237780D01*
X-3136798Y7240625D01*
X-3134156Y7243013D01*
X-3131159Y7244994D01*
X-3127857Y7246670D01*
X-3124352Y7247839D01*
X-3120644Y7248550D01*
X-3116681Y7248804D01*
X-3112719Y7248550D01*
X-3108909Y7247839D01*
X-3105353Y7246670D01*
X-3101949Y7244994D01*
X-3098952Y7243013D01*
X-3096260Y7240625D01*
X-3093974Y7237780D01*
X-3092043Y7234580D01*
X-3090367Y7230973D01*
X-3089148Y7227062D01*
X-3088436Y7222845D01*
X-3088233Y7218324D01*
X-3088436Y7213904D01*
X-3089148Y7209739D01*
X-3090367Y7205878D01*
X-3092043Y7202322D01*
X-3093974Y7199071D01*
X-3096361Y7196226D01*
X-3099054Y7193737D01*
X-3102203Y7191654D01*
X-3105454Y7189978D01*
X-3108960Y7188809D01*
X-3112719Y7188047D01*
X-3116681Y7187844D01*
X-3120542Y7188047D01*
X-3124200Y7188809D01*
X-3127756Y7189978D01*
X-3131159Y7191654D01*
X-3134156Y7193737D01*
X-3136798Y7196226D01*
X-3139084Y7199071D01*
X-3141065Y7202322D01*
X-3142742Y7205878D01*
X-3143910Y7209739D01*
X-3144621Y7213904D01*
X-3144875Y7218324D01*
X-3155035Y7218324D01*
X-3154680Y7212888D01*
X-3153765Y7207707D01*
X-3152140Y7202830D01*
X-3149955Y7198258D01*
X-3147161Y7193940D01*
X-3143961Y7190181D01*
X-3140303Y7186980D01*
X-3136239Y7184288D01*
X-3131667Y7182053D01*
X-3126892Y7180478D01*
X-3121914Y7179513D01*
X-3116681Y7179208D01*
X-3111449Y7179513D01*
X-3106420Y7180478D01*
X-3101644Y7182053D01*
X-3097123Y7184288D01*
X-3092907Y7186980D01*
X-3089148Y7190181D01*
X-3085896Y7193940D01*
X-3083153Y7198258D01*
X-3080918Y7202830D01*
X-3079343Y7207707D01*
X-3078378Y7212888D01*
X-3078073Y7218324D01*
X-3078378Y7223759D01*
X-3079343Y7228992D01*
X-3080918Y7233920D01*
X-3083153Y7238644D01*
X-3085896Y7242860D01*
X-3089148Y7246569D01*
X-3092907Y7249820D01*
X-3097123Y7252614D01*
X-3101644Y7254697D01*
X-3106420Y7256221D01*
X-3111449Y7257135D01*
G37*
G36*
X-3840073Y7257440D02*
G01*
X-3845306Y7257135D01*
X-3850284Y7256221D01*
X-3855059Y7254697D01*
X-3859631Y7252614D01*
X-3863848Y7249820D01*
X-3867556Y7246569D01*
X-3870807Y7242860D01*
X-3873601Y7238644D01*
X-3875786Y7234021D01*
X-3877411Y7229094D01*
X-3878326Y7223861D01*
X-3878681Y7218324D01*
X-3868267Y7218324D01*
X-3868013Y7222845D01*
X-3867353Y7227062D01*
X-3866235Y7230973D01*
X-3864711Y7234580D01*
X-3862628Y7237780D01*
X-3860241Y7240625D01*
X-3857548Y7243013D01*
X-3854551Y7244994D01*
X-3851249Y7246670D01*
X-3847744Y7247839D01*
X-3844036Y7248550D01*
X-3840073Y7248804D01*
X-3836111Y7248550D01*
X-3832351Y7247839D01*
X-3828846Y7246670D01*
X-3825595Y7244994D01*
X-3822547Y7243013D01*
X-3819855Y7240625D01*
X-3817467Y7237780D01*
X-3815435Y7234580D01*
X-3813860Y7230973D01*
X-3812743Y7227062D01*
X-3812082Y7222845D01*
X-3811879Y7218324D01*
X-3812082Y7213904D01*
X-3812743Y7209739D01*
X-3813860Y7205878D01*
X-3815435Y7202322D01*
X-3817467Y7199071D01*
X-3819855Y7196226D01*
X-3822547Y7193737D01*
X-3825595Y7191654D01*
X-3828846Y7189978D01*
X-3832351Y7188809D01*
X-3836111Y7188047D01*
X-3840073Y7187844D01*
X-3844036Y7188047D01*
X-3847744Y7188809D01*
X-3851249Y7189978D01*
X-3854551Y7191654D01*
X-3857548Y7193737D01*
X-3860241Y7196226D01*
X-3862628Y7199071D01*
X-3864711Y7202322D01*
X-3866235Y7205878D01*
X-3867353Y7209739D01*
X-3868013Y7213904D01*
X-3868267Y7218324D01*
X-3878681Y7218324D01*
X-3878326Y7212888D01*
X-3877411Y7207707D01*
X-3875786Y7202830D01*
X-3873601Y7198258D01*
X-3870807Y7193940D01*
X-3867556Y7190181D01*
X-3863848Y7186980D01*
X-3859631Y7184288D01*
X-3855059Y7182053D01*
X-3850284Y7180478D01*
X-3845306Y7179513D01*
X-3840073Y7179208D01*
X-3834841Y7179513D01*
X-3829812Y7180478D01*
X-3825036Y7182053D01*
X-3820515Y7184288D01*
X-3816400Y7186980D01*
X-3812692Y7190181D01*
X-3809390Y7193940D01*
X-3806545Y7198258D01*
X-3804310Y7202830D01*
X-3802735Y7207707D01*
X-3801770Y7212888D01*
X-3801465Y7218324D01*
X-3801770Y7223759D01*
X-3802735Y7228992D01*
X-3804310Y7233920D01*
X-3806545Y7238644D01*
X-3809390Y7242860D01*
X-3812692Y7246569D01*
X-3816400Y7249820D01*
X-3820515Y7252614D01*
X-3825036Y7254697D01*
X-3829812Y7256221D01*
X-3834841Y7257135D01*
G37*
G36*
X-4003903Y7257440D02*
G01*
X-4009136Y7257135D01*
X-4014114Y7256221D01*
X-4018889Y7254697D01*
X-4023461Y7252614D01*
X-4027627Y7249820D01*
X-4031335Y7246569D01*
X-4034485Y7242860D01*
X-4037177Y7238644D01*
X-4039362Y7234021D01*
X-4040987Y7229094D01*
X-4041901Y7223861D01*
X-4042257Y7218324D01*
X-4032097Y7218324D01*
X-4031843Y7222845D01*
X-4031183Y7227062D01*
X-4030065Y7230973D01*
X-4028541Y7234580D01*
X-4026458Y7237780D01*
X-4024071Y7240625D01*
X-4021378Y7243013D01*
X-4018381Y7244994D01*
X-4015079Y7246670D01*
X-4011574Y7247839D01*
X-4007865Y7248550D01*
X-4003903Y7248804D01*
X-3999941Y7248550D01*
X-3996182Y7247839D01*
X-3992676Y7246670D01*
X-3989425Y7244994D01*
X-3986276Y7243013D01*
X-3983583Y7240625D01*
X-3981196Y7237780D01*
X-3979265Y7234580D01*
X-3977589Y7230973D01*
X-3976370Y7227062D01*
X-3975658Y7222845D01*
X-3975455Y7218324D01*
X-3975658Y7213904D01*
X-3976370Y7209739D01*
X-3977589Y7205878D01*
X-3979265Y7202322D01*
X-3981196Y7199071D01*
X-3983583Y7196226D01*
X-3986276Y7193737D01*
X-3989425Y7191654D01*
X-3992676Y7189978D01*
X-3996182Y7188809D01*
X-3999941Y7188047D01*
X-4003903Y7187844D01*
X-4007764Y7188047D01*
X-4011422Y7188809D01*
X-4014978Y7189978D01*
X-4018381Y7191654D01*
X-4021378Y7193737D01*
X-4024071Y7196226D01*
X-4026458Y7199071D01*
X-4028541Y7202322D01*
X-4030065Y7205878D01*
X-4031183Y7209739D01*
X-4031843Y7213904D01*
X-4032097Y7218324D01*
X-4042257Y7218324D01*
X-4041901Y7212888D01*
X-4040987Y7207707D01*
X-4039362Y7202830D01*
X-4037177Y7198258D01*
X-4034485Y7193940D01*
X-4031335Y7190181D01*
X-4027627Y7186980D01*
X-4023461Y7184288D01*
X-4018889Y7182053D01*
X-4014114Y7180478D01*
X-4009136Y7179513D01*
X-4003903Y7179208D01*
X-3998671Y7179513D01*
X-3993642Y7180478D01*
X-3988866Y7182053D01*
X-3984345Y7184288D01*
X-3980129Y7186980D01*
X-3976370Y7190181D01*
X-3973118Y7193940D01*
X-3970375Y7198258D01*
X-3968140Y7202830D01*
X-3966565Y7207707D01*
X-3965600Y7212888D01*
X-3965295Y7218324D01*
X-3965600Y7223759D01*
X-3966565Y7228992D01*
X-3968140Y7233920D01*
X-3970375Y7238644D01*
X-3973118Y7242860D01*
X-3976370Y7246569D01*
X-3980129Y7249820D01*
X-3984345Y7252614D01*
X-3988866Y7254697D01*
X-3993642Y7256221D01*
X-3998671Y7257135D01*
G37*
G36*
X-2392273Y7256678D02*
G01*
X-2398369Y7256373D01*
X-2404059Y7255509D01*
X-2409291Y7254087D01*
X-2414117Y7252106D01*
X-2418384Y7249464D01*
X-2422144Y7246315D01*
X-2425395Y7242708D01*
X-2428087Y7238644D01*
X-2430272Y7234123D01*
X-2431897Y7229195D01*
X-2432812Y7223810D01*
X-2433167Y7218070D01*
X-2422753Y7218070D01*
X-2420772Y7230872D01*
X-2414879Y7240422D01*
X-2405278Y7246518D01*
X-2392273Y7248550D01*
X-2378557Y7248550D01*
X-2378557Y7188352D01*
X-2392273Y7188352D01*
X-2405380Y7190333D01*
X-2414879Y7196226D01*
X-2418334Y7200544D01*
X-2420772Y7205624D01*
X-2422245Y7211466D01*
X-2422753Y7218070D01*
X-2433167Y7218070D01*
X-2432812Y7212431D01*
X-2431897Y7207148D01*
X-2430272Y7202271D01*
X-2428087Y7197750D01*
X-2425395Y7193686D01*
X-2422144Y7190130D01*
X-2418384Y7187082D01*
X-2414117Y7184542D01*
X-2409291Y7182510D01*
X-2404059Y7181088D01*
X-2398369Y7180224D01*
X-2392273Y7179970D01*
X-2368397Y7179970D01*
X-2368397Y7256678D01*
G37*
G36*
X-2487523Y7256678D02*
G01*
X-2487523Y7248550D01*
X-2456281Y7248550D01*
X-2456281Y7222896D01*
X-2484221Y7222896D01*
X-2484221Y7214768D01*
X-2456281Y7214768D01*
X-2456281Y7188352D01*
X-2487523Y7188352D01*
X-2487523Y7179970D01*
X-2446121Y7179970D01*
X-2446121Y7256678D01*
G37*
G36*
X-2577185Y7256678D02*
G01*
X-2577185Y7179970D01*
X-2567279Y7179970D01*
X-2567279Y7256678D01*
G37*
G36*
X-2740253Y7256678D02*
G01*
X-2740253Y7179970D01*
X-2730093Y7179970D01*
X-2689961Y7240930D01*
X-2689961Y7179970D01*
X-2679801Y7179970D01*
X-2679801Y7256678D01*
X-2689961Y7256678D01*
X-2730093Y7195718D01*
X-2730093Y7256678D01*
G37*
G36*
X-2798419Y7256678D02*
G01*
X-2798419Y7248550D01*
X-2767177Y7248550D01*
X-2767177Y7222896D01*
X-2795117Y7222896D01*
X-2795117Y7214768D01*
X-2767177Y7214768D01*
X-2767177Y7188352D01*
X-2798419Y7188352D01*
X-2798419Y7179970D01*
X-2757271Y7179970D01*
X-2757271Y7256678D01*
G37*
G36*
X-2837535Y7256678D02*
G01*
X-2843530Y7256373D01*
X-2849118Y7255509D01*
X-2854350Y7254087D01*
X-2859125Y7252106D01*
X-2863545Y7249464D01*
X-2867355Y7246315D01*
X-2870657Y7242708D01*
X-2873349Y7238644D01*
X-2875432Y7234123D01*
X-2876956Y7229195D01*
X-2877870Y7223810D01*
X-2878175Y7218070D01*
X-2868015Y7218070D01*
X-2866034Y7230872D01*
X-2860141Y7240422D01*
X-2850540Y7246518D01*
X-2837535Y7248550D01*
X-2823565Y7248550D01*
X-2823565Y7188352D01*
X-2837535Y7188352D01*
X-2850540Y7190333D01*
X-2860141Y7196226D01*
X-2863596Y7200544D01*
X-2866034Y7205624D01*
X-2867507Y7211466D01*
X-2868015Y7218070D01*
X-2878175Y7218070D01*
X-2877870Y7212431D01*
X-2876956Y7207148D01*
X-2875432Y7202271D01*
X-2873349Y7197750D01*
X-2870657Y7193686D01*
X-2867355Y7190130D01*
X-2863545Y7187082D01*
X-2859125Y7184542D01*
X-2854350Y7182510D01*
X-2849118Y7181088D01*
X-2843530Y7180224D01*
X-2837535Y7179970D01*
X-2813659Y7179970D01*
X-2813659Y7256678D01*
G37*
G36*
X-2948279Y7256678D02*
G01*
X-2952038Y7256525D01*
X-2955493Y7256018D01*
X-2958642Y7255256D01*
X-2961487Y7254138D01*
X-2964078Y7252716D01*
X-2966364Y7251090D01*
X-2968294Y7249159D01*
X-2969869Y7247026D01*
X-2971088Y7244791D01*
X-2971952Y7242403D01*
X-2972460Y7239812D01*
X-2972585Y7236104D01*
X-2962249Y7236104D01*
X-2961995Y7238847D01*
X-2961284Y7241235D01*
X-2960116Y7243267D01*
X-2958439Y7244994D01*
X-2956306Y7246416D01*
X-2953766Y7247483D01*
X-2950870Y7248093D01*
X-2947517Y7248296D01*
X-2930753Y7248296D01*
X-2930753Y7223658D01*
X-2947517Y7223658D01*
X-2950870Y7223861D01*
X-2953766Y7224471D01*
X-2956306Y7225487D01*
X-2958439Y7226960D01*
X-2960116Y7228738D01*
X-2961284Y7230872D01*
X-2961995Y7233310D01*
X-2962249Y7236104D01*
X-2972585Y7236104D01*
X-2972409Y7233818D01*
X-2971698Y7230872D01*
X-2970530Y7228230D01*
X-2968853Y7225944D01*
X-2966923Y7223810D01*
X-2964637Y7222083D01*
X-2962097Y7220661D01*
X-2959201Y7219594D01*
X-2961182Y7219086D01*
X-2964992Y7217308D01*
X-2968498Y7214565D01*
X-2971292Y7211110D01*
X-2972409Y7209180D01*
X-2973933Y7204964D01*
X-2974372Y7201560D01*
X-2964281Y7201560D01*
X-2963976Y7204557D01*
X-2963164Y7207250D01*
X-2961843Y7209637D01*
X-2959963Y7211720D01*
X-2957576Y7213244D01*
X-2954883Y7214362D01*
X-2951734Y7215022D01*
X-2948279Y7215276D01*
X-2930753Y7215276D01*
X-2930753Y7188352D01*
X-2948533Y7188352D01*
X-2951988Y7188555D01*
X-2955137Y7189165D01*
X-2957830Y7190181D01*
X-2960217Y7191654D01*
X-2961995Y7193584D01*
X-2963265Y7195921D01*
X-2964027Y7198563D01*
X-2964281Y7201560D01*
X-2974372Y7201560D01*
X-2974238Y7197699D01*
X-2973679Y7195007D01*
X-2972714Y7192467D01*
X-2971393Y7190130D01*
X-2969717Y7187844D01*
X-2967685Y7185863D01*
X-2965399Y7184186D01*
X-2962757Y7182764D01*
X-2959811Y7181545D01*
X-2956560Y7180681D01*
X-2953054Y7180122D01*
X-2949295Y7179970D01*
X-2920847Y7179970D01*
X-2920847Y7256678D01*
G37*
G36*
X-3042005Y7256678D02*
G01*
X-3016859Y7208926D01*
X-3016859Y7179970D01*
X-3006953Y7179970D01*
X-3006953Y7208926D01*
X-2981807Y7256678D01*
X-2992983Y7256678D01*
X-3011779Y7217816D01*
X-3030829Y7256678D01*
G37*
G36*
X-3192119Y7256678D02*
G01*
X-3198215Y7256373D01*
X-3203905Y7255509D01*
X-3209137Y7254087D01*
X-3213963Y7252106D01*
X-3218230Y7249464D01*
X-3221990Y7246315D01*
X-3225241Y7242708D01*
X-3227933Y7238644D01*
X-3230016Y7234123D01*
X-3231540Y7229195D01*
X-3232454Y7223810D01*
X-3232759Y7218070D01*
X-3222599Y7218070D01*
X-3220618Y7230872D01*
X-3214725Y7240422D01*
X-3205124Y7246518D01*
X-3192119Y7248550D01*
X-3178403Y7248550D01*
X-3178403Y7188352D01*
X-3192119Y7188352D01*
X-3205226Y7190333D01*
X-3214725Y7196226D01*
X-3218180Y7200544D01*
X-3220618Y7205624D01*
X-3222091Y7211466D01*
X-3222599Y7218070D01*
X-3232759Y7218070D01*
X-3232454Y7212431D01*
X-3231540Y7207148D01*
X-3230016Y7202271D01*
X-3227933Y7197750D01*
X-3225241Y7193686D01*
X-3221990Y7190130D01*
X-3218230Y7187082D01*
X-3213963Y7184542D01*
X-3209137Y7182510D01*
X-3203905Y7181088D01*
X-3198215Y7180224D01*
X-3192119Y7179970D01*
X-3168243Y7179970D01*
X-3168243Y7256678D01*
G37*
G36*
X-3299815Y7256678D02*
G01*
X-3274669Y7208926D01*
X-3274669Y7179970D01*
X-3264763Y7179970D01*
X-3264763Y7208926D01*
X-3239617Y7256678D01*
X-3250793Y7256678D01*
X-3269589Y7217816D01*
X-3288639Y7256678D01*
G37*
G36*
X-3480663Y7256678D02*
G01*
X-3480663Y7248550D01*
X-3449421Y7248550D01*
X-3449421Y7222896D01*
X-3477361Y7222896D01*
X-3477361Y7214768D01*
X-3449421Y7214768D01*
X-3449421Y7188352D01*
X-3480663Y7188352D01*
X-3480663Y7179970D01*
X-3439515Y7179970D01*
X-3439515Y7256678D01*
G37*
G36*
X-3705199Y7256678D02*
G01*
X-3705199Y7248550D01*
X-3673957Y7248550D01*
X-3673957Y7222896D01*
X-3701897Y7222896D01*
X-3701897Y7214768D01*
X-3673957Y7214768D01*
X-3673957Y7188352D01*
X-3705199Y7188352D01*
X-3705199Y7179970D01*
X-3664051Y7179970D01*
X-3664051Y7256678D01*
G37*
G36*
X-3952087Y7256678D02*
G01*
X-3952087Y7179970D01*
X-3941927Y7179970D01*
X-3901795Y7240930D01*
X-3901795Y7179970D01*
X-3891635Y7179970D01*
X-3891635Y7256678D01*
X-3901795Y7256678D01*
X-3941927Y7195718D01*
X-3941927Y7256678D01*
G37*
G36*
X-4160367Y7256678D02*
G01*
X-4160367Y7179970D01*
X-4150207Y7179970D01*
X-4150207Y7256678D01*
G37*
G36*
X-4201261Y7256678D02*
G01*
X-4207256Y7256373D01*
X-4212844Y7255509D01*
X-4218076Y7254087D01*
X-4222851Y7252106D01*
X-4227169Y7249464D01*
X-4230979Y7246315D01*
X-4234281Y7242708D01*
X-4237075Y7238644D01*
X-4239158Y7234123D01*
X-4240682Y7229195D01*
X-4241596Y7223810D01*
X-4241901Y7218070D01*
X-4231741Y7218070D01*
X-4229760Y7230872D01*
X-4223867Y7240422D01*
X-4214266Y7246518D01*
X-4201261Y7248550D01*
X-4187291Y7248550D01*
X-4187291Y7188352D01*
X-4201261Y7188352D01*
X-4214266Y7190333D01*
X-4223867Y7196226D01*
X-4227322Y7200544D01*
X-4229760Y7205624D01*
X-4231233Y7211466D01*
X-4231741Y7218070D01*
X-4241901Y7218070D01*
X-4241596Y7212431D01*
X-4240682Y7207148D01*
X-4239158Y7202271D01*
X-4237075Y7197750D01*
X-4234281Y7193686D01*
X-4230979Y7190130D01*
X-4227169Y7187082D01*
X-4222851Y7184542D01*
X-4218076Y7182510D01*
X-4212844Y7181088D01*
X-4207256Y7180224D01*
X-4201261Y7179970D01*
X-4177385Y7179970D01*
X-4177385Y7256678D01*
G37*
G36*
X-4296257Y7256678D02*
G01*
X-4296257Y7248550D01*
X-4265015Y7248550D01*
X-4265015Y7222896D01*
X-4292955Y7222896D01*
X-4292955Y7214768D01*
X-4265015Y7214768D01*
X-4265015Y7188352D01*
X-4296257Y7188352D01*
X-4296257Y7179970D01*
X-4255109Y7179970D01*
X-4255109Y7256678D01*
G37*
G36*
X-3530193Y7256170D02*
G01*
X-3548743Y7205116D01*
X-3538321Y7205116D01*
X-3524351Y7243978D01*
X-3510635Y7205116D01*
X-3548743Y7205116D01*
X-3557879Y7179970D01*
X-3547465Y7179970D01*
X-3541115Y7196988D01*
X-3507841Y7196988D01*
X-3501491Y7179970D01*
X-3491077Y7179970D01*
X-3518763Y7256170D01*
G37*
G36*
X-4133189Y7256170D02*
G01*
X-4133189Y7179970D01*
X-4123283Y7179970D01*
X-4123283Y7236866D01*
X-4097883Y7179970D01*
X-4091025Y7179970D01*
X-4065625Y7236866D01*
X-4065625Y7179970D01*
X-4055465Y7179970D01*
X-4055465Y7256170D01*
X-4066387Y7256170D01*
X-4094581Y7193178D01*
X-4122521Y7256170D01*
G37*
G36*
X-3283712Y7477506D02*
G01*
X-3297478Y7475626D01*
X-3309874Y7469886D01*
X-3320287Y7460538D01*
X-3328162Y7447788D01*
X-3333292Y7431989D01*
X-3335020Y7412990D01*
X-3316986Y7412990D01*
X-3315919Y7427722D01*
X-3312668Y7439914D01*
X-3310432Y7444892D01*
X-3307740Y7449261D01*
X-3304590Y7452918D01*
X-3300984Y7455916D01*
X-3297123Y7458354D01*
X-3292957Y7460132D01*
X-3288487Y7461148D01*
X-3283712Y7461503D01*
X-3278886Y7461148D01*
X-3274364Y7460081D01*
X-3270148Y7458354D01*
X-3266186Y7455916D01*
X-3262579Y7452918D01*
X-3259429Y7449261D01*
X-3256737Y7444892D01*
X-3254502Y7439914D01*
X-3251250Y7427722D01*
X-3250184Y7412990D01*
X-3251250Y7398258D01*
X-3254502Y7386066D01*
X-3256737Y7381087D01*
X-3259429Y7376718D01*
X-3262579Y7373061D01*
X-3266186Y7370064D01*
X-3270148Y7367625D01*
X-3274364Y7365898D01*
X-3278886Y7364831D01*
X-3283712Y7364475D01*
X-3288487Y7364831D01*
X-3293008Y7365847D01*
X-3297123Y7367625D01*
X-3300984Y7370064D01*
X-3304590Y7373061D01*
X-3307689Y7376718D01*
X-3310432Y7381087D01*
X-3312668Y7386066D01*
X-3315919Y7398258D01*
X-3316986Y7412990D01*
X-3335020Y7412990D01*
X-3333292Y7393940D01*
X-3328162Y7377938D01*
X-3320287Y7365339D01*
X-3309874Y7356094D01*
X-3297478Y7350353D01*
X-3283712Y7348474D01*
X-3269742Y7350404D01*
X-3257296Y7356094D01*
X-3246882Y7365339D01*
X-3239008Y7377938D01*
X-3233877Y7393940D01*
X-3232150Y7412990D01*
X-3233877Y7431989D01*
X-3239008Y7447788D01*
X-3246882Y7460538D01*
X-3257296Y7469886D01*
X-3269742Y7475575D01*
G37*
G36*
X-2425446Y7475981D02*
G01*
X-2444750Y7473797D01*
X-2458974Y7467346D01*
X-2467762Y7456931D01*
X-2470658Y7443470D01*
X-2470518Y7441184D01*
X-2452624Y7441184D01*
X-2452166Y7445959D01*
X-2450744Y7450074D01*
X-2448356Y7453579D01*
X-2445004Y7456424D01*
X-2440838Y7458659D01*
X-2435860Y7460234D01*
X-2430170Y7461199D01*
X-2423668Y7461503D01*
X-2386838Y7461503D01*
X-2386838Y7421118D01*
X-2423668Y7421118D01*
X-2430170Y7421422D01*
X-2435860Y7422388D01*
X-2440838Y7423962D01*
X-2445004Y7426198D01*
X-2448356Y7429042D01*
X-2450744Y7432497D01*
X-2452166Y7436510D01*
X-2452624Y7441184D01*
X-2470518Y7441184D01*
X-2470353Y7438491D01*
X-2469489Y7433970D01*
X-2468067Y7429855D01*
X-2466086Y7426198D01*
X-2463596Y7422845D01*
X-2460701Y7419898D01*
X-2457348Y7417409D01*
X-2453589Y7415275D01*
X-2459228Y7413244D01*
X-2463190Y7411110D01*
X-2466746Y7408570D01*
X-2469794Y7405522D01*
X-2472436Y7402068D01*
X-2474569Y7398156D01*
X-2476042Y7393889D01*
X-2476957Y7389164D01*
X-2477171Y7385558D01*
X-2458974Y7385558D01*
X-2458466Y7390638D01*
X-2456992Y7395006D01*
X-2454554Y7398664D01*
X-2451100Y7401559D01*
X-2446731Y7403693D01*
X-2441448Y7405166D01*
X-2435301Y7406081D01*
X-2428240Y7406386D01*
X-2386838Y7406386D01*
X-2386838Y7364475D01*
X-2428240Y7364475D01*
X-2435301Y7364780D01*
X-2441448Y7365746D01*
X-2446731Y7367320D01*
X-2451100Y7369556D01*
X-2454554Y7372451D01*
X-2456992Y7376109D01*
X-2458466Y7380478D01*
X-2458974Y7385558D01*
X-2477171Y7385558D01*
X-2477262Y7384034D01*
X-2474214Y7369606D01*
X-2465070Y7358888D01*
X-2458262Y7354976D01*
X-2449931Y7352233D01*
X-2440228Y7350556D01*
X-2429002Y7349998D01*
X-2368804Y7349998D01*
X-2368804Y7475981D01*
G37*
G36*
X-2630678Y7475981D02*
G01*
X-2630678Y7365746D01*
X-2699004Y7365746D01*
X-2699004Y7349998D01*
X-2612898Y7349998D01*
X-2612898Y7475981D01*
G37*
G36*
X-2881884Y7475981D02*
G01*
X-2897174Y7474661D01*
X-2910078Y7470648D01*
X-2915564Y7467803D01*
X-2920441Y7464348D01*
X-2924606Y7460335D01*
X-2928112Y7455662D01*
X-2932887Y7444790D01*
X-2934462Y7432040D01*
X-2916428Y7432040D01*
X-2915869Y7438390D01*
X-2914192Y7443978D01*
X-2911449Y7448803D01*
X-2907538Y7452868D01*
X-2896565Y7458405D01*
X-2881376Y7460234D01*
X-2850642Y7460234D01*
X-2850642Y7403592D01*
X-2881376Y7403592D01*
X-2896565Y7405420D01*
X-2907538Y7410958D01*
X-2911449Y7415123D01*
X-2914192Y7420051D01*
X-2915869Y7425690D01*
X-2916428Y7432040D01*
X-2934462Y7432040D01*
X-2934055Y7425436D01*
X-2932887Y7419340D01*
X-2930906Y7413752D01*
X-2928112Y7408672D01*
X-2924606Y7403998D01*
X-2920441Y7399934D01*
X-2915564Y7396378D01*
X-2910078Y7393431D01*
X-2906572Y7392416D01*
X-2936494Y7349998D01*
X-2916936Y7349998D01*
X-2889656Y7389012D01*
X-2881884Y7388352D01*
X-2850642Y7388352D01*
X-2850642Y7349998D01*
X-2832862Y7349998D01*
X-2832862Y7475981D01*
G37*
G36*
X-3228086Y7475981D02*
G01*
X-3172968Y7349998D01*
X-3155188Y7349998D01*
X-3099562Y7475981D01*
X-3119120Y7475981D01*
X-3164586Y7372350D01*
X-3210306Y7475981D01*
G37*
G36*
X-3480308Y7475981D02*
G01*
X-3480308Y7463790D01*
X-3429508Y7349998D01*
X-3410458Y7349998D01*
X-3460140Y7460234D01*
X-3402584Y7460234D01*
X-3402584Y7437881D01*
X-3385312Y7437881D01*
X-3385312Y7475981D01*
G37*
G36*
X-2537460Y7446264D02*
G01*
X-2554782Y7443876D01*
X-2567686Y7436612D01*
X-2575509Y7424674D01*
X-2578100Y7407656D01*
X-2578100Y7392416D01*
X-2534412Y7392416D01*
X-2528468Y7392162D01*
X-2523540Y7391349D01*
X-2519680Y7389977D01*
X-2516886Y7388098D01*
X-2514904Y7385812D01*
X-2513431Y7383322D01*
X-2512618Y7380630D01*
X-2512314Y7377684D01*
X-2512669Y7374331D01*
X-2513736Y7371334D01*
X-2515463Y7368743D01*
X-2517902Y7366508D01*
X-2520950Y7364628D01*
X-2524556Y7363256D01*
X-2528722Y7362444D01*
X-2533396Y7362190D01*
X-2538069Y7362444D01*
X-2542489Y7363256D01*
X-2546604Y7364628D01*
X-2550414Y7366508D01*
X-2553817Y7368895D01*
X-2556713Y7371842D01*
X-2559050Y7375245D01*
X-2560828Y7379208D01*
X-2560828Y7392416D01*
X-2578100Y7392416D01*
X-2578100Y7349998D01*
X-2561844Y7349998D01*
X-2561844Y7362698D01*
X-2559558Y7359700D01*
X-2556205Y7356551D01*
X-2552192Y7353808D01*
X-2547620Y7351674D01*
X-2542489Y7350201D01*
X-2536799Y7349286D01*
X-2530602Y7348981D01*
X-2525420Y7349185D01*
X-2520543Y7349845D01*
X-2516022Y7350963D01*
X-2511806Y7352538D01*
X-2508097Y7354468D01*
X-2504795Y7356805D01*
X-2502001Y7359446D01*
X-2499614Y7362444D01*
X-2497734Y7365746D01*
X-2496362Y7369251D01*
X-2495550Y7372959D01*
X-2495296Y7376922D01*
X-2495499Y7380731D01*
X-2496159Y7384338D01*
X-2497277Y7387742D01*
X-2498852Y7390892D01*
X-2501036Y7393889D01*
X-2503830Y7396581D01*
X-2507132Y7398969D01*
X-2511044Y7401052D01*
X-2515616Y7402728D01*
X-2520899Y7403896D01*
X-2526893Y7404608D01*
X-2533650Y7404862D01*
X-2560828Y7404862D01*
X-2560828Y7408418D01*
X-2560421Y7413548D01*
X-2559253Y7418070D01*
X-2557272Y7421930D01*
X-2554478Y7425181D01*
X-2550922Y7427823D01*
X-2546553Y7429753D01*
X-2541371Y7430922D01*
X-2535428Y7431278D01*
X-2531262Y7431125D01*
X-2527096Y7430566D01*
X-2522982Y7429703D01*
X-2518918Y7428484D01*
X-2515006Y7426959D01*
X-2511399Y7425232D01*
X-2508148Y7423302D01*
X-2505202Y7421118D01*
X-2497836Y7434072D01*
X-2501696Y7436815D01*
X-2505964Y7439304D01*
X-2510586Y7441387D01*
X-2515616Y7443216D01*
X-2520899Y7444536D01*
X-2526284Y7445502D01*
X-2531821Y7446060D01*
G37*
G36*
X-2756662Y7446264D02*
G01*
X-2770174Y7444740D01*
X-2782316Y7440168D01*
X-2792272Y7432700D01*
X-2799842Y7422896D01*
X-2804617Y7411161D01*
X-2806192Y7397750D01*
X-2788920Y7397750D01*
X-2788666Y7402677D01*
X-2787853Y7407198D01*
X-2786481Y7411415D01*
X-2784602Y7415275D01*
X-2782366Y7418882D01*
X-2779725Y7421981D01*
X-2776626Y7424724D01*
X-2773172Y7426959D01*
X-2769463Y7428839D01*
X-2765501Y7430211D01*
X-2761234Y7431024D01*
X-2756662Y7431278D01*
X-2752242Y7431024D01*
X-2748026Y7430211D01*
X-2744063Y7428839D01*
X-2740406Y7426959D01*
X-2737002Y7424724D01*
X-2734005Y7421981D01*
X-2731312Y7418882D01*
X-2728976Y7415275D01*
X-2727096Y7411415D01*
X-2725724Y7407198D01*
X-2724912Y7402677D01*
X-2724658Y7397750D01*
X-2724912Y7392822D01*
X-2725724Y7388250D01*
X-2727096Y7383932D01*
X-2728976Y7379970D01*
X-2731312Y7376363D01*
X-2734005Y7373162D01*
X-2737002Y7370419D01*
X-2740406Y7368031D01*
X-2744063Y7366253D01*
X-2748026Y7364984D01*
X-2752242Y7364222D01*
X-2756662Y7363968D01*
X-2761234Y7364222D01*
X-2765501Y7364984D01*
X-2769463Y7366253D01*
X-2773172Y7368031D01*
X-2776626Y7370419D01*
X-2779725Y7373162D01*
X-2782366Y7376363D01*
X-2784602Y7379970D01*
X-2786481Y7383932D01*
X-2787853Y7388250D01*
X-2788666Y7392822D01*
X-2788920Y7397750D01*
X-2806192Y7397750D01*
X-2804617Y7384288D01*
X-2799842Y7372350D01*
X-2792272Y7362545D01*
X-2782316Y7355078D01*
X-2770174Y7350506D01*
X-2756662Y7348981D01*
X-2743200Y7350506D01*
X-2731262Y7355078D01*
X-2721254Y7362647D01*
X-2713482Y7372603D01*
X-2708706Y7384338D01*
X-2707132Y7397750D01*
X-2708706Y7411161D01*
X-2713482Y7422896D01*
X-2721254Y7432700D01*
X-2731262Y7440168D01*
X-2743200Y7444740D01*
G37*
G36*
X-2994914Y7446264D02*
G01*
X-3012236Y7443876D01*
X-3025140Y7436612D01*
X-3033115Y7424674D01*
X-3035808Y7407656D01*
X-3035808Y7392416D01*
X-2991866Y7392416D01*
X-2985922Y7392162D01*
X-2980994Y7391349D01*
X-2977134Y7389977D01*
X-2974340Y7388098D01*
X-2972460Y7385812D01*
X-2971088Y7383322D01*
X-2970276Y7380630D01*
X-2970022Y7377684D01*
X-2970377Y7374331D01*
X-2971342Y7371334D01*
X-2973019Y7368743D01*
X-2975356Y7366508D01*
X-2978404Y7364628D01*
X-2982010Y7363256D01*
X-2986176Y7362444D01*
X-2990850Y7362190D01*
X-2995625Y7362444D01*
X-3000044Y7363256D01*
X-3004159Y7364628D01*
X-3007868Y7366508D01*
X-3011322Y7368895D01*
X-3014218Y7371842D01*
X-3016605Y7375245D01*
X-3018536Y7379208D01*
X-3018536Y7392416D01*
X-3035808Y7392416D01*
X-3035808Y7349998D01*
X-3019298Y7349998D01*
X-3019298Y7362545D01*
X-3017215Y7359700D01*
X-3013862Y7356551D01*
X-3009900Y7353808D01*
X-3005277Y7351674D01*
X-3000095Y7350201D01*
X-2994355Y7349286D01*
X-2988056Y7348981D01*
X-2982874Y7349185D01*
X-2978099Y7349845D01*
X-2973628Y7350963D01*
X-2969514Y7352538D01*
X-2965704Y7354468D01*
X-2962351Y7356805D01*
X-2959455Y7359446D01*
X-2957068Y7362444D01*
X-2955188Y7365746D01*
X-2953816Y7369251D01*
X-2953004Y7372959D01*
X-2952750Y7376922D01*
X-2953004Y7380731D01*
X-2953715Y7384338D01*
X-2954883Y7387742D01*
X-2956560Y7390892D01*
X-2958642Y7393889D01*
X-2961335Y7396581D01*
X-2964586Y7398969D01*
X-2968498Y7401052D01*
X-2973070Y7402728D01*
X-2978353Y7403896D01*
X-2984347Y7404608D01*
X-2991104Y7404862D01*
X-3018536Y7404862D01*
X-3018536Y7408418D01*
X-3018129Y7413548D01*
X-3016961Y7418070D01*
X-3014980Y7421930D01*
X-3012186Y7425181D01*
X-3008579Y7427823D01*
X-3004210Y7429753D01*
X-2998927Y7430922D01*
X-2992882Y7431278D01*
X-2988716Y7431125D01*
X-2984550Y7430566D01*
X-2980436Y7429703D01*
X-2976372Y7428484D01*
X-2972460Y7426959D01*
X-2968853Y7425232D01*
X-2965602Y7423302D01*
X-2962656Y7421118D01*
X-2955544Y7434072D01*
X-2959404Y7436815D01*
X-2963672Y7439304D01*
X-2968294Y7441387D01*
X-2973324Y7443216D01*
X-2978505Y7444536D01*
X-2983788Y7445502D01*
X-2989275Y7446060D01*
G37*
G36*
X-3361944Y7373620D02*
G01*
X-3364280Y7373416D01*
X-3366465Y7372756D01*
X-3368446Y7371638D01*
X-3370326Y7370064D01*
X-3371900Y7368286D01*
X-3373018Y7366253D01*
X-3373678Y7363968D01*
X-3373882Y7361428D01*
X-3373678Y7358735D01*
X-3373018Y7356348D01*
X-3371900Y7354163D01*
X-3370326Y7352284D01*
X-3368446Y7350861D01*
X-3366465Y7349794D01*
X-3364280Y7349185D01*
X-3361944Y7348981D01*
X-3359505Y7349185D01*
X-3357270Y7349794D01*
X-3355187Y7350861D01*
X-3353308Y7352284D01*
X-3351733Y7354163D01*
X-3350615Y7356348D01*
X-3349955Y7358786D01*
X-3349751Y7361428D01*
X-3349955Y7363968D01*
X-3350615Y7366253D01*
X-3351733Y7368286D01*
X-3353308Y7370064D01*
X-3355187Y7371638D01*
X-3357270Y7372756D01*
X-3359505Y7373416D01*
G37*
G36*
X-4570882Y7927289D02*
G01*
X-4570882Y7921701D01*
X-4555896Y7903413D01*
X-4559858Y7902702D01*
X-4563364Y7901533D01*
X-4566361Y7900009D01*
X-4568850Y7898079D01*
X-4570780Y7895742D01*
X-4572101Y7893100D01*
X-4572914Y7890154D01*
X-4573168Y7886903D01*
X-4573016Y7884515D01*
X-4572558Y7882229D01*
X-4571746Y7880096D01*
X-4569358Y7876082D01*
X-4567682Y7874355D01*
X-4565650Y7872882D01*
X-4560722Y7870647D01*
X-4557928Y7869936D01*
X-4554880Y7869529D01*
X-4548479Y7869478D01*
X-4545431Y7869783D01*
X-4542485Y7870342D01*
X-4536998Y7872120D01*
X-4534560Y7873288D01*
X-4532426Y7874660D01*
X-4530496Y7876235D01*
X-4534052Y7882839D01*
X-4535678Y7881467D01*
X-4539488Y7879181D01*
X-4541672Y7878267D01*
X-4546447Y7877098D01*
X-4551578Y7876743D01*
X-4554626Y7876895D01*
X-4557268Y7877352D01*
X-4559554Y7878165D01*
X-4561484Y7879283D01*
X-4563059Y7880807D01*
X-4564176Y7882585D01*
X-4564837Y7884617D01*
X-4565040Y7886903D01*
X-4564837Y7889087D01*
X-4564176Y7891018D01*
X-4563059Y7892745D01*
X-4561484Y7894269D01*
X-4559503Y7895386D01*
X-4557064Y7896148D01*
X-4554169Y7896656D01*
X-4546244Y7896809D01*
X-4546244Y7902651D01*
X-4560722Y7920177D01*
X-4533036Y7920177D01*
X-4533036Y7927289D01*
G37*
G36*
X-4617110Y7927289D02*
G01*
X-4617110Y7920177D01*
X-4591456Y7920177D01*
X-4589932Y7904429D01*
X-4596282Y7904429D01*
X-4602124Y7904124D01*
X-4607102Y7903260D01*
X-4611268Y7901838D01*
X-4614570Y7899857D01*
X-4617059Y7897317D01*
X-4618786Y7894370D01*
X-4619853Y7890967D01*
X-4620158Y7887157D01*
X-4620056Y7884668D01*
X-4619599Y7882331D01*
X-4618888Y7880096D01*
X-4617872Y7878013D01*
X-4616500Y7876082D01*
X-4614773Y7874355D01*
X-4612792Y7872882D01*
X-4610506Y7871663D01*
X-4607966Y7870647D01*
X-4605121Y7869936D01*
X-4602022Y7869529D01*
X-4595571Y7869478D01*
X-4592624Y7869783D01*
X-4589729Y7870342D01*
X-4584141Y7872120D01*
X-4581652Y7873288D01*
X-4579416Y7874660D01*
X-4577486Y7876235D01*
X-4581296Y7882839D01*
X-4582820Y7881467D01*
X-4586528Y7879181D01*
X-4588662Y7878267D01*
X-4593386Y7877098D01*
X-4598314Y7876743D01*
X-4601464Y7876895D01*
X-4604156Y7877352D01*
X-4606544Y7878165D01*
X-4608474Y7879283D01*
X-4610049Y7880807D01*
X-4611166Y7882585D01*
X-4611827Y7884617D01*
X-4612030Y7886903D01*
X-4611827Y7889290D01*
X-4611116Y7891373D01*
X-4609896Y7893202D01*
X-4608220Y7894777D01*
X-4605883Y7895894D01*
X-4602835Y7896656D01*
X-4599127Y7897164D01*
X-4581550Y7897317D01*
X-4584598Y7927289D01*
G37*
G36*
X-4770780Y7927289D02*
G01*
X-4770780Y7921701D01*
X-4755794Y7903413D01*
X-4759858Y7902702D01*
X-4763363Y7901533D01*
X-4766360Y7900009D01*
X-4768748Y7898079D01*
X-4770678Y7895742D01*
X-4771999Y7893100D01*
X-4772812Y7890154D01*
X-4773066Y7886903D01*
X-4772964Y7884515D01*
X-4772507Y7882229D01*
X-4771796Y7880096D01*
X-4770780Y7878013D01*
X-4769408Y7876082D01*
X-4767681Y7874355D01*
X-4765700Y7872882D01*
X-4763414Y7871663D01*
X-4760874Y7870647D01*
X-4758029Y7869936D01*
X-4754930Y7869529D01*
X-4748479Y7869478D01*
X-4742484Y7870342D01*
X-4736896Y7872120D01*
X-4734458Y7873288D01*
X-4732324Y7874660D01*
X-4730394Y7876235D01*
X-4734204Y7882839D01*
X-4735728Y7881467D01*
X-4739436Y7879181D01*
X-4741570Y7878267D01*
X-4746498Y7877098D01*
X-4751476Y7876743D01*
X-4754524Y7876895D01*
X-4757166Y7877352D01*
X-4759452Y7878165D01*
X-4761382Y7879283D01*
X-4762957Y7880807D01*
X-4764074Y7882585D01*
X-4764735Y7884617D01*
X-4764938Y7886903D01*
X-4764735Y7889087D01*
X-4764074Y7891018D01*
X-4762957Y7892745D01*
X-4761382Y7894269D01*
X-4759401Y7895386D01*
X-4756962Y7896148D01*
X-4754067Y7896656D01*
X-4746142Y7896809D01*
X-4746142Y7902651D01*
X-4760620Y7920177D01*
X-4732934Y7920177D01*
X-4732934Y7927289D01*
G37*
G36*
X-4818278Y7927289D02*
G01*
X-4790084Y7891221D01*
X-4812182Y7891221D01*
X-4812182Y7903667D01*
X-4819802Y7903667D01*
X-4819802Y7891221D01*
X-4830724Y7891221D01*
X-4830724Y7884109D01*
X-4819802Y7884109D01*
X-4819802Y7869885D01*
X-4811928Y7869885D01*
X-4811928Y7884109D01*
X-4779924Y7884109D01*
X-4779924Y7889951D01*
X-4809388Y7927289D01*
G37*
G36*
X-4388612Y7928051D02*
G01*
X-4392930Y7927746D01*
X-4396740Y7926933D01*
X-4400042Y7925612D01*
X-4402836Y7923733D01*
X-4405172Y7921345D01*
X-4406849Y7918653D01*
X-4407865Y7915503D01*
X-4408170Y7912049D01*
X-4407763Y7907578D01*
X-4407204Y7905445D01*
X-4406392Y7903413D01*
X-4405172Y7901279D01*
X-4403496Y7898993D01*
X-4398772Y7894015D01*
X-4381246Y7877251D01*
X-4410710Y7877251D01*
X-4410710Y7869885D01*
X-4369562Y7869885D01*
X-4369562Y7875473D01*
X-4394911Y7900009D01*
X-4397705Y7903565D01*
X-4399178Y7906715D01*
X-4399940Y7909763D01*
X-4399889Y7913420D01*
X-4399280Y7915249D01*
X-4398365Y7916824D01*
X-4396994Y7918145D01*
X-4395216Y7919262D01*
X-4393082Y7920024D01*
X-4390644Y7920532D01*
X-4387850Y7920685D01*
X-4383430Y7920278D01*
X-4379468Y7919161D01*
X-4376064Y7917230D01*
X-4373118Y7914589D01*
X-4367530Y7919415D01*
X-4369409Y7921345D01*
X-4371543Y7923022D01*
X-4373880Y7924495D01*
X-4376420Y7925765D01*
X-4379315Y7926730D01*
X-4382262Y7927441D01*
X-4385411Y7927898D01*
G37*
G36*
X-4360926Y7927289D02*
G01*
X-4360926Y7921701D01*
X-4345940Y7903413D01*
X-4349902Y7902702D01*
X-4353306Y7901533D01*
X-4356252Y7900009D01*
X-4358640Y7898079D01*
X-4360672Y7895742D01*
X-4362094Y7893100D01*
X-4362958Y7890154D01*
X-4363212Y7886903D01*
X-4363059Y7884515D01*
X-4362602Y7882229D01*
X-4361789Y7880096D01*
X-4359351Y7876082D01*
X-4357725Y7874355D01*
X-4355693Y7872882D01*
X-4350766Y7870647D01*
X-4347921Y7869936D01*
X-4344771Y7869529D01*
X-4338370Y7869478D01*
X-4335424Y7869783D01*
X-4332528Y7870342D01*
X-4326991Y7872120D01*
X-4324553Y7873288D01*
X-4322318Y7874660D01*
X-4320286Y7876235D01*
X-4324096Y7882839D01*
X-4325721Y7881467D01*
X-4329531Y7879181D01*
X-4331716Y7878267D01*
X-4336440Y7877098D01*
X-4341368Y7876743D01*
X-4344517Y7876895D01*
X-4347210Y7877352D01*
X-4349597Y7878165D01*
X-4351528Y7879283D01*
X-4353102Y7880807D01*
X-4354220Y7882585D01*
X-4354880Y7884617D01*
X-4355084Y7886903D01*
X-4354880Y7889087D01*
X-4354220Y7891018D01*
X-4353102Y7892745D01*
X-4351528Y7894269D01*
X-4349546Y7895386D01*
X-4347108Y7896148D01*
X-4344212Y7896656D01*
X-4336288Y7896809D01*
X-4336288Y7902651D01*
X-4350766Y7920177D01*
X-4323080Y7920177D01*
X-4323080Y7927289D01*
G37*
G36*
X-4140809Y7927289D02*
G01*
X-4140809Y7921701D01*
X-4125823Y7903413D01*
X-4129836Y7902702D01*
X-4133342Y7901533D01*
X-4136339Y7900009D01*
X-4138777Y7898079D01*
X-4140758Y7895742D01*
X-4142181Y7893100D01*
X-4143044Y7890154D01*
X-4143349Y7886903D01*
X-4143146Y7884515D01*
X-4142689Y7882229D01*
X-4140809Y7878013D01*
X-4139387Y7876082D01*
X-4137660Y7874355D01*
X-4135678Y7872882D01*
X-4133443Y7871663D01*
X-4130852Y7870647D01*
X-4128008Y7869936D01*
X-4124909Y7869529D01*
X-4118457Y7869478D01*
X-4112463Y7870342D01*
X-4106875Y7872120D01*
X-4104487Y7873288D01*
X-4102303Y7874660D01*
X-4100423Y7876235D01*
X-4104233Y7882839D01*
X-4105757Y7881467D01*
X-4109567Y7879181D01*
X-4114139Y7877606D01*
X-4116527Y7877098D01*
X-4121505Y7876743D01*
X-4124502Y7876895D01*
X-4127144Y7877352D01*
X-4129430Y7878165D01*
X-4131411Y7879283D01*
X-4132935Y7880807D01*
X-4134053Y7882585D01*
X-4134713Y7884617D01*
X-4134967Y7886903D01*
X-4134713Y7889087D01*
X-4134053Y7891018D01*
X-4132935Y7892745D01*
X-4131411Y7894269D01*
X-4129379Y7895386D01*
X-4126941Y7896148D01*
X-4124045Y7896656D01*
X-4116171Y7896809D01*
X-4116171Y7902651D01*
X-4130649Y7920177D01*
X-4102963Y7920177D01*
X-4102963Y7927289D01*
G37*
G36*
X-4187545Y7927289D02*
G01*
X-4187545Y7921701D01*
X-4172305Y7903413D01*
X-4176318Y7902702D01*
X-4179824Y7901533D01*
X-4182821Y7900009D01*
X-4185259Y7898079D01*
X-4187240Y7895742D01*
X-4188663Y7893100D01*
X-4189526Y7890154D01*
X-4189831Y7886903D01*
X-4189628Y7884515D01*
X-4189171Y7882229D01*
X-4187291Y7878013D01*
X-4185869Y7876082D01*
X-4184142Y7874355D01*
X-4182160Y7872882D01*
X-4179925Y7871663D01*
X-4177334Y7870647D01*
X-4174490Y7869936D01*
X-4171391Y7869529D01*
X-4164939Y7869478D01*
X-4161993Y7869783D01*
X-4159097Y7870342D01*
X-4153509Y7872120D01*
X-4151020Y7873288D01*
X-4148785Y7874660D01*
X-4146905Y7876235D01*
X-4150715Y7882839D01*
X-4152290Y7881467D01*
X-4156100Y7879181D01*
X-4158335Y7878267D01*
X-4163009Y7877098D01*
X-4167987Y7876743D01*
X-4170984Y7876895D01*
X-4173626Y7877352D01*
X-4175912Y7878165D01*
X-4177893Y7879283D01*
X-4179417Y7880807D01*
X-4180535Y7882585D01*
X-4181195Y7884617D01*
X-4181449Y7886903D01*
X-4181195Y7889087D01*
X-4180535Y7891018D01*
X-4179417Y7892745D01*
X-4177893Y7894269D01*
X-4175963Y7895386D01*
X-4173575Y7896148D01*
X-4170629Y7896656D01*
X-4162653Y7896809D01*
X-4162653Y7902651D01*
X-4177131Y7920177D01*
X-4149445Y7920177D01*
X-4149445Y7927289D01*
G37*
G36*
X-4258665Y8817356D02*
G01*
X-4258665Y8810244D01*
X-4233265Y8810244D01*
X-4231741Y8794496D01*
X-4238091Y8794496D01*
X-4243832Y8794191D01*
X-4248708Y8793327D01*
X-4252823Y8791905D01*
X-4256125Y8789924D01*
X-4258716Y8787434D01*
X-4260545Y8784437D01*
X-4261612Y8781084D01*
X-4261967Y8777224D01*
X-4261815Y8774734D01*
X-4261358Y8772398D01*
X-4260545Y8770162D01*
X-4258157Y8766149D01*
X-4256481Y8764473D01*
X-4254449Y8763000D01*
X-4252061Y8761730D01*
X-4249521Y8760714D01*
X-4246676Y8760002D01*
X-4243578Y8759596D01*
X-4237126Y8759545D01*
X-4231284Y8760460D01*
X-4228439Y8761222D01*
X-4225798Y8762187D01*
X-4221073Y8764727D01*
X-4219041Y8766302D01*
X-4222851Y8772652D01*
X-4226306Y8770315D01*
X-4230471Y8768334D01*
X-4235196Y8767013D01*
X-4237634Y8766657D01*
X-4243171Y8766708D01*
X-4245813Y8767267D01*
X-4248099Y8768130D01*
X-4250029Y8769350D01*
X-4251604Y8770874D01*
X-4252722Y8772652D01*
X-4253382Y8774684D01*
X-4253585Y8776970D01*
X-4253382Y8779357D01*
X-4252671Y8781389D01*
X-4251452Y8783167D01*
X-4249775Y8784590D01*
X-4247438Y8785809D01*
X-4244390Y8786672D01*
X-4240682Y8787231D01*
X-4223359Y8787384D01*
X-4226407Y8817356D01*
G37*
G36*
X-4322673Y8817356D02*
G01*
X-4297527Y8759952D01*
X-4289399Y8759952D01*
X-4263999Y8817356D01*
X-4272889Y8817356D01*
X-4293717Y8770112D01*
X-4314545Y8817356D01*
G37*
G36*
X-4197197Y8806688D02*
G01*
X-4197197Y8791956D01*
X-4212183Y8791956D01*
X-4212183Y8785352D01*
X-4197197Y8785352D01*
X-4197197Y8770620D01*
X-4190339Y8770620D01*
X-4190339Y8785352D01*
X-4175353Y8785352D01*
X-4175353Y8791956D01*
X-4190339Y8791956D01*
X-4190339Y8806688D01*
G37*
G36*
X-4614773Y8818118D02*
G01*
X-4618126Y8817965D01*
X-4621276Y8817559D01*
X-4624324Y8816848D01*
X-4627219Y8815832D01*
X-4629912Y8814562D01*
X-4632401Y8813038D01*
X-4634738Y8811260D01*
X-4636871Y8809228D01*
X-4631791Y8804148D01*
X-4628083Y8807043D01*
X-4624019Y8809126D01*
X-4619701Y8810345D01*
X-4615027Y8810752D01*
X-4611827Y8810599D01*
X-4608779Y8810040D01*
X-4605985Y8809177D01*
X-4603343Y8807958D01*
X-4600803Y8806434D01*
X-4598619Y8804605D01*
X-4596739Y8802471D01*
X-4595215Y8800084D01*
X-4593844Y8797442D01*
X-4592929Y8794699D01*
X-4592370Y8791752D01*
X-4592167Y8788654D01*
X-4592370Y8785656D01*
X-4592929Y8782812D01*
X-4593844Y8780068D01*
X-4596739Y8775090D01*
X-4598619Y8772956D01*
X-4600803Y8771128D01*
X-4605985Y8768283D01*
X-4608779Y8767318D01*
X-4611827Y8766759D01*
X-4615027Y8766556D01*
X-4618736Y8766810D01*
X-4622190Y8767521D01*
X-4625441Y8768689D01*
X-4628489Y8770366D01*
X-4628489Y8788908D01*
X-4636363Y8788908D01*
X-4636363Y8766556D01*
X-4634128Y8764879D01*
X-4631740Y8763457D01*
X-4626457Y8761222D01*
X-4620564Y8759901D01*
X-4614519Y8759444D01*
X-4610303Y8759698D01*
X-4606239Y8760409D01*
X-4602429Y8761577D01*
X-4598771Y8763254D01*
X-4595520Y8765336D01*
X-4592624Y8767775D01*
X-4590034Y8770518D01*
X-4587849Y8773668D01*
X-4586173Y8777071D01*
X-4584954Y8780729D01*
X-4584242Y8784590D01*
X-4584039Y8788654D01*
X-4584242Y8792768D01*
X-4584954Y8796680D01*
X-4586173Y8800388D01*
X-4587849Y8803894D01*
X-4590084Y8807043D01*
X-4592675Y8809786D01*
X-4595672Y8812225D01*
X-4599025Y8814308D01*
X-4602581Y8815984D01*
X-4606391Y8817152D01*
X-4610455Y8817864D01*
G37*
G36*
X-4701387Y8817356D02*
G01*
X-4701387Y8759952D01*
X-4694529Y8759952D01*
X-4660239Y8802878D01*
X-4660239Y8759952D01*
X-4651857Y8759952D01*
X-4651857Y8817356D01*
X-4658715Y8817356D01*
X-4693005Y8774684D01*
X-4693005Y8817356D01*
G37*
G36*
X-4742789Y8817356D02*
G01*
X-4747107Y8817152D01*
X-4751222Y8816492D01*
X-4755134Y8815374D01*
X-4758791Y8813800D01*
X-4762144Y8811818D01*
X-4765090Y8809482D01*
X-4767580Y8806738D01*
X-4769713Y8803640D01*
X-4771491Y8800236D01*
X-4772761Y8796578D01*
X-4773523Y8792718D01*
X-4773777Y8788654D01*
X-4765395Y8788654D01*
X-4765192Y8791752D01*
X-4764684Y8794597D01*
X-4763820Y8797340D01*
X-4762601Y8799830D01*
X-4761026Y8802217D01*
X-4759147Y8804300D01*
X-4756962Y8806027D01*
X-4754473Y8807450D01*
X-4751679Y8808669D01*
X-4748733Y8809532D01*
X-4745583Y8810091D01*
X-4726787Y8810244D01*
X-4726787Y8767064D01*
X-4745583Y8767216D01*
X-4748733Y8767775D01*
X-4751679Y8768638D01*
X-4754473Y8769858D01*
X-4756962Y8771382D01*
X-4759147Y8773160D01*
X-4761026Y8775192D01*
X-4762601Y8777478D01*
X-4763820Y8779967D01*
X-4764684Y8782710D01*
X-4765192Y8785555D01*
X-4765395Y8788654D01*
X-4773777Y8788654D01*
X-4773523Y8784590D01*
X-4772761Y8780729D01*
X-4771491Y8777071D01*
X-4769713Y8773668D01*
X-4767580Y8770670D01*
X-4765040Y8767978D01*
X-4762144Y8765590D01*
X-4758791Y8763508D01*
X-4755134Y8761933D01*
X-4751222Y8760815D01*
X-4747107Y8760155D01*
X-4742789Y8759952D01*
X-4718405Y8759952D01*
X-4718405Y8817356D01*
G37*
G36*
X-5616448Y7426553D02*
G01*
X-5623052Y7423505D01*
X-5621578Y7421727D01*
X-5619191Y7417562D01*
X-5617311Y7412583D01*
X-5616295Y7407351D01*
X-5616346Y7401356D01*
X-5616803Y7398512D01*
X-5617616Y7396022D01*
X-5618734Y7394041D01*
X-5620004Y7392466D01*
X-5621477Y7391349D01*
X-5623153Y7390688D01*
X-5625084Y7390485D01*
X-5627827Y7390993D01*
X-5629910Y7392517D01*
X-5631484Y7394549D01*
X-5632704Y7397089D01*
X-5636514Y7411008D01*
X-5638038Y7415631D01*
X-5638901Y7417562D01*
X-5640019Y7419390D01*
X-5642864Y7422489D01*
X-5644642Y7423708D01*
X-5646724Y7424572D01*
X-5649112Y7425131D01*
X-5651754Y7425283D01*
X-5653989Y7425131D01*
X-5656072Y7424674D01*
X-5658053Y7423861D01*
X-5661660Y7421422D01*
X-5663234Y7419746D01*
X-5664606Y7417765D01*
X-5666740Y7412786D01*
X-5667451Y7409891D01*
X-5667857Y7406690D01*
X-5667908Y7400645D01*
X-5667298Y7395718D01*
X-5666028Y7390942D01*
X-5665165Y7388758D01*
X-5662930Y7384897D01*
X-5656326Y7387437D01*
X-5658358Y7391298D01*
X-5659882Y7395311D01*
X-5660847Y7399324D01*
X-5661152Y7403185D01*
X-5660999Y7406487D01*
X-5660491Y7409332D01*
X-5659729Y7411720D01*
X-5658612Y7413599D01*
X-5657240Y7415174D01*
X-5655665Y7416292D01*
X-5653938Y7416952D01*
X-5652008Y7417155D01*
X-5650534Y7417053D01*
X-5648147Y7416038D01*
X-5646318Y7414158D01*
X-5644946Y7411720D01*
X-5642711Y7404811D01*
X-5639816Y7394194D01*
X-5638190Y7390130D01*
X-5635752Y7386726D01*
X-5634228Y7385151D01*
X-5632551Y7383932D01*
X-5630519Y7383068D01*
X-5628233Y7382509D01*
X-5625592Y7382357D01*
X-5623356Y7382509D01*
X-5621274Y7382967D01*
X-5619292Y7383780D01*
X-5617464Y7384897D01*
X-5615686Y7386320D01*
X-5614111Y7387996D01*
X-5612739Y7389977D01*
X-5610606Y7394956D01*
X-5609894Y7397902D01*
X-5609488Y7401153D01*
X-5609437Y7407859D01*
X-5610453Y7414107D01*
X-5612434Y7420051D01*
X-5614974Y7424724D01*
G37*
G36*
X-5667502Y7370419D02*
G01*
X-5667502Y7362291D01*
X-5617210Y7362291D01*
X-5617362Y7343343D01*
X-5617819Y7340193D01*
X-5618632Y7337247D01*
X-5619750Y7334605D01*
X-5621274Y7332065D01*
X-5623052Y7329830D01*
X-5625084Y7327900D01*
X-5627370Y7326223D01*
X-5629910Y7325004D01*
X-5632653Y7324140D01*
X-5635599Y7323581D01*
X-5638800Y7323429D01*
X-5641898Y7323581D01*
X-5644743Y7324140D01*
X-5647486Y7325004D01*
X-5649976Y7326223D01*
X-5652262Y7327900D01*
X-5654294Y7329830D01*
X-5656072Y7332065D01*
X-5657596Y7334605D01*
X-5658713Y7337298D01*
X-5659475Y7340193D01*
X-5659983Y7343343D01*
X-5660136Y7362291D01*
X-5667502Y7362291D01*
X-5667502Y7346289D01*
X-5667248Y7341870D01*
X-5666536Y7337653D01*
X-5665368Y7333742D01*
X-5663692Y7330033D01*
X-5661710Y7326782D01*
X-5659374Y7323886D01*
X-5656630Y7321296D01*
X-5653532Y7319111D01*
X-5650230Y7317435D01*
X-5646674Y7316266D01*
X-5642864Y7315555D01*
X-5638800Y7315301D01*
X-5634634Y7315555D01*
X-5630722Y7316266D01*
X-5627116Y7317435D01*
X-5623814Y7319111D01*
X-5620715Y7321296D01*
X-5617972Y7323886D01*
X-5615635Y7326782D01*
X-5613654Y7330033D01*
X-5612079Y7333742D01*
X-5610961Y7337653D01*
X-5610301Y7341870D01*
X-5610098Y7346289D01*
X-5610098Y7370419D01*
G37*
G36*
X-5610098Y7312253D02*
G01*
X-5667502Y7286345D01*
X-5667502Y7282281D01*
X-5659120Y7282281D01*
X-5630926Y7294727D01*
X-5630926Y7269835D01*
X-5659120Y7282281D01*
X-5667502Y7282281D01*
X-5667502Y7278217D01*
X-5610098Y7252055D01*
X-5610098Y7260691D01*
X-5624322Y7267041D01*
X-5624322Y7297521D01*
X-5610098Y7303871D01*
G37*
G36*
X-5616448Y7196632D02*
G01*
X-5623052Y7193584D01*
X-5621578Y7191857D01*
X-5620308Y7189876D01*
X-5618226Y7185202D01*
X-5617311Y7182662D01*
X-5616295Y7177328D01*
X-5616346Y7171232D01*
X-5616803Y7168337D01*
X-5617616Y7165898D01*
X-5618734Y7163866D01*
X-5620004Y7162444D01*
X-5621477Y7161428D01*
X-5623153Y7160818D01*
X-5625084Y7160564D01*
X-5627827Y7161022D01*
X-5629910Y7162342D01*
X-5631484Y7164578D01*
X-5632704Y7167168D01*
X-5636514Y7180986D01*
X-5638901Y7187438D01*
X-5641340Y7190841D01*
X-5642864Y7192314D01*
X-5644642Y7193584D01*
X-5646724Y7194448D01*
X-5649112Y7194956D01*
X-5653989Y7195007D01*
X-5656072Y7194550D01*
X-5658053Y7193838D01*
X-5659882Y7192822D01*
X-5661660Y7191451D01*
X-5663234Y7189724D01*
X-5664606Y7187742D01*
X-5666740Y7182916D01*
X-5667451Y7180021D01*
X-5667857Y7176820D01*
X-5667908Y7170775D01*
X-5667298Y7165797D01*
X-5666028Y7160920D01*
X-5664098Y7156602D01*
X-5662930Y7154722D01*
X-5656326Y7157516D01*
X-5658358Y7161225D01*
X-5659882Y7165136D01*
X-5660847Y7169200D01*
X-5661152Y7173264D01*
X-5660999Y7176516D01*
X-5660491Y7179309D01*
X-5659729Y7181697D01*
X-5658612Y7183678D01*
X-5657240Y7185253D01*
X-5655665Y7186371D01*
X-5653938Y7187031D01*
X-5652008Y7187234D01*
X-5650534Y7187133D01*
X-5648147Y7186117D01*
X-5646318Y7184186D01*
X-5644946Y7181748D01*
X-5642711Y7174839D01*
X-5639816Y7164171D01*
X-5638190Y7160158D01*
X-5635752Y7156754D01*
X-5634228Y7155230D01*
X-5632551Y7154011D01*
X-5630519Y7153148D01*
X-5628233Y7152640D01*
X-5625592Y7152436D01*
X-5623356Y7152640D01*
X-5621274Y7153097D01*
X-5619292Y7153909D01*
X-5615686Y7156297D01*
X-5614111Y7157974D01*
X-5612739Y7160006D01*
X-5610606Y7165035D01*
X-5609894Y7167930D01*
X-5609488Y7171131D01*
X-5609437Y7177836D01*
X-5610453Y7184186D01*
X-5612434Y7190028D01*
X-5614974Y7194753D01*
G37*
G36*
X-5638800Y7145070D02*
G01*
X-5642762Y7144867D01*
X-5646623Y7144156D01*
X-5650280Y7142937D01*
X-5653786Y7141260D01*
X-5656884Y7139076D01*
X-5659678Y7136536D01*
X-5662117Y7133640D01*
X-5664200Y7130338D01*
X-5665876Y7126731D01*
X-5667044Y7122871D01*
X-5667756Y7118858D01*
X-5668010Y7114590D01*
X-5667857Y7111390D01*
X-5667451Y7108240D01*
X-5666740Y7105294D01*
X-5665724Y7102398D01*
X-5664454Y7099757D01*
X-5662930Y7097268D01*
X-5661152Y7095032D01*
X-5659120Y7093000D01*
X-5654040Y7098080D01*
X-5656935Y7101586D01*
X-5658967Y7105446D01*
X-5660237Y7109714D01*
X-5660644Y7114336D01*
X-5660440Y7117486D01*
X-5659932Y7120432D01*
X-5659069Y7123328D01*
X-5657850Y7126020D01*
X-5656326Y7128459D01*
X-5654497Y7130542D01*
X-5652363Y7132370D01*
X-5647385Y7135266D01*
X-5644642Y7136180D01*
X-5641797Y7136790D01*
X-5638800Y7136942D01*
X-5635701Y7136790D01*
X-5632754Y7136180D01*
X-5629960Y7135266D01*
X-5624982Y7132370D01*
X-5622848Y7130542D01*
X-5621020Y7128459D01*
X-5619496Y7126020D01*
X-5618276Y7123328D01*
X-5617413Y7120432D01*
X-5616854Y7117486D01*
X-5616702Y7114336D01*
X-5617108Y7109714D01*
X-5618429Y7105446D01*
X-5620562Y7101586D01*
X-5623560Y7098080D01*
X-5618226Y7093000D01*
X-5616194Y7095032D01*
X-5614416Y7097268D01*
X-5612892Y7099757D01*
X-5611622Y7102398D01*
X-5610606Y7105294D01*
X-5609894Y7108342D01*
X-5609488Y7111542D01*
X-5609336Y7114844D01*
X-5609590Y7119061D01*
X-5610301Y7123074D01*
X-5611469Y7126833D01*
X-5613146Y7130338D01*
X-5615228Y7133640D01*
X-5617667Y7136536D01*
X-5620410Y7139076D01*
X-5623560Y7141260D01*
X-5627065Y7142937D01*
X-5630773Y7144156D01*
X-5634685Y7144867D01*
G37*
G36*
X-5667502Y7081062D02*
G01*
X-5667502Y7072934D01*
X-5617210Y7072934D01*
X-5617210Y7041946D01*
X-5610098Y7041946D01*
X-5610098Y7081062D01*
G37*
G36*
X-2364790Y8968130D02*
G01*
X-2368092Y8967978D01*
X-2371293Y8967520D01*
X-2374341Y8966809D01*
X-2377186Y8965844D01*
X-2379929Y8964574D01*
X-2382418Y8963050D01*
X-2384755Y8961272D01*
X-2386838Y8959240D01*
X-2381808Y8954160D01*
X-2378049Y8957056D01*
X-2374036Y8959088D01*
X-2369667Y8960358D01*
X-2364994Y8960764D01*
X-2361793Y8960561D01*
X-2358796Y8960053D01*
X-2355951Y8959189D01*
X-2353310Y8957970D01*
X-2350820Y8956395D01*
X-2348636Y8954617D01*
X-2346756Y8952484D01*
X-2345232Y8950096D01*
X-2343861Y8947454D01*
X-2342896Y8944711D01*
X-2342337Y8941765D01*
X-2342134Y8938666D01*
X-2342337Y8935669D01*
X-2342896Y8932824D01*
X-2343861Y8930081D01*
X-2346756Y8925102D01*
X-2348636Y8922969D01*
X-2350820Y8921140D01*
X-2355951Y8918244D01*
X-2358796Y8917330D01*
X-2361793Y8916720D01*
X-2364994Y8916568D01*
X-2368702Y8916771D01*
X-2372207Y8917533D01*
X-2375458Y8918702D01*
X-2378506Y8920378D01*
X-2378506Y8938920D01*
X-2386380Y8938920D01*
X-2386380Y8916568D01*
X-2381707Y8913418D01*
X-2379167Y8912199D01*
X-2373528Y8910421D01*
X-2367534Y8909558D01*
X-2364486Y8909456D01*
X-2360269Y8909659D01*
X-2356256Y8910370D01*
X-2352395Y8911590D01*
X-2348738Y8913266D01*
X-2345486Y8915349D01*
X-2342591Y8917736D01*
X-2340051Y8920530D01*
X-2337866Y8923680D01*
X-2336190Y8927084D01*
X-2334971Y8930741D01*
X-2334260Y8934551D01*
X-2334056Y8938666D01*
X-2334260Y8942730D01*
X-2334971Y8946642D01*
X-2336190Y8950350D01*
X-2337866Y8953906D01*
X-2340051Y8957005D01*
X-2342642Y8959799D01*
X-2345639Y8962237D01*
X-2349042Y8964320D01*
X-2352598Y8965996D01*
X-2356408Y8967165D01*
X-2360472Y8967876D01*
G37*
G36*
X-2451354Y8967368D02*
G01*
X-2451354Y8909964D01*
X-2444496Y8909964D01*
X-2410256Y8952890D01*
X-2410256Y8909964D01*
X-2401874Y8909964D01*
X-2401874Y8967368D01*
X-2408732Y8967368D01*
X-2443022Y8924696D01*
X-2443022Y8967368D01*
G37*
G36*
X-2492806Y8967368D02*
G01*
X-2497124Y8967114D01*
X-2501239Y8966454D01*
X-2505100Y8965336D01*
X-2508808Y8963812D01*
X-2512110Y8961831D01*
X-2515057Y8959494D01*
X-2517597Y8956751D01*
X-2519730Y8953652D01*
X-2521458Y8950248D01*
X-2522728Y8946591D01*
X-2523490Y8942730D01*
X-2523744Y8938666D01*
X-2515362Y8938666D01*
X-2515209Y8941714D01*
X-2514701Y8944610D01*
X-2513838Y8947302D01*
X-2512568Y8949842D01*
X-2511044Y8952230D01*
X-2509164Y8954262D01*
X-2506980Y8956040D01*
X-2504490Y8957462D01*
X-2501696Y8958681D01*
X-2498750Y8959545D01*
X-2495600Y8960053D01*
X-2492298Y8960256D01*
X-2476754Y8960256D01*
X-2476754Y8917076D01*
X-2495600Y8917228D01*
X-2498750Y8917736D01*
X-2501696Y8918651D01*
X-2504490Y8919870D01*
X-2506980Y8921394D01*
X-2509164Y8923172D01*
X-2511044Y8925204D01*
X-2512568Y8927490D01*
X-2513838Y8929979D01*
X-2514701Y8932672D01*
X-2515209Y8935567D01*
X-2515362Y8938666D01*
X-2523744Y8938666D01*
X-2523490Y8934551D01*
X-2522728Y8930741D01*
X-2521458Y8927084D01*
X-2519730Y8923680D01*
X-2517597Y8920632D01*
X-2515057Y8917940D01*
X-2512110Y8915552D01*
X-2508808Y8913520D01*
X-2505100Y8911945D01*
X-2501239Y8910828D01*
X-2497124Y8910167D01*
X-2492806Y8909964D01*
X-2468422Y8909964D01*
X-2468422Y8967368D01*
G37*
G36*
X-2188667Y8967368D02*
G01*
X-2188667Y8960256D01*
X-2163267Y8960256D01*
X-2161743Y8944508D01*
X-2168093Y8944508D01*
X-2173833Y8944203D01*
X-2178710Y8943340D01*
X-2182825Y8941917D01*
X-2186127Y8939936D01*
X-2188718Y8937396D01*
X-2190546Y8934450D01*
X-2191613Y8931046D01*
X-2191969Y8927236D01*
X-2191816Y8924747D01*
X-2191359Y8922410D01*
X-2190546Y8920175D01*
X-2188159Y8916162D01*
X-2186482Y8914434D01*
X-2184450Y8912961D01*
X-2179523Y8910726D01*
X-2176678Y8910015D01*
X-2173579Y8909608D01*
X-2167128Y8909558D01*
X-2161286Y8910421D01*
X-2155799Y8912199D01*
X-2153310Y8913368D01*
X-2151075Y8914739D01*
X-2149043Y8916314D01*
X-2152853Y8922664D01*
X-2156307Y8920327D01*
X-2160473Y8918346D01*
X-2162810Y8917533D01*
X-2167636Y8916670D01*
X-2173173Y8916720D01*
X-2175814Y8917279D01*
X-2178100Y8918143D01*
X-2180031Y8919362D01*
X-2181606Y8920886D01*
X-2182723Y8922664D01*
X-2183384Y8924696D01*
X-2183587Y8926982D01*
X-2183384Y8929370D01*
X-2182672Y8931402D01*
X-2181453Y8933180D01*
X-2179777Y8934602D01*
X-2177440Y8935821D01*
X-2174392Y8936685D01*
X-2170684Y8937193D01*
X-2166315Y8937396D01*
X-2153361Y8937396D01*
X-2156409Y8967368D01*
G37*
G36*
X-2252675Y8967368D02*
G01*
X-2227529Y8909964D01*
X-2219401Y8909964D01*
X-2194001Y8967368D01*
X-2202891Y8967368D01*
X-2223719Y8920124D01*
X-2244547Y8967368D01*
G37*
G36*
X-2127199Y8956700D02*
G01*
X-2127199Y8941968D01*
X-2142185Y8941968D01*
X-2142185Y8935364D01*
X-2127199Y8935364D01*
X-2127199Y8920632D01*
X-2120341Y8920632D01*
X-2120341Y8935364D01*
X-2105355Y8935364D01*
X-2105355Y8941968D01*
X-2120341Y8941968D01*
X-2120341Y8956700D01*
G37*
G36*
X-3723132Y7548067D02*
G01*
X-3729075Y7547609D01*
X-3734308Y7546289D01*
X-3736441Y7545171D01*
X-3738372Y7543850D01*
X-3739997Y7542377D01*
X-3741420Y7540701D01*
X-3742537Y7538821D01*
X-3743299Y7536891D01*
X-3743807Y7534757D01*
X-3743922Y7532065D01*
X-3736086Y7532065D01*
X-3735832Y7534097D01*
X-3735171Y7535925D01*
X-3734054Y7537500D01*
X-3732529Y7538923D01*
X-3730599Y7540040D01*
X-3728364Y7540802D01*
X-3725875Y7541310D01*
X-3723132Y7541463D01*
X-3720439Y7541310D01*
X-3718051Y7540802D01*
X-3715867Y7540040D01*
X-3713987Y7538923D01*
X-3712514Y7537500D01*
X-3711498Y7535925D01*
X-3710889Y7534097D01*
X-3710686Y7532065D01*
X-3710889Y7530134D01*
X-3711498Y7528356D01*
X-3712514Y7526832D01*
X-3713987Y7525461D01*
X-3715765Y7524343D01*
X-3717899Y7523530D01*
X-3720337Y7523073D01*
X-3723132Y7522921D01*
X-3725976Y7523073D01*
X-3728516Y7523530D01*
X-3730701Y7524343D01*
X-3732529Y7525461D01*
X-3734054Y7526832D01*
X-3735171Y7528356D01*
X-3735832Y7530134D01*
X-3736086Y7532065D01*
X-3743922Y7532065D01*
X-3743451Y7528559D01*
X-3742791Y7526781D01*
X-3741928Y7525207D01*
X-3740759Y7523632D01*
X-3739387Y7522260D01*
X-3737711Y7521092D01*
X-3735832Y7520127D01*
X-3738219Y7519009D01*
X-3742029Y7516368D01*
X-3743451Y7514793D01*
X-3744569Y7512913D01*
X-3745331Y7510830D01*
X-3745839Y7508595D01*
X-3745976Y7506411D01*
X-3737864Y7506411D01*
X-3737610Y7508697D01*
X-3736898Y7510729D01*
X-3735730Y7512507D01*
X-3734054Y7514031D01*
X-3731818Y7515250D01*
X-3729278Y7516114D01*
X-3726383Y7516622D01*
X-3723132Y7516825D01*
X-3719982Y7516622D01*
X-3717137Y7516114D01*
X-3714648Y7515250D01*
X-3712464Y7514031D01*
X-3710787Y7512507D01*
X-3709619Y7510729D01*
X-3708857Y7508697D01*
X-3708654Y7506411D01*
X-3708857Y7504125D01*
X-3709619Y7502093D01*
X-3710787Y7500315D01*
X-3712464Y7498791D01*
X-3714648Y7497572D01*
X-3717137Y7496657D01*
X-3719982Y7496149D01*
X-3723132Y7495997D01*
X-3726383Y7496149D01*
X-3729278Y7496657D01*
X-3731818Y7497572D01*
X-3734054Y7498791D01*
X-3735730Y7500315D01*
X-3736898Y7502093D01*
X-3737610Y7504125D01*
X-3737864Y7506411D01*
X-3745976Y7506411D01*
X-3745839Y7503668D01*
X-3745331Y7501381D01*
X-3744569Y7499248D01*
X-3743451Y7497267D01*
X-3741877Y7495438D01*
X-3739997Y7493863D01*
X-3737813Y7492542D01*
X-3735324Y7491425D01*
X-3732631Y7490510D01*
X-3726535Y7489494D01*
X-3719779Y7489494D01*
X-3713835Y7490510D01*
X-3711194Y7491425D01*
X-3708806Y7492542D01*
X-3706672Y7493863D01*
X-3704844Y7495438D01*
X-3703320Y7497267D01*
X-3702100Y7499248D01*
X-3701237Y7501381D01*
X-3700678Y7503668D01*
X-3700526Y7506157D01*
X-3700678Y7508595D01*
X-3701135Y7510830D01*
X-3701948Y7512913D01*
X-3703065Y7514793D01*
X-3704488Y7516368D01*
X-3706215Y7517739D01*
X-3708298Y7519009D01*
X-3710686Y7520127D01*
X-3708755Y7521092D01*
X-3707129Y7522260D01*
X-3705707Y7523632D01*
X-3703675Y7526781D01*
X-3702659Y7530490D01*
X-3702710Y7534757D01*
X-3703167Y7536891D01*
X-3703980Y7538821D01*
X-3705098Y7540701D01*
X-3706520Y7542377D01*
X-3708196Y7543850D01*
X-3710178Y7545171D01*
X-3712464Y7546289D01*
X-3717391Y7547609D01*
G37*
G36*
X-3690874Y7547305D02*
G01*
X-3690874Y7541717D01*
X-3675887Y7523175D01*
X-3679850Y7522565D01*
X-3683304Y7521498D01*
X-3686301Y7520025D01*
X-3688842Y7518095D01*
X-3690721Y7515758D01*
X-3692042Y7513116D01*
X-3692855Y7510170D01*
X-3693160Y7506919D01*
X-3693007Y7504531D01*
X-3692550Y7502245D01*
X-3691839Y7500112D01*
X-3690874Y7498029D01*
X-3689451Y7496098D01*
X-3687724Y7494371D01*
X-3685743Y7492898D01*
X-3683508Y7491679D01*
X-3680866Y7490663D01*
X-3677970Y7489952D01*
X-3674872Y7489494D01*
X-3668522Y7489494D01*
X-3665524Y7489799D01*
X-3659632Y7491171D01*
X-3656939Y7492136D01*
X-3654551Y7493304D01*
X-3652367Y7494676D01*
X-3650487Y7496251D01*
X-3654298Y7502855D01*
X-3655771Y7501483D01*
X-3659479Y7499197D01*
X-3661664Y7498283D01*
X-3666388Y7497114D01*
X-3671570Y7496759D01*
X-3674567Y7496911D01*
X-3677208Y7497368D01*
X-3679494Y7498181D01*
X-3681476Y7499299D01*
X-3683000Y7500823D01*
X-3684117Y7502601D01*
X-3684778Y7504633D01*
X-3685032Y7506919D01*
X-3684778Y7509052D01*
X-3684117Y7511034D01*
X-3683000Y7512761D01*
X-3681476Y7514285D01*
X-3679444Y7515402D01*
X-3677005Y7516164D01*
X-3674110Y7516672D01*
X-3666236Y7516825D01*
X-3666236Y7522667D01*
X-3680714Y7540193D01*
X-3653028Y7540193D01*
X-3653028Y7547305D01*
G37*
G36*
X-3910837Y7547305D02*
G01*
X-3910837Y7541717D01*
X-3895851Y7523175D01*
X-3899865Y7522565D01*
X-3903421Y7521498D01*
X-3906367Y7520025D01*
X-3908806Y7518095D01*
X-3910685Y7515758D01*
X-3912006Y7513116D01*
X-3912819Y7510170D01*
X-3913124Y7506919D01*
X-3912971Y7504531D01*
X-3912565Y7502245D01*
X-3910837Y7498029D01*
X-3909415Y7496098D01*
X-3907739Y7494371D01*
X-3905707Y7492898D01*
X-3903472Y7491679D01*
X-3900881Y7490663D01*
X-3898087Y7489952D01*
X-3894937Y7489494D01*
X-3888486Y7489494D01*
X-3885488Y7489799D01*
X-3879596Y7491171D01*
X-3876903Y7492136D01*
X-3874515Y7493304D01*
X-3872331Y7494676D01*
X-3870451Y7496251D01*
X-3874262Y7502855D01*
X-3875735Y7501483D01*
X-3879443Y7499197D01*
X-3881628Y7498283D01*
X-3886352Y7497114D01*
X-3891534Y7496759D01*
X-3894531Y7496911D01*
X-3897172Y7497368D01*
X-3899458Y7498181D01*
X-3901440Y7499299D01*
X-3902964Y7500823D01*
X-3904081Y7502601D01*
X-3904742Y7504633D01*
X-3904996Y7506919D01*
X-3904742Y7509052D01*
X-3904081Y7511034D01*
X-3902964Y7512761D01*
X-3901440Y7514285D01*
X-3899408Y7515402D01*
X-3896969Y7516164D01*
X-3894074Y7516672D01*
X-3886200Y7516825D01*
X-3886200Y7522667D01*
X-3900678Y7540193D01*
X-3872992Y7540193D01*
X-3872992Y7547305D01*
G37*
G36*
X-3961637Y7547305D02*
G01*
X-3961637Y7541717D01*
X-3938524Y7489901D01*
X-3929887Y7489901D01*
X-3952494Y7540193D01*
X-3926332Y7540193D01*
X-3926332Y7530033D01*
X-3918458Y7530033D01*
X-3918458Y7547305D01*
G37*
G36*
X-5549290Y8803690D02*
G01*
X-5519064Y8681262D01*
X-5509158Y8681262D01*
X-5539181Y8803690D01*
G37*
G36*
X-5326837Y8777528D02*
G01*
X-5332730Y8777173D01*
X-5338318Y8776004D01*
X-5343550Y8774074D01*
X-5348376Y8771432D01*
X-5352796Y8768080D01*
X-5356504Y8764117D01*
X-5359654Y8759596D01*
X-5362092Y8754414D01*
X-5350205Y8754414D01*
X-5348376Y8757564D01*
X-5346242Y8760307D01*
X-5343804Y8762746D01*
X-5341061Y8764828D01*
X-5337860Y8766505D01*
X-5334406Y8767673D01*
X-5330748Y8768384D01*
X-5326837Y8768638D01*
X-5322976Y8768384D01*
X-5319268Y8767673D01*
X-5315712Y8766505D01*
X-5312308Y8764828D01*
X-5309311Y8762746D01*
X-5306618Y8760256D01*
X-5304231Y8757412D01*
X-5302148Y8754160D01*
X-5300624Y8750604D01*
X-5299506Y8746794D01*
X-5298846Y8742730D01*
X-5298592Y8738412D01*
X-5298846Y8733993D01*
X-5299506Y8729827D01*
X-5300624Y8725966D01*
X-5302148Y8722410D01*
X-5304231Y8719261D01*
X-5306618Y8716518D01*
X-5309311Y8714079D01*
X-5312308Y8711996D01*
X-5315712Y8710422D01*
X-5319268Y8709304D01*
X-5322976Y8708644D01*
X-5326837Y8708440D01*
X-5332171Y8708847D01*
X-5337048Y8710117D01*
X-5341416Y8712149D01*
X-5345379Y8715044D01*
X-5348630Y8718651D01*
X-5351119Y8722868D01*
X-5352846Y8727643D01*
X-5353761Y8733078D01*
X-5323281Y8733078D01*
X-5323281Y8741460D01*
X-5364429Y8741460D01*
X-5364429Y8733586D01*
X-5363768Y8728964D01*
X-5362549Y8724595D01*
X-5360822Y8720328D01*
X-5358587Y8716314D01*
X-5355844Y8712606D01*
X-5352745Y8709253D01*
X-5349240Y8706358D01*
X-5345379Y8703868D01*
X-5341061Y8701887D01*
X-5336540Y8700465D01*
X-5331764Y8699601D01*
X-5326837Y8699296D01*
X-5321604Y8699601D01*
X-5316626Y8700566D01*
X-5311952Y8702141D01*
X-5307482Y8704376D01*
X-5303316Y8707170D01*
X-5299557Y8710422D01*
X-5296306Y8714130D01*
X-5293563Y8718346D01*
X-5291328Y8722918D01*
X-5289753Y8727795D01*
X-5288788Y8732977D01*
X-5288432Y8738412D01*
X-5288788Y8743848D01*
X-5289702Y8749030D01*
X-5291328Y8753906D01*
X-5293563Y8758478D01*
X-5296306Y8762796D01*
X-5299557Y8766556D01*
X-5303316Y8769756D01*
X-5307482Y8772448D01*
X-5311952Y8774684D01*
X-5316626Y8776258D01*
X-5321604Y8777224D01*
G37*
G36*
X-5729681Y8777528D02*
G01*
X-5734862Y8777224D01*
X-5739892Y8776258D01*
X-5744667Y8774684D01*
X-5749239Y8772448D01*
X-5753303Y8769756D01*
X-5756960Y8766606D01*
X-5760161Y8762898D01*
X-5762955Y8758732D01*
X-5765139Y8754008D01*
X-5766714Y8749080D01*
X-5767679Y8743899D01*
X-5767984Y8738412D01*
X-5757824Y8738412D01*
X-5757621Y8742832D01*
X-5756910Y8746998D01*
X-5755690Y8750858D01*
X-5754014Y8754414D01*
X-5752084Y8757666D01*
X-5749798Y8760510D01*
X-5747156Y8763000D01*
X-5744108Y8765082D01*
X-5740857Y8766759D01*
X-5737352Y8767927D01*
X-5733592Y8768638D01*
X-5729681Y8768892D01*
X-5725718Y8768638D01*
X-5721959Y8767927D01*
X-5718454Y8766759D01*
X-5715203Y8765082D01*
X-5712053Y8763000D01*
X-5709361Y8760510D01*
X-5706973Y8757666D01*
X-5704992Y8754414D01*
X-5703366Y8750858D01*
X-5702147Y8746998D01*
X-5701436Y8742832D01*
X-5701182Y8738412D01*
X-5701436Y8733993D01*
X-5702147Y8729827D01*
X-5703366Y8725966D01*
X-5704992Y8722410D01*
X-5706973Y8719058D01*
X-5709310Y8716213D01*
X-5712053Y8713724D01*
X-5715203Y8711742D01*
X-5718454Y8710066D01*
X-5721959Y8708898D01*
X-5725718Y8708186D01*
X-5729681Y8707932D01*
X-5733491Y8708186D01*
X-5737199Y8708898D01*
X-5740755Y8710066D01*
X-5744108Y8711742D01*
X-5747156Y8713724D01*
X-5749798Y8716162D01*
X-5752084Y8719058D01*
X-5754014Y8722410D01*
X-5755690Y8725966D01*
X-5756910Y8729827D01*
X-5757621Y8733993D01*
X-5757824Y8738412D01*
X-5767984Y8738412D01*
X-5767679Y8732875D01*
X-5766765Y8727643D01*
X-5765139Y8722715D01*
X-5762955Y8718092D01*
X-5760161Y8713876D01*
X-5756960Y8710168D01*
X-5753303Y8706916D01*
X-5749239Y8704122D01*
X-5744667Y8701989D01*
X-5739892Y8700516D01*
X-5734862Y8699601D01*
X-5729681Y8699296D01*
X-5724448Y8699601D01*
X-5719419Y8700516D01*
X-5714644Y8701989D01*
X-5710072Y8704122D01*
X-5705906Y8706916D01*
X-5702147Y8710168D01*
X-5698896Y8713876D01*
X-5696153Y8718092D01*
X-5693918Y8722766D01*
X-5692292Y8727744D01*
X-5691378Y8732977D01*
X-5691022Y8738412D01*
X-5691378Y8743848D01*
X-5692292Y8749030D01*
X-5693918Y8753906D01*
X-5696153Y8758478D01*
X-5698896Y8762796D01*
X-5702147Y8766556D01*
X-5705906Y8769756D01*
X-5710072Y8772448D01*
X-5714644Y8774684D01*
X-5719419Y8776258D01*
X-5724448Y8777224D01*
G37*
G36*
X-5930595Y8777528D02*
G01*
X-5936589Y8777173D01*
X-5942228Y8776055D01*
X-5947511Y8774226D01*
X-5952439Y8771686D01*
X-5956808Y8768334D01*
X-5960567Y8764320D01*
X-5963666Y8759698D01*
X-5966155Y8754414D01*
X-5954166Y8754414D01*
X-5952388Y8757666D01*
X-5950204Y8760510D01*
X-5947664Y8763000D01*
X-5944819Y8765082D01*
X-5941720Y8766759D01*
X-5938316Y8767927D01*
X-5934608Y8768638D01*
X-5930595Y8768892D01*
X-5926632Y8768638D01*
X-5922873Y8767927D01*
X-5919368Y8766759D01*
X-5916066Y8765082D01*
X-5913069Y8763000D01*
X-5910427Y8760510D01*
X-5908141Y8757666D01*
X-5906211Y8754414D01*
X-5904534Y8750858D01*
X-5903315Y8746998D01*
X-5902604Y8742832D01*
X-5902350Y8738412D01*
X-5902604Y8733993D01*
X-5903315Y8729827D01*
X-5904534Y8725966D01*
X-5906211Y8722410D01*
X-5908141Y8719159D01*
X-5910427Y8716314D01*
X-5913069Y8713825D01*
X-5916066Y8711742D01*
X-5919368Y8710066D01*
X-5922873Y8708898D01*
X-5926632Y8708186D01*
X-5930595Y8707932D01*
X-5934608Y8708186D01*
X-5938316Y8708898D01*
X-5941720Y8710066D01*
X-5944819Y8711742D01*
X-5947664Y8713724D01*
X-5950204Y8716162D01*
X-5952388Y8719058D01*
X-5954166Y8722410D01*
X-5966155Y8722410D01*
X-5963666Y8717178D01*
X-5960516Y8712555D01*
X-5956808Y8708644D01*
X-5952439Y8705392D01*
X-5947511Y8702700D01*
X-5942279Y8700820D01*
X-5936589Y8699703D01*
X-5930595Y8699296D01*
X-5925362Y8699601D01*
X-5920333Y8700566D01*
X-5915558Y8702141D01*
X-5911037Y8704376D01*
X-5906922Y8707170D01*
X-5903264Y8710422D01*
X-5900064Y8714130D01*
X-5897321Y8718346D01*
X-5895086Y8722918D01*
X-5893511Y8727795D01*
X-5892546Y8732977D01*
X-5892190Y8738412D01*
X-5892546Y8743848D01*
X-5893511Y8749030D01*
X-5895086Y8753906D01*
X-5897321Y8758478D01*
X-5900064Y8762796D01*
X-5903264Y8766606D01*
X-5906922Y8769908D01*
X-5911037Y8772702D01*
X-5915558Y8774836D01*
X-5920333Y8776309D01*
X-5925362Y8777224D01*
G37*
G36*
X-5205679Y8776766D02*
G01*
X-5205679Y8768638D01*
X-5184800Y8768638D01*
X-5184800Y8700058D01*
X-5174640Y8700058D01*
X-5174640Y8768638D01*
X-5153863Y8768638D01*
X-5153863Y8776766D01*
G37*
G36*
X-5416956Y8776766D02*
G01*
X-5416956Y8700058D01*
X-5407050Y8700058D01*
X-5407050Y8776766D01*
G37*
G36*
X-5457850Y8776766D02*
G01*
X-5463997Y8776462D01*
X-5469686Y8775547D01*
X-5474919Y8774074D01*
X-5479745Y8771940D01*
X-5484012Y8769400D01*
X-5487771Y8766352D01*
X-5491022Y8762796D01*
X-5493664Y8758732D01*
X-5495899Y8754110D01*
X-5497474Y8749131D01*
X-5498439Y8743848D01*
X-5498795Y8738158D01*
X-5488381Y8738158D01*
X-5486400Y8750858D01*
X-5480456Y8760510D01*
X-5470906Y8766606D01*
X-5457850Y8768638D01*
X-5444134Y8768638D01*
X-5444134Y8708186D01*
X-5457850Y8708186D01*
X-5471058Y8710168D01*
X-5480761Y8716060D01*
X-5484063Y8720378D01*
X-5486450Y8725509D01*
X-5487873Y8731453D01*
X-5488381Y8738158D01*
X-5498795Y8738158D01*
X-5498439Y8732520D01*
X-5497474Y8727236D01*
X-5495899Y8722360D01*
X-5493664Y8717838D01*
X-5491022Y8713774D01*
X-5487771Y8710218D01*
X-5484012Y8707170D01*
X-5479745Y8704630D01*
X-5474919Y8702649D01*
X-5469686Y8701227D01*
X-5463997Y8700363D01*
X-5457850Y8700058D01*
X-5433974Y8700058D01*
X-5433974Y8776766D01*
G37*
G36*
X-5588914Y8776766D02*
G01*
X-5595061Y8776360D01*
X-5600395Y8775192D01*
X-5604967Y8773210D01*
X-5608726Y8770416D01*
X-5611774Y8767013D01*
X-5613908Y8763203D01*
X-5615178Y8758885D01*
X-5615584Y8754160D01*
X-5605221Y8754160D01*
X-5601157Y8764828D01*
X-5588914Y8768384D01*
X-5574182Y8768384D01*
X-5574182Y8740190D01*
X-5588914Y8740190D01*
X-5592876Y8740394D01*
X-5596229Y8741105D01*
X-5599074Y8742172D01*
X-5601411Y8743746D01*
X-5603036Y8745829D01*
X-5604256Y8748268D01*
X-5604967Y8751011D01*
X-5605221Y8754160D01*
X-5615584Y8754160D01*
X-5615178Y8749639D01*
X-5613958Y8745524D01*
X-5611876Y8741765D01*
X-5609031Y8738412D01*
X-5605272Y8735618D01*
X-5600700Y8733637D01*
X-5595264Y8732469D01*
X-5588914Y8732062D01*
X-5574182Y8732062D01*
X-5574182Y8700058D01*
X-5564276Y8700058D01*
X-5564276Y8776766D01*
G37*
G36*
X-5652719Y8776766D02*
G01*
X-5656834Y8776563D01*
X-5660694Y8776004D01*
X-5664200Y8775039D01*
X-5667400Y8773718D01*
X-5670194Y8772093D01*
X-5672582Y8770162D01*
X-5674614Y8768029D01*
X-5676290Y8765590D01*
X-5677662Y8762949D01*
X-5678576Y8760206D01*
X-5679186Y8757259D01*
X-5679389Y8754160D01*
X-5668924Y8754160D01*
X-5668670Y8757361D01*
X-5667908Y8760206D01*
X-5666689Y8762593D01*
X-5664911Y8764574D01*
X-5662625Y8766251D01*
X-5659831Y8767419D01*
X-5656529Y8768130D01*
X-5652719Y8768384D01*
X-5637987Y8768384D01*
X-5637987Y8739428D01*
X-5652719Y8739428D01*
X-5656529Y8739682D01*
X-5659831Y8740444D01*
X-5662574Y8741714D01*
X-5664911Y8743492D01*
X-5666689Y8745575D01*
X-5667908Y8748064D01*
X-5668670Y8750909D01*
X-5668924Y8754160D01*
X-5679389Y8754160D01*
X-5679084Y8750350D01*
X-5678220Y8746744D01*
X-5676798Y8743340D01*
X-5674766Y8740190D01*
X-5672226Y8737396D01*
X-5669076Y8735110D01*
X-5665368Y8733332D01*
X-5661050Y8732062D01*
X-5680405Y8700058D01*
X-5668213Y8700058D01*
X-5650179Y8731300D01*
X-5637987Y8731300D01*
X-5637987Y8700058D01*
X-5628081Y8700058D01*
X-5628081Y8776766D01*
G37*
G36*
X-5819800Y8776766D02*
G01*
X-5819800Y8720124D01*
X-5819444Y8715552D01*
X-5818378Y8711488D01*
X-5816549Y8707932D01*
X-5813958Y8704884D01*
X-5810859Y8702446D01*
X-5807252Y8700719D01*
X-5803239Y8699652D01*
X-5798769Y8699296D01*
X-5794146Y8699652D01*
X-5790031Y8700719D01*
X-5786424Y8702446D01*
X-5783224Y8704884D01*
X-5780684Y8708085D01*
X-5778855Y8711793D01*
X-5777788Y8716060D01*
X-5777382Y8720886D01*
X-5787339Y8720886D01*
X-5787491Y8718143D01*
X-5788101Y8715705D01*
X-5789015Y8713571D01*
X-5790387Y8711742D01*
X-5791911Y8710168D01*
X-5793841Y8709101D01*
X-5796127Y8708390D01*
X-5798769Y8708186D01*
X-5801360Y8708390D01*
X-5803646Y8708999D01*
X-5805576Y8710066D01*
X-5807100Y8711488D01*
X-5808218Y8713266D01*
X-5809030Y8715298D01*
X-5809488Y8717584D01*
X-5809640Y8720124D01*
X-5809640Y8776766D01*
G37*
G36*
X-5880811Y8776766D02*
G01*
X-5880811Y8768638D01*
X-5849569Y8768638D01*
X-5849569Y8742984D01*
X-5877458Y8742984D01*
X-5877458Y8734602D01*
X-5849569Y8734602D01*
X-5849569Y8708186D01*
X-5880811Y8708186D01*
X-5880811Y8700058D01*
X-5839663Y8700058D01*
X-5839663Y8776766D01*
G37*
G36*
X-6028131Y8776766D02*
G01*
X-6028131Y8768638D01*
X-6007303Y8768638D01*
X-6007303Y8700058D01*
X-5997092Y8700058D01*
X-5997092Y8768638D01*
X-5976264Y8768638D01*
X-5976264Y8776766D01*
G37*
G36*
X-5252364Y8776258D02*
G01*
X-5270914Y8725204D01*
X-5260492Y8725204D01*
X-5246522Y8763812D01*
X-5232806Y8725204D01*
X-5270914Y8725204D01*
X-5280050Y8700058D01*
X-5269382Y8700058D01*
X-5263337Y8717076D01*
X-5229758Y8717076D01*
X-5223713Y8700058D01*
X-5213045Y8700058D01*
X-5240934Y8776258D01*
G37*
G36*
X-1024686Y8238032D02*
G01*
X-1028039Y8237880D01*
X-1031240Y8237474D01*
X-1037132Y8235746D01*
X-1039825Y8234476D01*
X-1042314Y8232952D01*
X-1044651Y8231174D01*
X-1046784Y8229142D01*
X-1041704Y8224062D01*
X-1038098Y8226958D01*
X-1034084Y8228990D01*
X-1029716Y8230260D01*
X-1024940Y8230666D01*
X-1021740Y8230463D01*
X-1018692Y8229955D01*
X-1015898Y8229092D01*
X-1013256Y8227872D01*
X-1010767Y8226298D01*
X-1008532Y8224520D01*
X-1006703Y8222386D01*
X-1005128Y8219998D01*
X-1003808Y8217357D01*
X-1002842Y8214614D01*
X-1002284Y8211667D01*
X-1002080Y8208568D01*
X-1002284Y8205571D01*
X-1002842Y8202726D01*
X-1003808Y8199983D01*
X-1005128Y8197392D01*
X-1006703Y8195005D01*
X-1008532Y8192871D01*
X-1010767Y8191042D01*
X-1013256Y8189518D01*
X-1015898Y8188299D01*
X-1018692Y8187436D01*
X-1021740Y8186877D01*
X-1024940Y8186724D01*
X-1028649Y8186928D01*
X-1032103Y8187588D01*
X-1035354Y8188706D01*
X-1038402Y8190280D01*
X-1038402Y8209076D01*
X-1046276Y8209076D01*
X-1046276Y8186724D01*
X-1041653Y8183524D01*
X-1036370Y8181136D01*
X-1033526Y8180324D01*
X-1027531Y8179460D01*
X-1024432Y8179358D01*
X-1020216Y8179562D01*
X-1016253Y8180324D01*
X-1012494Y8181492D01*
X-1008938Y8183168D01*
X-1005586Y8185251D01*
X-1002639Y8187690D01*
X-1000099Y8190433D01*
X-998016Y8193582D01*
X-996238Y8197088D01*
X-994968Y8200745D01*
X-994206Y8204555D01*
X-993952Y8208568D01*
X-994206Y8212632D01*
X-994968Y8216544D01*
X-996238Y8220252D01*
X-998016Y8223808D01*
X-1000099Y8226907D01*
X-1002639Y8229701D01*
X-1005586Y8232140D01*
X-1008938Y8234222D01*
X-1012494Y8235899D01*
X-1016304Y8237067D01*
X-1020368Y8237778D01*
G37*
G36*
X-1111300Y8237270D02*
G01*
X-1111300Y8179866D01*
X-1104442Y8179866D01*
X-1070152Y8222792D01*
X-1070152Y8179866D01*
X-1062024Y8179866D01*
X-1062024Y8237270D01*
X-1068628Y8237270D01*
X-1103172Y8194598D01*
X-1103172Y8237270D01*
G37*
G36*
X-1152702Y8237270D02*
G01*
X-1157122Y8237016D01*
X-1161338Y8236356D01*
X-1165250Y8235238D01*
X-1168958Y8233714D01*
X-1172210Y8231733D01*
X-1175105Y8229396D01*
X-1177645Y8226653D01*
X-1179880Y8223554D01*
X-1181557Y8220202D01*
X-1182725Y8216646D01*
X-1183436Y8212734D01*
X-1183690Y8208568D01*
X-1175562Y8208568D01*
X-1175359Y8211769D01*
X-1174800Y8214715D01*
X-1173835Y8217458D01*
X-1172514Y8219998D01*
X-1170940Y8222284D01*
X-1169060Y8224316D01*
X-1166876Y8226094D01*
X-1164386Y8227618D01*
X-1161643Y8228736D01*
X-1158646Y8229498D01*
X-1155547Y8230006D01*
X-1136700Y8230158D01*
X-1136700Y8187232D01*
X-1155547Y8187385D01*
X-1158646Y8187842D01*
X-1161643Y8188655D01*
X-1164386Y8189772D01*
X-1166876Y8191296D01*
X-1169060Y8193074D01*
X-1170940Y8195106D01*
X-1172514Y8197392D01*
X-1173835Y8199881D01*
X-1174800Y8202574D01*
X-1175359Y8205470D01*
X-1175562Y8208568D01*
X-1183690Y8208568D01*
X-1183436Y8204504D01*
X-1182725Y8200694D01*
X-1181557Y8197138D01*
X-1179880Y8193836D01*
X-1177645Y8190738D01*
X-1175105Y8187994D01*
X-1172210Y8185658D01*
X-1168958Y8183676D01*
X-1165250Y8182000D01*
X-1161338Y8180831D01*
X-1157122Y8180070D01*
X-1152702Y8179866D01*
X-1128572Y8179866D01*
X-1128572Y8237270D01*
G37*
G36*
X-2188464Y8237321D02*
G01*
X-2163318Y8179917D01*
X-2155190Y8179917D01*
X-2130044Y8237321D01*
X-2138680Y8237321D01*
X-2159508Y8190331D01*
X-2180336Y8237321D01*
G37*
G36*
X-2221484Y8237321D02*
G01*
X-2226157Y8237067D01*
X-2230221Y8236356D01*
X-2233777Y8235137D01*
X-2236724Y8233511D01*
X-2239060Y8231276D01*
X-2240737Y8228736D01*
X-2241702Y8225840D01*
X-2242058Y8222589D01*
X-2241988Y8221573D01*
X-2233930Y8221573D01*
X-2233676Y8223707D01*
X-2233015Y8225536D01*
X-2231898Y8227110D01*
X-2230374Y8228431D01*
X-2228545Y8229396D01*
X-2226310Y8230108D01*
X-2223719Y8230565D01*
X-2220722Y8230717D01*
X-2203958Y8230717D01*
X-2203958Y8212429D01*
X-2223719Y8212531D01*
X-2226310Y8212988D01*
X-2228545Y8213699D01*
X-2230374Y8214715D01*
X-2231898Y8215985D01*
X-2233015Y8217560D01*
X-2233676Y8219389D01*
X-2233930Y8221573D01*
X-2241988Y8221573D01*
X-2241550Y8218322D01*
X-2240026Y8214715D01*
X-2238908Y8213140D01*
X-2237587Y8211820D01*
X-2236114Y8210753D01*
X-2234438Y8209889D01*
X-2236724Y8208975D01*
X-2238806Y8207857D01*
X-2240686Y8206435D01*
X-2242312Y8204809D01*
X-2243531Y8202777D01*
X-2244394Y8200542D01*
X-2244902Y8198053D01*
X-2245047Y8196173D01*
X-2236724Y8196173D01*
X-2235860Y8200390D01*
X-2233218Y8203387D01*
X-2228850Y8205216D01*
X-2222754Y8205825D01*
X-2203958Y8205825D01*
X-2203958Y8186521D01*
X-2222754Y8186521D01*
X-2226056Y8186674D01*
X-2228951Y8187131D01*
X-2231390Y8187944D01*
X-2233422Y8189061D01*
X-2234844Y8190331D01*
X-2235911Y8191957D01*
X-2236520Y8193887D01*
X-2236724Y8196173D01*
X-2245047Y8196173D01*
X-2244750Y8191906D01*
X-2243683Y8188858D01*
X-2241956Y8186216D01*
X-2239518Y8183981D01*
X-2236419Y8182203D01*
X-2232660Y8180933D01*
X-2228291Y8180171D01*
X-2223262Y8179917D01*
X-2195830Y8179917D01*
X-2195830Y8237321D01*
G37*
G36*
X-2283206Y8237321D02*
G01*
X-2299759Y8200999D01*
X-2291588Y8200999D01*
X-2279142Y8228939D01*
X-2266696Y8200999D01*
X-2299759Y8200999D01*
X-2309368Y8179917D01*
X-2300732Y8179917D01*
X-2294382Y8194395D01*
X-2263902Y8194395D01*
X-2257552Y8179917D01*
X-2249170Y8179917D01*
X-2275078Y8237321D01*
G37*
G36*
X-2354072Y8237321D02*
G01*
X-2354072Y8230209D01*
X-2334514Y8230209D01*
X-2334514Y8179917D01*
X-2326386Y8179917D01*
X-2326386Y8230209D01*
X-2306828Y8230209D01*
X-2306828Y8237321D01*
G37*
G36*
X-3792118Y8817356D02*
G01*
X-3792118Y8811768D01*
X-3776979Y8793276D01*
X-3778453Y8793175D01*
X-3782669Y8792260D01*
X-3786174Y8790787D01*
X-3789070Y8788654D01*
X-3791407Y8786215D01*
X-3793083Y8783472D01*
X-3794048Y8780373D01*
X-3794404Y8776970D01*
X-3794251Y8774633D01*
X-3793744Y8772347D01*
X-3792982Y8770162D01*
X-3790543Y8766149D01*
X-3788918Y8764473D01*
X-3786987Y8763000D01*
X-3784752Y8761730D01*
X-3782161Y8760714D01*
X-3779265Y8760002D01*
X-3776065Y8759596D01*
X-3769563Y8759545D01*
X-3763721Y8760460D01*
X-3758082Y8762187D01*
X-3753408Y8764727D01*
X-3751478Y8766302D01*
X-3755288Y8772652D01*
X-3758539Y8770315D01*
X-3762654Y8768334D01*
X-3767429Y8767013D01*
X-3769918Y8766657D01*
X-3772560Y8766556D01*
X-3775557Y8766759D01*
X-3778199Y8767267D01*
X-3780485Y8768130D01*
X-3782466Y8769350D01*
X-3784041Y8770874D01*
X-3785108Y8772601D01*
X-3785819Y8774531D01*
X-3786022Y8776716D01*
X-3785819Y8778900D01*
X-3785209Y8780830D01*
X-3784142Y8782558D01*
X-3782720Y8784082D01*
X-3780688Y8785301D01*
X-3778199Y8786164D01*
X-3775252Y8786723D01*
X-3767226Y8786876D01*
X-3767226Y8792464D01*
X-3781602Y8810244D01*
X-3754018Y8810244D01*
X-3754018Y8817356D01*
G37*
G36*
X-3858412Y8817356D02*
G01*
X-3858412Y8811768D01*
X-3843274Y8793276D01*
X-3844747Y8793175D01*
X-3848963Y8792260D01*
X-3852468Y8790787D01*
X-3855364Y8788654D01*
X-3857701Y8786215D01*
X-3859377Y8783472D01*
X-3860342Y8780373D01*
X-3860698Y8776970D01*
X-3860546Y8774633D01*
X-3860037Y8772347D01*
X-3859276Y8770162D01*
X-3856837Y8766149D01*
X-3855212Y8764473D01*
X-3853281Y8763000D01*
X-3851046Y8761730D01*
X-3848455Y8760714D01*
X-3845560Y8760002D01*
X-3842359Y8759596D01*
X-3835857Y8759545D01*
X-3830015Y8760460D01*
X-3824376Y8762187D01*
X-3819702Y8764727D01*
X-3817772Y8766302D01*
X-3821582Y8772652D01*
X-3824833Y8770315D01*
X-3828948Y8768334D01*
X-3833825Y8767013D01*
X-3836314Y8766657D01*
X-3838854Y8766556D01*
X-3841851Y8766759D01*
X-3844493Y8767267D01*
X-3846779Y8768130D01*
X-3848760Y8769350D01*
X-3850335Y8770874D01*
X-3851401Y8772601D01*
X-3852113Y8774531D01*
X-3852316Y8776716D01*
X-3852113Y8778900D01*
X-3851503Y8780830D01*
X-3850436Y8782558D01*
X-3849014Y8784082D01*
X-3847084Y8785301D01*
X-3844696Y8786164D01*
X-3841750Y8786723D01*
X-3833774Y8786876D01*
X-3833774Y8792464D01*
X-3848150Y8810244D01*
X-3820566Y8810244D01*
X-3820566Y8817356D01*
G37*
G36*
X-3921912Y8817356D02*
G01*
X-3896766Y8759952D01*
X-3888638Y8759952D01*
X-3863492Y8817356D01*
X-3872382Y8817356D01*
X-3892956Y8770315D01*
X-3913784Y8817356D01*
G37*
G36*
X-3732428Y8806688D02*
G01*
X-3732428Y8791956D01*
X-3747160Y8791956D01*
X-3747160Y8785352D01*
X-3732428Y8785352D01*
X-3732428Y8770620D01*
X-3725316Y8770620D01*
X-3725316Y8785352D01*
X-3710584Y8785352D01*
X-3710584Y8791956D01*
X-3725316Y8791956D01*
X-3725316Y8806688D01*
G37*
G36*
X-3807358Y8770620D02*
G01*
X-3809441Y8770264D01*
X-3811168Y8769096D01*
X-3812286Y8767318D01*
X-3812692Y8765032D01*
X-3812286Y8762898D01*
X-3811168Y8760968D01*
X-3809441Y8759850D01*
X-3807358Y8759444D01*
X-3805174Y8759850D01*
X-3803294Y8760968D01*
X-3802126Y8762898D01*
X-3801770Y8765032D01*
X-3802126Y8767318D01*
X-3803294Y8769096D01*
X-3805174Y8770264D01*
G37*
D10*
X-3929992Y8789982D02*
G01*
X-3969989Y8789982D01*
X-3989994Y8769982D01*
X-3689992Y8789982D02*
G01*
X-3649990Y8789982D01*
X-3629997Y8769982D01*
X-4559993Y8789982D02*
G01*
X-4519990Y8789982D01*
X-4499998Y8769982D01*
X-4149996Y8789982D02*
G01*
X-4079999Y8789982D01*
X-4049991Y8759979D01*
X-4799992Y8789982D02*
G01*
X-4839990Y8789982D01*
X-4859995Y8769982D01*
X-4339996Y8789982D02*
G01*
X-4409988Y8789982D01*
X-4439996Y8759979D01*
D11*
X-8087006Y7873004D02*
G01*
X-7833006Y7873004D01*
X-7833006Y8127004D01*
X-8087006Y8127004D01*
X-8087006Y7936504D01*
D12*
X-8087006Y7873004D02*
G01*
X-8087006Y7936504D01*
D11*
X-2182004Y7868015D02*
G01*
X-1928004Y7868015D01*
X-1928004Y8122015D01*
X-2182004Y8122015D01*
X-2182004Y7931515D01*
D12*
X-2182004Y7868015D02*
G01*
X-2182004Y7931515D01*
D10*
X-7565006Y7273404D02*
G01*
X-7869806Y7273404D01*
X-7869806Y8746604D01*
X-7580007Y8746604D01*
X-7330059Y8746604D02*
G01*
X-6580759Y8746604D01*
X-6572793Y7273404D02*
G01*
X-7323706Y7273404D01*
D13*
X-6416177Y8288616D02*
G01*
X-6416075Y8598522D01*
G36*
X-6249974Y8649970D02*
G01*
X-4959985Y8649970D01*
X-4959985Y7459980D01*
X-6249974Y7459980D01*
G37*
M02*
